<svg width="42" height="42" viewBox="0 0 42 42" fill="none" xmlns="http://www.w3.org/2000/svg">
<path d="M39.0401 7.60405L36.6421 5.67405C35.4601 4.72405 34.7731 4.73505 33.7611 5.98505L16.3321 27.4941L8.22108 20.7551C7.10208 19.8151 6.40208 19.8651 5.48208 21.0151L3.63108 23.4251C2.69208 24.6071 2.81208 25.2781 3.92208 26.2051L15.4821 35.7671C16.6721 36.7671 17.3421 36.6641 18.2621 35.5451L39.3411 10.4841C40.3311 9.29405 40.2711 8.58305 39.0401 7.60405Z" fill="#B2AD99"/>
<path d="M38.0396 4.60393L35.6416 2.67393C34.4596 1.72393 33.7726 1.73493 32.7606 2.98493L15.3316 24.4939L7.22059 17.7549C6.10159 16.8149 5.4016 16.8649 4.4816 18.0149L2.6306 20.4249C1.6916 21.6069 1.8116 22.2779 2.9216 23.2049L14.4816 32.7669C15.6716 33.7669 16.3416 33.6639 17.2616 32.5449L38.3406 7.48393C39.3306 6.29393 39.2706 5.58293 38.0396 4.60393Z" fill="#FF8C00"/>
</svg>
