<svg width="150" height="150" viewBox="0 0 150 150" fill="none" xmlns="http://www.w3.org/2000/svg">
<path d="M58.2992 0C26.1044 0 0 26.1044 0 58.2995C0 90.4945 26.1044 116.599 58.2995 116.599C70.6797 116.599 82.1611 112.737 91.5988 106.16L91.6057 106.153L134.843 149.391C135.646 150.193 136.921 150.214 137.744 149.391L149.398 137.738C150.2 136.935 150.159 135.605 149.391 134.837L106.16 91.6057C112.737 82.1611 116.599 70.6795 116.599 58.2995C116.599 26.1044 90.4943 0 58.2992 0ZM58.2992 102.881C33.6762 102.881 13.7173 82.9225 13.7173 58.2995C13.7173 33.6765 33.6765 13.7176 58.2992 13.7176C82.922 13.7176 102.881 33.6765 102.881 58.2995C102.881 82.9225 82.9222 102.881 58.2992 102.881Z" fill="#FF007A"/>
</svg>
