<svg width="50" height="33" viewBox="0 0 50 33" fill="none" xmlns="http://www.w3.org/2000/svg">
<path d="M49.9542 31.9537C49.9814 31.8696 50 31.7808 50 31.6874V0.86954C50 0.775567 49.9814 0.686235 49.9536 0.601543C49.9495 0.589942 49.9472 0.578339 49.9426 0.566738C49.9055 0.467544 49.8509 0.378212 49.7825 0.299901C49.7779 0.294681 49.7773 0.2883 49.7726 0.283079C49.7697 0.280179 49.7663 0.279018 49.7634 0.276118C49.6903 0.198387 49.6039 0.135739 49.507 0.0887521C49.4995 0.0852717 49.4936 0.0806308 49.4861 0.0771503C49.3945 0.0359646 49.2947 0.0127619 49.1897 0.00580093C49.1793 0.00522085 49.1694 0.00289991 49.159 0.00289991C49.1491 0.00231983 49.1404 0 49.1306 0H0.870599C0.860739 0 0.851459 0.00231983 0.841598 0.00289991C0.832318 0.00347999 0.823038 0.00522085 0.813758 0.00580093C0.707615 0.0127619 0.606113 0.0365452 0.513311 0.0783109C0.507511 0.0806312 0.502871 0.0846914 0.497071 0.0870118C0.398469 0.133998 0.310887 0.197807 0.237225 0.276698C0.234325 0.279598 0.230845 0.280179 0.227945 0.283079C0.223305 0.28772 0.222725 0.294101 0.218085 0.299322C0.149643 0.377632 0.0945421 0.467544 0.0574212 0.566738C0.0527811 0.578339 0.0504611 0.589941 0.046401 0.602123C0.0185604 0.686815 0 0.776147 0 0.87012V31.6886C0 31.7837 0.0191403 31.8742 0.0475609 31.9601C0.051621 31.9717 0.0539411 31.9827 0.0580012 31.9943C0.095702 32.0941 0.151383 32.184 0.220405 32.2623C0.224465 32.2669 0.225625 32.2727 0.229685 32.2774C0.233165 32.2814 0.237805 32.2838 0.241865 32.2878C0.270286 32.3174 0.301606 32.3435 0.334087 32.369C0.348588 32.3801 0.361348 32.3934 0.376428 32.4038C0.414709 32.4305 0.45589 32.452 0.498231 32.4717C0.508671 32.4763 0.517951 32.4839 0.528391 32.4879C0.633374 32.5326 0.748796 32.5581 0.870019 32.5581H49.1294C49.2506 32.5581 49.366 32.5332 49.471 32.4879C49.4873 32.481 49.5023 32.4706 49.518 32.4624C49.554 32.4444 49.5899 32.4259 49.623 32.4033C49.6404 32.3911 49.6561 32.3754 49.6729 32.3621C49.7025 32.3383 49.7315 32.3145 49.757 32.2872C49.7616 32.2826 49.7668 32.2791 49.7715 32.2745C49.7761 32.2693 49.7773 32.2623 49.7819 32.2571C49.8498 32.1794 49.9043 32.09 49.9414 31.9914C49.9472 31.9786 49.9501 31.9665 49.9542 31.9537ZM1.74062 2.84297L16.3842 16.2202L1.74062 29.7041V2.84297ZM31.754 15.5647C31.6936 15.6041 31.6298 15.6372 31.5794 15.6929C31.5602 15.7138 31.5539 15.741 31.537 15.7631L25.0003 21.7344L3.11293 1.73966H46.8877L31.754 15.5647ZM17.6741 17.3983L24.4133 23.5547C24.5798 23.7067 24.7897 23.7827 25.0003 23.7827C25.2108 23.7827 25.4208 23.7067 25.5867 23.5547L32.2423 17.4749L46.8836 30.8179H3.10017L17.6741 17.3983ZM33.5329 16.2962L48.26 2.84297V29.7181L33.5329 16.2962Z" fill="#FF8C00"/>
</svg>
