<svg width="108" height="153" viewBox="0 0 108 153" fill="none" xmlns="http://www.w3.org/2000/svg">
<path d="M100.262 79.8438C104.498 71.8261 106.641 62.8723 106.493 53.8097C106.344 44.7471 103.909 35.868 99.4113 27.9929C95.1889 20.4209 89.122 14.0326 81.7711 9.41827C74.4202 4.80395 66.0223 2.1124 57.3533 1.59225H57.3475C55.1156 1.46925 52.8786 1.46925 50.6467 1.59225C41.9777 2.1124 33.5798 4.80395 26.2289 9.41827C18.8779 14.0326 12.8111 20.4209 8.58873 27.9929C4.09136 35.868 1.65586 44.7471 1.50724 53.8097C1.35861 62.8723 3.50166 71.8261 7.73839 79.8438L26.9382 116.24V130.499C26.9446 136.067 29.1642 141.405 33.1101 145.342C37.056 149.279 42.4059 151.494 47.9863 151.5H60.0137C65.5941 151.494 70.944 149.279 74.8899 145.342C78.8358 141.405 81.0554 136.067 81.0618 130.499V116.24L100.262 79.8438ZM32.9519 127.499V118.499H75.0481V127.499H32.9519ZM13.8243 30.9432C17.5101 24.2121 22.8589 18.5327 29.363 14.444C35.8671 10.3552 43.3107 7.99292 50.9871 7.5813C52.9921 7.47 55.0018 7.47 57.0069 7.5813C64.6843 7.99206 72.129 10.354 78.6343 14.4427C85.1395 18.5315 90.4893 24.2114 94.1757 30.9432C98.1756 37.9452 100.342 45.84 100.476 53.8983C100.61 61.9567 98.7061 69.9187 94.9407 77.049L76.2403 112.499H57.0069V87.4463C58.5983 87.6802 60.2037 87.8066 61.8121 87.8246C64.4074 87.9488 67.0014 87.5535 69.4412 86.6622C71.881 85.7708 74.1174 84.4014 76.0187 82.6345C85.4302 73.441 81.9955 55.6638 81.8445 54.9102C81.7685 54.5232 81.6164 54.155 81.397 53.8269C81.1776 53.4988 80.8953 53.2173 80.5664 52.9986C80.2374 52.7798 79.8683 52.6283 79.4804 52.5526C79.0925 52.4769 78.6933 52.4786 78.306 52.5575C65.3789 55.1376 57.7499 67.3686 54 75.5498C50.2501 67.3686 42.6211 55.1361 29.694 52.5575C29.3067 52.4789 28.9076 52.4774 28.5198 52.5532C28.132 52.629 27.763 52.7806 27.4341 52.9993C27.1052 53.218 26.8229 53.4994 26.6035 53.8273C26.384 54.1553 26.2318 54.5233 26.1555 54.9102C26.0051 55.6632 22.5704 73.441 31.9813 82.6345C33.8825 84.4015 36.1189 85.771 38.5587 86.6624C40.9986 87.5537 43.5926 87.9489 46.1878 87.8246C47.7963 87.8065 49.4017 87.6802 50.9931 87.4463V112.499H31.7597L13.0593 77.049C9.29393 69.9187 7.39015 61.9567 7.52385 53.8983C7.65754 45.84 9.82441 37.9452 13.8243 30.9432ZM57.9952 81.5578C60.2693 75.6836 66.1378 63.3143 76.3973 59.3416C76.8952 64.823 76.5693 73.6973 71.8121 78.3468C68.7833 81.2982 64.1455 82.381 57.9952 81.5578ZM50.0024 81.5578C43.8711 82.384 39.2242 81.303 36.1969 78.3555C31.1315 73.4188 31.1727 64.2401 31.6205 59.3473C41.8682 63.3278 47.7295 75.6881 50.0024 81.5578ZM60.0137 145.5H47.9863C44.5222 145.495 41.1657 144.299 38.4824 142.113C35.7992 139.927 33.9533 136.885 33.2559 133.5H74.7441C74.0467 136.885 72.2008 139.927 69.5176 142.113C66.8343 144.299 63.4778 145.495 60.0137 145.5Z" fill="#FFDE00" stroke="#FFDE00" stroke-width="3"/>
</svg>
