<svg width="44" height="44" viewBox="0 0 44 44" fill="none" xmlns="http://www.w3.org/2000/svg">
<g clip-path="url(#clip0_186_8068)">
<path d="M22 0C9.8 0 0 9.8 0 22C0 34.2 9.8 44 22 44C34.2 44 44 34.2 44 22C44 9.8 34.2 0 22 0ZM34 31C34 31.6 33.6 32 33 32H11C10.4 32 10 31.6 10 31V29C10 28.4 10.4 28 11 28H33C33.6 28 34 28.4 34 29V31ZM34 23C34 23.6 33.6 24 33 24H11C10.4 24 10 23.6 10 23V21C10 20.4 10.4 20 11 20H33C33.6 20 34 20.4 34 21V23ZM34 15C34 15.6 33.6 16 33 16H11C10.4 16 10 15.6 10 15V13C10 12.4 10.4 12 11 12H33C33.6 12 34 12.4 34 13V15Z" fill="#FF8C00"/>
</g>
<defs>
<clipPath id="clip0_186_8068">
<rect width="44" height="44" fill="white"/>
</clipPath>
</defs>
</svg>
