<svg width="100" height="100" viewBox="0 0 100 100" fill="none" xmlns="http://www.w3.org/2000/svg">
<path d="M37.5001 78.125C37.0888 78.1273 36.6811 78.0485 36.3003 77.893C35.9196 77.7375 35.5733 77.5083 35.2813 77.2187C34.9884 76.9282 34.7559 76.5826 34.5973 76.2018C34.4386 75.821 34.3569 75.4125 34.3569 75C34.3569 74.5874 34.4386 74.179 34.5973 73.7982C34.7559 73.4174 34.9884 73.0717 35.2813 72.7812L58.0938 50L35.2813 27.2187C34.6929 26.6303 34.3623 25.8322 34.3623 25C34.3623 24.5879 34.4434 24.1799 34.6011 23.7992C34.7588 23.4185 34.9899 23.0726 35.2813 22.7812C35.5727 22.4898 35.9186 22.2587 36.2993 22.101C36.68 21.9433 37.088 21.8622 37.5001 21.8622C38.3322 21.8622 39.1304 22.1928 39.7188 22.7812L64.7188 47.7812C65.0117 48.0717 65.2442 48.4174 65.4028 48.7982C65.5615 49.179 65.6432 49.5874 65.6432 50C65.6432 50.4125 65.5615 50.821 65.4028 51.2018C65.2442 51.5826 65.0117 51.9282 64.7188 52.2187L39.7188 77.2187C39.4268 77.5083 39.0805 77.7375 38.6998 77.893C38.319 78.0485 37.9113 78.1273 37.5001 78.125Z" fill="#FF8C00"/>
</svg>
