<svg width="100" height="100" viewBox="0 0 100 100" fill="none" xmlns="http://www.w3.org/2000/svg">
<path d="M62.4999 78.125C62.9112 78.1273 63.3189 78.0485 63.6997 77.893C64.0804 77.7375 64.4267 77.5083 64.7187 77.2187C65.0116 76.9282 65.2441 76.5826 65.4027 76.2018C65.5614 75.821 65.6431 75.4125 65.6431 75C65.6431 74.5874 65.5614 74.179 65.4027 73.7982C65.2441 73.4174 65.0116 73.0717 64.7187 72.7812L41.9062 50L64.7187 27.2187C65.3071 26.6303 65.6377 25.8322 65.6377 25C65.6377 24.5879 65.5566 24.1799 65.3989 23.7992C65.2412 23.4185 65.0101 23.0726 64.7187 22.7812C64.4273 22.4898 64.0814 22.2587 63.7007 22.101C63.32 21.9433 62.912 21.8622 62.4999 21.8622C61.6678 21.8622 60.8696 22.1928 60.2812 22.7812L35.2812 47.7812C34.9883 48.0717 34.7558 48.4174 34.5972 48.7982C34.4385 49.179 34.3568 49.5874 34.3568 50C34.3568 50.4125 34.4385 50.821 34.5972 51.2018C34.7558 51.5826 34.9883 51.9282 35.2812 52.2187L60.2812 77.2187C60.5732 77.5083 60.9195 77.7375 61.3002 77.893C61.681 78.0485 62.0887 78.1273 62.4999 78.125Z" fill="#FF8C00"/>
</svg>
