<svg width="57" height="57" viewBox="0 0 57 57" fill="none" xmlns="http://www.w3.org/2000/svg">
<circle cx="28.5" cy="28.5" r="27.5" fill="#F4F2F9" stroke="#33CE40" stroke-width="2"/>
<path d="M47.0401 14.604L44.6421 12.674C43.4601 11.724 42.7731 11.735 41.7611 12.985L24.3321 34.494L16.2211 27.755C15.1021 26.815 14.4021 26.865 13.4821 28.015L11.6311 30.425C10.6921 31.607 10.8121 32.278 11.9221 33.205L23.4821 42.767C24.6721 43.767 25.3421 43.664 26.2621 42.545L47.3411 17.484C48.3311 16.294 48.2711 15.583 47.0401 14.604Z" fill="#B2AD99"/>
<path d="M46.0396 11.6039L43.6416 9.67393C42.4596 8.72393 41.7726 8.73493 40.7606 9.98493L23.3316 31.4939L15.2206 24.7549C14.1016 23.8149 13.4016 23.8649 12.4816 25.0149L10.6306 27.4249C9.6916 28.6069 9.8116 29.2779 10.9216 30.2049L22.4816 39.7669C23.6716 40.7669 24.3416 40.6639 25.2616 39.5449L46.3406 14.4839C47.3306 13.2939 47.2706 12.5829 46.0396 11.6039Z" fill="#33CE40"/>
</svg>
