<svg width="150" height="150" viewBox="0 0 150 150" fill="none" xmlns="http://www.w3.org/2000/svg">
<path d="M75 150C60.1664 150 45.6659 145.601 33.3323 137.36C20.9986 129.119 11.3856 117.406 5.70907 103.701C0.0324963 89.9968 -1.45275 74.9168 1.44114 60.3682C4.33503 45.8197 11.4781 32.456 21.967 21.967C32.456 11.4781 45.8197 4.33503 60.3682 1.44114C74.9168 -1.45275 89.9968 0.0324963 103.701 5.70907C117.406 11.3856 129.119 20.9986 137.36 33.3323C145.601 45.6659 150 60.1664 150 75C150 94.8913 142.098 113.968 128.033 128.033C113.968 142.098 94.8913 150 75 150ZM75 11.5385C62.4485 11.5385 50.1789 15.2604 39.7427 22.2337C29.3065 29.2069 21.1725 39.1183 16.3692 50.7143C11.566 62.3104 10.3092 75.0704 12.7579 87.3807C15.2066 99.6911 21.2507 110.999 30.1259 119.874C39.0012 128.749 50.309 134.793 62.6193 137.242C74.9296 139.691 87.6896 138.434 99.2857 133.631C110.882 128.828 120.793 120.694 127.766 110.257C134.74 99.8212 138.462 87.5515 138.462 75C138.462 58.169 131.775 42.0273 119.874 30.1259C107.973 18.2246 91.8311 11.5385 75 11.5385Z" fill="#7A5FFF"/>
<path d="M106.731 112.5C105.972 112.504 105.219 112.359 104.516 112.072C103.813 111.785 103.174 111.362 102.635 110.827L70.9041 79.0961C70.3694 78.557 69.9464 77.9177 69.6593 77.2148C69.3722 76.5119 69.2267 75.7592 69.2311 75V28.8461C69.2311 27.316 69.8389 25.8486 70.9208 24.7667C72.0028 23.6847 73.4702 23.0769 75.0003 23.0769C76.5304 23.0769 77.9978 23.6847 79.0797 24.7667C80.1617 25.8486 80.7695 27.316 80.7695 28.8461V72.6346L110.827 102.635C111.368 103.171 111.797 103.809 112.09 104.512C112.383 105.215 112.534 105.969 112.534 106.731C112.534 107.492 112.383 108.246 112.09 108.949C111.797 109.652 111.368 110.291 110.827 110.827C110.288 111.362 109.649 111.785 108.946 112.072C108.243 112.359 107.49 112.504 106.731 112.5Z" fill="#7A5FFF"/>
</svg>
