<svg width="53" height="53" viewBox="0 0 53 53" fill="none" xmlns="http://www.w3.org/2000/svg">
<path d="M51.582 25.3561C51.582 38.8078 40.5937 49.7122 27.0365 49.7122C22.7326 49.7122 18.6893 48.6122 15.1715 46.6817L1.58203 51L6.01259 37.9322C3.77759 34.2622 2.49036 29.9578 2.49036 25.3561C2.49036 11.9044 13.4798 1 27.0365 1C40.5948 1 51.582 11.9044 51.582 25.3561ZM27.0365 4.87889C15.6565 4.87889 6.39981 14.065 6.39981 25.3561C6.39981 29.8367 7.86036 33.9861 10.3309 37.3617L7.75259 44.9667L15.6831 42.4461C18.9415 44.5856 22.8448 45.8333 27.037 45.8333C38.4154 45.8333 47.6737 36.6483 47.6737 25.3572C47.6737 14.0661 38.4159 4.87889 27.0365 4.87889ZM39.4315 30.9656C39.2798 30.7172 38.8793 30.5672 38.2781 30.2689C37.6759 29.9706 34.717 28.5256 34.167 28.3272C33.6154 28.1283 33.2131 28.0283 32.8126 28.6256C32.412 29.2233 31.2587 30.5672 30.907 30.9656C30.5559 31.365 30.2054 31.415 29.6031 31.1161C29.002 30.8178 27.0637 30.1867 24.7654 28.1533C22.977 26.5711 21.7693 24.6178 21.4181 24.0194C21.0676 23.4222 21.3815 23.0994 21.682 22.8022C21.9531 22.5344 22.2843 22.105 22.5848 21.7567C22.8865 21.4078 22.9865 21.1594 23.1859 20.7606C23.3876 20.3622 23.287 20.0139 23.1359 19.7144C22.9859 19.4161 21.7815 16.4783 21.2804 15.2828C20.7793 14.0883 20.2787 14.2872 19.927 14.2872C19.5765 14.2872 19.1748 14.2372 18.7737 14.2372C18.3726 14.2372 17.7204 14.3867 17.1687 14.9839C16.6176 15.5817 15.0637 17.0261 15.0637 19.9633C15.0637 22.9011 17.2187 25.7394 17.5204 26.1372C17.8209 26.535 21.6815 32.7594 27.7981 35.15C33.9154 37.5394 33.9154 36.7422 35.0187 36.6422C36.1209 36.5428 38.5776 35.1983 39.0809 33.805C39.5809 32.4094 39.5809 31.2144 39.4315 30.9656Z" stroke="#FF8C00" stroke-width="2"/>
</svg>
