<svg width="150" height="150" viewBox="0 0 150 150" fill="none" xmlns="http://www.w3.org/2000/svg">
<g clip-path="url(#clip0_61_86)">
<path d="M112.5 65.625V46.875L101.25 43.125C100.312 40.3125 99.375 36.5625 97.5 33.75L103.125 22.5L89.0625 10.3125L78.75 15C75.9375 13.125 73.125 12.1875 69.375 11.25L65.625 0H46.875L43.125 11.25C40.3125 12.1875 36.5625 13.125 33.75 15L23.4375 10.3125L10.3125 23.4375L15.9375 34.6875C14.0625 37.5 13.125 40.3125 12.1875 44.0625L0 46.875V65.625L11.25 69.375C12.1875 72.1875 13.125 75.9375 15 78.75L10.3125 89.0625L23.4375 102.188L34.6875 96.5625C37.5 98.4375 40.3125 99.375 44.0625 100.312L46.875 112.5H65.625L69.375 101.25C72.1875 100.312 75.9375 99.375 78.75 97.5L90 103.125L103.125 90L97.5 78.75C99.375 75.9375 100.312 73.125 101.25 69.375L112.5 65.625ZM28.125 56.25C28.125 40.3125 40.3125 28.125 56.25 28.125C72.1875 28.125 84.375 40.3125 84.375 56.25C84.375 72.1875 72.1875 84.375 56.25 84.375C40.3125 84.375 28.125 72.1875 28.125 56.25Z" fill="#FF8C00"/>
<path d="M70.3125 56.25C70.3125 64.0125 64.0125 70.3125 56.25 70.3125C48.4875 70.3125 42.1875 64.0125 42.1875 56.25C42.1875 48.4875 48.4875 42.1875 56.25 42.1875C64.0125 42.1875 70.3125 48.4875 70.3125 56.25Z" fill="#FF8C00"/>
<path d="M150 28.125V18.75H144.375C144.375 16.875 143.438 15 142.5 14.0625L146.25 10.3125L139.687 3.75L135.938 7.5C134.062 6.5625 133.125 5.625 131.25 5.625V0H121.875V5.625C120 5.625 118.125 6.5625 117.188 7.5L113.438 3.75L106.875 10.3125L110.625 14.0625C109.688 15.9375 108.75 16.875 108.75 18.75H103.125V28.125H108.75C108.75 30 109.688 31.875 110.625 32.8125L106.875 36.5625L113.438 43.125L117.188 39.375C119.062 40.3125 120 41.25 121.875 41.25V46.875H131.25V41.25C133.125 41.25 135 40.3125 135.938 39.375L139.687 43.125L146.25 36.5625L142.5 32.8125C143.438 30.9375 144.375 30 144.375 28.125H150ZM126.562 32.8125C120.938 32.8125 117.188 29.0625 117.188 23.4375C117.188 17.8125 120.938 14.0625 126.562 14.0625C132.188 14.0625 135.938 17.8125 135.938 23.4375C135.938 29.0625 132.188 32.8125 126.562 32.8125Z" fill="#FF8C00"/>
<path d="M144.375 110.625C143.437 107.813 142.5 105 140.625 102.187L143.438 96.5625L136.875 90L132.188 93.75C129.375 91.875 126.562 90.9375 123.75 90L121.875 84.375H112.5L110.625 90C107.813 90.9375 105 91.875 102.187 93.75L96.5625 90.9375L90 97.5L92.8125 103.125C90.9375 105.938 90 108.75 89.0625 111.562L84.375 112.5V121.875L90 123.75C90.9375 126.562 91.875 129.375 93.75 132.188L90.9375 137.812L97.5 144.375L103.125 141.563C105.938 143.438 108.75 144.375 111.562 145.312L112.5 150H121.875L123.75 144.375C126.562 143.437 129.375 142.5 132.188 140.625L137.812 143.438L144.375 136.875L140.625 132.188C142.5 129.375 143.437 126.562 144.375 123.75L150 121.875V112.5L144.375 110.625ZM117.188 131.25C109.688 131.25 103.125 124.688 103.125 117.188C103.125 109.688 109.688 103.125 117.188 103.125C124.688 103.125 131.25 109.688 131.25 117.188C131.25 124.688 124.688 131.25 117.188 131.25Z" fill="#FF8C00"/>
</g>
<defs>
<clipPath id="clip0_61_86">
<rect width="150" height="150" fill="white"/>
</clipPath>
</defs>
</svg>
