<svg width="150" height="150" viewBox="0 0 150 150" fill="none" xmlns="http://www.w3.org/2000/svg">
<path d="M112.5 103.125C111.405 103.127 110.343 102.746 109.5 102.047L88.3125 84.375H79.6875C69.7419 84.375 60.2036 80.4241 53.171 73.3915C46.1384 66.3589 42.1875 56.8206 42.1875 46.875C42.1875 36.9294 46.1384 27.3911 53.171 20.3585C60.2036 13.3259 69.7419 9.375 79.6875 9.375H107.812C116.921 9.40101 125.709 12.7413 132.535 18.7721C139.361 24.803 143.758 33.1121 144.906 42.1479C146.054 51.1838 143.875 60.3286 138.774 67.875C133.673 75.4213 126 80.8531 117.188 83.1562V98.4375C117.19 99.3341 116.935 100.212 116.453 100.969C115.971 101.725 115.282 102.327 114.469 102.703C113.851 102.985 113.179 103.129 112.5 103.125ZM79.6875 18.75C72.2283 18.75 65.0746 21.7132 59.8001 26.9876C54.5257 32.2621 51.5625 39.4158 51.5625 46.875C51.5625 54.3342 54.5257 61.4879 59.8001 66.7624C65.0746 72.0368 72.2283 75 79.6875 75H90C91.0952 74.9979 92.1567 75.3793 93 76.0781L107.812 88.4062V79.3125C107.801 78.1751 108.204 77.0724 108.946 76.2099C109.687 75.3475 110.717 74.7842 111.844 74.625C118.771 73.4898 125.023 69.8051 129.372 64.295C133.721 58.785 135.852 51.8477 135.347 44.8464C134.842 37.845 131.737 31.2855 126.642 26.4568C121.547 21.6281 114.831 18.8791 107.812 18.75H79.6875Z" fill="#00FFD1"/>
<path d="M98.4375 42.1875H89.0625V51.5625H98.4375V42.1875Z" fill="#00FFD1"/>
<path d="M75 42.1875H65.625V51.5625H75V42.1875Z" fill="#00FFD1"/>
<path d="M121.875 42.1875H112.5V51.5625H121.875V42.1875Z" fill="#00FFD1"/>
<path d="M37.4999 140.625C36.8208 140.629 36.1491 140.485 35.5312 140.203C34.7175 139.827 34.0289 139.225 33.547 138.469C33.0651 137.713 32.8102 136.834 32.8124 135.938V120.656C25.354 118.669 18.6904 114.429 13.7311 108.515C8.77181 102.6 5.7584 95.2993 5.10213 87.6087C4.44586 79.918 6.17872 72.2122 10.0642 65.543C13.9497 58.8737 19.7985 53.5658 26.8124 50.3438C27.3785 50.0455 27.9997 49.8662 28.6377 49.8171C29.2758 49.7679 29.9171 49.8499 30.5222 50.058C31.1273 50.2662 31.6834 50.596 32.1563 51.0271C32.6291 51.4583 33.0086 51.9818 33.2715 52.5652C33.5343 53.1486 33.675 53.7797 33.6847 54.4195C33.6944 55.0594 33.573 55.6944 33.328 56.2855C33.083 56.8767 32.7195 57.4114 32.26 57.8568C31.8005 58.3021 31.2547 58.6486 30.6562 58.875C25.1246 61.3831 20.5535 65.6145 17.6265 70.9363C14.6996 76.2581 13.574 82.3845 14.4182 88.3991C15.2624 94.4138 18.0309 99.9936 22.3097 104.304C26.5886 108.615 32.1479 111.424 38.1562 112.313C39.2825 112.472 40.3124 113.035 41.0541 113.897C41.7958 114.76 42.1986 115.863 42.1874 117V126.094L56.9999 113.766C57.8165 112.999 58.8808 112.55 59.9999 112.5H70.3124C74.0663 112.507 77.7829 111.755 81.2386 110.289C84.6944 108.823 87.8181 106.673 90.4218 103.969C91.292 103.074 92.4822 102.561 93.7305 102.543C94.3486 102.535 94.9623 102.648 95.5367 102.876C96.1111 103.105 96.6348 103.444 97.078 103.875C97.5212 104.306 97.8752 104.82 98.1198 105.388C98.3644 105.955 98.4948 106.566 98.5035 107.184C98.5122 107.802 98.399 108.416 98.1705 108.99C97.9421 109.564 97.6027 110.088 97.1718 110.531C93.6789 114.12 89.5028 116.972 84.8897 118.92C80.2766 120.869 75.32 121.873 70.3124 121.875H61.6874L40.4999 139.547C39.6566 140.246 38.5951 140.627 37.4999 140.625Z" fill="#00FFD1"/>
</svg>
