<svg width="150" height="150" viewBox="0 0 150 150" fill="none" xmlns="http://www.w3.org/2000/svg">
<path d="M75.147 3.69141C75.9734 3.73245 76.7574 4.07916 77.3452 4.66699C77.9723 5.29406 78.3247 6.14443 78.3247 7.03125V18.75C78.3247 19.6368 77.9723 20.4872 77.3452 21.1143C76.7181 21.7413 75.8678 22.0938 74.981 22.0938C74.0941 22.0938 73.2438 21.7413 72.6167 21.1143C71.9896 20.4872 71.6372 19.6368 71.6372 18.75V7.03125C71.6372 6.14443 71.9896 5.29406 72.6167 4.66699C73.2438 4.03992 74.0941 3.6875 74.981 3.6875L75.147 3.69141Z" fill="#FFDE00" stroke="#FFDE00" stroke-width="2"/>
<path d="M28.582 22.9017C29.0245 22.9046 29.462 22.9952 29.8691 23.1683C30.2724 23.3399 30.6382 23.5893 30.9453 23.9017L39.2344 32.1849H39.2334C39.5469 32.4916 39.7972 32.8568 39.9697 33.2601C40.144 33.6677 40.2359 34.1059 40.2393 34.5492C40.2426 34.9926 40.1574 35.4329 39.9893 35.8431C39.8212 36.2532 39.5731 36.6255 39.2598 36.9388C38.9462 37.2524 38.5734 37.5012 38.1631 37.6693C37.7529 37.8373 37.3134 37.9217 36.8701 37.9183C36.4268 37.9149 35.9887 37.8231 35.5811 37.6488C35.1783 37.4766 34.8132 37.2273 34.5068 36.9144L26.2178 28.6312V28.6302C25.9051 28.323 25.655 27.9575 25.4834 27.5541C25.3102 27.1469 25.2196 26.7094 25.2168 26.267C25.214 25.8245 25.2988 25.3854 25.4668 24.976C25.6349 24.5664 25.8833 24.1942 26.1963 23.8812C26.5093 23.5682 26.8815 23.3198 27.291 23.1517C27.7004 22.9837 28.1395 22.8989 28.582 22.9017Z" fill="#FFDE00" stroke="#FFDE00" stroke-width="2"/>
<path d="M21.2583 69.3324C21.6411 69.3512 22.0172 69.4358 22.3716 69.5824C22.7772 69.7503 23.146 69.9967 23.4565 70.307C23.7671 70.6174 24.014 70.9863 24.1821 71.392C24.3502 71.7975 24.4369 72.2322 24.437 72.6713C24.4371 73.1104 24.3501 73.5458 24.1821 73.9515C24.0142 74.357 23.7688 74.7261 23.4585 75.0365C23.1481 75.347 22.7791 75.593 22.3735 75.7611C21.968 75.9292 21.5332 76.0158 21.0942 76.016L9.37646 76.0209C8.48965 76.0211 7.63846 75.6693 7.01123 75.0424C6.38408 74.4155 6.03205 73.5648 6.03174 72.6781C6.03152 71.7913 6.38334 70.9401 7.01025 70.3129C7.63714 69.6857 8.48775 69.3336 9.37451 69.3334L21.0933 69.3285L21.2583 69.3324Z" fill="#FFDE00" stroke="#FFDE00" stroke-width="2"/>
<path d="M113.129 107.394C113.573 107.397 114.011 107.489 114.418 107.663C114.821 107.836 115.187 108.085 115.494 108.399L123.773 116.673L123.889 116.791C124.152 117.074 124.364 117.402 124.516 117.758C124.689 118.165 124.78 118.603 124.783 119.046C124.785 119.489 124.701 119.928 124.533 120.337C124.365 120.747 124.116 121.118 123.803 121.431C123.49 121.744 123.118 121.992 122.708 122.16C122.299 122.328 121.86 122.413 121.417 122.41C120.975 122.408 120.538 122.317 120.13 122.144C119.727 121.972 119.361 121.723 119.054 121.41L110.765 113.127V113.126C110.452 112.82 110.202 112.455 110.03 112.052C109.855 111.644 109.764 111.206 109.76 110.763C109.757 110.32 109.842 109.88 110.01 109.47C110.178 109.06 110.426 108.687 110.74 108.373C111.053 108.06 111.426 107.812 111.836 107.644C112.247 107.476 112.686 107.39 113.129 107.394Z" fill="#FFDE00" stroke="#FFDE00" stroke-width="2"/>
<path d="M36.8701 107.394C37.3134 107.39 37.7528 107.476 38.1631 107.644C38.5734 107.812 38.9462 108.06 39.2598 108.373C39.5733 108.687 39.8211 109.06 39.9893 109.47C40.1573 109.88 40.2426 110.32 40.2393 110.763C40.2359 111.206 40.144 111.644 39.9697 112.052C39.7973 112.455 39.5467 112.82 39.2334 113.126L39.2344 113.127L30.9541 121.401C30.6451 121.718 30.2765 121.971 29.8691 122.144C29.462 122.317 29.0245 122.408 28.582 122.41C28.1395 122.413 27.7004 122.328 27.291 122.16C26.8815 121.992 26.5093 121.744 26.1963 121.431C25.8834 121.118 25.6349 120.747 25.4668 120.337C25.2987 119.928 25.214 119.489 25.2168 119.046C25.2196 118.604 25.3101 118.165 25.4834 117.758C25.6567 117.351 25.9096 116.982 26.2266 116.673L34.4951 108.409C34.8038 108.091 35.1734 107.838 35.5811 107.663C35.9887 107.489 36.4268 107.397 36.8701 107.394Z" fill="#FFDE00" stroke="#FFDE00" stroke-width="2"/>
<path d="M140.791 69.2958C141.617 69.3366 142.402 69.6823 142.991 70.2704C143.618 70.8973 143.97 71.7479 143.97 72.6346C143.97 73.5215 143.619 74.3726 142.992 74.9999C142.365 75.627 141.514 75.9791 140.627 75.9794L128.908 75.9843C128.021 75.9845 127.17 75.6327 126.542 75.0057C125.915 74.3789 125.563 73.5282 125.563 72.6415C125.563 71.7547 125.915 70.9035 126.542 70.2762C127.168 69.6491 128.019 69.297 128.906 69.2968L140.625 69.2919L140.791 69.2958Z" fill="#FFDE00" stroke="#FFDE00" stroke-width="2"/>
<path d="M121.389 22.8923C122.276 22.8921 123.127 23.244 123.754 23.8708C124.381 24.4977 124.734 25.3483 124.734 26.2351C124.735 27.1221 124.382 27.9729 123.755 28.6003L115.471 36.8904C115.16 37.2014 114.792 37.4488 114.386 37.6169C113.98 37.7849 113.545 37.8702 113.105 37.8699V37.8708H113.104V37.8699C112.443 37.8697 111.797 37.6743 111.247 37.3074C110.697 36.9402 110.269 36.4181 110.016 35.8074C109.762 35.1964 109.696 34.5234 109.825 33.8748C109.954 33.2262 110.273 32.6305 110.74 32.1628H110.739L119.023 23.8728C119.65 23.2454 120.502 22.8926 121.389 22.8923Z" fill="#FFDE00" stroke="#FFDE00" stroke-width="2"/>
<path d="M111.059 89.3325C114.362 83.0688 116.032 76.0738 115.916 68.9939C115.8 61.9139 113.902 54.9773 110.397 48.825C107.105 42.9095 102.376 37.9188 96.6466 34.3139C90.9169 30.7091 84.371 28.6064 77.6138 28.2H77.6093C75.8696 28.1039 74.126 28.1039 72.3863 28.2C65.629 28.6064 59.0832 30.7091 53.3534 34.3139C47.6236 37.9188 42.8947 42.9095 39.6035 48.825C36.098 54.9773 34.1996 61.9139 34.0838 68.9939C33.9679 76.0738 35.6384 83.0688 38.9407 89.3325L53.9063 117.766V128.906C53.9113 133.256 55.6414 137.426 58.7171 140.502C61.7928 143.577 65.9629 145.307 70.3125 145.312H79.6875C84.0372 145.307 88.2073 143.577 91.2829 140.502C94.3586 137.426 96.0887 133.256 96.0938 128.906V117.766L111.059 89.3325ZM58.5938 126.562V119.531H91.4063V126.562H58.5938ZM43.6845 51.1298C46.5574 45.8713 50.7266 41.4344 55.7964 38.2401C60.8661 35.0459 66.6681 33.2004 72.6516 32.8788C74.2144 32.7919 75.7809 32.7919 77.3438 32.8788C83.328 33.1997 89.131 35.0449 94.2016 38.2392C99.2722 41.4334 103.442 45.8708 106.316 51.1298C109.433 56.6 111.122 62.7677 111.227 69.0631C111.331 75.3585 109.847 81.5787 106.912 87.1491L92.3356 114.844H77.3438V95.2718C78.5842 95.4545 79.8356 95.5533 81.0893 95.5673C83.1122 95.6643 85.1341 95.3556 87.0359 94.6592C88.9377 93.9629 90.6809 92.893 92.1628 91.5127C99.4988 84.3305 96.8215 70.4423 96.7039 69.8536C96.6446 69.5512 96.526 69.2636 96.355 69.0073C96.184 68.751 95.964 68.531 95.7076 68.3602C95.4512 68.1893 95.1635 68.0709 94.8611 68.0118C94.5587 67.9526 94.2476 67.9539 93.9457 68.0156C83.8695 70.0313 77.9229 79.5865 75 85.9779C72.0771 79.5865 66.1306 70.0301 56.0543 68.0156C55.7525 67.9542 55.4414 67.953 55.1391 68.0122C54.8368 68.0715 54.5492 68.1899 54.2928 68.3607C54.0365 68.5316 53.8165 68.7514 53.6454 69.0076C53.4744 69.2638 53.3557 69.5513 53.2962 69.8536C53.179 70.4419 50.5017 84.3305 57.8372 91.5127C59.3191 92.8931 61.0623 93.963 62.9641 94.6594C64.8659 95.3557 66.8878 95.6644 68.9107 95.5673C70.1645 95.5532 71.4158 95.4545 72.6563 95.2718V114.844H57.6645L43.0882 87.1491C40.1532 81.5787 38.6693 75.3585 38.7735 69.0631C38.8777 62.7677 40.5667 56.6 43.6845 51.1298ZM78.1142 90.6715C79.8867 86.0824 84.461 76.4191 92.4579 73.3155C92.846 77.5978 92.592 84.5306 88.8839 88.163C86.5231 90.4688 82.9081 91.3146 78.1142 90.6715ZM71.884 90.6715C67.1049 91.317 63.4828 90.4725 61.1231 88.1698C57.1749 84.3131 57.207 77.1424 57.556 73.32C65.5437 76.4297 70.1124 86.0859 71.884 90.6715ZM79.6875 140.625H70.3125C67.6124 140.621 64.9961 139.687 62.9046 137.979C60.8131 136.271 59.3743 133.895 58.8307 131.25H91.1693C90.6257 133.895 89.1869 136.271 87.0954 137.979C85.0039 139.687 82.3876 140.621 79.6875 140.625Z" fill="#FFDE00" stroke="#FFDE00" stroke-width="3"/>
</svg>
