<svg width="150" height="150" viewBox="0 0 150 150" fill="none" xmlns="http://www.w3.org/2000/svg">
<path fill-rule="evenodd" clip-rule="evenodd" d="M80.2844 32.5711C77.8319 28.6877 72.1681 28.6877 69.7156 32.5711L17.3947 115.413C14.7663 119.574 17.7568 125 22.6791 125H127.321C132.243 125 135.234 119.574 132.605 115.413L80.2844 32.5711ZM59.1471 25.8962C66.505 14.246 83.495 14.2461 90.8531 25.8962L143.174 108.738C151.059 121.223 142.087 137.5 127.321 137.5H22.6791C7.91237 137.5 -1.05916 121.223 6.82612 108.738L59.1471 25.8962ZM81.25 106.25C81.25 109.702 78.4519 112.5 75 112.5C71.5481 112.5 68.75 109.702 68.75 106.25C68.75 102.798 71.5481 100 75 100C78.4519 100 81.25 102.798 81.25 106.25ZM66.8381 63.5276L71.3613 90.6676C71.6575 92.4463 73.1969 93.7501 75 93.7501C76.8031 93.7501 78.3425 92.4463 78.6388 90.6676L83.1619 63.5276C83.7969 59.718 80.8594 56.2501 76.9969 56.2501H73.0031C69.1406 56.2501 66.2031 59.718 66.8381 63.5276Z" fill="#FF007A"/>
</svg>
