<svg width="188" height="110" viewBox="0 0 188 110" fill="none" xmlns="http://www.w3.org/2000/svg">
<path d="M41.3887 0C50.2887 0 58.1889 2.15019 65.0889 6.4502C72.0888 10.7502 77.5889 16.9498 81.5889 25.0498C85.5889 33.1498 87.5889 42.9997 87.5889 54.5996C87.5889 66.1995 85.5888 76.0494 81.5889 84.1494C77.5889 92.2494 72.0889 98.45 65.0889 102.75C58.1889 107.05 50.2885 109.2 41.3887 109.2C32.3888 109.2 24.3886 107.05 17.3887 102.75C10.4888 98.45 5.03903 92.2493 1.03906 84.1494C0.676021 83.4142 0.330091 82.6644 0 81.9004V27.2979C0.329986 26.5341 0.676149 25.7847 1.03906 25.0498C5.03897 16.95 10.4889 10.7502 17.3887 6.4502C24.3886 2.15026 32.3888 6.62316e-05 41.3887 0ZM153.524 0C159.424 0 165.075 0.699619 170.475 2.09961C175.975 3.39961 180.625 5.24942 184.425 7.64941L173.625 28.9502C170.625 26.8502 167.475 25.45 164.175 24.75C160.975 23.95 157.674 23.5498 154.274 23.5498C146.175 23.5498 139.674 25.9995 134.774 30.8994C130.754 35.0039 128.417 40.6874 127.765 47.9492C127.801 47.9161 127.838 47.8825 127.875 47.8496C130.775 45.3498 134.174 43.4494 138.074 42.1494C142.074 40.8494 146.525 40.2002 151.425 40.2002C158.025 40.2002 164.025 41.5994 169.425 44.3994C174.925 47.0994 179.325 50.9502 182.625 55.9502C185.925 60.8501 187.574 66.6499 187.574 73.3496C187.574 80.6496 185.724 86.9994 182.024 92.3994C178.324 97.6994 173.375 101.85 167.175 104.85C160.975 107.75 154.024 109.2 146.324 109.2C136.524 109.2 127.975 107.25 120.675 103.35C113.475 99.4497 107.825 93.65 103.725 85.9502C99.7247 78.2503 97.7247 68.75 97.7246 57.4502C97.7246 45.2502 100.074 34.8994 104.774 26.3994C109.574 17.7995 116.125 11.25 124.425 6.75C132.825 2.25004 142.525 2.99443e-05 153.524 0ZM144.375 61.5C141.475 61.5 138.925 62.0494 136.725 63.1494C134.625 64.2494 132.925 65.7999 131.625 67.7998C130.425 69.7998 129.824 72.1497 129.824 74.8496C129.824 77.4496 130.425 79.75 131.625 81.75C132.825 83.6498 134.525 85.1995 136.725 86.3994C138.925 87.4994 141.525 88.0498 144.524 88.0498C147.324 88.0498 149.775 87.4994 151.875 86.3994C154.075 85.2995 155.775 83.7498 156.975 81.75C158.175 79.7501 158.774 77.4 158.774 74.7002C158.774 70.7002 157.425 67.4996 154.725 65.0996C152.125 62.6997 148.675 61.5001 144.375 61.5ZM41.3887 24.2998C38.1888 24.2999 35.3388 25.2999 32.8389 27.2998C30.439 29.2998 28.4892 32.4997 26.9893 36.8994C25.5893 41.2994 24.8887 47.1997 24.8887 54.5996C24.8887 61.8996 25.5893 67.7998 26.9893 72.2998C28.4892 76.6996 30.439 79.8994 32.8389 81.8994C35.3388 83.8993 38.1888 84.8993 41.3887 84.8994C44.5887 84.8994 47.3891 83.8994 49.7891 81.8994C52.289 79.8994 54.2387 76.6996 55.6387 72.2998C57.0387 67.7998 57.7393 61.8996 57.7393 54.5996C57.7393 47.1997 57.0387 41.2994 55.6387 36.8994C54.2387 32.4996 52.289 29.2997 49.7891 27.2998C47.3891 25.2998 44.5887 24.2998 41.3887 24.2998Z" fill="#F4F2E9"/>
</svg>
