<svg width="179" height="110" viewBox="0 0 179 110" fill="none" xmlns="http://www.w3.org/2000/svg">
<path d="M42.4502 0C51.3501 3.08617e-05 59.2504 2.15022 66.1504 6.4502C73.1502 10.7502 78.6505 16.95 82.6504 25.0498C86.6503 33.1497 88.6504 42.9998 88.6504 54.5996C88.6504 66.1994 86.6503 76.0495 82.6504 84.1494C78.6504 92.2494 73.1503 98.45 66.1504 102.75C59.2504 107.05 51.3501 109.2 42.4502 109.2C33.4503 109.2 25.4501 107.05 18.4502 102.75C11.5502 98.45 6.09961 92.2494 2.09961 84.1494C1.32423 82.5792 0.625068 80.9429 0 79.2412V29.958C0.625074 28.2563 1.32423 26.62 2.09961 25.0498C6.0996 16.9498 11.5502 10.7502 18.4502 6.4502C25.4502 2.15019 33.4502 0 42.4502 0ZM172.921 20.7002L151.277 44.0693C158.139 45.4339 163.704 47.9928 167.971 51.75C174.771 57.55 178.171 65.0501 178.171 74.25C178.171 80.2499 176.521 85.9003 173.221 91.2002C170.021 96.5 165.071 100.85 158.371 104.25C151.671 107.55 143.021 109.2 132.421 109.2C125.121 109.2 117.821 108.3 110.521 106.5C103.321 104.7 97.021 102.15 91.6211 98.8496L102.421 76.5C106.621 79.2999 111.271 81.4502 116.371 82.9502C121.571 84.4501 126.621 85.2002 131.521 85.2002C136.621 85.2002 140.671 84.2496 143.671 82.3496C146.671 80.4497 148.171 77.7498 148.171 74.25C148.171 71.15 146.921 68.6994 144.421 66.8994C141.921 64.9995 137.821 64.0498 132.121 64.0498H119.671V45.2998L138.425 25.0498H97.0205V2.09961H172.921V20.7002ZM42.4502 24.2998C39.2503 24.2998 36.4003 25.2999 33.9004 27.2998C31.5004 29.2998 29.5498 32.4995 28.0498 36.8994C26.6498 41.2994 25.9502 47.1997 25.9502 54.5996C25.9502 61.8996 26.6498 67.7998 28.0498 72.2998C29.5498 76.6998 31.5004 79.8994 33.9004 81.8994C36.4004 83.8994 39.2502 84.8994 42.4502 84.8994C45.6501 84.8994 48.4497 83.8993 50.8496 81.8994C53.3496 79.8994 55.3002 76.6998 56.7002 72.2998C58.1002 67.7998 58.7998 61.8996 58.7998 54.5996C58.7998 47.1997 58.1002 41.2994 56.7002 36.8994C55.3002 32.4995 53.3496 29.2998 50.8496 27.2998C48.4497 25.2999 45.65 24.2998 42.4502 24.2998Z" fill="#F4F2E9"/>
</svg>
