<svg width="179" height="110" viewBox="0 0 179 110" fill="none" xmlns="http://www.w3.org/2000/svg">
<path d="M42.4502 0C51.3501 3.08617e-05 59.2504 2.15022 66.1504 6.4502C73.1502 10.7502 78.6505 16.95 82.6504 25.0498C86.6503 33.1497 88.6504 42.9998 88.6504 54.5996C88.6504 66.1994 86.6503 76.0495 82.6504 84.1494C78.6504 92.2494 73.1503 98.45 66.1504 102.75C59.2504 107.05 51.3501 109.2 42.4502 109.2C33.4503 109.2 25.4501 107.05 18.4502 102.75C11.5502 98.45 6.09961 92.2494 2.09961 84.1494C1.32423 82.5792 0.625068 80.9429 0 79.2412V29.958C0.625074 28.2563 1.32423 26.62 2.09961 25.0498C6.0996 16.9498 11.5502 10.7502 18.4502 6.4502C25.4502 2.15019 33.4502 0 42.4502 0ZM135.26 0C143.36 0 150.461 1.29941 156.561 3.89941C162.66 6.49941 167.411 10.2001 170.811 15C174.31 19.7999 176.061 25.4504 176.061 31.9502C176.061 35.35 175.61 38.7497 174.71 42.1494C173.81 45.4494 172.06 48.9998 169.46 52.7998C166.96 56.4998 163.21 60.6501 158.21 65.25L138.385 83.5498H178.91V107.1H97.1602V88.5L136.46 51.75C139.26 49.15 141.31 46.8496 142.61 44.8496C144.01 42.8498 144.911 41.0501 145.311 39.4502C145.811 37.7502 146.061 36.1998 146.061 34.7998C146.061 31.3998 144.91 28.7496 142.61 26.8496C140.41 24.9497 137.06 24.0001 132.561 24C128.761 24 125.21 24.8498 121.91 26.5498C118.61 28.2498 115.911 30.8002 113.811 34.2002L91.7598 21.8994C95.6597 15.2995 101.31 9.99997 108.71 6C116.11 2.00005 124.96 5.07489e-05 135.26 0ZM42.4502 24.2998C39.2503 24.2998 36.4003 25.2999 33.9004 27.2998C31.5004 29.2998 29.5498 32.4995 28.0498 36.8994C26.6498 41.2994 25.9502 47.1997 25.9502 54.5996C25.9502 61.8996 26.6498 67.7998 28.0498 72.2998C29.5498 76.6998 31.5004 79.8994 33.9004 81.8994C36.4004 83.8994 39.2502 84.8994 42.4502 84.8994C45.6501 84.8994 48.4497 83.8993 50.8496 81.8994C53.3496 79.8994 55.3002 76.6998 56.7002 72.2998C58.1002 67.7998 58.7998 61.8996 58.7998 54.5996C58.7998 47.1997 58.1002 41.2994 56.7002 36.8994C55.3002 32.4995 53.3496 29.2998 50.8496 27.2998C48.4497 25.2999 45.65 24.2998 42.4502 24.2998Z" fill="#F4F2E9"/>
</svg>
