<svg width="182" height="110" viewBox="0 0 182 110" fill="none" xmlns="http://www.w3.org/2000/svg">
<path d="M42.4502 0C51.3501 3.08617e-05 59.2504 2.15022 66.1504 6.4502C73.1502 10.7502 78.6505 16.95 82.6504 25.0498C86.6503 33.1497 88.6504 42.9998 88.6504 54.5996C88.6504 66.1994 86.6503 76.0495 82.6504 84.1494C78.6504 92.2494 73.1503 98.45 66.1504 102.75C59.2504 107.05 51.3501 109.2 42.4502 109.2C33.4503 109.2 25.4501 107.05 18.4502 102.75C11.5502 98.45 6.09961 92.2494 2.09961 84.1494C1.32423 82.5792 0.625068 80.9429 0 79.2412V29.958C0.625074 28.2563 1.32423 26.62 2.09961 25.0498C6.0996 16.9498 11.5502 10.7502 18.4502 6.4502C25.4502 2.15019 33.4502 0 42.4502 0ZM174.686 25.0498H132.348L131.073 40.3496H138.086C148.486 40.3496 156.836 41.8496 163.136 44.8496C169.436 47.7496 174.036 51.7002 176.936 56.7002C179.835 61.6001 181.285 67.1498 181.285 73.3496C181.285 79.5495 179.636 85.3995 176.336 90.8994C173.136 96.2994 168.185 100.7 161.485 104.1C154.785 107.5 146.135 109.2 135.535 109.2C128.335 109.2 121.085 108.3 113.785 106.5C106.485 104.7 100.186 102.15 94.8857 98.8496L105.535 76.5C109.835 79.3 114.485 81.4502 119.485 82.9502C124.585 84.4502 129.636 85.2002 134.636 85.2002C139.636 85.2002 143.685 84.2495 146.785 82.3496C149.885 80.3496 151.436 77.5996 151.436 74.0996C151.436 71.9997 150.836 70.1497 149.636 68.5498C148.436 66.8498 146.385 65.5998 143.485 64.7998C140.585 63.8998 136.435 63.4502 131.035 63.4502H102.535L107.785 2.09961H174.686V25.0498ZM42.4502 24.2998C39.2503 24.2998 36.4003 25.2999 33.9004 27.2998C31.5004 29.2998 29.5498 32.4995 28.0498 36.8994C26.6498 41.2994 25.9502 47.1997 25.9502 54.5996C25.9502 61.8996 26.6498 67.7998 28.0498 72.2998C29.5498 76.6998 31.5004 79.8994 33.9004 81.8994C36.4004 83.8994 39.2502 84.8994 42.4502 84.8994C45.6501 84.8994 48.4497 83.8993 50.8496 81.8994C53.3496 79.8994 55.3002 76.6998 56.7002 72.2998C58.1002 67.7998 58.7998 61.8996 58.7998 54.5996C58.7998 47.1997 58.1002 41.2994 56.7002 36.8994C55.3002 32.4995 53.3496 29.2998 50.8496 27.2998C48.4497 25.2999 45.65 24.2998 42.4502 24.2998Z" fill="#F4F2E9"/>
</svg>
