<svg width="183" height="110" viewBox="0 0 183 110" fill="none" xmlns="http://www.w3.org/2000/svg">
<path d="M41.54 0C50.44 5.98039e-06 58.3402 2.1502 65.2402 6.4502C72.2401 10.7502 77.7403 16.95 81.7402 25.0498C85.7402 33.1498 87.7402 42.9997 87.7402 54.5996C87.7402 66.1994 85.7401 76.0495 81.7402 84.1494C77.7402 92.2494 72.2402 98.45 65.2402 102.75C58.3402 107.05 50.44 109.2 41.54 109.2C32.5401 109.2 24.54 107.05 17.54 102.75C10.64 98.45 5.19043 92.2494 1.19043 84.1494C0.771143 83.3004 0.375336 82.4315 0 81.5439V27.6543C0.37522 26.7671 0.77129 25.8986 1.19043 25.0498C5.19039 16.9499 10.6402 10.7502 17.54 6.4502C24.54 2.15019 32.54 0 41.54 0ZM182.933 20.7002L145.883 107.1H113.482L148.946 25.6494H121.282V41.8496H95.9326V2.09961H182.933V20.7002ZM41.54 24.2998C38.3401 24.2998 35.4902 25.2999 32.9902 27.2998C30.5903 29.2998 28.6396 32.4995 27.1396 36.8994C25.7397 41.2994 25.04 47.1997 25.04 54.5996C25.04 61.8996 25.7397 67.7998 27.1396 72.2998C28.6396 76.6998 30.5902 79.8994 32.9902 81.8994C35.4902 83.8994 38.34 84.8994 41.54 84.8994C44.74 84.8994 47.5404 83.8994 49.9404 81.8994C52.4402 79.8994 54.3901 76.6995 55.79 72.2998C57.19 67.7998 57.8896 61.8996 57.8896 54.5996C57.8896 47.1997 57.19 41.2994 55.79 36.8994C54.3901 32.4997 52.4402 29.2998 49.9404 27.2998C47.5404 25.2998 44.74 24.2998 41.54 24.2998Z" fill="#F4F2E9"/>
</svg>
