<svg width="197" height="110" viewBox="0 0 197 110" fill="none" xmlns="http://www.w3.org/2000/svg">
<path d="M41.3887 0C50.2887 0 58.1889 2.15019 65.0889 6.4502C72.0888 10.7502 77.5889 16.9498 81.5889 25.0498C85.5889 33.1498 87.5889 42.9997 87.5889 54.5996C87.5889 66.1995 85.5888 76.0494 81.5889 84.1494C77.5889 92.2494 72.0889 98.45 65.0889 102.75C58.1889 107.05 50.2885 109.2 41.3887 109.2C32.3888 109.2 24.3886 107.05 17.3887 102.75C10.4888 98.45 5.03903 92.2493 1.03906 84.1494C0.676021 83.4142 0.330091 82.6644 0 81.9004V27.2979C0.329986 26.5341 0.676149 25.7847 1.03906 25.0498C5.03897 16.95 10.4889 10.7502 17.3887 6.4502C24.3886 2.15026 32.3888 6.62316e-05 41.3887 0ZM131.705 63.4502H153.074V45.5996H181.125V63.4502H196.725V87H181.125V107.1H152.175V87H96.6748V67.6494L143.774 2.09961H174.524L131.705 63.4502ZM41.3887 24.2998C38.1888 24.2999 35.3388 25.2999 32.8389 27.2998C30.439 29.2998 28.4892 32.4997 26.9893 36.8994C25.5893 41.2994 24.8887 47.1997 24.8887 54.5996C24.8887 61.8996 25.5893 67.7998 26.9893 72.2998C28.4892 76.6996 30.439 79.8994 32.8389 81.8994C35.3388 83.8993 38.1888 84.8993 41.3887 84.8994C44.5887 84.8994 47.3891 83.8994 49.7891 81.8994C52.289 79.8994 54.2387 76.6996 55.6387 72.2998C57.0387 67.7998 57.7393 61.8996 57.7393 54.5996C57.7393 47.1997 57.0387 41.2994 55.6387 36.8994C54.2387 32.4996 52.289 29.2997 49.7891 27.2998C47.3891 25.2998 44.5887 24.2998 41.3887 24.2998Z" fill="#F4F2E9"/>
</svg>
