<svg width="1436" height="298" viewBox="0 0 1436 298" fill="none" xmlns="http://www.w3.org/2000/svg">
<path d="M330.194 0C342.097 0 358.165 6.09902 371.319 12.2471C377.883 15.3146 383.697 18.3823 387.871 20.6836C389.958 21.8341 391.633 22.7932 392.787 23.4639C393.364 23.7991 393.81 24.0629 394.112 24.2422C394.263 24.3317 394.378 24.4002 394.455 24.4463C394.479 24.4605 394.499 24.4725 394.516 24.4824L568.336 200.523L568.708 200.9L569.062 200.507L690.536 65.9766L832.478 153.8L832.839 154.023L833.118 153.703L909.755 65.6865C915.064 60.9248 919.516 57.5558 923.291 55.71C927.068 53.8633 930.077 53.5827 932.576 54.8418C935.104 56.1155 937.256 59.0324 939.132 63.9365C941.002 68.8266 942.565 75.6 943.979 84.4482C946.809 102.147 948.938 123.548 950.359 140.53C951.07 149.02 951.602 156.404 951.958 161.664C952.136 164.294 952.269 166.393 952.358 167.835C952.403 168.556 952.437 169.112 952.459 169.488C952.47 169.676 952.478 169.819 952.483 169.915C952.486 169.963 952.489 169.999 952.49 170.023C952.491 170.035 952.491 170.045 952.491 170.051C952.491 170.054 952.492 170.056 952.492 170.058V170.06L952.494 170.101L952.503 170.14C956.552 188.495 962.049 199.82 970.859 206.79C979.662 213.754 991.682 216.298 1008.58 217.328L1008.59 217.329H1436V298H-4V0H330.194Z" fill="#FFDE00"/>
</svg>
