<svg width="1440" height="651" viewBox="0 0 1440 651" fill="none" xmlns="http://www.w3.org/2000/svg">
<path d="M1439.89 650.974H944.384L944.371 650.973C924.835 649.925 910.961 647.339 900.803 640.271C890.624 633.187 884.262 621.667 879.575 602.979L879.564 602.934L879.562 602.889L880.061 602.856L879.562 602.888V602.887C879.561 602.885 879.561 602.882 879.561 602.88C879.56 602.874 879.559 602.863 879.559 602.852C879.557 602.827 879.555 602.789 879.552 602.741C879.545 602.644 879.535 602.498 879.522 602.308C879.497 601.925 879.459 601.358 879.407 600.625C879.304 599.158 879.149 597.021 878.943 594.346C878.532 588.993 877.915 581.481 877.094 572.843C875.45 555.563 872.988 533.789 869.715 515.782C868.079 506.781 866.272 499.891 864.109 494.919C861.944 489.941 859.455 486.959 856.501 485.65C853.559 484.347 850.028 484.648 845.646 486.533C841.267 488.417 836.11 491.849 829.971 496.692L741.309 586.26L741.044 586.526L740.714 586.347L576.427 496.938L435.846 633.884L435.512 634.208L435.164 633.898L234.081 454.767C234.061 454.756 234.034 454.742 234.002 454.726C233.913 454.679 233.78 454.608 233.605 454.517C233.256 454.334 232.739 454.066 232.071 453.725C230.736 453.042 228.796 452.066 226.382 450.896C221.552 448.553 214.824 445.43 207.229 442.308C192.014 436.053 173.403 429.836 159.601 429.836H0V-2.94922H1439.89V650.974Z" fill="#FDFCF5"/>
<path opacity="0.9" d="M243.42 270.2C254.753 270.2 265.087 272 274.42 275.6C283.887 279.2 292.087 284.333 299.021 291C305.954 297.533 311.354 305.2 315.221 314C319.221 322.8 321.221 332.467 321.221 343C321.221 353.533 319.221 363.267 315.221 372.2C311.354 381 305.954 388.667 299.021 395.2C292.087 401.734 283.887 406.8 274.42 410.4C265.087 414 254.753 415.8 243.42 415.8C232.22 415.8 221.886 414 212.42 410.4C202.953 406.8 194.687 401.733 187.62 395.2C180.687 388.534 175.287 380.8 171.42 372C167.553 363.2 165.62 353.533 165.62 343C165.62 332.467 167.553 322.8 171.42 314C175.287 305.2 180.687 297.533 187.62 291C194.687 284.333 202.953 279.2 212.42 275.6C221.886 272 232.22 270.2 243.42 270.2ZM698.693 270.2C710.027 270.2 720.36 272 729.693 275.6C739.16 279.2 747.361 284.333 754.294 291C761.227 297.533 766.627 305.2 770.494 314C774.494 322.8 776.494 332.467 776.494 343C776.494 353.533 774.494 363.267 770.494 372.2C766.627 381 761.227 388.667 754.294 395.2C747.361 401.734 739.16 406.8 729.693 410.4C720.36 414 710.027 415.8 698.693 415.8C687.494 415.8 677.16 414 667.693 410.4C658.227 406.8 649.96 401.733 642.894 395.2C635.96 388.534 630.56 380.8 626.693 372C622.827 363.2 620.894 353.533 620.894 343C620.894 332.467 622.827 322.8 626.693 314C630.56 305.2 635.96 297.533 642.894 291C649.96 284.333 658.227 279.2 667.693 275.6C677.16 272 687.494 270.2 698.693 270.2ZM63.8789 353.887L111.8 273H144.4L144.8 413H108.4L108.049 338.72L72 399.2H54.4004L18.5996 340.797V413H0V273H14.5996L63.8789 353.887ZM436.361 347.608V273H475.161V413H442.561L380.761 338.391V413H341.961V273H374.561L436.361 347.608ZM615.294 304.4H572.494V413H532.894V304.4H489.894V273H615.294V304.4ZM848.105 328.553L881.38 273H919.779L866.18 362.848V413H826.58V362.228L773.18 273H814.979L848.105 328.553ZM1065.11 413H1023.91L1012.99 385.8H953.625L942.709 413H902.31L964.109 273H1003.11L1065.11 413ZM243.42 303C238.087 303 233.086 303.933 228.42 305.8C223.887 307.666 219.887 310.4 216.42 314C213.087 317.467 210.42 321.666 208.42 326.6C206.553 331.4 205.62 336.867 205.62 343C205.62 349 206.553 354.467 208.42 359.4C210.42 364.334 213.087 368.6 216.42 372.2C219.887 375.667 223.887 378.334 228.42 380.2C233.086 382.067 238.087 383 243.42 383C248.753 383 253.687 382.067 258.221 380.2C262.887 378.334 266.887 375.667 270.221 372.2C273.687 368.6 276.354 364.334 278.221 359.4C280.221 354.467 281.221 349 281.221 343C281.221 336.867 280.221 331.4 278.221 326.6C276.354 321.666 273.687 317.467 270.221 314C266.887 310.4 262.887 307.666 258.221 305.8C253.687 303.933 248.753 303 243.42 303ZM698.693 303C693.36 303 688.36 303.933 683.693 305.8C679.16 307.666 675.16 310.4 671.693 314C668.36 317.467 665.693 321.666 663.693 326.6C661.827 331.4 660.894 336.867 660.894 343C660.894 349 661.827 354.467 663.693 359.4C665.693 364.334 668.36 368.6 671.693 372.2C675.16 375.667 679.16 378.334 683.693 380.2C688.36 382.067 693.36 383 698.693 383C704.027 383 708.961 382.067 713.494 380.2C718.161 378.334 722.161 375.667 725.494 372.2C728.961 368.6 731.627 364.334 733.494 359.4C735.494 354.467 736.494 349 736.494 343C736.494 336.867 735.494 331.4 733.494 326.6C731.628 321.666 728.961 317.467 725.494 314C722.161 310.4 718.161 307.666 713.494 305.8C708.961 303.933 704.027 303 698.693 303ZM965.344 356.6H1001.27L983.309 311.835L965.344 356.6ZM418.815 100.2C432.015 100.2 443.816 102.4 454.216 106.8C464.616 111.2 473.216 117.533 480.016 125.8L454.815 148.6C450.016 143.4 444.816 139.533 439.216 137C433.749 134.333 427.615 133 420.815 133C414.816 133 409.349 133.933 404.416 135.8C399.483 137.666 395.282 140.4 391.815 144C388.349 147.467 385.615 151.666 383.615 156.6C381.749 161.4 380.815 166.867 380.815 173C380.815 178.867 381.749 184.267 383.615 189.2C385.615 194.133 388.349 198.4 391.815 202C395.282 205.467 399.416 208.2 404.216 210.2C409.149 212.067 414.549 213 420.416 213C426.282 213 432.015 212.067 437.615 210.2C439.011 209.702 440.411 209.119 441.815 208.455V170H476.815V228L476.062 228.533C468.235 234.007 459.22 238.229 449.016 241.2C438.482 244.267 428.149 245.8 418.016 245.8C406.949 245.8 396.682 244.066 387.216 240.6C377.749 237 369.549 231.934 362.615 225.4C355.815 218.867 350.482 211.2 346.615 202.4C342.749 193.467 340.815 183.667 340.815 173C340.815 162.333 342.749 152.6 346.615 143.8C350.482 134.866 355.882 127.133 362.815 120.6C369.749 114.066 377.949 109.066 387.416 105.6C397.016 102 407.482 100.2 418.815 100.2ZM45.9482 194.256L84.7998 103H124L64 243H25L0 184.471V103H8L45.9482 194.256ZM171.795 243H132.195V103H171.795V243ZM262.568 103C282.968 103 298.635 107.667 309.568 117C320.635 126.2 326.169 138.8 326.169 154.8C326.169 165.333 323.635 174.467 318.568 182.2C313.83 189.308 307.225 194.898 298.755 198.974L328.969 243H286.568L261.185 205.8H239.568V243H199.969V103H262.568ZM541.521 243H501.922V103H541.521V243ZM664.096 177.608V103H702.896V243H670.295L608.495 168.391V243H569.695V103H602.295L664.096 177.608ZM770.428 243H730.828V103H770.428V243ZM944.602 243H903.401L892.485 215.8H833.117L822.201 243H781.802L843.602 103H882.602L944.602 243ZM844.836 186.6H880.767L862.801 141.835L844.836 186.6ZM239.568 175.2H261.568C269.835 175.2 275.969 173.4 279.969 169.8C284.102 166.2 286.169 161.2 286.169 154.8C286.169 148.267 284.102 143.2 279.969 139.6C275.969 136 269.835 134.2 261.568 134.2H239.568V175.2Z" fill="#F4F2E0"/>
</svg>
