<svg width="270" height="129" viewBox="0 0 270 129" fill="none" xmlns="http://www.w3.org/2000/svg">
<path d="M17.9277 58.4561C23.6236 58.4561 28.6798 59.8321 33.0957 62.584C37.5757 65.336 41.0963 69.3043 43.6562 74.4883C46.2161 79.6722 47.4961 85.9765 47.4961 93.4004C47.496 100.824 46.216 107.128 43.6562 112.312C41.0963 117.496 37.5757 121.464 33.0957 124.216C28.6797 126.968 23.6237 128.344 17.9277 128.344C12.1679 128.344 7.04825 126.968 2.56836 124.216C1.67387 123.658 0.818397 123.05 0 122.393V64.4062C0.818253 63.7492 1.67404 63.1413 2.56836 62.584C7.04823 59.8321 12.168 58.4561 17.9277 58.4561ZM75.7305 99.0645H89.4072V87.6396H107.358V99.0645H117.343V114.136H107.358V127H88.8311V114.136H53.3105V101.752L83.4551 59.7998H103.135L75.7305 99.0645ZM17.9277 74.0078C15.8799 74.0079 14.0559 74.6479 12.4561 75.9277C10.9201 77.2077 9.67192 79.2563 8.71191 82.0723C7.81597 84.8882 7.36816 88.6645 7.36816 93.4004C7.36819 98.072 7.81603 101.848 8.71191 104.728C9.67192 107.544 10.9201 109.592 12.4561 110.872C14.056 112.152 15.8799 112.792 17.9277 112.792C19.9756 112.792 21.7678 112.152 23.3037 110.872C24.9037 109.592 26.1519 107.544 27.0479 104.728C27.9437 101.848 28.3916 98.072 28.3916 93.4004C28.3916 88.6645 27.9438 84.8882 27.0479 82.0723C26.1519 79.2563 24.9037 77.2077 23.3037 75.9277C21.7678 74.6479 19.9756 74.0078 17.9277 74.0078ZM53.1748 0C53.4964 0.36819 53.8132 0.742762 54.1201 1.12793L42.0244 12.0723C39.8484 9.5123 37.4482 7.55982 34.8242 6.21582C32.2642 4.87182 29.3836 4.2002 26.1836 4.2002C23.4318 4.20024 20.9035 4.64799 18.5996 5.54395C16.2957 6.43994 14.3124 7.75255 12.6484 9.48047C11.0484 11.1445 9.76761 13.1603 8.80762 15.5283C7.91172 17.8962 7.46387 20.5206 7.46387 23.4004C7.46391 26.2802 7.91166 28.9046 8.80762 31.2725C9.76761 33.6403 11.0485 35.6881 12.6484 37.416C14.3123 39.0798 16.2959 40.3599 18.5996 41.2559C20.9035 42.1518 23.4318 42.5996 26.1836 42.5996C29.3836 42.5996 32.2642 41.928 34.8242 40.584C37.4481 39.24 39.8485 37.2875 42.0244 34.7275L54.1201 45.6719C50.8561 49.7039 46.76 52.8401 41.832 55.0801C36.968 57.2561 31.4316 58.3438 25.2236 58.3438C19.9119 58.3437 14.9843 57.5116 10.4404 55.8477C6.51908 54.3351 3.03891 52.2827 0 49.6914V0H53.1748ZM180.925 8.42383C177.725 6.69586 174.557 5.41598 171.421 4.58398C168.285 3.68799 165.245 3.24024 162.301 3.24023C159.677 3.24023 157.565 3.52757 155.965 4.10352C154.365 4.61549 153.213 5.31988 152.509 6.21582C151.805 7.11182 151.453 8.13608 151.453 9.28809C151.453 10.76 152.125 11.9439 153.469 12.8398C154.877 13.6718 156.701 14.3762 158.94 14.9521C161.244 15.4641 163.741 16.008 166.429 16.584C169.181 17.16 171.901 17.896 174.589 18.792C177.341 19.624 179.837 20.7761 182.077 22.248C184.317 23.656 186.109 25.5442 187.453 27.9121C188.861 30.2161 189.564 33.1286 189.564 36.6484C189.564 40.5522 188.445 44.1682 186.205 47.4961C184.029 50.7601 180.732 53.3842 176.316 55.3682C171.964 57.3521 166.461 58.3438 159.805 58.3438C154.301 58.3437 148.989 57.6721 143.869 56.3281C138.813 54.9201 134.684 53.1281 131.484 50.9521L137.725 36.9355C140.733 38.8555 144.189 40.4563 148.093 41.7363C152.061 42.9523 155.997 43.5595 159.9 43.5596C162.524 43.5596 164.636 43.3356 166.236 42.8877C167.836 42.3757 168.988 41.7357 169.692 40.9678C170.46 40.1358 170.845 39.1759 170.845 38.0879C170.845 36.5519 170.14 35.3364 168.732 34.4404C167.324 33.5445 165.501 32.8084 163.261 32.2324C161.021 31.6564 158.524 31.0799 155.772 30.5039C153.085 29.9279 150.364 29.1919 147.612 28.2959C144.924 27.3999 142.461 26.2478 140.221 24.8398C137.981 23.3679 136.157 21.4797 134.749 19.1758C133.341 16.8078 132.637 13.832 132.637 10.248C132.637 6.49988 133.579 3.08449 135.459 0H184.42L180.925 8.42383ZM260.471 0C263.063 2.77774 265.14 5.93711 266.697 9.48047C268.617 13.7043 269.577 18.3446 269.577 23.4004C269.577 28.4562 268.617 33.1281 266.697 37.416C264.841 41.64 262.249 45.3201 258.921 48.4561C255.593 51.592 251.657 54.024 247.113 55.752C242.633 57.4799 237.673 58.3437 232.233 58.3438C226.857 58.3438 221.897 57.48 217.353 55.752C212.809 54.024 208.841 51.5919 205.449 48.4561C202.121 45.2561 199.529 41.5442 197.673 37.3203C195.817 33.0964 194.889 28.4562 194.889 23.4004C194.889 18.3446 195.817 13.7043 197.673 9.48047C199.23 5.93709 201.307 2.77775 203.899 0H260.471ZM130.8 57H111.024L105.785 43.9443H77.2871L72.0479 57H52.6562L77.8174 0H105.558L130.8 57ZM232.233 4.2002C229.673 4.2002 227.273 4.648 225.033 5.54395C222.857 6.43995 220.937 7.75247 219.273 9.48047C217.673 11.1445 216.393 13.1603 215.433 15.5283C214.537 17.8322 214.089 20.4566 214.089 23.4004C214.089 26.2802 214.537 28.9046 215.433 31.2725C216.393 33.6403 217.673 35.6881 219.273 37.416C220.937 39.0799 222.857 40.3599 225.033 41.2559C227.273 42.1518 229.673 42.5996 232.233 42.5996C234.793 42.5996 237.161 42.1518 239.337 41.2559C241.577 40.3599 243.497 39.0799 245.097 37.416C246.761 35.6882 248.041 33.6402 248.937 31.2725C249.896 28.9046 250.377 26.2802 250.377 23.4004C250.377 20.4564 249.896 17.8323 248.937 15.5283C248.041 13.1604 246.761 11.1445 245.097 9.48047C243.497 7.75247 241.577 6.43995 239.337 5.54395C237.161 4.64802 234.793 4.20024 232.233 4.2002ZM82.9131 29.9277H100.159L91.5361 8.44141L82.9131 29.9277Z" fill="#FDFCF5"/>
</svg>
