<svg width="628" height="78" viewBox="0 0 628 78" fill="none" xmlns="http://www.w3.org/2000/svg">
<path d="M349.112 62.672C346.456 62.672 343.992 62.256 341.72 61.424C339.48 60.56 337.528 59.344 335.864 57.776C334.232 56.208 332.952 54.368 332.024 52.256C331.096 50.112 330.632 47.76 330.632 45.2C330.632 42.64 331.096 40.304 332.024 38.192C332.952 36.048 334.232 34.192 335.864 32.624C337.528 31.056 339.48 29.856 341.72 29.024C343.992 28.16 346.456 27.728 349.112 27.728C352.216 27.728 354.984 28.272 357.416 29.36C359.88 30.448 361.928 32.016 363.56 34.064L357.512 39.536C356.424 38.256 355.224 37.28 353.912 36.608C352.632 35.936 351.192 35.6 349.592 35.6C348.216 35.6 346.952 35.824 345.8 36.272C344.648 36.72 343.656 37.376 342.824 38.24C342.024 39.072 341.384 40.08 340.904 41.264C340.456 42.448 340.232 43.76 340.232 45.2C340.232 46.64 340.456 47.952 340.904 49.136C341.384 50.32 342.024 51.344 342.824 52.208C343.656 53.04 344.648 53.68 345.8 54.128C346.952 54.576 348.216 54.8 349.592 54.8C351.192 54.8 352.632 54.464 353.912 53.792C355.224 53.12 356.424 52.144 357.512 50.864L363.56 56.336C361.928 58.352 359.88 59.92 357.416 61.04C354.984 62.128 352.216 62.672 349.112 62.672ZM384.998 62.672C382.31 62.672 379.83 62.24 377.558 61.376C375.286 60.512 373.302 59.296 371.606 57.728C369.942 56.128 368.646 54.272 367.718 52.16C366.79 50.048 366.326 47.728 366.326 45.2C366.326 42.672 366.79 40.352 367.718 38.24C368.646 36.128 369.942 34.288 371.606 32.72C373.302 31.12 375.286 29.888 377.558 29.024C379.83 28.16 382.31 27.728 384.998 27.728C387.718 27.728 390.198 28.16 392.438 29.024C394.71 29.888 396.678 31.12 398.342 32.72C400.006 34.288 401.302 36.128 402.23 38.24C403.19 40.352 403.67 42.672 403.67 45.2C403.67 47.728 403.19 50.064 402.23 52.208C401.302 54.32 400.006 56.16 398.342 57.728C396.678 59.296 394.71 60.512 392.438 61.376C390.198 62.24 387.718 62.672 384.998 62.672ZM384.998 54.8C386.278 54.8 387.462 54.576 388.55 54.128C389.67 53.68 390.63 53.04 391.43 52.208C392.262 51.344 392.902 50.32 393.35 49.136C393.83 47.952 394.07 46.64 394.07 45.2C394.07 43.728 393.83 42.416 393.35 41.264C392.902 40.08 392.262 39.072 391.43 38.24C390.63 37.376 389.67 36.72 388.55 36.272C387.462 35.824 386.278 35.6 384.998 35.6C383.718 35.6 382.518 35.824 381.398 36.272C380.31 36.72 379.35 37.376 378.518 38.24C377.718 39.072 377.078 40.08 376.598 41.264C376.15 42.416 375.926 43.728 375.926 45.2C375.926 46.64 376.15 47.952 376.598 49.136C377.078 50.32 377.718 51.344 378.518 52.208C379.35 53.04 380.31 53.68 381.398 54.128C382.518 54.576 383.718 54.8 384.998 54.8ZM409.608 62V28.4H417.432L435.96 50.768H432.264V28.4H441.576V62H433.752L415.224 39.632H418.92V62H409.608ZM449.24 62V28.4H457.064L470.984 51.248H466.856L480.392 28.4H488.216L488.312 62H479.576L479.48 41.696H480.968L470.84 58.688H466.616L456.2 41.696H458.024V62H449.24ZM495.997 62V28.4H505.501V62H495.997ZM530.023 62.672C527.367 62.672 524.903 62.256 522.631 61.424C520.359 60.56 518.391 59.344 516.727 57.776C515.095 56.208 513.815 54.368 512.887 52.256C511.959 50.112 511.495 47.76 511.495 45.2C511.495 42.64 511.959 40.304 512.887 38.192C513.815 36.048 515.111 34.192 516.775 32.624C518.439 31.056 520.407 29.856 522.679 29.024C524.983 28.16 527.495 27.728 530.215 27.728C533.383 27.728 536.215 28.256 538.711 29.312C541.207 30.368 543.271 31.888 544.903 33.872L538.855 39.344C537.703 38.096 536.455 37.168 535.111 36.56C533.799 35.92 532.327 35.6 530.695 35.6C529.255 35.6 527.943 35.824 526.759 36.272C525.575 36.72 524.567 37.376 523.735 38.24C522.903 39.072 522.247 40.08 521.767 41.264C521.319 42.416 521.095 43.728 521.095 45.2C521.095 46.608 521.319 47.904 521.767 49.088C522.247 50.272 522.903 51.296 523.735 52.16C524.567 52.992 525.559 53.648 526.711 54.128C527.895 54.576 529.191 54.8 530.599 54.8C532.007 54.8 533.383 54.576 534.727 54.128C536.071 53.648 537.431 52.848 538.807 51.728L544.135 58.4C542.215 59.776 539.991 60.832 537.463 61.568C534.935 62.304 532.455 62.672 530.023 62.672ZM535.735 57.152V44.48H544.135V58.4L535.735 57.152ZM568.064 62.672C565.376 62.672 562.896 62.24 560.624 61.376C558.352 60.512 556.368 59.296 554.672 57.728C553.008 56.128 551.712 54.272 550.784 52.16C549.856 50.048 549.392 47.728 549.392 45.2C549.392 42.672 549.856 40.352 550.784 38.24C551.712 36.128 553.008 34.288 554.672 32.72C556.368 31.12 558.352 29.888 560.624 29.024C562.896 28.16 565.376 27.728 568.064 27.728C570.784 27.728 573.264 28.16 575.504 29.024C577.776 29.888 579.744 31.12 581.408 32.72C583.072 34.288 584.368 36.128 585.296 38.24C586.256 40.352 586.736 42.672 586.736 45.2C586.736 47.728 586.256 50.064 585.296 52.208C584.368 54.32 583.072 56.16 581.408 57.728C579.744 59.296 577.776 60.512 575.504 61.376C573.264 62.24 570.784 62.672 568.064 62.672ZM568.064 54.8C569.344 54.8 570.528 54.576 571.616 54.128C572.736 53.68 573.696 53.04 574.496 52.208C575.328 51.344 575.968 50.32 576.416 49.136C576.896 47.952 577.136 46.64 577.136 45.2C577.136 43.728 576.896 42.416 576.416 41.264C575.968 40.08 575.328 39.072 574.496 38.24C573.696 37.376 572.736 36.72 571.616 36.272C570.528 35.824 569.344 35.6 568.064 35.6C566.784 35.6 565.584 35.824 564.464 36.272C563.376 36.72 562.416 37.376 561.584 38.24C560.784 39.072 560.144 40.08 559.664 41.264C559.216 42.416 558.992 43.728 558.992 45.2C558.992 46.64 559.216 47.952 559.664 49.136C560.144 50.32 560.784 51.344 561.584 52.208C562.416 53.04 563.376 53.68 564.464 54.128C565.584 54.576 566.784 54.8 568.064 54.8Z" fill="#7A75FF"/>
<path d="M602.882 45.68C602.882 44.272 603.095 43.0347 603.522 41.968C603.991 40.8587 604.567 39.8773 605.25 39.024C605.932 38.1707 606.658 37.4027 607.426 36.72C608.236 35.9947 608.983 35.312 609.666 34.672C610.348 33.9893 610.903 33.3067 611.33 32.624C611.799 31.9413 612.034 31.1947 612.034 30.384C612.034 29.104 611.5 28.1013 610.434 27.376C609.41 26.6507 608.066 26.288 606.402 26.288C604.695 26.288 603.138 26.6933 601.73 27.504C600.364 28.3147 599.255 29.4453 598.402 30.896L588.866 25.776C590.53 22.9173 592.94 20.6347 596.098 18.928C599.255 17.1787 603.18 16.304 607.874 16.304C611.159 16.304 614.06 16.7733 616.578 17.712C619.138 18.608 621.143 19.952 622.594 21.744C624.044 23.536 624.77 25.7333 624.77 28.336C624.77 30 624.514 31.4507 624.002 32.688C623.49 33.9253 622.828 35.0133 622.018 35.952C621.25 36.8907 620.418 37.7653 619.522 38.576C618.626 39.344 617.772 40.0907 616.962 40.816C616.194 41.5413 615.554 42.288 615.042 43.056C614.53 43.824 614.274 44.6987 614.274 45.68H602.882ZM608.578 62.576C606.487 62.576 604.759 61.9147 603.394 60.592C602.028 59.2693 601.346 57.6907 601.346 55.856C601.346 53.9787 602.028 52.4213 603.394 51.184C604.759 49.904 606.487 49.264 608.578 49.264C610.754 49.264 612.503 49.904 613.826 51.184C615.191 52.4213 615.874 53.9787 615.874 55.856C615.874 57.6907 615.191 59.2693 613.826 60.592C612.503 61.9147 610.754 62.576 608.578 62.576Z" fill="#55E6C1"/>
<path d="M219.78 58H227.424V59.95H219.78V58ZM222.562 54.62H224.642V71H222.562V54.62ZM233.261 58H235.341V71H233.261V58ZM239.501 59.95C238.617 59.95 237.872 60.1753 237.265 60.626C236.676 61.0593 236.208 61.5967 235.861 62.238C235.532 62.862 235.315 63.4687 235.211 64.058L235.185 62.55C235.185 62.394 235.22 62.134 235.289 61.77C235.359 61.406 235.489 60.9987 235.679 60.548C235.87 60.08 236.121 59.638 236.433 59.222C236.763 58.7887 237.179 58.4333 237.681 58.156C238.184 57.8787 238.791 57.74 239.501 57.74V59.95ZM250.137 71.26C249.115 71.26 248.17 70.974 247.303 70.402C246.454 69.8127 245.769 69.0153 245.249 68.01C244.747 66.9873 244.495 65.826 244.495 64.526C244.495 63.226 244.755 62.0647 245.275 61.042C245.795 60.0193 246.497 59.2133 247.381 58.624C248.283 58.0347 249.288 57.74 250.397 57.74C251.611 57.74 252.529 58.052 253.153 58.676C253.795 59.2827 254.228 60.0973 254.453 61.12C254.696 62.1427 254.817 63.278 254.817 64.526C254.817 65.1847 254.748 65.904 254.609 66.684C254.471 67.4467 254.228 68.1833 253.881 68.894C253.552 69.5873 253.084 70.1593 252.477 70.61C251.871 71.0433 251.091 71.26 250.137 71.26ZM250.657 69.284C251.541 69.284 252.269 69.0673 252.841 68.634C253.431 68.2007 253.864 67.6287 254.141 66.918C254.419 66.19 254.557 65.3927 254.557 64.526C254.557 63.5727 254.41 62.7407 254.115 62.03C253.838 61.302 253.405 60.7387 252.815 60.34C252.243 59.924 251.524 59.716 250.657 59.716C249.357 59.716 248.352 60.1753 247.641 61.094C246.931 61.9953 246.575 63.1393 246.575 64.526C246.575 65.4447 246.749 66.268 247.095 66.996C247.459 67.7067 247.945 68.27 248.551 68.686C249.175 69.0847 249.877 69.284 250.657 69.284ZM254.557 58H256.637V71H254.739C254.739 71 254.722 70.844 254.687 70.532C254.67 70.22 254.644 69.856 254.609 69.44C254.575 69.024 254.557 68.6773 254.557 68.4V58ZM270.042 71.26C269.089 71.26 268.309 71.0433 267.702 70.61C267.096 70.1593 266.619 69.5873 266.272 68.894C265.943 68.1833 265.709 67.4467 265.57 66.684C265.432 65.904 265.362 65.1847 265.362 64.526C265.362 63.59 265.423 62.7147 265.544 61.9C265.683 61.0853 265.917 60.366 266.246 59.742C266.576 59.118 267.044 58.6327 267.65 58.286C268.274 57.922 269.072 57.74 270.042 57.74C271.134 57.74 272.105 58.0347 272.954 58.624C273.804 59.2133 274.471 60.0193 274.956 61.042C275.442 62.0647 275.684 63.226 275.684 64.526C275.684 65.826 275.433 66.9873 274.93 68.01C274.428 69.0153 273.752 69.8127 272.902 70.402C272.053 70.974 271.1 71.26 270.042 71.26ZM269.522 69.284C270.32 69.284 271.022 69.0847 271.628 68.686C272.235 68.27 272.712 67.7067 273.058 66.996C273.422 66.268 273.604 65.4447 273.604 64.526C273.604 63.1393 273.249 61.9953 272.538 61.094C271.828 60.1753 270.822 59.716 269.522 59.716C268.656 59.716 267.928 59.924 267.338 60.34C266.766 60.7387 266.333 61.302 266.038 62.03C265.761 62.7407 265.622 63.5727 265.622 64.526C265.622 65.3927 265.761 66.19 266.038 66.918C266.333 67.6287 266.766 68.2007 267.338 68.634C267.91 69.0673 268.638 69.284 269.522 69.284ZM265.622 52.8V68.4C265.622 68.712 265.596 69.128 265.544 69.648C265.51 70.168 265.475 70.6187 265.44 71H263.542V52.8H265.622ZM286.63 71.26C285.607 71.26 284.663 70.974 283.796 70.402C282.947 69.8127 282.262 69.0153 281.742 68.01C281.239 66.9873 280.988 65.826 280.988 64.526C280.988 63.226 281.248 62.0647 281.768 61.042C282.288 60.0193 282.99 59.2133 283.874 58.624C284.775 58.0347 285.781 57.74 286.89 57.74C288.103 57.74 289.022 58.052 289.646 58.676C290.287 59.2827 290.721 60.0973 290.946 61.12C291.189 62.1427 291.31 63.278 291.31 64.526C291.31 65.1847 291.241 65.904 291.102 66.684C290.963 67.4467 290.721 68.1833 290.374 68.894C290.045 69.5873 289.577 70.1593 288.97 70.61C288.363 71.0433 287.583 71.26 286.63 71.26ZM287.15 69.284C288.034 69.284 288.762 69.0673 289.334 68.634C289.923 68.2007 290.357 67.6287 290.634 66.918C290.911 66.19 291.05 65.3927 291.05 64.526C291.05 63.5727 290.903 62.7407 290.608 62.03C290.331 61.302 289.897 60.7387 289.308 60.34C288.736 59.924 288.017 59.716 287.15 59.716C285.85 59.716 284.845 60.1753 284.134 61.094C283.423 61.9953 283.068 63.1393 283.068 64.526C283.068 65.4447 283.241 66.268 283.588 66.996C283.952 67.7067 284.437 68.27 285.044 68.686C285.668 69.0847 286.37 69.284 287.15 69.284ZM291.05 58H293.13V71H291.232C291.232 71 291.215 70.844 291.18 70.532C291.163 70.22 291.137 69.856 291.102 69.44C291.067 69.024 291.05 68.6773 291.05 68.4V58ZM300.107 58H302.187V76.2H300.107V58ZM302.473 52.8V55.322H299.769V52.8H302.473ZM314.007 71.26C312.984 71.26 312.04 70.974 311.173 70.402C310.324 69.8127 309.639 69.0153 309.119 68.01C308.616 66.9873 308.365 65.826 308.365 64.526C308.365 63.226 308.625 62.0647 309.145 61.042C309.665 60.0193 310.367 59.2133 311.251 58.624C312.152 58.0347 313.158 57.74 314.267 57.74C315.48 57.74 316.399 58.052 317.023 58.676C317.664 59.2827 318.098 60.0973 318.323 61.12C318.566 62.1427 318.687 63.278 318.687 64.526C318.687 65.1847 318.618 65.904 318.479 66.684C318.34 67.4467 318.098 68.1833 317.751 68.894C317.422 69.5873 316.954 70.1593 316.347 70.61C315.74 71.0433 314.96 71.26 314.007 71.26ZM314.527 69.284C315.411 69.284 316.139 69.0673 316.711 68.634C317.3 68.2007 317.734 67.6287 318.011 66.918C318.288 66.19 318.427 65.3927 318.427 64.526C318.427 63.5727 318.28 62.7407 317.985 62.03C317.708 61.302 317.274 60.7387 316.685 60.34C316.113 59.924 315.394 59.716 314.527 59.716C313.227 59.716 312.222 60.1753 311.511 61.094C310.8 61.9953 310.445 63.1393 310.445 64.526C310.445 65.4447 310.618 66.268 310.965 66.996C311.329 67.7067 311.814 68.27 312.421 68.686C313.045 69.0847 313.747 69.284 314.527 69.284ZM318.427 58H320.507V71H318.609C318.609 71 318.592 70.844 318.557 70.532C318.54 70.22 318.514 69.856 318.479 69.44C318.444 69.024 318.427 68.6773 318.427 68.4V58ZM327.276 58H329.356V71H327.276V58ZM333.516 59.95C332.632 59.95 331.886 60.1753 331.28 60.626C330.69 61.0593 330.222 61.5967 329.876 62.238C329.546 62.862 329.33 63.4687 329.226 64.058L329.2 62.55C329.2 62.394 329.234 62.134 329.304 61.77C329.373 61.406 329.503 60.9987 329.694 60.548C329.884 60.08 330.136 59.638 330.448 59.222C330.777 58.7887 331.193 58.4333 331.696 58.156C332.198 57.8787 332.805 57.74 333.516 57.74V59.95Z" fill="#B2AD99"/>
<path d="M19.648 72.688C16.3627 72.688 13.44 72.2187 10.88 71.28C8.36262 70.384 6.37862 69.04 4.92795 67.248C3.47728 65.4987 2.75195 63.344 2.75195 60.784C2.75195 59.12 3.00795 57.6693 3.51995 56.432C4.03195 55.1947 4.67195 54.128 5.43995 53.232C6.25062 52.2933 7.08262 51.44 7.93595 50.672C8.83195 49.8613 9.68528 49.1147 10.496 48.432C11.3067 47.7067 11.968 46.96 12.48 46.192C12.992 45.424 13.248 44.5707 13.248 43.632H24.64C24.64 44.9973 24.4053 46.2133 23.936 47.28C23.5093 48.3467 22.9547 49.3067 22.272 50.16C21.5893 51.0133 20.8427 51.8027 20.032 52.528C19.264 53.2107 18.5387 53.8933 17.856 54.576C17.1733 55.216 16.5973 55.8773 16.128 56.56C15.7013 57.2427 15.488 57.9893 15.488 58.8C15.488 59.9947 16 60.9547 17.024 61.68C18.0907 62.3627 19.456 62.704 21.12 62.704C22.8267 62.704 24.3627 62.2987 25.728 61.488C27.136 60.6773 28.2667 59.568 29.12 58.16L38.656 63.216C36.992 66.0747 34.5813 68.3573 31.424 70.064C28.2667 71.8133 24.3413 72.688 19.648 72.688ZM18.944 40.048C16.8107 40.048 15.0613 39.408 13.696 38.128C12.3307 36.848 11.648 35.2907 11.648 33.456C11.648 31.5787 12.3307 30 13.696 28.72C15.0613 27.3973 16.8107 26.736 18.944 26.736C21.0773 26.736 22.8053 27.3973 24.128 28.72C25.4933 30 26.176 31.5787 26.176 33.456C26.176 35.2907 25.4933 36.848 24.128 38.128C22.8053 39.408 21.0773 40.048 18.944 40.048Z" fill="#55E6C1"/>
<path d="M46.1875 62V39.6H56.4275C58.4755 39.6 60.2355 39.9307 61.7075 40.592C63.2008 41.2533 64.3528 42.2133 65.1635 43.472C65.9742 44.7093 66.3795 46.1813 66.3795 47.888C66.3795 49.5733 65.9742 51.0347 65.1635 52.272C64.3528 53.5093 63.2008 54.4693 61.7075 55.152C60.2355 55.8133 58.4755 56.144 56.4275 56.144H49.7075L52.5235 53.392V62H46.1875ZM52.5235 54.064L49.7075 51.152H56.0435C57.3662 51.152 58.3475 50.864 58.9875 50.288C59.6488 49.712 59.9795 48.912 59.9795 47.888C59.9795 46.8427 59.6488 46.032 58.9875 45.456C58.3475 44.88 57.3662 44.592 56.0435 44.592H49.7075L52.5235 41.68V54.064ZM83.9572 62.448C82.1652 62.448 80.5119 62.16 78.9972 61.584C77.4826 61.008 76.1599 60.1973 75.0292 59.152C73.9199 58.0853 73.0559 56.848 72.4372 55.44C71.8186 54.032 71.5092 52.4853 71.5092 50.8C71.5092 49.1147 71.8186 47.568 72.4372 46.16C73.0559 44.752 73.9199 43.5253 75.0292 42.48C76.1599 41.4133 77.4826 40.592 78.9972 40.016C80.5119 39.44 82.1652 39.152 83.9572 39.152C85.7706 39.152 87.4239 39.44 88.9172 40.016C90.4319 40.592 91.7439 41.4133 92.8533 42.48C93.9626 43.5253 94.8266 44.752 95.4453 46.16C96.0853 47.568 96.4053 49.1147 96.4053 50.8C96.4053 52.4853 96.0853 54.0427 95.4453 55.472C94.8266 56.88 93.9626 58.1067 92.8533 59.152C91.7439 60.1973 90.4319 61.008 88.9172 61.584C87.4239 62.16 85.7706 62.448 83.9572 62.448ZM83.9572 57.2C84.8106 57.2 85.5999 57.0507 86.3252 56.752C87.0719 56.4533 87.7119 56.0267 88.2453 55.472C88.7999 54.896 89.2266 54.2133 89.5252 53.424C89.8453 52.6347 90.0053 51.76 90.0053 50.8C90.0053 49.8187 89.8453 48.944 89.5252 48.176C89.2266 47.3867 88.7999 46.7147 88.2453 46.16C87.7119 45.584 87.0719 45.1467 86.3252 44.848C85.5999 44.5493 84.8106 44.4 83.9572 44.4C83.1039 44.4 82.3039 44.5493 81.5573 44.848C80.8319 45.1467 80.1919 45.584 79.6372 46.16C79.1039 46.7147 78.6772 47.3867 78.3572 48.176C78.0586 48.944 77.9092 49.8187 77.9092 50.8C77.9092 51.76 78.0586 52.6347 78.3572 53.424C78.6772 54.2133 79.1039 54.896 79.6372 55.472C80.1919 56.0267 80.8319 56.4533 81.5573 56.752C82.3039 57.0507 83.1039 57.2 83.9572 57.2ZM102.604 62V39.6H112.844C114.892 39.6 116.652 39.9307 118.124 40.592C119.617 41.2533 120.769 42.2133 121.58 43.472C122.39 44.7093 122.796 46.1813 122.796 47.888C122.796 49.5733 122.39 51.0347 121.58 52.272C120.769 53.488 119.617 54.4267 118.124 55.088C116.652 55.728 114.892 56.048 112.844 56.048H106.124L108.94 53.392V62H102.604ZM116.46 62L110.892 53.84H117.644L123.244 62H116.46ZM108.94 54.064L106.124 51.152H112.46C113.782 51.152 114.764 50.864 115.404 50.288C116.065 49.712 116.396 48.912 116.396 47.888C116.396 46.8427 116.065 46.032 115.404 45.456C114.764 44.88 113.782 44.592 112.46 44.592H106.124L108.94 41.68V54.064ZM152.66 62.448C150.868 62.448 149.214 62.16 147.7 61.584C146.185 61.008 144.862 60.1973 143.732 59.152C142.622 58.0853 141.758 56.848 141.14 55.44C140.521 54.032 140.212 52.4853 140.212 50.8C140.212 49.1147 140.521 47.568 141.14 46.16C141.758 44.752 142.622 43.5253 143.732 42.48C144.862 41.4133 146.185 40.592 147.7 40.016C149.214 39.44 150.868 39.152 152.66 39.152C154.473 39.152 156.126 39.44 157.62 40.016C159.134 40.592 160.446 41.4027 161.556 42.448C162.665 43.4933 163.529 44.7307 164.148 46.16C164.788 47.568 165.108 49.1147 165.108 50.8C165.108 52.4853 164.788 54.0427 164.148 55.472C163.529 56.88 162.665 58.1067 161.556 59.152C160.446 60.1973 159.134 61.008 157.62 61.584C156.126 62.16 154.473 62.448 152.66 62.448ZM159.988 67.408C159.028 67.408 158.132 67.3013 157.3 67.088C156.468 66.896 155.646 66.576 154.836 66.128C154.046 65.68 153.214 65.072 152.34 64.304C151.486 63.536 150.526 62.5867 149.46 61.456L156.084 59.792C156.617 60.5813 157.097 61.2 157.524 61.648C157.95 62.096 158.366 62.416 158.772 62.608C159.198 62.8 159.646 62.896 160.116 62.896C161.353 62.896 162.484 62.3733 163.508 61.328L166.26 64.592C164.702 66.4693 162.612 67.408 159.988 67.408ZM152.66 57.2C153.513 57.2 154.302 57.0507 155.028 56.752C155.774 56.4533 156.414 56.0267 156.948 55.472C157.502 54.896 157.929 54.2133 158.228 53.424C158.548 52.6347 158.708 51.76 158.708 50.8C158.708 49.8187 158.548 48.944 158.228 48.176C157.929 47.3867 157.502 46.7147 156.948 46.16C156.414 45.584 155.774 45.1467 155.028 44.848C154.302 44.5493 153.513 44.4 152.66 44.4C151.806 44.4 151.006 44.5493 150.26 44.848C149.534 45.1467 148.894 45.584 148.34 46.16C147.806 46.7147 147.38 47.3867 147.06 48.176C146.761 48.944 146.612 49.8187 146.612 50.8C146.612 51.76 146.761 52.6347 147.06 53.424C147.38 54.2133 147.806 54.896 148.34 55.472C148.894 56.0267 149.534 56.4533 150.26 56.752C151.006 57.0507 151.806 57.2 152.66 57.2ZM181.642 62.448C178.336 62.448 175.754 61.5413 173.898 59.728C172.042 57.9147 171.114 55.344 171.114 52.016V39.6H177.45V51.824C177.45 53.744 177.824 55.12 178.57 55.952C179.338 56.784 180.384 57.2 181.706 57.2C183.029 57.2 184.064 56.784 184.81 55.952C185.557 55.12 185.93 53.744 185.93 51.824V39.6H192.17V52.016C192.17 55.344 191.242 57.9147 189.386 59.728C187.53 61.5413 184.949 62.448 181.642 62.448ZM205.167 48.272H215.567V53.008H205.167V48.272ZM205.615 57.104H217.327V62H199.343V39.6H216.911V44.496H205.615V57.104ZM205.007 37.776L209.295 32.912H215.375L209.359 37.776H205.007Z" fill="#7A5FFF"/>
</svg>
