<svg width="1262" height="83" viewBox="0 0 1262 83" fill="none" xmlns="http://www.w3.org/2000/svg">
<path d="M641.36 64V30.4H649.184L667.712 52.768H664.016V30.4H673.328V64H665.504L646.976 41.632H650.672V64H641.36ZM689.728 43.408H705.328V50.512H689.728V43.408ZM690.4 56.656H707.968V64H680.992V30.4H707.344V37.744H690.4V56.656ZM730.954 64.672C728.298 64.672 725.834 64.256 723.562 63.424C721.322 62.56 719.37 61.344 717.706 59.776C716.074 58.208 714.794 56.368 713.866 54.256C712.938 52.112 712.474 49.76 712.474 47.2C712.474 44.64 712.938 42.304 713.866 40.192C714.794 38.048 716.074 36.192 717.706 34.624C719.37 33.056 721.322 31.856 723.562 31.024C725.834 30.16 728.298 29.728 730.954 29.728C734.058 29.728 736.826 30.272 739.258 31.36C741.722 32.448 743.77 34.016 745.402 36.064L739.354 41.536C738.266 40.256 737.066 39.28 735.754 38.608C734.474 37.936 733.034 37.6 731.434 37.6C730.058 37.6 728.794 37.824 727.642 38.272C726.49 38.72 725.498 39.376 724.666 40.24C723.866 41.072 723.226 42.08 722.746 43.264C722.298 44.448 722.074 45.76 722.074 47.2C722.074 48.64 722.298 49.952 722.746 51.136C723.226 52.32 723.866 53.344 724.666 54.208C725.498 55.04 726.49 55.68 727.642 56.128C728.794 56.576 730.058 56.8 731.434 56.8C733.034 56.8 734.474 56.464 735.754 55.792C737.066 55.12 738.266 54.144 739.354 52.864L745.402 58.336C743.77 60.352 741.722 61.92 739.258 63.04C736.826 64.128 734.058 64.672 730.954 64.672ZM759.335 43.408H774.935V50.512H759.335V43.408ZM760.007 56.656H777.575V64H750.599V30.4H776.951V37.744H760.007V56.656ZM795.617 64.672C792.865 64.672 790.209 64.336 787.649 63.664C785.121 62.96 783.057 62.064 781.457 60.976L784.577 53.968C786.081 54.928 787.809 55.728 789.761 56.368C791.745 56.976 793.713 57.28 795.665 57.28C796.977 57.28 798.033 57.168 798.833 56.944C799.633 56.688 800.209 56.368 800.561 55.984C800.945 55.568 801.137 55.088 801.137 54.544C801.137 53.776 800.785 53.168 800.081 52.72C799.377 52.272 798.465 51.904 797.345 51.616C796.225 51.328 794.977 51.04 793.601 50.752C792.257 50.464 790.897 50.096 789.521 49.648C788.177 49.2 786.945 48.624 785.825 47.92C784.705 47.184 783.793 46.24 783.089 45.088C782.385 43.904 782.033 42.416 782.033 40.624C782.033 38.608 782.577 36.784 783.665 35.152C784.785 33.52 786.449 32.208 788.657 31.216C790.865 30.224 793.617 29.728 796.913 29.728C799.121 29.728 801.281 29.984 803.393 30.496C805.537 30.976 807.441 31.696 809.105 32.656L806.177 39.712C804.577 38.848 802.993 38.208 801.425 37.792C799.857 37.344 798.337 37.12 796.865 37.12C795.553 37.12 794.497 37.264 793.697 37.552C792.897 37.808 792.321 38.16 791.969 38.608C791.617 39.056 791.441 39.568 791.441 40.144C791.441 40.88 791.777 41.472 792.449 41.92C793.153 42.336 794.065 42.688 795.185 42.976C796.337 43.232 797.585 43.504 798.929 43.792C800.305 44.08 801.665 44.448 803.009 44.896C804.385 45.312 805.633 45.888 806.753 46.624C807.873 47.328 808.769 48.272 809.441 49.456C810.145 50.608 810.497 52.064 810.497 53.824C810.497 55.776 809.937 57.584 808.817 59.248C807.729 60.88 806.081 62.192 803.873 63.184C801.697 64.176 798.945 64.672 795.617 64.672ZM815.848 64V30.4H825.352V64H815.848ZM840.225 64V37.936H829.905V30.4H860.001V37.936H849.729V64H840.225ZM858.782 64L873.614 30.4H882.974L897.854 64H887.966L876.35 35.056H880.094L868.478 64H858.782ZM866.894 57.472L869.342 50.464H885.758L888.206 57.472H866.894ZM913.317 64.672C910.565 64.672 907.909 64.336 905.349 63.664C902.821 62.96 900.757 62.064 899.157 60.976L902.277 53.968C903.781 54.928 905.509 55.728 907.461 56.368C909.445 56.976 911.413 57.28 913.365 57.28C914.677 57.28 915.733 57.168 916.533 56.944C917.333 56.688 917.909 56.368 918.261 55.984C918.645 55.568 918.837 55.088 918.837 54.544C918.837 53.776 918.485 53.168 917.781 52.72C917.077 52.272 916.165 51.904 915.045 51.616C913.925 51.328 912.677 51.04 911.301 50.752C909.957 50.464 908.597 50.096 907.221 49.648C905.877 49.2 904.645 48.624 903.525 47.92C902.405 47.184 901.493 46.24 900.789 45.088C900.085 43.904 899.733 42.416 899.733 40.624C899.733 38.608 900.277 36.784 901.365 35.152C902.485 33.52 904.149 32.208 906.357 31.216C908.565 30.224 911.317 29.728 914.613 29.728C916.821 29.728 918.981 29.984 921.093 30.496C923.237 30.976 925.141 31.696 926.805 32.656L923.877 39.712C922.277 38.848 920.693 38.208 919.125 37.792C917.557 37.344 916.037 37.12 914.565 37.12C913.253 37.12 912.197 37.264 911.397 37.552C910.597 37.808 910.021 38.16 909.669 38.608C909.317 39.056 909.141 39.568 909.141 40.144C909.141 40.88 909.477 41.472 910.149 41.92C910.853 42.336 911.765 42.688 912.885 42.976C914.037 43.232 915.285 43.504 916.629 43.792C918.005 44.08 919.365 44.448 920.709 44.896C922.085 45.312 923.333 45.888 924.453 46.624C925.573 47.328 926.469 48.272 927.141 49.456C927.845 50.608 928.197 52.064 928.197 53.824C928.197 55.776 927.637 57.584 926.517 59.248C925.429 60.88 923.781 62.192 921.573 63.184C919.397 64.176 916.645 64.672 913.317 64.672ZM948.476 64V30.4H963.836C966.908 30.4 969.548 30.896 971.756 31.888C973.996 32.88 975.724 34.32 976.94 36.208C978.156 38.064 978.764 40.272 978.764 42.832C978.764 45.36 978.156 47.552 976.94 49.408C975.724 51.232 973.996 52.64 971.756 53.632C969.548 54.592 966.908 55.072 963.836 55.072H953.756L957.98 51.088V64H948.476ZM969.26 64L960.908 51.76H971.036L979.436 64H969.26ZM957.98 52.096L953.756 47.728H963.26C965.244 47.728 966.716 47.296 967.676 46.432C968.668 45.568 969.164 44.368 969.164 42.832C969.164 41.264 968.668 40.048 967.676 39.184C966.716 38.32 965.244 37.888 963.26 37.888H953.756L957.98 33.52V52.096ZM993.703 43.408H1009.3V50.512H993.703V43.408ZM994.375 56.656H1011.94V64H984.967V30.4H1011.32V37.744H994.375V56.656ZM1029.98 64.672C1027.23 64.672 1024.58 64.336 1022.02 63.664C1019.49 62.96 1017.42 62.064 1015.82 60.976L1018.94 53.968C1020.45 54.928 1022.18 55.728 1024.13 56.368C1026.11 56.976 1028.08 57.28 1030.03 57.28C1031.34 57.28 1032.4 57.168 1033.2 56.944C1034 56.688 1034.58 56.368 1034.93 55.984C1035.31 55.568 1035.5 55.088 1035.5 54.544C1035.5 53.776 1035.15 53.168 1034.45 52.72C1033.74 52.272 1032.83 51.904 1031.71 51.616C1030.59 51.328 1029.34 51.04 1027.97 50.752C1026.62 50.464 1025.26 50.096 1023.89 49.648C1022.54 49.2 1021.31 48.624 1020.19 47.92C1019.07 47.184 1018.16 46.24 1017.46 45.088C1016.75 43.904 1016.4 42.416 1016.4 40.624C1016.4 38.608 1016.94 36.784 1018.03 35.152C1019.15 33.52 1020.82 32.208 1023.02 31.216C1025.23 30.224 1027.98 29.728 1031.28 29.728C1033.49 29.728 1035.65 29.984 1037.76 30.496C1039.9 30.976 1041.81 31.696 1043.47 32.656L1040.54 39.712C1038.94 38.848 1037.36 38.208 1035.79 37.792C1034.22 37.344 1032.7 37.12 1031.23 37.12C1029.92 37.12 1028.86 37.264 1028.06 37.552C1027.26 37.808 1026.69 38.16 1026.34 38.608C1025.98 39.056 1025.81 39.568 1025.81 40.144C1025.81 40.88 1026.14 41.472 1026.82 41.92C1027.52 42.336 1028.43 42.688 1029.55 42.976C1030.7 43.232 1031.95 43.504 1033.3 43.792C1034.67 44.08 1036.03 44.448 1037.38 44.896C1038.75 45.312 1040 45.888 1041.12 46.624C1042.24 47.328 1043.14 48.272 1043.81 49.456C1044.51 50.608 1044.86 52.064 1044.86 53.824C1044.86 55.776 1044.3 57.584 1043.18 59.248C1042.1 60.88 1040.45 62.192 1038.24 63.184C1036.06 64.176 1033.31 64.672 1029.98 64.672ZM1067.16 64.672C1064.47 64.672 1061.99 64.24 1059.72 63.376C1057.45 62.512 1055.46 61.296 1053.77 59.728C1052.1 58.128 1050.81 56.272 1049.88 54.16C1048.95 52.048 1048.49 49.728 1048.49 47.2C1048.49 44.672 1048.95 42.352 1049.88 40.24C1050.81 38.128 1052.1 36.288 1053.77 34.72C1055.46 33.12 1057.45 31.888 1059.72 31.024C1061.99 30.16 1064.47 29.728 1067.16 29.728C1069.88 29.728 1072.36 30.16 1074.6 31.024C1076.87 31.888 1078.84 33.12 1080.5 34.72C1082.17 36.288 1083.46 38.128 1084.39 40.24C1085.35 42.352 1085.83 44.672 1085.83 47.2C1085.83 49.728 1085.35 52.064 1084.39 54.208C1083.46 56.32 1082.17 58.16 1080.5 59.728C1078.84 61.296 1076.87 62.512 1074.6 63.376C1072.36 64.24 1069.88 64.672 1067.16 64.672ZM1067.16 56.8C1068.44 56.8 1069.62 56.576 1070.71 56.128C1071.83 55.68 1072.79 55.04 1073.59 54.208C1074.42 53.344 1075.06 52.32 1075.51 51.136C1075.99 49.952 1076.23 48.64 1076.23 47.2C1076.23 45.728 1075.99 44.416 1075.51 43.264C1075.06 42.08 1074.42 41.072 1073.59 40.24C1072.79 39.376 1071.83 38.72 1070.71 38.272C1069.62 37.824 1068.44 37.6 1067.16 37.6C1065.88 37.6 1064.68 37.824 1063.56 38.272C1062.47 38.72 1061.51 39.376 1060.68 40.24C1059.88 41.072 1059.24 42.08 1058.76 43.264C1058.31 44.416 1058.09 45.728 1058.09 47.2C1058.09 48.64 1058.31 49.952 1058.76 51.136C1059.24 52.32 1059.88 53.344 1060.68 54.208C1061.51 55.04 1062.47 55.68 1063.56 56.128C1064.68 56.576 1065.88 56.8 1067.16 56.8ZM1091.77 64V30.4H1101.27V56.464H1117.3V64H1091.77ZM1130.1 64L1115.74 30.4H1126.02L1138.11 59.488H1132.06L1144.45 30.4H1153.86L1139.46 64H1130.1ZM1165.52 43.408H1181.12V50.512H1165.52V43.408ZM1166.19 56.656H1183.76V64H1156.78V30.4H1183.13V37.744H1166.19V56.656ZM1189.99 64V30.4H1205.35C1208.42 30.4 1211.06 30.896 1213.27 31.888C1215.51 32.88 1217.24 34.32 1218.46 36.208C1219.67 38.064 1220.28 40.272 1220.28 42.832C1220.28 45.36 1219.67 47.552 1218.46 49.408C1217.24 51.232 1215.51 52.64 1213.27 53.632C1211.06 54.592 1208.42 55.072 1205.35 55.072H1195.27L1199.5 51.088V64H1189.99ZM1210.78 64L1202.42 51.76H1212.55L1220.95 64H1210.78ZM1199.5 52.096L1195.27 47.728H1204.78C1206.76 47.728 1208.23 47.296 1209.19 46.432C1210.18 45.568 1210.68 44.368 1210.68 42.832C1210.68 41.264 1210.18 40.048 1209.19 39.184C1208.23 38.32 1206.76 37.888 1204.78 37.888H1195.27L1199.5 33.52V52.096Z" fill="#55E6C1"/>
<path d="M1236.69 47.68C1236.69 46.272 1236.91 45.0347 1237.33 43.968C1237.8 42.8587 1238.38 41.8773 1239.06 41.024C1239.74 40.1707 1240.47 39.4027 1241.24 38.72C1242.05 37.9947 1242.79 37.312 1243.48 36.672C1244.16 35.9893 1244.71 35.3067 1245.14 34.624C1245.61 33.9413 1245.84 33.1947 1245.84 32.384C1245.84 31.104 1245.31 30.1013 1244.24 29.376C1243.22 28.6507 1241.88 28.288 1240.21 28.288C1238.51 28.288 1236.95 28.6933 1235.54 29.504C1234.17 30.3147 1233.07 31.4453 1232.21 32.896L1222.68 27.776C1224.34 24.9173 1226.75 22.6347 1229.91 20.928C1233.07 19.1787 1236.99 18.304 1241.68 18.304C1244.97 18.304 1247.87 18.7733 1250.39 19.712C1252.95 20.608 1254.95 21.952 1256.4 23.744C1257.85 25.536 1258.58 27.7333 1258.58 30.336C1258.58 32 1258.32 33.4507 1257.81 34.688C1257.3 35.9253 1256.64 37.0133 1255.83 37.952C1255.06 38.8907 1254.23 39.7653 1253.33 40.576C1252.44 41.344 1251.58 42.0907 1250.77 42.816C1250 43.5413 1249.36 44.288 1248.85 45.056C1248.34 45.824 1248.08 46.6987 1248.08 47.68H1236.69ZM1242.39 64.576C1240.3 64.576 1238.57 63.9147 1237.2 62.592C1235.84 61.2693 1235.16 59.6907 1235.16 57.856C1235.16 55.9787 1235.84 54.4213 1237.2 53.184C1238.57 51.904 1240.3 51.264 1242.39 51.264C1244.56 51.264 1246.31 51.904 1247.64 53.184C1249 54.4213 1249.68 55.9787 1249.68 57.856C1249.68 59.6907 1249 61.2693 1247.64 62.592C1246.31 63.9147 1244.56 64.576 1242.39 64.576Z" fill="#FF007A"/>
<path d="M376.332 76.26C375.223 76.26 374.183 75.9913 373.212 75.454C372.241 74.9167 371.453 74.1453 370.846 73.14C370.257 72.1173 369.962 70.9127 369.962 69.526C369.962 68.1393 370.257 66.9433 370.846 65.938C371.453 64.9153 372.241 64.1267 373.212 63.572C374.183 63.0173 375.223 62.74 376.332 62.74C377.441 62.74 378.473 63.0173 379.426 63.572C380.397 64.1267 381.177 64.9153 381.766 65.938C382.355 66.9433 382.65 68.1393 382.65 69.526C382.65 70.9127 382.355 72.1173 381.766 73.14C381.177 74.1453 380.397 74.9167 379.426 75.454C378.473 75.9913 377.441 76.26 376.332 76.26ZM376.332 74.31C377.06 74.31 377.745 74.128 378.386 73.764C379.027 73.4 379.547 72.8627 379.946 72.152C380.362 71.424 380.57 70.5487 380.57 69.526C380.57 68.5033 380.362 67.6367 379.946 66.926C379.547 66.198 379.027 65.6433 378.386 65.262C377.745 64.8807 377.06 64.69 376.332 64.69C375.604 64.69 374.911 64.8807 374.252 65.262C373.611 65.626 373.082 66.172 372.666 66.9C372.25 67.6107 372.042 68.486 372.042 69.526C372.042 70.5487 372.241 71.424 372.64 72.152C373.056 72.8627 373.593 73.4 374.252 73.764C374.911 74.128 375.604 74.31 376.332 74.31ZM408.533 76H406.453V63H408.533V76ZM406.583 69.942L406.609 70.67C406.591 70.878 406.539 71.1987 406.453 71.632C406.383 72.0653 406.253 72.5507 406.063 73.088C405.889 73.608 405.629 74.1107 405.283 74.596C404.953 75.0813 404.52 75.48 403.983 75.792C403.463 76.104 402.813 76.26 402.033 76.26C401.53 76.26 401.01 76.182 400.473 76.026C399.953 75.8873 399.467 75.6533 399.017 75.324C398.566 74.9773 398.202 74.5007 397.925 73.894C397.647 73.2873 397.509 72.5333 397.509 71.632V63H399.589V71.112C399.589 71.892 399.71 72.5073 399.953 72.958C400.213 73.3913 400.559 73.7033 400.993 73.894C401.426 74.0847 401.911 74.18 402.449 74.18C403.333 74.18 404.069 73.9547 404.659 73.504C405.248 73.0533 405.699 72.4987 406.011 71.84C406.323 71.1813 406.513 70.5487 406.583 69.942ZM415.285 63H417.365V76H415.285V63ZM421.837 62.74C422.53 62.74 423.154 62.844 423.709 63.052C424.264 63.26 424.732 63.5633 425.113 63.962C425.494 64.3607 425.789 64.846 425.997 65.418C426.205 65.9727 426.309 66.6053 426.309 67.316V76H424.229V67.836C424.229 66.8307 423.995 66.0767 423.527 65.574C423.059 65.0713 422.357 64.82 421.421 64.82C420.71 64.82 420.052 65.002 419.445 65.366C418.838 65.73 418.336 66.2327 417.937 66.874C417.556 67.498 417.322 68.226 417.235 69.058L417.209 67.55C417.296 66.822 417.469 66.1633 417.729 65.574C418.006 64.9847 418.344 64.482 418.743 64.066C419.159 63.6327 419.627 63.3033 420.147 63.078C420.684 62.8527 421.248 62.74 421.837 62.74ZM448.401 76.26C447.447 76.26 446.667 76.0433 446.061 75.61C445.454 75.1593 444.977 74.5873 444.631 73.894C444.301 73.1833 444.067 72.4467 443.929 71.684C443.79 70.904 443.721 70.1847 443.721 69.526C443.721 68.59 443.781 67.7147 443.903 66.9C444.041 66.0853 444.275 65.366 444.605 64.742C444.934 64.118 445.402 63.6327 446.009 63.286C446.633 62.922 447.43 62.74 448.401 62.74C449.441 62.74 450.385 63.0347 451.235 63.624C452.084 64.2133 452.76 65.0193 453.263 66.042C453.783 67.0647 454.043 68.226 454.043 69.526C454.043 70.826 453.783 71.9873 453.263 73.01C452.743 74.0153 452.049 74.8127 451.183 75.402C450.333 75.974 449.406 76.26 448.401 76.26ZM447.881 74.284C448.678 74.284 449.38 74.0847 449.987 73.686C450.611 73.27 451.096 72.7067 451.443 71.996C451.789 71.268 451.963 70.4447 451.963 69.526C451.963 68.1393 451.607 66.9953 450.897 66.094C450.186 65.1753 449.181 64.716 447.881 64.716C447.118 64.716 446.442 64.924 445.853 65.34C445.263 65.7387 444.804 66.302 444.475 67.03C444.145 67.7407 443.981 68.5727 443.981 69.526C443.981 70.3927 444.119 71.19 444.397 71.918C444.691 72.6287 445.125 73.2007 445.697 73.634C446.269 74.0673 446.997 74.284 447.881 74.284ZM441.901 63H443.903L443.981 65.73V81.2H441.901V63ZM460.083 63H462.163V76H460.083V63ZM466.323 64.95C465.439 64.95 464.694 65.1753 464.087 65.626C463.498 66.0593 463.03 66.5967 462.683 67.238C462.354 67.862 462.137 68.4687 462.033 69.058L462.007 67.55C462.007 67.394 462.042 67.134 462.111 66.77C462.181 66.406 462.311 65.9987 462.501 65.548C462.692 65.08 462.943 64.638 463.255 64.222C463.585 63.7887 464.001 63.4333 464.503 63.156C465.006 62.8787 465.613 62.74 466.323 62.74V64.95ZM477.687 76.26C476.578 76.26 475.538 75.9913 474.567 75.454C473.597 74.9167 472.808 74.1453 472.201 73.14C471.612 72.1173 471.317 70.9127 471.317 69.526C471.317 68.1393 471.612 66.9433 472.201 65.938C472.808 64.9153 473.597 64.1267 474.567 63.572C475.538 63.0173 476.578 62.74 477.687 62.74C478.797 62.74 479.828 63.0173 480.781 63.572C481.752 64.1267 482.532 64.9153 483.121 65.938C483.711 66.9433 484.005 68.1393 484.005 69.526C484.005 70.9127 483.711 72.1173 483.121 73.14C482.532 74.1453 481.752 74.9167 480.781 75.454C479.828 75.9913 478.797 76.26 477.687 76.26ZM477.687 74.31C478.415 74.31 479.1 74.128 479.741 73.764C480.383 73.4 480.903 72.8627 481.301 72.152C481.717 71.424 481.925 70.5487 481.925 69.526C481.925 68.5033 481.717 67.6367 481.301 66.926C480.903 66.198 480.383 65.6433 479.741 65.262C479.1 64.8807 478.415 64.69 477.687 64.69C476.959 64.69 476.266 64.8807 475.607 65.262C474.966 65.626 474.437 66.172 474.021 66.9C473.605 67.6107 473.397 68.486 473.397 69.526C473.397 70.5487 473.597 71.424 473.995 72.152C474.411 72.8627 474.949 73.4 475.607 73.764C476.266 74.128 476.959 74.31 477.687 74.31ZM496.915 76.26C495.962 76.26 495.182 76.0433 494.575 75.61C493.968 75.1593 493.492 74.5873 493.145 73.894C492.816 73.1833 492.582 72.4467 492.443 71.684C492.304 70.904 492.235 70.1847 492.235 69.526C492.235 68.59 492.296 67.7147 492.417 66.9C492.556 66.0853 492.79 65.366 493.119 64.742C493.448 64.118 493.916 63.6327 494.523 63.286C495.147 62.922 495.944 62.74 496.915 62.74C498.007 62.74 498.978 63.0347 499.827 63.624C500.676 64.2133 501.344 65.0193 501.829 66.042C502.314 67.0647 502.557 68.226 502.557 69.526C502.557 70.826 502.306 71.9873 501.803 73.01C501.3 74.0153 500.624 74.8127 499.775 75.402C498.926 75.974 497.972 76.26 496.915 76.26ZM496.395 74.284C497.192 74.284 497.894 74.0847 498.501 73.686C499.108 73.27 499.584 72.7067 499.931 71.996C500.295 71.268 500.477 70.4447 500.477 69.526C500.477 68.1393 500.122 66.9953 499.411 66.094C498.7 65.1753 497.695 64.716 496.395 64.716C495.528 64.716 494.8 64.924 494.211 65.34C493.639 65.7387 493.206 66.302 492.911 67.03C492.634 67.7407 492.495 68.5727 492.495 69.526C492.495 70.3927 492.634 71.19 492.911 71.918C493.206 72.6287 493.639 73.2007 494.211 73.634C494.783 74.0673 495.511 74.284 496.395 74.284ZM492.495 57.8V73.4C492.495 73.712 492.469 74.128 492.417 74.648C492.382 75.168 492.348 75.6187 492.313 76H490.415V57.8H492.495ZM508.849 57.8H510.929V76H508.849V57.8ZM527.165 71.814H529.115C528.976 72.6633 528.664 73.426 528.179 74.102C527.711 74.7607 527.087 75.2893 526.307 75.688C525.544 76.0693 524.66 76.26 523.655 76.26C522.441 76.26 521.349 75.974 520.379 75.402C519.408 74.8127 518.637 74.0153 518.065 73.01C517.51 71.9873 517.233 70.826 517.233 69.526C517.233 68.226 517.501 67.0647 518.039 66.042C518.593 65.0193 519.347 64.2133 520.301 63.624C521.254 63.0347 522.329 62.74 523.525 62.74C524.79 62.74 525.856 63.026 526.723 63.598C527.607 64.1527 528.257 64.976 528.673 66.068C529.106 67.1427 529.279 68.4687 529.193 70.046H519.313C519.399 70.8953 519.633 71.6407 520.015 72.282C520.396 72.9233 520.899 73.426 521.523 73.79C522.147 74.1367 522.857 74.31 523.655 74.31C524.539 74.31 525.284 74.0847 525.891 73.634C526.515 73.166 526.939 72.5593 527.165 71.814ZM523.603 64.69C522.528 64.69 521.627 65.002 520.899 65.626C520.171 66.25 519.685 67.0993 519.443 68.174H527.061C526.991 67.03 526.619 66.1633 525.943 65.574C525.284 64.9847 524.504 64.69 523.603 64.69ZM535.255 63H537.335V76H535.255V63ZM541.807 62.74C542.5 62.74 543.124 62.844 543.679 63.052C544.233 63.26 544.701 63.5633 545.083 63.962C545.464 64.3607 545.759 64.846 545.967 65.418C546.175 65.9727 546.279 66.6053 546.279 67.316V76H544.199V67.836C544.199 66.8307 543.965 66.0767 543.497 65.574C543.029 65.0713 542.327 64.82 541.391 64.82C540.68 64.82 540.021 65.002 539.415 65.366C538.808 65.73 538.305 66.2327 537.907 66.874C537.525 67.498 537.291 68.226 537.205 69.058L537.179 67.55C537.265 66.822 537.439 66.1633 537.699 65.574C537.976 64.9847 538.314 64.482 538.713 64.066C539.129 63.6327 539.597 63.3033 540.117 63.078C540.654 62.8527 541.217 62.74 541.807 62.74ZM550.543 62.74C551.236 62.74 551.86 62.844 552.415 63.052C552.969 63.26 553.437 63.5633 553.819 63.962C554.2 64.3607 554.495 64.846 554.703 65.418C554.911 65.9727 555.015 66.6053 555.015 67.316V76H552.935V67.836C552.935 66.8307 552.701 66.0767 552.233 65.574C551.765 65.0713 551.063 64.82 550.127 64.82C549.416 64.82 548.757 65.002 548.151 65.366C547.544 65.73 547.041 66.2327 546.643 66.874C546.261 67.498 546.027 68.226 545.941 69.058L545.915 67.55C546.001 66.822 546.175 66.1633 546.435 65.574C546.712 64.9847 547.05 64.482 547.449 64.066C547.865 63.6327 548.333 63.3033 548.853 63.078C549.39 62.8527 549.953 62.74 550.543 62.74ZM566.68 76.26C565.657 76.26 564.712 75.974 563.846 75.402C562.996 74.8127 562.312 74.0153 561.792 73.01C561.289 71.9873 561.038 70.826 561.038 69.526C561.038 68.226 561.298 67.0647 561.818 66.042C562.338 65.0193 563.04 64.2133 563.924 63.624C564.825 63.0347 565.83 62.74 566.94 62.74C568.153 62.74 569.072 63.052 569.696 63.676C570.337 64.2827 570.77 65.0973 570.996 66.12C571.238 67.1427 571.36 68.278 571.36 69.526C571.36 70.1847 571.29 70.904 571.152 71.684C571.013 72.4467 570.77 73.1833 570.424 73.894C570.094 74.5873 569.626 75.1593 569.02 75.61C568.413 76.0433 567.633 76.26 566.68 76.26ZM567.2 74.284C568.084 74.284 568.812 74.0673 569.384 73.634C569.973 73.2007 570.406 72.6287 570.684 71.918C570.961 71.19 571.1 70.3927 571.1 69.526C571.1 68.5727 570.952 67.7407 570.658 67.03C570.38 66.302 569.947 65.7387 569.358 65.34C568.786 64.924 568.066 64.716 567.2 64.716C565.9 64.716 564.894 65.1753 564.184 66.094C563.473 66.9953 563.118 68.1393 563.118 69.526C563.118 70.4447 563.291 71.268 563.638 71.996C564.002 72.7067 564.487 73.27 565.094 73.686C565.718 74.0847 566.42 74.284 567.2 74.284ZM571.1 63H573.18V76H571.282C571.282 76 571.264 75.844 571.23 75.532C571.212 75.22 571.186 74.856 571.152 74.44C571.117 74.024 571.1 73.6773 571.1 73.4V63ZM593.701 76.26C592.679 76.26 591.734 75.974 590.867 75.402C590.018 74.8127 589.333 74.0153 588.813 73.01C588.311 71.9873 588.059 70.826 588.059 69.526C588.059 68.226 588.311 67.0647 588.813 66.042C589.333 65.0193 590.018 64.2133 590.867 63.624C591.734 63.0347 592.679 62.74 593.701 62.74C594.672 62.74 595.461 62.922 596.067 63.286C596.691 63.6327 597.168 64.118 597.497 64.742C597.827 65.366 598.052 66.0853 598.173 66.9C598.312 67.7147 598.381 68.59 598.381 69.526C598.381 70.1847 598.312 70.904 598.173 71.684C598.035 72.4467 597.792 73.1833 597.445 73.894C597.116 74.5873 596.648 75.1593 596.041 75.61C595.435 76.0433 594.655 76.26 593.701 76.26ZM594.221 74.284C595.105 74.284 595.833 74.0673 596.405 73.634C596.995 73.2007 597.428 72.6287 597.705 71.918C597.983 71.19 598.121 70.3927 598.121 69.526C598.121 68.5727 597.974 67.7407 597.679 67.03C597.402 66.302 596.969 65.7387 596.379 65.34C595.807 64.924 595.088 64.716 594.221 64.716C592.921 64.716 591.916 65.1753 591.205 66.094C590.495 66.9953 590.139 68.1393 590.139 69.526C590.139 70.4447 590.313 71.268 590.659 71.996C591.023 72.7067 591.509 73.27 592.115 73.686C592.739 74.0847 593.441 74.284 594.221 74.284ZM600.201 63V81.2H598.121V65.418V63H600.201ZM618.375 76H616.295V63H618.375V76ZM616.425 69.942L616.451 70.67C616.434 70.878 616.382 71.1987 616.295 71.632C616.226 72.0653 616.096 72.5507 615.905 73.088C615.732 73.608 615.472 74.1107 615.125 74.596C614.796 75.0813 614.362 75.48 613.825 75.792C613.305 76.104 612.655 76.26 611.875 76.26C611.372 76.26 610.852 76.182 610.315 76.026C609.795 75.8873 609.31 75.6533 608.859 75.324C608.408 74.9773 608.044 74.5007 607.767 73.894C607.49 73.2873 607.351 72.5333 607.351 71.632V63H609.431V71.112C609.431 71.892 609.552 72.5073 609.795 72.958C610.055 73.3913 610.402 73.7033 610.835 73.894C611.268 74.0847 611.754 74.18 612.291 74.18C613.175 74.18 613.912 73.9547 614.501 73.504C615.09 73.0533 615.541 72.4987 615.853 71.84C616.165 71.1813 616.356 70.5487 616.425 69.942ZM634.331 71.814H636.281C636.143 72.6633 635.831 73.426 635.345 74.102C634.877 74.7607 634.253 75.2893 633.473 75.688C632.711 76.0693 631.827 76.26 630.821 76.26C629.608 76.26 628.516 75.974 627.545 75.402C626.575 74.8127 625.803 74.0153 625.231 73.01C624.677 71.9873 624.399 70.826 624.399 69.526C624.399 68.226 624.668 67.0647 625.205 66.042C625.76 65.0193 626.514 64.2133 627.467 63.624C628.421 63.0347 629.495 62.74 630.691 62.74C631.957 62.74 633.023 63.026 633.889 63.598C634.773 64.1527 635.423 64.976 635.839 66.068C636.273 67.1427 636.446 68.4687 636.359 70.046H626.479C626.566 70.8953 626.8 71.6407 627.181 72.282C627.563 72.9233 628.065 73.426 628.689 73.79C629.313 74.1367 630.024 74.31 630.821 74.31C631.705 74.31 632.451 74.0847 633.057 73.634C633.681 73.166 634.106 72.5593 634.331 71.814ZM630.769 64.69C629.695 64.69 628.793 65.002 628.065 65.626C627.337 66.25 626.852 67.0993 626.609 68.174H634.227C634.158 67.03 633.785 66.1633 633.109 65.574C632.451 64.9847 631.671 64.69 630.769 64.69Z" fill="#B2AD99"/>
<path d="M19.648 72.688C16.3627 72.688 13.44 72.2187 10.88 71.28C8.36262 70.384 6.37862 69.04 4.92795 67.248C3.47728 65.4987 2.75195 63.344 2.75195 60.784C2.75195 59.12 3.00795 57.6693 3.51995 56.432C4.03195 55.1947 4.67195 54.128 5.43995 53.232C6.25062 52.2933 7.08262 51.44 7.93595 50.672C8.83195 49.8613 9.68528 49.1147 10.496 48.432C11.3067 47.7067 11.968 46.96 12.48 46.192C12.992 45.424 13.248 44.5707 13.248 43.632H24.64C24.64 44.9973 24.4053 46.2133 23.936 47.28C23.5093 48.3467 22.9547 49.3067 22.272 50.16C21.5893 51.0133 20.8427 51.8027 20.032 52.528C19.264 53.2107 18.5387 53.8933 17.856 54.576C17.1733 55.216 16.5973 55.8773 16.128 56.56C15.7013 57.2427 15.488 57.9893 15.488 58.8C15.488 59.9947 16 60.9547 17.024 61.68C18.0907 62.3627 19.456 62.704 21.12 62.704C22.8267 62.704 24.3627 62.2987 25.728 61.488C27.136 60.6773 28.2667 59.568 29.12 58.16L38.656 63.216C36.992 66.0747 34.5813 68.3573 31.424 70.064C28.2667 71.8133 24.3413 72.688 19.648 72.688ZM18.944 40.048C16.8107 40.048 15.0613 39.408 13.696 38.128C12.3307 36.848 11.648 35.2907 11.648 33.456C11.648 31.5787 12.3307 30 13.696 28.72C15.0613 27.3973 16.8107 26.736 18.944 26.736C21.0773 26.736 22.8053 27.3973 24.128 28.72C25.4933 30 26.176 31.5787 26.176 33.456C26.176 35.2907 25.4933 36.848 24.128 38.128C22.8053 39.408 21.0773 40.048 18.944 40.048Z" fill="#FF007A"/>
<path d="M50.9554 62V44.624H44.0754V39.6H64.1394V44.624H57.2914V62H50.9554ZM75.2039 48.272H85.6039V53.008H75.2039V48.272ZM75.6519 57.104H87.3639V62H69.3799V39.6H86.9479V44.496H75.6519V57.104ZM93.7599 62V39.6H98.9759L111.328 54.512H108.864V39.6H115.072V62H109.856L97.5039 47.088H99.9679V62H93.7599ZM128.245 48.272H138.645V53.008H128.245V48.272ZM128.693 57.104H140.405V62H122.421V39.6H139.989V44.496H128.693V57.104ZM128.085 37.776L132.373 32.912H138.453L132.437 37.776H128.085ZM154.673 62.448C152.839 62.448 151.068 62.224 149.361 61.776C147.676 61.3067 146.3 60.7093 145.233 59.984L147.313 55.312C148.316 55.952 149.468 56.4853 150.769 56.912C152.092 57.3173 153.404 57.52 154.705 57.52C155.58 57.52 156.284 57.4453 156.817 57.296C157.351 57.1253 157.735 56.912 157.969 56.656C158.225 56.3787 158.353 56.0587 158.353 55.696C158.353 55.184 158.119 54.7787 157.649 54.48C157.18 54.1813 156.572 53.936 155.825 53.744C155.079 53.552 154.247 53.36 153.329 53.168C152.433 52.976 151.527 52.7307 150.609 52.432C149.713 52.1333 148.892 51.7493 148.145 51.28C147.399 50.7893 146.791 50.16 146.321 49.392C145.852 48.6027 145.617 47.6107 145.617 46.416C145.617 45.072 145.98 43.856 146.705 42.768C147.452 41.68 148.561 40.8053 150.033 40.144C151.505 39.4827 153.34 39.152 155.537 39.152C157.009 39.152 158.449 39.3227 159.857 39.664C161.287 39.984 162.556 40.464 163.665 41.104L161.713 45.808C160.647 45.232 159.591 44.8053 158.545 44.528C157.5 44.2293 156.487 44.08 155.505 44.08C154.631 44.08 153.927 44.176 153.393 44.368C152.86 44.5387 152.476 44.7733 152.241 45.072C152.007 45.3707 151.889 45.712 151.889 46.096C151.889 46.5867 152.113 46.9813 152.561 47.28C153.031 47.5573 153.639 47.792 154.385 47.984C155.153 48.1547 155.985 48.336 156.881 48.528C157.799 48.72 158.705 48.9653 159.601 49.264C160.519 49.5413 161.351 49.9253 162.097 50.416C162.844 50.8853 163.441 51.5147 163.889 52.304C164.359 53.072 164.593 54.0427 164.593 55.216C164.593 56.5173 164.22 57.7227 163.473 58.832C162.748 59.92 161.649 60.7947 160.177 61.456C158.727 62.1173 156.892 62.448 154.673 62.448ZM192.929 62.448C189.622 62.448 187.041 61.5413 185.185 59.728C183.329 57.9147 182.401 55.344 182.401 52.016V39.6H188.737V51.824C188.737 53.744 189.11 55.12 189.857 55.952C190.625 56.784 191.67 57.2 192.993 57.2C194.315 57.2 195.35 56.784 196.097 55.952C196.843 55.12 197.217 53.744 197.217 51.824V39.6H203.457V52.016C203.457 55.344 202.529 57.9147 200.673 59.728C198.817 61.5413 196.235 62.448 192.929 62.448ZM210.629 62V39.6H215.845L228.197 54.512H225.733V39.6H231.941V62H226.725L214.373 47.088H216.837V62H210.629ZM236.602 62L246.49 39.6H252.73L262.65 62H256.058L248.314 42.704H250.81L243.066 62H236.602ZM242.01 57.648L243.642 52.976H254.586L256.218 57.648H242.01ZM279.519 62V39.6H285.855V62H279.519ZM293.243 62V39.6H303.835C306.309 39.6 308.485 40.0587 310.363 40.976C312.24 41.8933 313.701 43.184 314.747 44.848C315.813 46.512 316.347 48.496 316.347 50.8C316.347 53.0827 315.813 55.0667 314.747 56.752C313.701 58.416 312.24 59.7067 310.363 60.624C308.485 61.5413 306.309 62 303.835 62H293.243ZM299.579 56.944H303.579C304.859 56.944 305.968 56.7093 306.907 56.24C307.867 55.7493 308.613 55.0453 309.147 54.128C309.68 53.1893 309.947 52.08 309.947 50.8C309.947 49.4987 309.68 48.3893 309.147 47.472C308.613 46.5547 307.867 45.8613 306.907 45.392C305.968 44.9013 304.859 44.656 303.579 44.656H299.579V56.944ZM328.384 48.272H338.784V53.008H328.384V48.272ZM328.832 57.104H340.544V62H322.56V39.6H340.128V44.496H328.832V57.104ZM344.252 62L354.14 39.6H360.38L370.3 62H363.708L355.964 42.704H358.46L350.716 62H344.252ZM349.66 57.648L351.292 52.976H362.236L363.868 57.648H349.66Z" fill="#55E6C1"/>
</svg>
