<svg width="347" height="60" viewBox="0 0 347 60" fill="none" xmlns="http://www.w3.org/2000/svg">
<path d="M220.36 47V13.4H229.864V47H220.36ZM237.586 47V13.4H253.474C257.186 13.4 260.45 14.088 263.266 15.464C266.082 16.84 268.274 18.776 269.842 21.272C271.442 23.768 272.242 26.744 272.242 30.2C272.242 33.624 271.442 36.6 269.842 39.128C268.274 41.624 266.082 43.56 263.266 44.936C260.45 46.312 257.186 47 253.474 47H237.586ZM247.09 39.416H253.09C255.01 39.416 256.674 39.064 258.082 38.36C259.522 37.624 260.642 36.568 261.442 35.192C262.242 33.784 262.642 32.12 262.642 30.2C262.642 28.248 262.242 26.584 261.442 25.208C260.642 23.832 259.522 22.792 258.082 22.088C256.674 21.352 255.01 20.984 253.09 20.984H247.09V39.416ZM286.938 26.408H302.538V33.512H286.938V26.408ZM287.61 39.656H305.178V47H278.202V13.4H304.554V20.744H287.61V39.656ZM307.38 47L322.212 13.4H331.572L346.452 47H336.564L324.948 18.056H328.692L317.076 47H307.38ZM315.492 40.472L317.94 33.464H334.356L336.804 40.472H315.492Z" fill="#FF8C00"/>
<path d="M190.78 40H198.424V41.95H190.78V40ZM193.562 36.62H195.642V53H193.562V36.62ZM215.285 53H213.205V40H215.285V53ZM213.335 46.942L213.361 47.67C213.344 47.878 213.292 48.1987 213.205 48.632C213.136 49.0653 213.006 49.5507 212.815 50.088C212.642 50.608 212.382 51.1107 212.035 51.596C211.706 52.0813 211.273 52.48 210.735 52.792C210.215 53.104 209.565 53.26 208.785 53.26C208.283 53.26 207.763 53.182 207.225 53.026C206.705 52.8873 206.22 52.6533 205.769 52.324C205.319 51.9773 204.955 51.5007 204.677 50.894C204.4 50.2873 204.261 49.5333 204.261 48.632V40H206.341V48.112C206.341 48.892 206.463 49.5073 206.705 49.958C206.965 50.3913 207.312 50.7033 207.745 50.894C208.179 51.0847 208.664 51.18 209.201 51.18C210.085 51.18 210.822 50.9547 211.411 50.504C212.001 50.0533 212.451 49.4987 212.763 48.84C213.075 48.1813 213.266 47.5487 213.335 46.942ZM208.915 37.374L211.671 33.188H214.401L210.761 37.374H208.915Z" fill="#B2AD99"/>
<path d="M13.4079 36.448C11.6372 36.448 9.99456 36.1707 8.47989 35.616C6.98656 35.04 5.68522 34.2293 4.57589 33.184C3.48789 32.1387 2.63456 30.912 2.01589 29.504C1.39722 28.0747 1.08789 26.5067 1.08789 24.8C1.08789 23.0933 1.39722 21.536 2.01589 20.128C2.63456 18.6987 3.48789 17.4613 4.57589 16.416C5.68522 15.3707 6.98656 14.5707 8.47989 14.016C9.99456 13.44 11.6372 13.152 13.4079 13.152C15.4772 13.152 17.3226 13.5147 18.9439 14.24C20.5866 14.9653 21.9519 16.0107 23.0399 17.376L19.0079 21.024C18.2826 20.1707 17.4826 19.52 16.6079 19.072C15.7546 18.624 14.7946 18.4 13.7279 18.4C12.8106 18.4 11.9679 18.5493 11.1999 18.848C10.4319 19.1467 9.77056 19.584 9.21589 20.16C8.68256 20.7147 8.25589 21.3867 7.93589 22.176C7.63722 22.9653 7.48789 23.84 7.48789 24.8C7.48789 25.76 7.63722 26.6347 7.93589 27.424C8.25589 28.2133 8.68256 28.896 9.21589 29.472C9.77056 30.0267 10.4319 30.4533 11.1999 30.752C11.9679 31.0507 12.8106 31.2 13.7279 31.2C14.7946 31.2 15.7546 30.976 16.6079 30.528C17.4826 30.08 18.2826 29.4293 19.0079 28.576L23.0399 32.224C21.9519 33.568 20.5866 34.6133 18.9439 35.36C17.3226 36.0853 15.4772 36.448 13.4079 36.448ZM39.5722 36.448C37.7802 36.448 36.1268 36.16 34.6122 35.584C33.0975 35.008 31.7748 34.1973 30.6442 33.152C29.5348 32.0853 28.6708 30.848 28.0522 29.44C27.4335 28.032 27.1242 26.4853 27.1242 24.8C27.1242 23.1147 27.4335 21.568 28.0522 20.16C28.6708 18.752 29.5348 17.5253 30.6442 16.48C31.7748 15.4133 33.0975 14.592 34.6122 14.016C36.1268 13.44 37.7802 13.152 39.5722 13.152C41.3855 13.152 43.0388 13.44 44.5322 14.016C46.0468 14.592 47.3588 15.4133 48.4682 16.48C49.5775 17.5253 50.4415 18.752 51.0602 20.16C51.7002 21.568 52.0202 23.1147 52.0202 24.8C52.0202 26.4853 51.7002 28.0427 51.0602 29.472C50.4415 30.88 49.5775 32.1067 48.4682 33.152C47.3588 34.1973 46.0468 35.008 44.5322 35.584C43.0388 36.16 41.3855 36.448 39.5722 36.448ZM39.5722 31.2C40.4255 31.2 41.2148 31.0507 41.9402 30.752C42.6868 30.4533 43.3268 30.0267 43.8602 29.472C44.4148 28.896 44.8415 28.2133 45.1402 27.424C45.4602 26.6347 45.6202 25.76 45.6202 24.8C45.6202 23.8187 45.4602 22.944 45.1402 22.176C44.8415 21.3867 44.4148 20.7147 43.8602 20.16C43.3268 19.584 42.6868 19.1467 41.9402 18.848C41.2148 18.5493 40.4255 18.4 39.5722 18.4C38.7188 18.4 37.9188 18.5493 37.1722 18.848C36.4468 19.1467 35.8068 19.584 35.2522 20.16C34.7188 20.7147 34.2922 21.3867 33.9722 22.176C33.6735 22.944 33.5242 23.8187 33.5242 24.8C33.5242 25.76 33.6735 26.6347 33.9722 27.424C34.2922 28.2133 34.7188 28.896 35.2522 29.472C35.8068 30.0267 36.4468 30.4533 37.1722 30.752C37.9188 31.0507 38.7188 31.2 39.5722 31.2ZM58.2187 36V13.6H63.4347L75.7867 28.512H73.3227V13.6H79.5307V36H74.3147L61.9627 21.088H64.4267V36H58.2187ZM91.6479 36V18.624H84.7679V13.6H104.832V18.624H97.9839V36H91.6479ZM106.26 36L116.148 13.6H122.388L132.308 36H125.716L117.972 16.704H120.468L112.724 36H106.26ZM111.668 31.648L113.3 26.976H124.244L125.876 31.648H111.668ZM136.984 36V13.6H142.2L151.48 28.832H148.728L157.752 13.6H162.968L163.032 36H157.208L157.144 22.464H158.136L151.384 33.792H148.568L141.624 22.464H142.84V36H136.984ZM176.219 22.272H186.619V27.008H176.219V22.272ZM176.667 31.104H188.379V36H170.395V13.6H187.963V18.496H176.667V31.104Z" fill="#FF007A"/>
</svg>
