<svg width="260" height="118" viewBox="0 0 260 118" fill="none" xmlns="http://www.w3.org/2000/svg">
<path d="M3.5 105V70H19.5C22.7 70 25.45 70.5167 27.75 71.55C30.0833 72.5833 31.8833 74.0833 33.15 76.05C34.4167 77.9833 35.05 80.2833 35.05 82.95C35.05 85.5833 34.4167 87.8667 33.15 89.8C31.8833 91.7333 30.0833 93.2333 27.75 94.3C25.45 95.3333 22.7 95.85 19.5 95.85H9L13.4 91.55V105H3.5ZM13.4 92.6L9 88.05H18.9C20.9667 88.05 22.5 87.6 23.5 86.7C24.5333 85.8 25.05 84.55 25.05 82.95C25.05 81.3167 24.5333 80.05 23.5 79.15C22.5 78.25 20.9667 77.8 18.9 77.8H9L13.4 73.25V92.6ZM55.477 83.55H71.727V90.95H55.477V83.55ZM56.177 97.35H74.477V105H46.377V70H73.827V77.65H56.177V97.35ZM86.4707 105V70H94.6207L113.921 93.3H110.071V70H119.771V105H111.621L92.3207 81.7H96.1707V105H86.4707ZM145.554 105.7C142.687 105.7 139.921 105.35 137.254 104.65C134.621 103.917 132.471 102.983 130.804 101.85L134.054 94.55C135.621 95.55 137.421 96.3833 139.454 97.05C141.521 97.6833 143.571 98 145.604 98C146.971 98 148.071 97.8833 148.904 97.65C149.737 97.3833 150.337 97.05 150.704 96.65C151.104 96.2167 151.304 95.7167 151.304 95.15C151.304 94.35 150.937 93.7167 150.204 93.25C149.471 92.7833 148.521 92.4 147.354 92.1C146.187 91.8 144.887 91.5 143.454 91.2C142.054 90.9 140.637 90.5167 139.204 90.05C137.804 89.5833 136.521 88.9833 135.354 88.25C134.187 87.4833 133.237 86.5 132.504 85.3C131.771 84.0667 131.404 82.5167 131.404 80.65C131.404 78.55 131.971 76.65 133.104 74.95C134.271 73.25 136.004 71.8833 138.304 70.85C140.604 69.8167 143.471 69.3 146.904 69.3C149.204 69.3 151.454 69.5667 153.654 70.1C155.887 70.6 157.871 71.35 159.604 72.35L156.554 79.7C154.887 78.8 153.237 78.1333 151.604 77.7C149.971 77.2333 148.387 77 146.854 77C145.487 77 144.387 77.15 143.554 77.45C142.721 77.7167 142.121 78.0833 141.754 78.55C141.387 79.0167 141.204 79.55 141.204 80.15C141.204 80.9167 141.554 81.5333 142.254 82C142.987 82.4333 143.937 82.8 145.104 83.1C146.304 83.3667 147.604 83.65 149.004 83.95C150.437 84.25 151.854 84.6333 153.254 85.1C154.687 85.5333 155.987 86.1333 157.154 86.9C158.321 87.6333 159.254 88.6167 159.954 89.85C160.687 91.05 161.054 92.5667 161.054 94.4C161.054 96.4333 160.471 98.3167 159.304 100.05C158.171 101.75 156.454 103.117 154.154 104.15C151.887 105.183 149.021 105.7 145.554 105.7ZM167.927 105L183.377 70H193.127L208.627 105H198.327L186.227 74.85H190.127L178.027 105H167.927ZM176.377 98.2L178.927 90.9H196.027L198.577 98.2H176.377ZM217.934 105V70H233.934C237.134 70 239.884 70.5167 242.184 71.55C244.517 72.5833 246.317 74.0833 247.584 76.05C248.85 77.9833 249.484 80.2833 249.484 82.95C249.484 85.5833 248.85 87.8667 247.584 89.8C246.317 91.7 244.517 93.1667 242.184 94.2C239.884 95.2 237.134 95.7 233.934 95.7H223.434L227.834 91.55V105H217.934ZM239.584 105L230.884 92.25H241.434L250.184 105H239.584ZM227.834 92.6L223.434 88.05H233.334C235.4 88.05 236.934 87.6 237.934 86.7C238.967 85.8 239.484 84.55 239.484 82.95C239.484 81.3167 238.967 80.05 237.934 79.15C236.934 78.25 235.4 77.8 233.334 77.8H223.434L227.834 73.25V92.6Z" fill="#FF8C00"/>
<path d="M14.4282 68V59.836C14.4282 59.16 14.3242 58.6053 14.1162 58.172C13.9082 57.7213 13.5962 57.3833 13.1802 57.158C12.7642 56.9327 12.2442 56.82 11.6202 56.82C10.9095 56.82 10.2508 57.002 9.64413 57.366C9.03746 57.73 8.53479 58.2327 8.13613 58.874C7.75479 59.498 7.52079 60.226 7.43413 61.058L7.40813 59.55C7.49479 58.822 7.66813 58.1633 7.92813 57.574C8.20546 56.9847 8.54346 56.482 8.94213 56.066C9.35813 55.6327 9.82613 55.3033 10.3462 55.078C10.8835 54.8527 11.4468 54.74 12.0362 54.74C12.7295 54.74 13.3535 54.844 13.9082 55.052C14.4628 55.26 14.9308 55.5633 15.3122 55.962C15.6935 56.3607 15.9881 56.846 16.1961 57.418C16.4042 57.9727 16.5082 58.6053 16.5082 59.316V68H14.4282ZM5.48413 68V49.8H7.56413V68H5.48413ZM27.6727 68.26C26.6501 68.26 25.7053 67.974 24.8386 67.402C23.9893 66.8127 23.3047 66.0153 22.7847 65.01C22.2821 63.9873 22.0307 62.826 22.0307 61.526C22.0307 60.226 22.2906 59.0647 22.8106 58.042C23.3307 57.0193 24.0326 56.2133 24.9167 55.624C25.8181 55.0347 26.8233 54.74 27.9326 54.74C29.146 54.74 30.0646 55.052 30.6887 55.676C31.33 56.2827 31.7634 57.0973 31.9887 58.12C32.2314 59.1427 32.3526 60.278 32.3526 61.526C32.3526 62.1847 32.2833 62.904 32.1446 63.684C32.0061 64.4467 31.7634 65.1833 31.4167 65.894C31.0874 66.5873 30.6194 67.1593 30.0126 67.61C29.406 68.0433 28.6261 68.26 27.6727 68.26ZM28.1926 66.284C29.0767 66.284 29.8046 66.0673 30.3766 65.634C30.966 65.2007 31.3994 64.6287 31.6767 63.918C31.9541 63.19 32.0927 62.3927 32.0927 61.526C32.0927 60.5727 31.9454 59.7407 31.6507 59.03C31.3734 58.302 30.9401 57.7387 30.3507 57.34C29.7787 56.924 29.0593 56.716 28.1926 56.716C26.8927 56.716 25.8874 57.1753 25.1767 58.094C24.4661 58.9953 24.1107 60.1393 24.1107 61.526C24.1107 62.4447 24.284 63.268 24.6306 63.996C24.9946 64.7067 25.4801 65.27 26.0867 65.686C26.7107 66.0847 27.4126 66.284 28.1926 66.284ZM32.0927 55H34.1726V68H32.2747C32.2747 68 32.2573 67.844 32.2226 67.532C32.2053 67.22 32.1793 66.856 32.1446 66.44C32.1101 66.024 32.0927 65.6773 32.0927 65.4V55ZM39.2514 55H41.4874L46.1414 67.48L44.3214 68L39.2514 55ZM51.3414 55L44.0875 73.2H41.8255L44.9715 66.18L49.1315 55H51.3414ZM75.7514 68H73.6714V55H75.7514V68ZM73.8014 61.942L73.8274 62.67C73.8101 62.878 73.7581 63.1987 73.6714 63.632C73.6021 64.0653 73.4721 64.5507 73.2814 65.088C73.1081 65.608 72.8481 66.1107 72.5014 66.596C72.1721 67.0813 71.7387 67.48 71.2014 67.792C70.6814 68.104 70.0314 68.26 69.2514 68.26C68.7487 68.26 68.2286 68.182 67.6913 68.026C67.1713 67.8873 66.686 67.6533 66.2353 67.324C65.7846 66.9773 65.4207 66.5007 65.1434 65.894C64.8661 65.2873 64.7274 64.5333 64.7274 63.632V55H66.8074V63.112C66.8074 63.892 66.9287 64.5073 67.1714 64.958C67.4314 65.3913 67.7781 65.7033 68.2114 65.894C68.6447 66.0847 69.1301 66.18 69.6674 66.18C70.5514 66.18 71.2881 65.9547 71.8774 65.504C72.4667 65.0533 72.9174 64.4987 73.2294 63.84C73.5414 63.1813 73.7321 62.5487 73.8014 61.942ZM81.9839 55H84.0639V68H81.9839V55ZM88.5359 54.74C89.2291 54.74 89.8531 54.844 90.4079 55.052C90.9626 55.26 91.4305 55.5633 91.8119 55.962C92.1932 56.3607 92.4879 56.846 92.6959 57.418C92.9039 57.9727 93.0079 58.6053 93.0079 59.316V68H90.9279V59.836C90.9279 58.8307 90.6939 58.0767 90.2259 57.574C89.7579 57.0713 89.0559 56.82 88.1199 56.82C87.4092 56.82 86.7505 57.002 86.1439 57.366C85.5372 57.73 85.0346 58.2327 84.6359 58.874C84.2546 59.498 84.0206 60.226 83.9339 61.058L83.9079 59.55C83.9946 58.822 84.1679 58.1633 84.4279 57.574C84.7052 56.9847 85.0432 56.482 85.4419 56.066C85.8579 55.6327 86.3259 55.3033 86.8459 55.078C87.3832 54.8527 87.9465 54.74 88.5359 54.74ZM104.154 68.26C103.132 68.26 102.187 67.974 101.32 67.402C100.471 66.8127 99.7864 66.0153 99.2664 65.01C98.7637 63.9873 98.5124 62.826 98.5124 61.526C98.5124 60.226 98.7724 59.0647 99.2924 58.042C99.8123 57.0193 100.514 56.2133 101.398 55.624C102.3 55.0347 103.305 54.74 104.414 54.74C105.628 54.74 106.546 55.052 107.17 55.676C107.812 56.2827 108.245 57.0973 108.47 58.12C108.713 59.1427 108.834 60.278 108.834 61.526C108.834 62.1847 108.765 62.904 108.626 63.684C108.488 64.4467 108.245 65.1833 107.898 65.894C107.569 66.5873 107.101 67.1593 106.494 67.61C105.888 68.0433 105.108 68.26 104.154 68.26ZM104.674 66.284C105.558 66.284 106.286 66.0673 106.858 65.634C107.448 65.2007 107.881 64.6287 108.158 63.918C108.436 63.19 108.574 62.3927 108.574 61.526C108.574 60.5727 108.427 59.7407 108.132 59.03C107.855 58.302 107.422 57.7387 106.832 57.34C106.26 56.924 105.541 56.716 104.674 56.716C103.374 56.716 102.369 57.1753 101.658 58.094C100.948 58.9953 100.592 60.1393 100.592 61.526C100.592 62.4447 100.766 63.268 101.112 63.996C101.476 64.7067 101.962 65.27 102.568 65.686C103.192 66.0847 103.894 66.284 104.674 66.284ZM108.574 55H110.654V68H108.756C108.756 68 108.739 67.844 108.704 67.532C108.687 67.22 108.661 66.856 108.626 66.44C108.592 66.024 108.574 65.6773 108.574 65.4V55ZM124.312 55H131.956V56.95H124.312V55ZM131.046 49.8H132.242V51.88H131.046C130.613 51.8627 130.214 51.9233 129.85 52.062C129.503 52.2007 129.226 52.4433 129.018 52.79C128.81 53.1193 128.706 53.596 128.706 54.22V68H126.626V54.22C126.626 53.18 126.808 52.3393 127.172 51.698C127.553 51.0393 128.073 50.5627 128.732 50.268C129.408 49.956 130.179 49.8 131.046 49.8ZM142.484 68.26C141.375 68.26 140.335 67.9913 139.364 67.454C138.393 66.9167 137.605 66.1453 136.998 65.14C136.409 64.1173 136.114 62.9127 136.114 61.526C136.114 60.1393 136.409 58.9433 136.998 57.938C137.605 56.9153 138.393 56.1267 139.364 55.572C140.335 55.0173 141.375 54.74 142.484 54.74C143.593 54.74 144.625 55.0173 145.578 55.572C146.549 56.1267 147.329 56.9153 147.918 57.938C148.507 58.9433 148.802 60.1393 148.802 61.526C148.802 62.9127 148.507 64.1173 147.918 65.14C147.329 66.1453 146.549 66.9167 145.578 67.454C144.625 67.9913 143.593 68.26 142.484 68.26ZM142.484 66.31C143.212 66.31 143.897 66.128 144.538 65.764C145.179 65.4 145.699 64.8627 146.098 64.152C146.514 63.424 146.722 62.5487 146.722 61.526C146.722 60.5033 146.514 59.6367 146.098 58.926C145.699 58.198 145.179 57.6433 144.538 57.262C143.897 56.8807 143.212 56.69 142.484 56.69C141.756 56.69 141.063 56.8807 140.404 57.262C139.763 57.626 139.234 58.172 138.818 58.9C138.402 59.6107 138.194 60.486 138.194 61.526C138.194 62.5487 138.393 63.424 138.792 64.152C139.208 64.8627 139.745 65.4 140.404 65.764C141.063 66.128 141.756 66.31 142.484 66.31ZM154.301 55H156.381V68H154.301V55ZM160.541 56.95C159.657 56.95 158.912 57.1753 158.305 57.626C157.716 58.0593 157.248 58.5967 156.901 59.238C156.572 59.862 156.355 60.4687 156.251 61.058L156.225 59.55C156.225 59.394 156.26 59.134 156.329 58.77C156.399 58.406 156.529 57.9987 156.719 57.548C156.91 57.08 157.161 56.638 157.473 56.222C157.803 55.7887 158.219 55.4333 158.721 55.156C159.224 54.8787 159.831 54.74 160.541 54.74V56.95ZM165.743 55H167.823V68H165.743V55ZM172.295 54.74C172.989 54.74 173.613 54.844 174.167 55.052C174.722 55.26 175.19 55.5633 175.571 55.962C175.953 56.3607 176.247 56.846 176.455 57.418C176.663 57.9727 176.767 58.6053 176.767 59.316V68H174.687V59.836C174.687 58.8307 174.453 58.0767 173.985 57.574C173.517 57.0713 172.815 56.82 171.879 56.82C171.169 56.82 170.51 57.002 169.903 57.366C169.297 57.73 168.794 58.2327 168.395 58.874C168.014 59.498 167.78 60.226 167.693 61.058L167.667 59.55C167.754 58.822 167.927 58.1633 168.187 57.574C168.465 56.9847 168.803 56.482 169.201 56.066C169.617 55.6327 170.085 55.3033 170.605 55.078C171.143 54.8527 171.706 54.74 172.295 54.74ZM181.031 54.74C181.725 54.74 182.349 54.844 182.903 55.052C183.458 55.26 183.926 55.5633 184.307 55.962C184.689 56.3607 184.983 56.846 185.191 57.418C185.399 57.9727 185.503 58.6053 185.503 59.316V68H183.423V59.836C183.423 58.8307 183.189 58.0767 182.721 57.574C182.253 57.0713 181.551 56.82 180.615 56.82C179.905 56.82 179.246 57.002 178.639 57.366C178.033 57.73 177.53 58.2327 177.131 58.874C176.75 59.498 176.516 60.226 176.429 61.058L176.403 59.55C176.49 58.822 176.663 58.1633 176.923 57.574C177.201 56.9847 177.539 56.482 177.937 56.066C178.353 55.6327 178.821 55.3033 179.341 55.078C179.879 54.8527 180.442 54.74 181.031 54.74ZM196.648 68.26C195.626 68.26 194.681 67.974 193.814 67.402C192.965 66.8127 192.28 66.0153 191.76 65.01C191.258 63.9873 191.006 62.826 191.006 61.526C191.006 60.226 191.266 59.0647 191.786 58.042C192.306 57.0193 193.008 56.2133 193.892 55.624C194.794 55.0347 195.799 54.74 196.908 54.74C198.122 54.74 199.04 55.052 199.664 55.676C200.306 56.2827 200.739 57.0973 200.964 58.12C201.207 59.1427 201.328 60.278 201.328 61.526C201.328 62.1847 201.259 62.904 201.12 63.684C200.982 64.4467 200.739 65.1833 200.392 65.894C200.063 66.5873 199.595 67.1593 198.988 67.61C198.382 68.0433 197.602 68.26 196.648 68.26ZM197.168 66.284C198.052 66.284 198.78 66.0673 199.352 65.634C199.942 65.2007 200.375 64.6287 200.652 63.918C200.93 63.19 201.068 62.3927 201.068 61.526C201.068 60.5727 200.921 59.7407 200.626 59.03C200.349 58.302 199.916 57.7387 199.326 57.34C198.754 56.924 198.035 56.716 197.168 56.716C195.868 56.716 194.863 57.1753 194.152 58.094C193.442 58.9953 193.086 60.1393 193.086 61.526C193.086 62.4447 193.26 63.268 193.606 63.996C193.97 64.7067 194.456 65.27 195.062 65.686C195.686 66.0847 196.388 66.284 197.168 66.284ZM201.068 55H203.148V68H201.25C201.25 68 201.233 67.844 201.198 67.532C201.181 67.22 201.155 66.856 201.12 66.44C201.086 66.024 201.068 65.6773 201.068 65.4V55ZM222.63 68.26C221.59 68.26 220.637 67.974 219.77 67.402C218.921 66.8127 218.245 66.0153 217.742 65.01C217.239 63.9873 216.988 62.826 216.988 61.526C216.988 60.226 217.231 59.0647 217.716 58.042C218.201 57.0193 218.869 56.2133 219.718 55.624C220.567 55.0347 221.538 54.74 222.63 54.74C223.601 54.74 224.389 54.922 224.996 55.286C225.62 55.6327 226.097 56.118 226.426 56.742C226.755 57.366 226.981 58.0853 227.102 58.9C227.241 59.7147 227.31 60.59 227.31 61.526C227.31 62.1847 227.241 62.904 227.102 63.684C226.963 64.4467 226.721 65.1833 226.374 65.894C226.045 66.5873 225.577 67.1593 224.97 67.61C224.363 68.0433 223.583 68.26 222.63 68.26ZM223.15 66.284C224.034 66.284 224.762 66.0673 225.334 65.634C225.923 65.2007 226.357 64.6287 226.634 63.918C226.911 63.19 227.05 62.3927 227.05 61.526C227.05 60.5727 226.903 59.7407 226.608 59.03C226.331 58.302 225.897 57.7387 225.308 57.34C224.736 56.924 224.017 56.716 223.15 56.716C221.85 56.716 220.845 57.1753 220.134 58.094C219.423 58.9953 219.068 60.1393 219.068 61.526C219.068 62.4447 219.241 63.268 219.588 63.996C219.952 64.7067 220.437 65.27 221.044 65.686C221.668 66.0847 222.37 66.284 223.15 66.284ZM227.05 49.8H229.13V68H227.232C227.197 67.6187 227.154 67.168 227.102 66.648C227.067 66.128 227.05 65.712 227.05 65.4V49.8ZM244.964 63.814H246.914C246.775 64.6633 246.463 65.426 245.978 66.102C245.51 66.7607 244.886 67.2893 244.106 67.688C243.343 68.0693 242.459 68.26 241.454 68.26C240.24 68.26 239.148 67.974 238.178 67.402C237.207 66.8127 236.436 66.0153 235.864 65.01C235.309 63.9873 235.032 62.826 235.032 61.526C235.032 60.226 235.3 59.0647 235.838 58.042C236.392 57.0193 237.146 56.2133 238.1 55.624C239.053 55.0347 240.128 54.74 241.324 54.74C242.589 54.74 243.655 55.026 244.522 55.598C245.406 56.1527 246.056 56.976 246.472 58.068C246.905 59.1427 247.078 60.4687 246.992 62.046H237.112C237.198 62.8953 237.432 63.6407 237.814 64.282C238.195 64.9233 238.698 65.426 239.322 65.79C239.946 66.1367 240.656 66.31 241.454 66.31C242.338 66.31 243.083 66.0847 243.69 65.634C244.314 65.166 244.738 64.5593 244.964 63.814ZM241.402 56.69C240.327 56.69 239.426 57.002 238.698 57.626C237.97 58.25 237.484 59.0993 237.242 60.174H244.86C244.79 59.03 244.418 58.1633 243.742 57.574C243.083 56.9847 242.303 56.69 241.402 56.69Z" fill="#B2AD99"/>
<path d="M4.56152 49V26.6H14.8015C16.8495 26.6 18.6095 26.9307 20.0815 27.592C21.5749 28.2533 22.7269 29.2133 23.5375 30.472C24.3482 31.7093 24.7535 33.1813 24.7535 34.888C24.7535 36.5733 24.3482 38.0347 23.5375 39.272C22.7269 40.5093 21.5749 41.4693 20.0815 42.152C18.6095 42.8133 16.8495 43.144 14.8015 43.144H8.08152L10.8975 40.392V49H4.56152ZM10.8975 41.064L8.08152 38.152H14.4175C15.7402 38.152 16.7215 37.864 17.3615 37.288C18.0229 36.712 18.3535 35.912 18.3535 34.888C18.3535 33.8427 18.0229 33.032 17.3615 32.456C16.7215 31.88 15.7402 31.592 14.4175 31.592H8.08152L10.8975 28.68V41.064ZM36.4828 49V26.6H46.7228C48.7708 26.6 50.5308 26.9307 52.0028 27.592C53.4961 28.2533 54.6481 29.2133 55.4588 30.472C56.2695 31.7093 56.6748 33.1813 56.6748 34.888C56.6748 36.5733 56.2695 38.0347 55.4588 39.272C54.6481 40.488 53.4961 41.4267 52.0028 42.088C50.5308 42.728 48.7708 43.048 46.7228 43.048H40.0028L42.8188 40.392V49H36.4828ZM50.3388 49L44.7708 40.84H51.5228L57.1228 49H50.3388ZM42.8188 41.064L40.0028 38.152H46.3388C47.6615 38.152 48.6428 37.864 49.2828 37.288C49.9441 36.712 50.2748 35.912 50.2748 34.888C50.2748 33.8427 49.9441 33.032 49.2828 32.456C48.6428 31.88 47.6615 31.592 46.3388 31.592H40.0028L42.8188 28.68V41.064ZM80.1063 49.448C78.3143 49.448 76.6609 49.16 75.1463 48.584C73.6316 48.008 72.3089 47.1973 71.1783 46.152C70.0689 45.0853 69.2049 43.848 68.5863 42.44C67.9676 41.032 67.6583 39.4853 67.6583 37.8C67.6583 36.1147 67.9676 34.568 68.5863 33.16C69.2049 31.752 70.0689 30.5253 71.1783 29.48C72.3089 28.4133 73.6316 27.592 75.1463 27.016C76.6609 26.44 78.3143 26.152 80.1063 26.152C81.9196 26.152 83.5729 26.44 85.0663 27.016C86.5809 27.592 87.893 28.4133 89.0023 29.48C90.1116 30.5253 90.9756 31.752 91.5943 33.16C92.2343 34.568 92.5543 36.1147 92.5543 37.8C92.5543 39.4853 92.2343 41.0427 91.5943 42.472C90.9756 43.88 90.1116 45.1067 89.0023 46.152C87.893 47.1973 86.5809 48.008 85.0663 48.584C83.5729 49.16 81.9196 49.448 80.1063 49.448ZM80.1063 44.2C80.9596 44.2 81.7489 44.0507 82.4743 43.752C83.2209 43.4533 83.8609 43.0267 84.3943 42.472C84.9489 41.896 85.3756 41.2133 85.6743 40.424C85.9943 39.6347 86.1543 38.76 86.1543 37.8C86.1543 36.8187 85.9943 35.944 85.6743 35.176C85.3756 34.3867 84.9489 33.7147 84.3943 33.16C83.8609 32.584 83.2209 32.1467 82.4743 31.848C81.7489 31.5493 80.9596 31.4 80.1063 31.4C79.2529 31.4 78.4529 31.5493 77.7063 31.848C76.9809 32.1467 76.3409 32.584 75.7863 33.16C75.2529 33.7147 74.8263 34.3867 74.5063 35.176C74.2076 35.944 74.0583 36.8187 74.0583 37.8C74.0583 38.76 74.2076 39.6347 74.5063 40.424C74.8263 41.2133 75.2529 41.896 75.7863 42.472C76.3409 43.0267 76.9809 43.4533 77.7063 43.752C78.4529 44.0507 79.2529 44.2 80.1063 44.2ZM109.208 49V39.528L110.68 43.336L100.664 26.6H107.352L114.584 38.728H110.712L117.976 26.6H124.12L114.136 43.336L115.544 39.528V49H109.208ZM140.102 35.272H150.502V40.008H140.102V35.272ZM140.55 44.104H152.262V49H134.278V26.6H151.846V31.496H140.55V44.104ZM175.586 49.448C173.815 49.448 172.172 49.1707 170.658 48.616C169.164 48.04 167.863 47.2293 166.754 46.184C165.666 45.1387 164.812 43.912 164.194 42.504C163.575 41.0747 163.266 39.5067 163.266 37.8C163.266 36.0933 163.575 34.536 164.194 33.128C164.812 31.6987 165.666 30.4613 166.754 29.416C167.863 28.3707 169.164 27.5707 170.658 27.016C172.172 26.44 173.815 26.152 175.586 26.152C177.655 26.152 179.5 26.5147 181.122 27.24C182.764 27.9653 184.13 29.0107 185.218 30.376L181.186 34.024C180.46 33.1707 179.66 32.52 178.786 32.072C177.932 31.624 176.972 31.4 175.906 31.4C174.988 31.4 174.146 31.5493 173.378 31.848C172.61 32.1467 171.948 32.584 171.394 33.16C170.86 33.7147 170.434 34.3867 170.114 35.176C169.815 35.9653 169.666 36.84 169.666 37.8C169.666 38.76 169.815 39.6347 170.114 40.424C170.434 41.2133 170.86 41.896 171.394 42.472C171.948 43.0267 172.61 43.4533 173.378 43.752C174.146 44.0507 174.988 44.2 175.906 44.2C176.972 44.2 177.932 43.976 178.786 43.528C179.66 43.08 180.46 42.4293 181.186 41.576L185.218 45.224C184.13 46.568 182.764 47.6133 181.122 48.36C179.5 49.0853 177.655 49.448 175.586 49.448ZM201.263 49V31.624H194.383V26.6H214.447V31.624H207.599V49H201.263ZM236.431 49.448C234.639 49.448 232.986 49.16 231.471 48.584C229.957 48.008 228.634 47.1973 227.503 46.152C226.394 45.0853 225.53 43.848 224.911 42.44C224.293 41.032 223.983 39.4853 223.983 37.8C223.983 36.1147 224.293 34.568 224.911 33.16C225.53 31.752 226.394 30.5253 227.503 29.48C228.634 28.4133 229.957 27.592 231.471 27.016C232.986 26.44 234.639 26.152 236.431 26.152C238.245 26.152 239.898 26.44 241.391 27.016C242.906 27.592 244.218 28.4133 245.327 29.48C246.437 30.5253 247.301 31.752 247.919 33.16C248.559 34.568 248.879 36.1147 248.879 37.8C248.879 39.4853 248.559 41.0427 247.919 42.472C247.301 43.88 246.437 45.1067 245.327 46.152C244.218 47.1973 242.906 48.008 241.391 48.584C239.898 49.16 238.245 49.448 236.431 49.448ZM236.431 44.2C237.285 44.2 238.074 44.0507 238.799 43.752C239.546 43.4533 240.186 43.0267 240.719 42.472C241.274 41.896 241.701 41.2133 241.999 40.424C242.319 39.6347 242.479 38.76 242.479 37.8C242.479 36.8187 242.319 35.944 241.999 35.176C241.701 34.3867 241.274 33.7147 240.719 33.16C240.186 32.584 239.546 32.1467 238.799 31.848C238.074 31.5493 237.285 31.4 236.431 31.4C235.578 31.4 234.778 31.5493 234.031 31.848C233.306 32.1467 232.666 32.584 232.111 33.16C231.578 33.7147 231.151 34.3867 230.831 35.176C230.533 35.944 230.383 36.8187 230.383 37.8C230.383 38.76 230.533 39.6347 230.831 40.424C231.151 41.2133 231.578 41.896 232.111 42.472C232.666 43.0267 233.306 43.4533 234.031 43.752C234.778 44.0507 235.578 44.2 236.431 44.2Z" fill="#7A5FFF"/>
<path d="M10.0861 24.26C9.04609 24.26 8.09275 23.974 7.22609 23.402C6.37675 22.8127 5.70075 22.0153 5.19809 21.01C4.69542 19.9873 4.44409 18.826 4.44409 17.526C4.44409 16.226 4.68675 15.0647 5.17209 14.042C5.65742 13.0193 6.32475 12.2133 7.17409 11.624C8.02342 11.0347 8.99409 10.74 10.0861 10.74C11.0567 10.74 11.8454 10.922 12.4521 11.286C13.0761 11.6327 13.5527 12.118 13.8821 12.742C14.2114 13.366 14.4367 14.0853 14.5581 14.9C14.6967 15.7147 14.7661 16.59 14.7661 17.526C14.7661 18.1847 14.6967 18.904 14.5581 19.684C14.4194 20.4467 14.1767 21.1833 13.8301 21.894C13.5007 22.5873 13.0327 23.1593 12.4261 23.61C11.8194 24.0433 11.0394 24.26 10.0861 24.26ZM10.6061 22.284C11.4901 22.284 12.2181 22.0673 12.7901 21.634C13.3794 21.2007 13.8127 20.6287 14.0901 19.918C14.3674 19.19 14.5061 18.3927 14.5061 17.526C14.5061 16.5727 14.3587 15.7407 14.0641 15.03C13.7867 14.302 13.3534 13.7387 12.7641 13.34C12.1921 12.924 11.4727 12.716 10.6061 12.716C9.30609 12.716 8.30075 13.1753 7.59009 14.094C6.87942 14.9953 6.52409 16.1393 6.52409 17.526C6.52409 18.4447 6.69742 19.268 7.04409 19.996C7.40809 20.7067 7.89342 21.27 8.50009 21.686C9.12409 22.0847 9.82609 22.284 10.6061 22.284ZM14.5061 5.79999H16.5861V24H14.6881C14.6534 23.6187 14.6101 23.168 14.5581 22.648C14.5234 22.128 14.5061 21.712 14.5061 21.4V5.79999ZM35.0197 19.814H36.9697C36.831 20.6633 36.519 21.426 36.0337 22.102C35.5657 22.7607 34.9417 23.2893 34.1617 23.688C33.399 24.0693 32.515 24.26 31.5097 24.26C30.2963 24.26 29.2043 23.974 28.2337 23.402C27.263 22.8127 26.4917 22.0153 25.9197 21.01C25.365 19.9873 25.0877 18.826 25.0877 17.526C25.0877 16.226 25.3563 15.0647 25.8937 14.042C26.4483 13.0193 27.2023 12.2133 28.1557 11.624C29.109 11.0347 30.1837 10.74 31.3797 10.74C32.645 10.74 33.711 11.026 34.5777 11.598C35.4617 12.1527 36.1117 12.976 36.5277 14.068C36.961 15.1427 37.1343 16.4687 37.0477 18.046H27.1677C27.2543 18.8953 27.4883 19.6407 27.8697 20.282C28.251 20.9233 28.7537 21.426 29.3777 21.79C30.0017 22.1367 30.7123 22.31 31.5097 22.31C32.3937 22.31 33.139 22.0847 33.7457 21.634C34.3697 21.166 34.7943 20.5593 35.0197 19.814ZM31.4577 12.69C30.383 12.69 29.4817 13.002 28.7537 13.626C28.0257 14.25 27.5403 15.0993 27.2977 16.174H34.9157C34.8463 15.03 34.4737 14.1633 33.7977 13.574C33.139 12.9847 32.359 12.69 31.4577 12.69ZM44.0258 11H51.6698V12.95H44.0258V11ZM46.8078 7.61999H48.8878V24H46.8078V7.61999ZM59.5872 11H61.6672V24H59.5872V11ZM65.8272 12.95C64.9432 12.95 64.1979 13.1753 63.5912 13.626C63.0019 14.0593 62.5339 14.5967 62.1872 15.238C61.8579 15.862 61.6412 16.4687 61.5372 17.058L61.5112 15.55C61.5112 15.394 61.5459 15.134 61.6152 14.77C61.6846 14.406 61.8146 13.9987 62.0052 13.548C62.1959 13.08 62.4472 12.638 62.7592 12.222C63.0886 11.7887 63.5046 11.4333 64.0072 11.156C64.5099 10.8787 65.1166 10.74 65.8272 10.74V12.95ZM78.5433 24.26C77.5206 24.26 76.5759 23.974 75.7093 23.402C74.8599 22.8127 74.1753 22.0153 73.6553 21.01C73.1526 19.9873 72.9013 18.826 72.9013 17.526C72.9013 16.226 73.1613 15.0647 73.6813 14.042C74.2013 13.0193 74.9033 12.2133 75.7873 11.624C76.6886 11.0347 77.6939 10.74 78.8033 10.74C80.0166 10.74 80.9353 11.052 81.5593 11.676C82.2006 12.2827 82.6339 13.0973 82.8593 14.12C83.1019 15.1427 83.2233 16.278 83.2233 17.526C83.2233 18.1847 83.1539 18.904 83.0153 19.684C82.8766 20.4467 82.6339 21.1833 82.2873 21.894C81.9579 22.5873 81.4899 23.1593 80.8833 23.61C80.2766 24.0433 79.4966 24.26 78.5433 24.26ZM79.0633 22.284C79.9473 22.284 80.6753 22.0673 81.2473 21.634C81.8366 21.2007 82.2699 20.6287 82.5473 19.918C82.8246 19.19 82.9633 18.3927 82.9633 17.526C82.9633 16.5727 82.8159 15.7407 82.5213 15.03C82.2439 14.302 81.8106 13.7387 81.2213 13.34C80.6493 12.924 79.9299 12.716 79.0633 12.716C77.7633 12.716 76.7579 13.1753 76.0473 14.094C75.3366 14.9953 74.9813 16.1393 74.9813 17.526C74.9813 18.4447 75.1546 19.268 75.5013 19.996C75.8653 20.7067 76.3506 21.27 76.9573 21.686C77.5813 22.0847 78.2833 22.284 79.0633 22.284ZM82.9633 11H85.0433V24H83.1453C83.1453 24 83.1279 23.844 83.0933 23.532C83.0759 23.22 83.0499 22.856 83.0153 22.44C82.9806 22.024 82.9633 21.6773 82.9633 21.4V11ZM78.2053 8.37399L80.9613 4.18799H83.6913L80.0513 8.37399H78.2053ZM93.268 19.814H95.192C95.244 20.5593 95.5213 21.166 96.024 21.634C96.544 22.102 97.2893 22.336 98.26 22.336C98.8493 22.336 99.3087 22.258 99.638 22.102C99.9847 21.946 100.236 21.738 100.392 21.478C100.548 21.2007 100.626 20.8973 100.626 20.568C100.626 20.1693 100.522 19.8573 100.314 19.632C100.123 19.3893 99.8547 19.19 99.508 19.034C99.1787 18.878 98.7973 18.7307 98.364 18.592C97.8613 18.4013 97.3413 18.202 96.804 17.994C96.284 17.7687 95.79 17.5087 95.322 17.214C94.8713 16.902 94.5073 16.5293 94.23 16.096C93.9527 15.6453 93.814 15.108 93.814 14.484C93.814 13.964 93.918 13.4787 94.126 13.028C94.334 12.56 94.6287 12.1613 95.01 11.832C95.4087 11.4853 95.868 11.2167 96.388 11.026C96.9253 10.8353 97.5147 10.74 98.156 10.74C99.0227 10.74 99.7507 10.9133 100.34 11.26C100.947 11.6067 101.406 12.1007 101.718 12.742C102.047 13.366 102.221 14.094 102.238 14.926H100.444C100.323 14.146 100.071 13.5827 99.69 13.236C99.326 12.872 98.7973 12.69 98.104 12.69C97.3933 12.69 96.8473 12.846 96.466 13.158C96.0847 13.47 95.894 13.886 95.894 14.406C95.894 14.7873 96.0327 15.108 96.31 15.368C96.5873 15.6107 96.9427 15.836 97.376 16.044C97.8267 16.2347 98.3033 16.434 98.806 16.642C99.3087 16.85 99.794 17.058 100.262 17.266C100.73 17.474 101.146 17.7167 101.51 17.994C101.874 18.2713 102.16 18.618 102.368 19.034C102.593 19.4327 102.706 19.9353 102.706 20.542C102.706 21.27 102.533 21.92 102.186 22.492C101.857 23.0467 101.363 23.48 100.704 23.792C100.063 24.104 99.274 24.26 98.338 24.26C97.4887 24.26 96.7607 24.156 96.154 23.948C95.5647 23.7227 95.0707 23.4367 94.672 23.09C94.2733 22.726 93.9613 22.3447 93.736 21.946C93.528 21.5473 93.3893 21.1573 93.32 20.776C93.2507 20.3947 93.2333 20.074 93.268 19.814ZM126.662 24.26C125.622 24.26 124.668 23.974 123.802 23.402C122.952 22.8127 122.276 22.0153 121.774 21.01C121.271 19.9873 121.02 18.826 121.02 17.526C121.02 16.226 121.262 15.0647 121.748 14.042C122.233 13.0193 122.9 12.2133 123.75 11.624C124.599 11.0347 125.57 10.74 126.662 10.74C127.632 10.74 128.421 10.922 129.028 11.286C129.652 11.6327 130.128 12.118 130.458 12.742C130.787 13.366 131.012 14.0853 131.134 14.9C131.272 15.7147 131.342 16.59 131.342 17.526C131.342 18.1847 131.272 18.904 131.134 19.684C130.995 20.4467 130.752 21.1833 130.406 21.894C130.076 22.5873 129.608 23.1593 129.002 23.61C128.395 24.0433 127.615 24.26 126.662 24.26ZM127.182 22.284C128.066 22.284 128.794 22.0673 129.366 21.634C129.955 21.2007 130.388 20.6287 130.666 19.918C130.943 19.19 131.082 18.3927 131.082 17.526C131.082 16.5727 130.934 15.7407 130.64 15.03C130.362 14.302 129.929 13.7387 129.34 13.34C128.768 12.924 128.048 12.716 127.182 12.716C125.882 12.716 124.876 13.1753 124.166 14.094C123.455 14.9953 123.1 16.1393 123.1 17.526C123.1 18.4447 123.273 19.268 123.62 19.996C123.984 20.7067 124.469 21.27 125.076 21.686C125.7 22.0847 126.402 22.284 127.182 22.284ZM131.082 5.79999H133.162V24H131.264C131.229 23.6187 131.186 23.168 131.134 22.648C131.099 22.128 131.082 21.712 131.082 21.4V5.79999ZM151.595 19.814H153.545C153.407 20.6633 153.095 21.426 152.609 22.102C152.141 22.7607 151.517 23.2893 150.737 23.688C149.975 24.0693 149.091 24.26 148.085 24.26C146.872 24.26 145.78 23.974 144.809 23.402C143.839 22.8127 143.067 22.0153 142.495 21.01C141.941 19.9873 141.663 18.826 141.663 17.526C141.663 16.226 141.932 15.0647 142.469 14.042C143.024 13.0193 143.778 12.2133 144.731 11.624C145.685 11.0347 146.759 10.74 147.955 10.74C149.221 10.74 150.287 11.026 151.153 11.598C152.037 12.1527 152.687 12.976 153.103 14.068C153.537 15.1427 153.71 16.4687 153.623 18.046H143.743C143.83 18.8953 144.064 19.6407 144.445 20.282C144.827 20.9233 145.329 21.426 145.953 21.79C146.577 22.1367 147.288 22.31 148.085 22.31C148.969 22.31 149.715 22.0847 150.321 21.634C150.945 21.166 151.37 20.5593 151.595 19.814ZM148.033 12.69C146.959 12.69 146.057 13.002 145.329 13.626C144.601 14.25 144.116 15.0993 143.873 16.174H151.491C151.422 15.03 151.049 14.1633 150.373 13.574C149.715 12.9847 148.935 12.69 148.033 12.69ZM184.228 19.112C184.107 20.1867 183.76 21.114 183.188 21.894C182.634 22.6567 181.932 23.246 181.082 23.662C180.233 24.0607 179.314 24.26 178.326 24.26C177.217 24.26 176.177 23.9913 175.206 23.454C174.236 22.9167 173.447 22.1453 172.84 21.14C172.251 20.1173 171.956 18.9127 171.956 17.526C171.956 16.1393 172.251 14.9433 172.84 13.938C173.447 12.9153 174.236 12.1267 175.206 11.572C176.177 11.0173 177.217 10.74 178.326 10.74C179.314 10.74 180.224 10.948 181.056 11.364C181.906 11.78 182.608 12.3693 183.162 13.132C183.734 13.8947 184.09 14.8047 184.228 15.862H182.33C182.036 14.874 181.524 14.1027 180.796 13.548C180.068 12.976 179.245 12.69 178.326 12.69C177.581 12.69 176.879 12.8807 176.22 13.262C175.562 13.6433 175.033 14.198 174.634 14.926C174.236 15.6367 174.036 16.5033 174.036 17.526C174.036 18.5313 174.236 19.398 174.634 20.126C175.033 20.8367 175.553 21.3827 176.194 21.764C176.853 22.128 177.564 22.31 178.326 22.31C179.384 22.31 180.242 22.0327 180.9 21.478C181.576 20.906 182.062 20.1173 182.356 19.112H184.228ZM197.252 24.26C196.229 24.26 195.284 23.974 194.418 23.402C193.568 22.8127 192.884 22.0153 192.364 21.01C191.861 19.9873 191.61 18.826 191.61 17.526C191.61 16.226 191.87 15.0647 192.39 14.042C192.91 13.0193 193.612 12.2133 194.496 11.624C195.397 11.0347 196.402 10.74 197.512 10.74C198.725 10.74 199.644 11.052 200.268 11.676C200.909 12.2827 201.342 13.0973 201.568 14.12C201.81 15.1427 201.932 16.278 201.932 17.526C201.932 18.1847 201.862 18.904 201.724 19.684C201.585 20.4467 201.342 21.1833 200.996 21.894C200.666 22.5873 200.198 23.1593 199.592 23.61C198.985 24.0433 198.205 24.26 197.252 24.26ZM197.772 22.284C198.656 22.284 199.384 22.0673 199.956 21.634C200.545 21.2007 200.978 20.6287 201.256 19.918C201.533 19.19 201.672 18.3927 201.672 17.526C201.672 16.5727 201.524 15.7407 201.23 15.03C200.952 14.302 200.519 13.7387 199.93 13.34C199.358 12.924 198.638 12.716 197.772 12.716C196.472 12.716 195.466 13.1753 194.756 14.094C194.045 14.9953 193.69 16.1393 193.69 17.526C193.69 18.4447 193.863 19.268 194.21 19.996C194.574 20.7067 195.059 21.27 195.666 21.686C196.29 22.0847 196.992 22.284 197.772 22.284ZM201.672 11H203.752V24H201.854C201.854 24 201.836 23.844 201.802 23.532C201.784 23.22 201.758 22.856 201.724 22.44C201.689 22.024 201.672 21.6773 201.672 21.4V11ZM217.514 24.26C216.474 24.26 215.521 23.974 214.654 23.402C213.805 22.8127 213.129 22.0153 212.626 21.01C212.124 19.9873 211.872 18.826 211.872 17.526C211.872 16.226 212.115 15.0647 212.6 14.042C213.086 13.0193 213.753 12.2133 214.602 11.624C215.452 11.0347 216.422 10.74 217.514 10.74C218.485 10.74 219.274 10.922 219.88 11.286C220.504 11.6327 220.981 12.118 221.31 12.742C221.64 13.366 221.865 14.0853 221.986 14.9C222.125 15.7147 222.194 16.59 222.194 17.526C222.194 18.1847 222.125 18.904 221.986 19.684C221.848 20.4467 221.605 21.1833 221.258 21.894C220.929 22.5873 220.461 23.1593 219.854 23.61C219.248 24.0433 218.468 24.26 217.514 24.26ZM218.034 22.284C218.918 22.284 219.646 22.0673 220.218 21.634C220.808 21.2007 221.241 20.6287 221.518 19.918C221.796 19.19 221.934 18.3927 221.934 17.526C221.934 16.5727 221.787 15.7407 221.492 15.03C221.215 14.302 220.782 13.7387 220.192 13.34C219.62 12.924 218.901 12.716 218.034 12.716C216.734 12.716 215.729 13.1753 215.018 14.094C214.308 14.9953 213.952 16.1393 213.952 17.526C213.952 18.4447 214.126 19.268 214.472 19.996C214.836 20.7067 215.322 21.27 215.928 21.686C216.552 22.0847 217.254 22.284 218.034 22.284ZM221.934 5.79999H224.014V24H222.116C222.082 23.6187 222.038 23.168 221.986 22.648C221.952 22.128 221.934 21.712 221.934 21.4V5.79999ZM238.158 24.26C237.135 24.26 236.191 23.974 235.324 23.402C234.475 22.8127 233.79 22.0153 233.27 21.01C232.767 19.9873 232.516 18.826 232.516 17.526C232.516 16.226 232.776 15.0647 233.296 14.042C233.816 13.0193 234.518 12.2133 235.402 11.624C236.303 11.0347 237.309 10.74 238.418 10.74C239.631 10.74 240.55 11.052 241.174 11.676C241.815 12.2827 242.249 13.0973 242.474 14.12C242.717 15.1427 242.838 16.278 242.838 17.526C242.838 18.1847 242.769 18.904 242.63 19.684C242.491 20.4467 242.249 21.1833 241.902 21.894C241.573 22.5873 241.105 23.1593 240.498 23.61C239.891 24.0433 239.111 24.26 238.158 24.26ZM238.678 22.284C239.562 22.284 240.29 22.0673 240.862 21.634C241.451 21.2007 241.885 20.6287 242.162 19.918C242.439 19.19 242.578 18.3927 242.578 17.526C242.578 16.5727 242.431 15.7407 242.136 15.03C241.859 14.302 241.425 13.7387 240.836 13.34C240.264 12.924 239.545 12.716 238.678 12.716C237.378 12.716 236.373 13.1753 235.662 14.094C234.951 14.9953 234.596 16.1393 234.596 17.526C234.596 18.4447 234.769 19.268 235.116 19.996C235.48 20.7067 235.965 21.27 236.572 21.686C237.196 22.0847 237.898 22.284 238.678 22.284ZM242.578 11H244.658V24H242.76C242.76 24 242.743 23.844 242.708 23.532C242.691 23.22 242.665 22.856 242.63 22.44C242.595 22.024 242.578 21.6773 242.578 21.4V11Z" fill="#B2AD99"/>
</svg>
