<svg width="368" height="78" viewBox="0 0 368 78" fill="none" xmlns="http://www.w3.org/2000/svg">
<path d="M342.568 45.68C342.568 44.272 342.781 43.0347 343.208 41.968C343.677 40.8587 344.253 39.8773 344.936 39.024C345.619 38.1707 346.344 37.4027 347.112 36.72C347.923 35.9947 348.669 35.312 349.352 34.672C350.035 33.9893 350.589 33.3067 351.016 32.624C351.485 31.9413 351.72 31.1947 351.72 30.384C351.72 29.104 351.187 28.1013 350.12 27.376C349.096 26.6507 347.752 26.288 346.088 26.288C344.381 26.288 342.824 26.6933 341.416 27.504C340.051 28.3147 338.941 29.4453 338.088 30.896L328.552 25.776C330.216 22.9173 332.627 20.6347 335.784 18.928C338.941 17.1787 342.867 16.304 347.56 16.304C350.845 16.304 353.747 16.7733 356.264 17.712C358.824 18.608 360.829 19.952 362.28 21.744C363.731 23.536 364.456 25.7333 364.456 28.336C364.456 30 364.2 31.4507 363.688 32.688C363.176 33.9253 362.515 35.0133 361.704 35.952C360.936 36.8907 360.104 37.7653 359.208 38.576C358.312 39.344 357.459 40.0907 356.648 40.816C355.88 41.5413 355.24 42.288 354.728 43.056C354.216 43.824 353.96 44.6987 353.96 45.68H342.568ZM348.264 62.576C346.173 62.576 344.445 61.9147 343.08 60.592C341.715 59.2693 341.032 57.6907 341.032 55.856C341.032 53.9787 341.715 52.4213 343.08 51.184C344.445 49.904 346.173 49.264 348.264 49.264C350.44 49.264 352.189 49.904 353.512 51.184C354.877 52.4213 355.56 53.9787 355.56 55.856C355.56 57.6907 354.877 59.2693 353.512 60.592C352.189 61.9147 350.44 62.576 348.264 62.576Z" fill="#FF8C00"/>
<path d="M219.78 58H227.424V59.95H219.78V58ZM222.562 54.62H224.642V71H222.562V54.62ZM233.261 58H235.341V71H233.261V58ZM239.501 59.95C238.617 59.95 237.872 60.1753 237.265 60.626C236.676 61.0593 236.208 61.5967 235.861 62.238C235.532 62.862 235.315 63.4687 235.211 64.058L235.185 62.55C235.185 62.394 235.22 62.134 235.289 61.77C235.359 61.406 235.489 60.9987 235.679 60.548C235.87 60.08 236.121 59.638 236.433 59.222C236.763 58.7887 237.179 58.4333 237.681 58.156C238.184 57.8787 238.791 57.74 239.501 57.74V59.95ZM250.137 71.26C249.115 71.26 248.17 70.974 247.303 70.402C246.454 69.8127 245.769 69.0153 245.249 68.01C244.747 66.9873 244.495 65.826 244.495 64.526C244.495 63.226 244.755 62.0647 245.275 61.042C245.795 60.0193 246.497 59.2133 247.381 58.624C248.283 58.0347 249.288 57.74 250.397 57.74C251.611 57.74 252.529 58.052 253.153 58.676C253.795 59.2827 254.228 60.0973 254.453 61.12C254.696 62.1427 254.817 63.278 254.817 64.526C254.817 65.1847 254.748 65.904 254.609 66.684C254.471 67.4467 254.228 68.1833 253.881 68.894C253.552 69.5873 253.084 70.1593 252.477 70.61C251.871 71.0433 251.091 71.26 250.137 71.26ZM250.657 69.284C251.541 69.284 252.269 69.0673 252.841 68.634C253.431 68.2007 253.864 67.6287 254.141 66.918C254.419 66.19 254.557 65.3927 254.557 64.526C254.557 63.5727 254.41 62.7407 254.115 62.03C253.838 61.302 253.405 60.7387 252.815 60.34C252.243 59.924 251.524 59.716 250.657 59.716C249.357 59.716 248.352 60.1753 247.641 61.094C246.931 61.9953 246.575 63.1393 246.575 64.526C246.575 65.4447 246.749 66.268 247.095 66.996C247.459 67.7067 247.945 68.27 248.551 68.686C249.175 69.0847 249.877 69.284 250.657 69.284ZM254.557 58H256.637V71H254.739C254.739 71 254.722 70.844 254.687 70.532C254.67 70.22 254.644 69.856 254.609 69.44C254.575 69.024 254.557 68.6773 254.557 68.4V58ZM270.042 71.26C269.089 71.26 268.309 71.0433 267.702 70.61C267.096 70.1593 266.619 69.5873 266.272 68.894C265.943 68.1833 265.709 67.4467 265.57 66.684C265.432 65.904 265.362 65.1847 265.362 64.526C265.362 63.59 265.423 62.7147 265.544 61.9C265.683 61.0853 265.917 60.366 266.246 59.742C266.576 59.118 267.044 58.6327 267.65 58.286C268.274 57.922 269.072 57.74 270.042 57.74C271.134 57.74 272.105 58.0347 272.954 58.624C273.804 59.2133 274.471 60.0193 274.956 61.042C275.442 62.0647 275.684 63.226 275.684 64.526C275.684 65.826 275.433 66.9873 274.93 68.01C274.428 69.0153 273.752 69.8127 272.902 70.402C272.053 70.974 271.1 71.26 270.042 71.26ZM269.522 69.284C270.32 69.284 271.022 69.0847 271.628 68.686C272.235 68.27 272.712 67.7067 273.058 66.996C273.422 66.268 273.604 65.4447 273.604 64.526C273.604 63.1393 273.249 61.9953 272.538 61.094C271.828 60.1753 270.822 59.716 269.522 59.716C268.656 59.716 267.928 59.924 267.338 60.34C266.766 60.7387 266.333 61.302 266.038 62.03C265.761 62.7407 265.622 63.5727 265.622 64.526C265.622 65.3927 265.761 66.19 266.038 66.918C266.333 67.6287 266.766 68.2007 267.338 68.634C267.91 69.0673 268.638 69.284 269.522 69.284ZM265.622 52.8V68.4C265.622 68.712 265.596 69.128 265.544 69.648C265.51 70.168 265.475 70.6187 265.44 71H263.542V52.8H265.622ZM286.63 71.26C285.607 71.26 284.663 70.974 283.796 70.402C282.947 69.8127 282.262 69.0153 281.742 68.01C281.239 66.9873 280.988 65.826 280.988 64.526C280.988 63.226 281.248 62.0647 281.768 61.042C282.288 60.0193 282.99 59.2133 283.874 58.624C284.775 58.0347 285.781 57.74 286.89 57.74C288.103 57.74 289.022 58.052 289.646 58.676C290.287 59.2827 290.721 60.0973 290.946 61.12C291.189 62.1427 291.31 63.278 291.31 64.526C291.31 65.1847 291.241 65.904 291.102 66.684C290.963 67.4467 290.721 68.1833 290.374 68.894C290.045 69.5873 289.577 70.1593 288.97 70.61C288.363 71.0433 287.583 71.26 286.63 71.26ZM287.15 69.284C288.034 69.284 288.762 69.0673 289.334 68.634C289.923 68.2007 290.357 67.6287 290.634 66.918C290.911 66.19 291.05 65.3927 291.05 64.526C291.05 63.5727 290.903 62.7407 290.608 62.03C290.331 61.302 289.897 60.7387 289.308 60.34C288.736 59.924 288.017 59.716 287.15 59.716C285.85 59.716 284.845 60.1753 284.134 61.094C283.423 61.9953 283.068 63.1393 283.068 64.526C283.068 65.4447 283.241 66.268 283.588 66.996C283.952 67.7067 284.437 68.27 285.044 68.686C285.668 69.0847 286.37 69.284 287.15 69.284ZM291.05 58H293.13V71H291.232C291.232 71 291.215 70.844 291.18 70.532C291.163 70.22 291.137 69.856 291.102 69.44C291.067 69.024 291.05 68.6773 291.05 68.4V58ZM300.107 58H302.187V76.2H300.107V58ZM302.473 52.8V55.322H299.769V52.8H302.473ZM314.735 71.26C313.626 71.26 312.586 70.9913 311.615 70.454C310.644 69.9167 309.856 69.1453 309.249 68.14C308.66 67.1173 308.365 65.9127 308.365 64.526C308.365 63.1393 308.66 61.9433 309.249 60.938C309.856 59.9153 310.644 59.1267 311.615 58.572C312.586 58.0173 313.626 57.74 314.735 57.74C315.844 57.74 316.876 58.0173 317.829 58.572C318.8 59.1267 319.58 59.9153 320.169 60.938C320.758 61.9433 321.053 63.1393 321.053 64.526C321.053 65.9127 320.758 67.1173 320.169 68.14C319.58 69.1453 318.8 69.9167 317.829 70.454C316.876 70.9913 315.844 71.26 314.735 71.26ZM314.735 69.31C315.463 69.31 316.148 69.128 316.789 68.764C317.43 68.4 317.95 67.8627 318.349 67.152C318.765 66.424 318.973 65.5487 318.973 64.526C318.973 63.5033 318.765 62.6367 318.349 61.926C317.95 61.198 317.43 60.6433 316.789 60.262C316.148 59.8807 315.463 59.69 314.735 59.69C314.007 59.69 313.314 59.8807 312.655 60.262C312.014 60.626 311.485 61.172 311.069 61.9C310.653 62.6107 310.445 63.486 310.445 64.526C310.445 65.5487 310.644 66.424 311.043 67.152C311.459 67.8627 311.996 68.4 312.655 68.764C313.314 69.128 314.007 69.31 314.735 69.31Z" fill="#B2AD99"/>
<path d="M19.648 72.688C16.3627 72.688 13.44 72.2187 10.88 71.28C8.36262 70.384 6.37862 69.04 4.92795 67.248C3.47728 65.4987 2.75195 63.344 2.75195 60.784C2.75195 59.12 3.00795 57.6693 3.51995 56.432C4.03195 55.1947 4.67195 54.128 5.43995 53.232C6.25062 52.2933 7.08262 51.44 7.93595 50.672C8.83195 49.8613 9.68528 49.1147 10.496 48.432C11.3067 47.7067 11.968 46.96 12.48 46.192C12.992 45.424 13.248 44.5707 13.248 43.632H24.64C24.64 44.9973 24.4053 46.2133 23.936 47.28C23.5093 48.3467 22.9547 49.3067 22.272 50.16C21.5893 51.0133 20.8427 51.8027 20.032 52.528C19.264 53.2107 18.5387 53.8933 17.856 54.576C17.1733 55.216 16.5973 55.8773 16.128 56.56C15.7013 57.2427 15.488 57.9893 15.488 58.8C15.488 59.9947 16 60.9547 17.024 61.68C18.0907 62.3627 19.456 62.704 21.12 62.704C22.8267 62.704 24.3627 62.2987 25.728 61.488C27.136 60.6773 28.2667 59.568 29.12 58.16L38.656 63.216C36.992 66.0747 34.5813 68.3573 31.424 70.064C28.2667 71.8133 24.3413 72.688 19.648 72.688ZM18.944 40.048C16.8107 40.048 15.0613 39.408 13.696 38.128C12.3307 36.848 11.648 35.2907 11.648 33.456C11.648 31.5787 12.3307 30 13.696 28.72C15.0613 27.3973 16.8107 26.736 18.944 26.736C21.0773 26.736 22.8053 27.3973 24.128 28.72C25.4933 30 26.176 31.5787 26.176 33.456C26.176 35.2907 25.4933 36.848 24.128 38.128C22.8053 39.408 21.0773 40.048 18.944 40.048Z" fill="#FF8C00"/>
<path d="M64.0595 62.672C61.4035 62.672 58.9395 62.256 56.6675 61.424C54.4275 60.56 52.4755 59.344 50.8115 57.776C49.1795 56.208 47.8995 54.368 46.9715 52.256C46.0435 50.112 45.5795 47.76 45.5795 45.2C45.5795 42.64 46.0435 40.304 46.9715 38.192C47.8995 36.048 49.1795 34.192 50.8115 32.624C52.4755 31.056 54.4275 29.856 56.6675 29.024C58.9395 28.16 61.4035 27.728 64.0595 27.728C67.1635 27.728 69.9315 28.272 72.3635 29.36C74.8275 30.448 76.8755 32.016 78.5075 34.064L72.4595 39.536C71.3715 38.256 70.1715 37.28 68.8595 36.608C67.5795 35.936 66.1395 35.6 64.5395 35.6C63.1635 35.6 61.8995 35.824 60.7475 36.272C59.5955 36.72 58.6035 37.376 57.7715 38.24C56.9715 39.072 56.3315 40.08 55.8515 41.264C55.4035 42.448 55.1795 43.76 55.1795 45.2C55.1795 46.64 55.4035 47.952 55.8515 49.136C56.3315 50.32 56.9715 51.344 57.7715 52.208C58.6035 53.04 59.5955 53.68 60.7475 54.128C61.8995 54.576 63.1635 54.8 64.5395 54.8C66.1395 54.8 67.5795 54.464 68.8595 53.792C70.1715 53.12 71.3715 52.144 72.4595 50.864L78.5075 56.336C76.8755 58.352 74.8275 59.92 72.3635 61.04C69.9315 62.128 67.1635 62.672 64.0595 62.672ZM103.306 62.672C100.618 62.672 98.1379 62.24 95.8659 61.376C93.5939 60.512 91.6099 59.296 89.9139 57.728C88.2499 56.128 86.9539 54.272 86.0259 52.16C85.0979 50.048 84.6339 47.728 84.6339 45.2C84.6339 42.672 85.0979 40.352 86.0259 38.24C86.9539 36.128 88.2499 34.288 89.9139 32.72C91.6099 31.12 93.5939 29.888 95.8659 29.024C98.1379 28.16 100.618 27.728 103.306 27.728C106.026 27.728 108.506 28.16 110.746 29.024C113.018 29.888 114.986 31.12 116.65 32.72C118.314 34.288 119.61 36.128 120.538 38.24C121.498 40.352 121.978 42.672 121.978 45.2C121.978 47.728 121.498 50.064 120.538 52.208C119.61 54.32 118.314 56.16 116.65 57.728C114.986 59.296 113.018 60.512 110.746 61.376C108.506 62.24 106.026 62.672 103.306 62.672ZM103.306 54.8C104.586 54.8 105.77 54.576 106.858 54.128C107.978 53.68 108.938 53.04 109.738 52.208C110.57 51.344 111.21 50.32 111.658 49.136C112.138 47.952 112.378 46.64 112.378 45.2C112.378 43.728 112.138 42.416 111.658 41.264C111.21 40.08 110.57 39.072 109.738 38.24C108.938 37.376 107.978 36.72 106.858 36.272C105.77 35.824 104.586 35.6 103.306 35.6C102.026 35.6 100.826 35.824 99.7059 36.272C98.6179 36.72 97.6579 37.376 96.8259 38.24C96.0259 39.072 95.3859 40.08 94.9059 41.264C94.4579 42.416 94.2339 43.728 94.2339 45.2C94.2339 46.64 94.4579 47.952 94.9059 49.136C95.3859 50.32 96.0259 51.344 96.8259 52.208C97.6579 53.04 98.6179 53.68 99.7059 54.128C100.826 54.576 102.026 54.8 103.306 54.8ZM98.6019 25.664L105.034 18.368H114.154L105.13 25.664H98.6019ZM131.276 62V28.4H139.1L153.02 51.248H148.892L162.428 28.4H170.252L170.348 62H161.612L161.516 41.696H163.004L152.876 58.688H148.652L138.236 41.696H140.06V62H131.276ZM198.337 62.672C195.649 62.672 193.169 62.24 190.897 61.376C188.625 60.512 186.641 59.296 184.945 57.728C183.281 56.128 181.985 54.272 181.057 52.16C180.129 50.048 179.665 47.728 179.665 45.2C179.665 42.672 180.129 40.352 181.057 38.24C181.985 36.128 183.281 34.288 184.945 32.72C186.641 31.12 188.625 29.888 190.897 29.024C193.169 28.16 195.649 27.728 198.337 27.728C201.057 27.728 203.537 28.16 205.777 29.024C208.049 29.888 210.017 31.12 211.681 32.72C213.345 34.288 214.641 36.128 215.569 38.24C216.529 40.352 217.009 42.672 217.009 45.2C217.009 47.728 216.529 50.064 215.569 52.208C214.641 54.32 213.345 56.16 211.681 57.728C210.017 59.296 208.049 60.512 205.777 61.376C203.537 62.24 201.057 62.672 198.337 62.672ZM198.337 54.8C199.617 54.8 200.801 54.576 201.889 54.128C203.009 53.68 203.969 53.04 204.769 52.208C205.601 51.344 206.241 50.32 206.689 49.136C207.169 47.952 207.409 46.64 207.409 45.2C207.409 43.728 207.169 42.416 206.689 41.264C206.241 40.08 205.601 39.072 204.769 38.24C203.969 37.376 203.009 36.72 201.889 36.272C200.801 35.824 199.617 35.6 198.337 35.6C197.057 35.6 195.857 35.824 194.737 36.272C193.649 36.72 192.689 37.376 191.857 38.24C191.057 39.072 190.417 40.08 189.937 41.264C189.489 42.416 189.265 43.728 189.265 45.2C189.265 46.64 189.489 47.952 189.937 49.136C190.417 50.32 191.057 51.344 191.857 52.208C192.689 53.04 193.649 53.68 194.737 54.128C195.857 54.576 197.057 54.8 198.337 54.8Z" fill="#7A5FFF"/>
</svg>
