<svg width="257" height="97" viewBox="0 0 257 97" fill="none" xmlns="http://www.w3.org/2000/svg">
<path d="M3.5 84V49H19.5C22.7 49 25.45 49.5167 27.75 50.55C30.0833 51.5833 31.8833 53.0833 33.15 55.05C34.4167 56.9833 35.05 59.2833 35.05 61.95C35.05 64.5833 34.4167 66.8667 33.15 68.8C31.8833 70.7 30.0833 72.1667 27.75 73.2C25.45 74.2 22.7 74.7 19.5 74.7H9L13.4 70.55V84H3.5ZM25.15 84L16.45 71.25H27L35.75 84H25.15ZM13.4 71.6L9 67.05H18.9C20.9667 67.05 22.5 66.6 23.5 65.7C24.5333 64.8 25.05 63.55 25.05 61.95C25.05 60.3167 24.5333 59.05 23.5 58.15C22.5 57.25 20.9667 56.8 18.9 56.8H9L13.4 52.25V71.6ZM59.6117 62.55H75.8617V69.95H59.6117V62.55ZM60.3117 76.35H78.6117V84H50.5117V49H77.9617V56.65H60.3117V76.35ZM89.9055 84L105.355 49H115.105L130.605 84H120.305L108.205 53.85H112.105L100.005 84H89.9055ZM98.3555 77.2L100.905 69.9H118.005L120.555 77.2H98.3555ZM143.412 84V49H153.312V76.15H170.012V84H143.412ZM193.03 62.55H209.28V69.95H193.03V62.55ZM193.73 76.35H212.03V84H183.93V49H211.38V56.65H193.73V76.35ZM239.823 84.7C236.957 84.7 234.19 84.35 231.523 83.65C228.89 82.9167 226.74 81.9833 225.073 80.85L228.323 73.55C229.89 74.55 231.69 75.3833 233.723 76.05C235.79 76.6833 237.84 77 239.873 77C241.24 77 242.34 76.8833 243.173 76.65C244.007 76.3833 244.607 76.05 244.973 75.65C245.373 75.2167 245.573 74.7167 245.573 74.15C245.573 73.35 245.207 72.7167 244.473 72.25C243.74 71.7833 242.79 71.4 241.623 71.1C240.457 70.8 239.157 70.5 237.723 70.2C236.323 69.9 234.907 69.5167 233.473 69.05C232.073 68.5833 230.79 67.9833 229.623 67.25C228.457 66.4833 227.507 65.5 226.773 64.3C226.04 63.0667 225.673 61.5167 225.673 59.65C225.673 57.55 226.24 55.65 227.373 53.95C228.54 52.25 230.273 50.8833 232.573 49.85C234.873 48.8167 237.74 48.3 241.173 48.3C243.473 48.3 245.723 48.5667 247.923 49.1C250.157 49.6 252.14 50.35 253.873 51.35L250.823 58.7C249.157 57.8 247.507 57.1333 245.873 56.7C244.24 56.2333 242.657 56 241.123 56C239.757 56 238.657 56.15 237.823 56.45C236.99 56.7167 236.39 57.0833 236.023 57.55C235.657 58.0167 235.473 58.55 235.473 59.15C235.473 59.9167 235.823 60.5333 236.523 61C237.257 61.4333 238.207 61.8 239.373 62.1C240.573 62.3667 241.873 62.65 243.273 62.95C244.707 63.25 246.123 63.6333 247.523 64.1C248.957 64.5333 250.257 65.1333 251.423 65.9C252.59 66.6333 253.523 67.6167 254.223 68.85C254.957 70.05 255.323 71.5667 255.323 73.4C255.323 75.4333 254.74 77.3167 253.573 79.05C252.44 80.75 250.723 82.1167 248.423 83.15C246.157 84.1833 243.29 84.7 239.823 84.7Z" fill="#55E6C1"/>
<path d="M9.60404 47.26C8.56404 47.26 7.61071 46.974 6.74404 46.402C5.89471 45.8127 5.21871 45.0153 4.71604 44.01C4.21337 42.9873 3.96204 41.826 3.96204 40.526C3.96204 39.226 4.20471 38.0647 4.69004 37.042C5.17537 36.0193 5.84271 35.2133 6.69204 34.624C7.54137 34.0347 8.51204 33.74 9.60404 33.74C10.5747 33.74 11.3633 33.922 11.97 34.286C12.594 34.6327 13.0707 35.118 13.4 35.742C13.7293 36.366 13.9547 37.0853 14.076 37.9C14.2147 38.7147 14.284 39.59 14.284 40.526C14.284 41.1847 14.2147 41.904 14.076 42.684C13.9373 43.4467 13.6947 44.1833 13.348 44.894C13.0187 45.5873 12.5507 46.1593 11.944 46.61C11.3373 47.0433 10.5573 47.26 9.60404 47.26ZM10.124 45.284C11.008 45.284 11.736 45.0673 12.308 44.634C12.8973 44.2007 13.3307 43.6287 13.608 42.918C13.8853 42.19 14.024 41.3927 14.024 40.526C14.024 39.5727 13.8767 38.7407 13.582 38.03C13.3047 37.302 12.8713 36.7387 12.282 36.34C11.71 35.924 10.9907 35.716 10.124 35.716C8.82404 35.716 7.81871 36.1753 7.10804 37.094C6.39737 37.9953 6.04204 39.1393 6.04204 40.526C6.04204 41.4447 6.21537 42.268 6.56204 42.996C6.92604 43.7067 7.41137 44.27 8.01804 44.686C8.64204 45.0847 9.34404 45.284 10.124 45.284ZM14.024 28.8H16.104V47H14.206C14.1713 46.6187 14.128 46.168 14.076 45.648C14.0413 45.128 14.024 44.712 14.024 44.4V28.8ZM38.1776 42.814H40.1276C39.9889 43.6633 39.6769 44.426 39.1916 45.102C38.7236 45.7607 38.0996 46.2893 37.3196 46.688C36.5569 47.0693 35.6729 47.26 34.6676 47.26C33.4543 47.26 32.3623 46.974 31.3916 46.402C30.4209 45.8127 29.6496 45.0153 29.0776 44.01C28.5229 42.9873 28.2456 41.826 28.2456 40.526C28.2456 39.226 28.5143 38.0647 29.0516 37.042C29.6063 36.0193 30.3603 35.2133 31.3136 34.624C32.2669 34.0347 33.3416 33.74 34.5376 33.74C35.8029 33.74 36.8689 34.026 37.7356 34.598C38.6196 35.1527 39.2696 35.976 39.6856 37.068C40.1189 38.1427 40.2923 39.4687 40.2056 41.046H30.3256C30.4123 41.8953 30.6463 42.6407 31.0276 43.282C31.4089 43.9233 31.9116 44.426 32.5356 44.79C33.1596 45.1367 33.8703 45.31 34.6676 45.31C35.5516 45.31 36.2969 45.0847 36.9036 44.634C37.5276 44.166 37.9523 43.5593 38.1776 42.814ZM34.6156 35.69C33.5409 35.69 32.6396 36.002 31.9116 36.626C31.1836 37.25 30.6983 38.0993 30.4556 39.174H38.0736C38.0043 38.03 37.6316 37.1633 36.9556 36.574C36.2969 35.9847 35.5169 35.69 34.6156 35.69ZM73.0466 47.26C72.0933 47.26 71.3133 47.0433 70.7066 46.61C70.1 46.1593 69.6233 45.5873 69.2766 44.894C68.9473 44.1833 68.7133 43.4467 68.5746 42.684C68.436 41.904 68.3666 41.1847 68.3666 40.526C68.3666 39.59 68.4273 38.7147 68.5486 37.9C68.6873 37.0853 68.9213 36.366 69.2506 35.742C69.58 35.118 70.048 34.6327 70.6546 34.286C71.2786 33.922 72.076 33.74 73.0466 33.74C74.0866 33.74 75.0313 34.0347 75.8806 34.624C76.73 35.2133 77.406 36.0193 77.9086 37.042C78.4286 38.0647 78.6886 39.226 78.6886 40.526C78.6886 41.826 78.4286 42.9873 77.9086 44.01C77.3886 45.0153 76.6953 45.8127 75.8286 46.402C74.9793 46.974 74.052 47.26 73.0466 47.26ZM72.5266 45.284C73.324 45.284 74.026 45.0847 74.6326 44.686C75.2566 44.27 75.742 43.7067 76.0886 42.996C76.4353 42.268 76.6086 41.4447 76.6086 40.526C76.6086 39.1393 76.2533 37.9953 75.5426 37.094C74.832 36.1753 73.8266 35.716 72.5266 35.716C71.764 35.716 71.088 35.924 70.4986 36.34C69.9093 36.7387 69.45 37.302 69.1206 38.03C68.7913 38.7407 68.6266 39.5727 68.6266 40.526C68.6266 41.3927 68.7653 42.19 69.0426 42.918C69.3373 43.6287 69.7706 44.2007 70.3426 44.634C70.9146 45.0673 71.6426 45.284 72.5266 45.284ZM66.5466 34H68.5486L68.6266 36.73V52.2H66.5466V34ZM90.4494 34H92.5294V47H90.4494V34ZM96.6894 35.95C95.8054 35.95 95.06 36.1753 94.4534 36.626C93.864 37.0593 93.396 37.5967 93.0494 38.238C92.72 38.862 92.5034 39.4687 92.3994 40.058L92.3734 38.55C92.3734 38.394 92.408 38.134 92.4774 37.77C92.5467 37.406 92.6767 36.9987 92.8674 36.548C93.058 36.08 93.3094 35.638 93.6214 35.222C93.9507 34.7887 94.3667 34.4333 94.8694 34.156C95.372 33.8787 95.9787 33.74 96.6894 33.74V35.95ZM113.773 47.26C112.664 47.26 111.624 46.9913 110.653 46.454C109.683 45.9167 108.894 45.1453 108.287 44.14C107.698 43.1173 107.403 41.9127 107.403 40.526C107.403 39.1393 107.698 37.9433 108.287 36.938C108.894 35.9153 109.683 35.1267 110.653 34.572C111.624 34.0173 112.664 33.74 113.773 33.74C114.883 33.74 115.914 34.0173 116.867 34.572C117.838 35.1267 118.618 35.9153 119.207 36.938C119.797 37.9433 120.091 39.1393 120.091 40.526C120.091 41.9127 119.797 43.1173 119.207 44.14C118.618 45.1453 117.838 45.9167 116.867 46.454C115.914 46.9913 114.883 47.26 113.773 47.26ZM113.773 45.31C114.501 45.31 115.186 45.128 115.827 44.764C116.469 44.4 116.989 43.8627 117.387 43.152C117.803 42.424 118.011 41.5487 118.011 40.526C118.011 39.5033 117.803 38.6367 117.387 37.926C116.989 37.198 116.469 36.6433 115.827 36.262C115.186 35.8807 114.501 35.69 113.773 35.69C113.045 35.69 112.352 35.8807 111.693 36.262C111.052 36.626 110.523 37.172 110.107 37.9C109.691 38.6107 109.483 39.486 109.483 40.526C109.483 41.5487 109.683 42.424 110.081 43.152C110.497 43.8627 111.035 44.4 111.693 44.764C112.352 45.128 113.045 45.31 113.773 45.31ZM130.28 34H132.516L137.17 46.48L135.35 47L130.28 34ZM142.37 34L135.116 52.2H132.854L136 45.18L140.16 34H142.37ZM162.5 42.814H164.45C164.312 43.6633 164 44.426 163.514 45.102C163.046 45.7607 162.422 46.2893 161.642 46.688C160.88 47.0693 159.996 47.26 158.99 47.26C157.777 47.26 156.685 46.974 155.714 46.402C154.744 45.8127 153.972 45.0153 153.4 44.01C152.846 42.9873 152.568 41.826 152.568 40.526C152.568 39.226 152.837 38.0647 153.374 37.042C153.929 36.0193 154.683 35.2133 155.636 34.624C156.59 34.0347 157.664 33.74 158.86 33.74C160.126 33.74 161.192 34.026 162.058 34.598C162.942 35.1527 163.592 35.976 164.008 37.068C164.442 38.1427 164.615 39.4687 164.528 41.046H154.648C154.735 41.8953 154.969 42.6407 155.35 43.282C155.732 43.9233 156.234 44.426 156.858 44.79C157.482 45.1367 158.193 45.31 158.99 45.31C159.874 45.31 160.62 45.0847 161.226 44.634C161.85 44.166 162.275 43.5593 162.5 42.814ZM158.938 35.69C157.864 35.69 156.962 36.002 156.234 36.626C155.506 37.25 155.021 38.0993 154.778 39.174H162.396C162.327 38.03 161.954 37.1633 161.278 36.574C160.62 35.9847 159.84 35.69 158.938 35.69ZM187.854 42.112C187.733 43.1867 187.386 44.114 186.814 44.894C186.26 45.6567 185.558 46.246 184.708 46.662C183.859 47.0607 182.94 47.26 181.952 47.26C180.843 47.26 179.803 46.9913 178.832 46.454C177.862 45.9167 177.073 45.1453 176.466 44.14C175.877 43.1173 175.582 41.9127 175.582 40.526C175.582 39.1393 175.877 37.9433 176.466 36.938C177.073 35.9153 177.862 35.1267 178.832 34.572C179.803 34.0173 180.843 33.74 181.952 33.74C182.94 33.74 183.85 33.948 184.682 34.364C185.532 34.78 186.234 35.3693 186.788 36.132C187.36 36.8947 187.716 37.8047 187.854 38.862H185.956C185.662 37.874 185.15 37.1027 184.422 36.548C183.694 35.976 182.871 35.69 181.952 35.69C181.207 35.69 180.505 35.8807 179.846 36.262C179.188 36.6433 178.659 37.198 178.26 37.926C177.862 38.6367 177.662 39.5033 177.662 40.526C177.662 41.5313 177.862 42.398 178.26 43.126C178.659 43.8367 179.179 44.3827 179.82 44.764C180.479 45.128 181.19 45.31 181.952 45.31C183.01 45.31 183.868 45.0327 184.526 44.478C185.202 43.906 185.688 43.1173 185.982 42.112H187.854ZM198.694 34H206.338V35.95H198.694V34ZM201.476 30.62H203.556V47H201.476V30.62ZM223.283 47.26C222.174 47.26 221.134 46.9913 220.163 46.454C219.193 45.9167 218.404 45.1453 217.797 44.14C217.208 43.1173 216.913 41.9127 216.913 40.526C216.913 39.1393 217.208 37.9433 217.797 36.938C218.404 35.9153 219.193 35.1267 220.163 34.572C221.134 34.0173 222.174 33.74 223.283 33.74C224.393 33.74 225.424 34.0173 226.377 34.572C227.348 35.1267 228.128 35.9153 228.717 36.938C229.307 37.9433 229.601 39.1393 229.601 40.526C229.601 41.9127 229.307 43.1173 228.717 44.14C228.128 45.1453 227.348 45.9167 226.377 46.454C225.424 46.9913 224.393 47.26 223.283 47.26ZM223.283 45.31C224.011 45.31 224.696 45.128 225.337 44.764C225.979 44.4 226.499 43.8627 226.897 43.152C227.313 42.424 227.521 41.5487 227.521 40.526C227.521 39.5033 227.313 38.6367 226.897 37.926C226.499 37.198 225.979 36.6433 225.337 36.262C224.696 35.8807 224.011 35.69 223.283 35.69C222.555 35.69 221.862 35.8807 221.203 36.262C220.562 36.626 220.033 37.172 219.617 37.9C219.201 38.6107 218.993 39.486 218.993 40.526C218.993 41.5487 219.193 42.424 219.591 43.152C220.007 43.8627 220.545 44.4 221.203 44.764C221.862 45.128 222.555 45.31 223.283 45.31ZM240.717 42.814H242.641C242.693 43.5593 242.97 44.166 243.473 44.634C243.993 45.102 244.738 45.336 245.709 45.336C246.298 45.336 246.757 45.258 247.087 45.102C247.433 44.946 247.685 44.738 247.841 44.478C247.997 44.2007 248.075 43.8973 248.075 43.568C248.075 43.1693 247.971 42.8573 247.763 42.632C247.572 42.3893 247.303 42.19 246.957 42.034C246.627 41.878 246.246 41.7307 245.813 41.592C245.31 41.4013 244.79 41.202 244.253 40.994C243.733 40.7687 243.239 40.5087 242.771 40.214C242.32 39.902 241.956 39.5293 241.679 39.096C241.401 38.6453 241.263 38.108 241.263 37.484C241.263 36.964 241.367 36.4787 241.575 36.028C241.783 35.56 242.077 35.1613 242.459 34.832C242.857 34.4853 243.317 34.2167 243.837 34.026C244.374 33.8353 244.963 33.74 245.605 33.74C246.471 33.74 247.199 33.9133 247.789 34.26C248.395 34.6067 248.855 35.1007 249.167 35.742C249.496 36.366 249.669 37.094 249.687 37.926H247.893C247.771 37.146 247.52 36.5827 247.139 36.236C246.775 35.872 246.246 35.69 245.553 35.69C244.842 35.69 244.296 35.846 243.915 36.158C243.533 36.47 243.343 36.886 243.343 37.406C243.343 37.7873 243.481 38.108 243.759 38.368C244.036 38.6107 244.391 38.836 244.825 39.044C245.275 39.2347 245.752 39.434 246.255 39.642C246.757 39.85 247.243 40.058 247.711 40.266C248.179 40.474 248.595 40.7167 248.959 40.994C249.323 41.2713 249.609 41.618 249.817 42.034C250.042 42.4327 250.155 42.9353 250.155 43.542C250.155 44.27 249.981 44.92 249.635 45.492C249.305 46.0467 248.811 46.48 248.153 46.792C247.511 47.104 246.723 47.26 245.787 47.26C244.937 47.26 244.209 47.156 243.603 46.948C243.013 46.7227 242.519 46.4367 242.121 46.09C241.722 45.726 241.41 45.3447 241.185 44.946C240.977 44.5473 240.838 44.1573 240.769 43.776C240.699 43.3947 240.682 43.074 240.717 42.814Z" fill="#B2AD99"/>
<path d="M4.23999 31V8.59998H14.48C16.528 8.59998 18.288 8.93065 19.76 9.59198C21.2533 10.2533 22.4053 11.2133 23.216 12.472C24.0267 13.7093 24.432 15.1813 24.432 16.888C24.432 18.5733 24.0267 20.0347 23.216 21.272C22.4053 22.488 21.2533 23.4267 19.76 24.088C18.288 24.728 16.528 25.048 14.48 25.048H7.75999L10.576 22.392V31H4.23999ZM18.096 31L12.528 22.84H19.28L24.88 31H18.096ZM10.576 23.064L7.75999 20.152H14.096C15.4187 20.152 16.4 19.864 17.04 19.288C17.7013 18.712 18.032 17.912 18.032 16.888C18.032 15.8427 17.7013 15.032 17.04 14.456C16.4 13.88 15.4187 13.592 14.096 13.592H7.75999L10.576 10.68V23.064ZM36.6315 17.272H47.0315V22.008H36.6315V17.272ZM37.0795 26.104H48.7915V31H30.8075V8.59998H48.3755V13.496H37.0795V26.104ZM63.0595 31.448C61.2248 31.448 59.4542 31.224 57.7475 30.776C56.0622 30.3067 54.6862 29.7093 53.6195 28.984L55.6995 24.312C56.7022 24.952 57.8542 25.4853 59.1555 25.912C60.4782 26.3173 61.7902 26.52 63.0915 26.52C63.9662 26.52 64.6702 26.4453 65.2035 26.296C65.7368 26.1253 66.1208 25.912 66.3555 25.656C66.6115 25.3787 66.7395 25.0587 66.7395 24.696C66.7395 24.184 66.5048 23.7787 66.0355 23.48C65.5662 23.1813 64.9582 22.936 64.2115 22.744C63.4648 22.552 62.6328 22.36 61.7155 22.168C60.8195 21.976 59.9128 21.7307 58.9955 21.432C58.0995 21.1333 57.2782 20.7493 56.5315 20.28C55.7848 19.7893 55.1768 19.16 54.7075 18.392C54.2382 17.6027 54.0035 16.6107 54.0035 15.416C54.0035 14.072 54.3662 12.856 55.0915 11.768C55.8382 10.68 56.9475 9.80531 58.4195 9.14398C59.8915 8.48265 61.7262 8.15198 63.9235 8.15198C65.3955 8.15198 66.8355 8.32265 68.2435 8.66398C69.6728 8.98398 70.9422 9.46398 72.0515 10.104L70.0995 14.808C69.0328 14.232 67.9768 13.8053 66.9315 13.528C65.8862 13.2293 64.8728 13.08 63.8915 13.08C63.0168 13.08 62.3128 13.176 61.7795 13.368C61.2462 13.5387 60.8622 13.7733 60.6275 14.072C60.3928 14.3707 60.2755 14.712 60.2755 15.096C60.2755 15.5867 60.4995 15.9813 60.9475 16.28C61.4168 16.5573 62.0248 16.792 62.7715 16.984C63.5395 17.1547 64.3715 17.336 65.2675 17.528C66.1848 17.72 67.0915 17.9653 67.9875 18.264C68.9048 18.5413 69.7368 18.9253 70.4835 19.416C71.2302 19.8853 71.8275 20.5147 72.2755 21.304C72.7448 22.072 72.9795 23.0427 72.9795 24.216C72.9795 25.5173 72.6062 26.7227 71.8595 27.832C71.1342 28.92 70.0355 29.7947 68.5635 30.456C67.1128 31.1173 65.2782 31.448 63.0595 31.448ZM89.1222 31.448C85.8156 31.448 83.2342 30.5413 81.3782 28.728C79.5222 26.9147 78.5942 24.344 78.5942 21.016V8.59998H84.9303V20.824C84.9303 22.744 85.3036 24.12 86.0503 24.952C86.8182 25.784 87.8636 26.2 89.1862 26.2C90.5089 26.2 91.5436 25.784 92.2902 24.952C93.0369 24.12 93.4102 22.744 93.4102 20.824V8.59998H99.6503V21.016C99.6503 24.344 98.7223 26.9147 96.8663 28.728C95.0103 30.5413 92.4289 31.448 89.1222 31.448ZM106.823 31V8.59998H113.159V25.976H123.847V31H106.823ZM131.908 31V13.624H125.028V8.59998H145.092V13.624H138.244V31H131.908ZM146.519 31L156.407 8.59998H162.647L172.567 31H165.976L158.231 11.704H160.727L152.983 31H146.519ZM151.927 26.648L153.559 21.976H164.503L166.135 26.648H151.927ZM177.244 31V8.59998H187.836C190.31 8.59998 192.486 9.05865 194.364 9.97598C196.241 10.8933 197.702 12.184 198.748 13.848C199.814 15.512 200.348 17.496 200.348 19.8C200.348 22.0827 199.814 24.0667 198.748 25.752C197.702 27.416 196.241 28.7067 194.364 29.624C192.486 30.5413 190.31 31 187.836 31H177.244ZM183.58 25.944H187.58C188.86 25.944 189.969 25.7093 190.908 25.24C191.868 24.7493 192.614 24.0453 193.148 23.128C193.681 22.1893 193.948 21.08 193.948 19.8C193.948 18.4987 193.681 17.3893 193.148 16.472C192.614 15.5547 191.868 14.8613 190.908 14.392C189.969 13.9013 188.86 13.656 187.58 13.656H183.58V25.944ZM217.857 31.448C216.065 31.448 214.412 31.16 212.897 30.584C211.383 30.008 210.06 29.1973 208.929 28.152C207.82 27.0853 206.956 25.848 206.337 24.44C205.719 23.032 205.409 21.4853 205.409 19.8C205.409 18.1147 205.719 16.568 206.337 15.16C206.956 13.752 207.82 12.5253 208.929 11.48C210.06 10.4133 211.383 9.59198 212.897 9.01598C214.412 8.43998 216.065 8.15198 217.857 8.15198C219.671 8.15198 221.324 8.43998 222.817 9.01598C224.332 9.59198 225.644 10.4133 226.753 11.48C227.863 12.5253 228.727 13.752 229.345 15.16C229.985 16.568 230.305 18.1147 230.305 19.8C230.305 21.4853 229.985 23.0427 229.345 24.472C228.727 25.88 227.863 27.1067 226.753 28.152C225.644 29.1973 224.332 30.008 222.817 30.584C221.324 31.16 219.671 31.448 217.857 31.448ZM217.857 26.2C218.711 26.2 219.5 26.0507 220.225 25.752C220.972 25.4533 221.612 25.0267 222.145 24.472C222.7 23.896 223.127 23.2133 223.425 22.424C223.745 21.6347 223.905 20.76 223.905 19.8C223.905 18.8187 223.745 17.944 223.425 17.176C223.127 16.3867 222.7 15.7147 222.145 15.16C221.612 14.584 220.972 14.1467 220.225 13.848C219.5 13.5493 218.711 13.4 217.857 13.4C217.004 13.4 216.204 13.5493 215.457 13.848C214.732 14.1467 214.092 14.584 213.537 15.16C213.004 15.7147 212.577 16.3867 212.257 17.176C211.959 17.944 211.809 18.8187 211.809 19.8C211.809 20.76 211.959 21.6347 212.257 22.424C212.577 23.2133 213.004 23.896 213.537 24.472C214.092 25.0267 214.732 25.4533 215.457 25.752C216.204 26.0507 217.004 26.2 217.857 26.2ZM244.376 31.448C242.541 31.448 240.77 31.224 239.064 30.776C237.378 30.3067 236.002 29.7093 234.936 28.984L237.016 24.312C238.018 24.952 239.17 25.4853 240.472 25.912C241.794 26.3173 243.106 26.52 244.408 26.52C245.282 26.52 245.986 26.4453 246.52 26.296C247.053 26.1253 247.437 25.912 247.672 25.656C247.928 25.3787 248.056 25.0587 248.056 24.696C248.056 24.184 247.821 23.7787 247.352 23.48C246.882 23.1813 246.274 22.936 245.528 22.744C244.781 22.552 243.949 22.36 243.032 22.168C242.136 21.976 241.229 21.7307 240.312 21.432C239.416 21.1333 238.594 20.7493 237.848 20.28C237.101 19.7893 236.493 19.16 236.024 18.392C235.554 17.6027 235.32 16.6107 235.32 15.416C235.32 14.072 235.682 12.856 236.408 11.768C237.154 10.68 238.264 9.80531 239.736 9.14398C241.208 8.48265 243.042 8.15198 245.24 8.15198C246.712 8.15198 248.152 8.32265 249.56 8.66398C250.989 8.98398 252.258 9.46398 253.368 10.104L251.416 14.808C250.349 14.232 249.293 13.8053 248.248 13.528C247.202 13.2293 246.189 13.08 245.208 13.08C244.333 13.08 243.629 13.176 243.096 13.368C242.562 13.5387 242.178 13.7733 241.944 14.072C241.709 14.3707 241.592 14.712 241.592 15.096C241.592 15.5867 241.816 15.9813 242.264 16.28C242.733 16.5573 243.341 16.792 244.088 16.984C244.856 17.1547 245.688 17.336 246.584 17.528C247.501 17.72 248.408 17.9653 249.304 18.264C250.221 18.5413 251.053 18.9253 251.8 19.416C252.546 19.8853 253.144 20.5147 253.592 21.304C254.061 22.072 254.296 23.0427 254.296 24.216C254.296 25.5173 253.922 26.7227 253.176 27.832C252.45 28.92 251.352 29.7947 249.88 30.456C248.429 31.1173 246.594 31.448 244.376 31.448Z" fill="#FF8C00"/>
</svg>
