<svg width="257" height="97" viewBox="0 0 257 97" fill="none" xmlns="http://www.w3.org/2000/svg">
<path d="M3.5 84V49H11.65L30.95 72.3H27.1V49H36.8V84H28.65L9.35 60.7H13.2V84H3.5ZM53.8832 62.55H70.1332V69.95H53.8832V62.55ZM54.5832 76.35H72.8832V84H44.7832V49H72.2332V56.65H54.5832V76.35ZM96.877 84.7C94.1103 84.7 91.5436 84.2667 89.177 83.4C86.8103 82.5 84.7603 81.2333 83.027 79.6C81.327 77.9667 79.9936 76.05 79.027 73.85C78.0603 71.6167 77.577 69.1667 77.577 66.5C77.577 63.8333 78.0603 61.4 79.027 59.2C79.9936 56.9667 81.3436 55.0333 83.077 53.4C84.8103 51.7667 86.8603 50.5167 89.227 49.65C91.627 48.75 94.2436 48.3 97.077 48.3C100.377 48.3 103.327 48.85 105.927 49.95C108.527 51.05 110.677 52.6333 112.377 54.7L106.077 60.4C104.877 59.1 103.577 58.1333 102.177 57.5C100.81 56.8333 99.277 56.5 97.577 56.5C96.077 56.5 94.7103 56.7333 93.477 57.2C92.2436 57.6667 91.1936 58.35 90.327 59.25C89.4603 60.1167 88.777 61.1667 88.277 62.4C87.8103 63.6 87.577 64.9667 87.577 66.5C87.577 67.9667 87.8103 69.3167 88.277 70.55C88.777 71.7833 89.4603 72.85 90.327 73.75C91.1936 74.6167 92.227 75.3 93.427 75.8C94.6603 76.2667 96.0103 76.5 97.477 76.5C98.9436 76.5 100.377 76.2667 101.777 75.8C103.177 75.3 104.594 74.4667 106.027 73.3L111.577 80.25C109.577 81.6833 107.26 82.7833 104.627 83.55C101.994 84.3167 99.4103 84.7 96.877 84.7ZM102.827 78.95V65.75H111.577V80.25L102.827 78.95ZM136.504 84.7C133.704 84.7 131.12 84.25 128.754 83.35C126.387 82.45 124.32 81.1833 122.554 79.55C120.82 77.8833 119.47 75.95 118.504 73.75C117.537 71.55 117.054 69.1333 117.054 66.5C117.054 63.8667 117.537 61.45 118.504 59.25C119.47 57.05 120.82 55.1333 122.554 53.5C124.32 51.8333 126.387 50.55 128.754 49.65C131.12 48.75 133.704 48.3 136.504 48.3C139.337 48.3 141.92 48.75 144.254 49.65C146.62 50.55 148.67 51.8333 150.404 53.5C152.137 55.1333 153.487 57.05 154.454 59.25C155.454 61.45 155.954 63.8667 155.954 66.5C155.954 69.1333 155.454 71.5667 154.454 73.8C153.487 76 152.137 77.9167 150.404 79.55C148.67 81.1833 146.62 82.45 144.254 83.35C141.92 84.25 139.337 84.7 136.504 84.7ZM136.504 76.5C137.837 76.5 139.07 76.2667 140.204 75.8C141.37 75.3333 142.37 74.6667 143.204 73.8C144.07 72.9 144.737 71.8333 145.204 70.6C145.704 69.3667 145.954 68 145.954 66.5C145.954 64.9667 145.704 63.6 145.204 62.4C144.737 61.1667 144.07 60.1167 143.204 59.25C142.37 58.35 141.37 57.6667 140.204 57.2C139.07 56.7333 137.837 56.5 136.504 56.5C135.17 56.5 133.92 56.7333 132.754 57.2C131.62 57.6667 130.62 58.35 129.754 59.25C128.92 60.1167 128.254 61.1667 127.754 62.4C127.287 63.6 127.054 64.9667 127.054 66.5C127.054 68 127.287 69.3667 127.754 70.6C128.254 71.8333 128.92 72.9 129.754 73.8C130.62 74.6667 131.62 75.3333 132.754 75.8C133.92 76.2667 135.17 76.5 136.504 76.5ZM179.589 84.7C176.822 84.7 174.255 84.2667 171.889 83.4C169.555 82.5 167.522 81.2333 165.789 79.6C164.089 77.9667 162.755 76.05 161.789 73.85C160.822 71.6167 160.339 69.1667 160.339 66.5C160.339 63.8333 160.822 61.4 161.789 59.2C162.755 56.9667 164.089 55.0333 165.789 53.4C167.522 51.7667 169.555 50.5167 171.889 49.65C174.255 48.75 176.822 48.3 179.589 48.3C182.822 48.3 185.705 48.8667 188.239 50C190.805 51.1333 192.939 52.7667 194.639 54.9L188.339 60.6C187.205 59.2667 185.955 58.25 184.589 57.55C183.255 56.85 181.755 56.5 180.089 56.5C178.655 56.5 177.339 56.7333 176.139 57.2C174.939 57.6667 173.905 58.35 173.039 59.25C172.205 60.1167 171.539 61.1667 171.039 62.4C170.572 63.6333 170.339 65 170.339 66.5C170.339 68 170.572 69.3667 171.039 70.6C171.539 71.8333 172.205 72.9 173.039 73.8C173.905 74.6667 174.939 75.3333 176.139 75.8C177.339 76.2667 178.655 76.5 180.089 76.5C181.755 76.5 183.255 76.15 184.589 75.45C185.955 74.75 187.205 73.7333 188.339 72.4L194.639 78.1C192.939 80.2 190.805 81.8333 188.239 83C185.705 84.1333 182.822 84.7 179.589 84.7ZM200.053 84V49H209.953V84H200.053ZM235.646 84.7C232.846 84.7 230.263 84.25 227.896 83.35C225.529 82.45 223.463 81.1833 221.696 79.55C219.963 77.8833 218.613 75.95 217.646 73.75C216.679 71.55 216.196 69.1333 216.196 66.5C216.196 63.8667 216.679 61.45 217.646 59.25C218.613 57.05 219.963 55.1333 221.696 53.5C223.463 51.8333 225.529 50.55 227.896 49.65C230.263 48.75 232.846 48.3 235.646 48.3C238.479 48.3 241.063 48.75 243.396 49.65C245.763 50.55 247.813 51.8333 249.546 53.5C251.279 55.1333 252.629 57.05 253.596 59.25C254.596 61.45 255.096 63.8667 255.096 66.5C255.096 69.1333 254.596 71.5667 253.596 73.8C252.629 76 251.279 77.9167 249.546 79.55C247.813 81.1833 245.763 82.45 243.396 83.35C241.063 84.25 238.479 84.7 235.646 84.7ZM235.646 76.5C236.979 76.5 238.213 76.2667 239.346 75.8C240.513 75.3333 241.513 74.6667 242.346 73.8C243.213 72.9 243.879 71.8333 244.346 70.6C244.846 69.3667 245.096 68 245.096 66.5C245.096 64.9667 244.846 63.6 244.346 62.4C243.879 61.1667 243.213 60.1167 242.346 59.25C241.513 58.35 240.513 57.6667 239.346 57.2C238.213 56.7333 236.979 56.5 235.646 56.5C234.313 56.5 233.063 56.7333 231.896 57.2C230.763 57.6667 229.763 58.35 228.896 59.25C228.063 60.1167 227.396 61.1667 226.896 62.4C226.429 63.6 226.196 64.9667 226.196 66.5C226.196 68 226.429 69.3667 226.896 70.6C227.396 71.8333 228.063 72.9 228.896 73.8C229.763 74.6667 230.763 75.3333 231.896 75.8C233.063 76.2667 234.313 76.5 235.646 76.5Z" fill="#FF8C00"/>
<path d="M11.1899 47.26C10.2366 47.26 9.45661 47.0433 8.84994 46.61C8.24327 46.1593 7.76661 45.5873 7.41994 44.894C7.09061 44.1833 6.85661 43.4467 6.71794 42.684C6.57927 41.904 6.50994 41.1847 6.50994 40.526C6.50994 39.59 6.57061 38.7147 6.69194 37.9C6.83061 37.0853 7.06461 36.366 7.39394 35.742C7.72327 35.118 8.19127 34.6327 8.79794 34.286C9.42194 33.922 10.2192 33.74 11.1899 33.74C12.2299 33.74 13.1746 34.0347 14.0239 34.624C14.8732 35.2133 15.5492 36.0193 16.0519 37.042C16.5719 38.0647 16.8319 39.226 16.8319 40.526C16.8319 41.826 16.5719 42.9873 16.0519 44.01C15.5319 45.0153 14.8386 45.8127 13.9719 46.402C13.1226 46.974 12.1952 47.26 11.1899 47.26ZM10.6699 45.284C11.4672 45.284 12.1692 45.0847 12.7759 44.686C13.3999 44.27 13.8852 43.7067 14.2319 42.996C14.5786 42.268 14.7519 41.4447 14.7519 40.526C14.7519 39.1393 14.3966 37.9953 13.6859 37.094C12.9752 36.1753 11.9699 35.716 10.6699 35.716C9.90727 35.716 9.23127 35.924 8.64194 36.34C8.05261 36.7387 7.59327 37.302 7.26394 38.03C6.93461 38.7407 6.76994 39.5727 6.76994 40.526C6.76994 41.3927 6.90861 42.19 7.18594 42.918C7.48061 43.6287 7.91394 44.2007 8.48594 44.634C9.05794 45.0673 9.78594 45.284 10.6699 45.284ZM4.68994 34H6.69194L6.76994 36.73V52.2H4.68994V34ZM32.0766 42.814H34.0266C33.888 43.6633 33.576 44.426 33.0906 45.102C32.6226 45.7607 31.9986 46.2893 31.2186 46.688C30.456 47.0693 29.572 47.26 28.5666 47.26C27.3533 47.26 26.2613 46.974 25.2906 46.402C24.32 45.8127 23.5486 45.0153 22.9766 44.01C22.422 42.9873 22.1446 41.826 22.1446 40.526C22.1446 39.226 22.4133 38.0647 22.9506 37.042C23.5053 36.0193 24.2593 35.2133 25.2126 34.624C26.166 34.0347 27.2406 33.74 28.4366 33.74C29.702 33.74 30.768 34.026 31.6346 34.598C32.5186 35.1527 33.1686 35.976 33.5846 37.068C34.018 38.1427 34.1913 39.4687 34.1046 41.046H24.2246C24.3113 41.8953 24.5453 42.6407 24.9266 43.282C25.308 43.9233 25.8106 44.426 26.4346 44.79C27.0586 45.1367 27.7693 45.31 28.5666 45.31C29.4506 45.31 30.196 45.0847 30.8026 44.634C31.4266 44.166 31.8513 43.5593 32.0766 42.814ZM28.5146 35.69C27.44 35.69 26.5386 36.002 25.8106 36.626C25.0826 37.25 24.5973 38.0993 24.3546 39.174H31.9726C31.9033 38.03 31.5306 37.1633 30.8546 36.574C30.196 35.9847 29.416 35.69 28.5146 35.69ZM40.1667 34H42.2467V47H40.1667V34ZM46.7187 33.74C47.412 33.74 48.036 33.844 48.5907 34.052C49.1454 34.26 49.6134 34.5633 49.9947 34.962C50.376 35.3607 50.6707 35.846 50.8787 36.418C51.0867 36.9727 51.1907 37.6053 51.1907 38.316V47H49.1107V38.836C49.1107 37.8307 48.8767 37.0767 48.4087 36.574C47.9407 36.0713 47.2387 35.82 46.3027 35.82C45.592 35.82 44.9334 36.002 44.3267 36.366C43.72 36.73 43.2174 37.2327 42.8187 37.874C42.4374 38.498 42.2034 39.226 42.1167 40.058L42.0907 38.55C42.1774 37.822 42.3507 37.1633 42.6107 36.574C42.888 35.9847 43.226 35.482 43.6247 35.066C44.0407 34.6327 44.5087 34.3033 45.0287 34.078C45.566 33.8527 46.1294 33.74 46.7187 33.74ZM57.3192 42.814H59.2432C59.2952 43.5593 59.5725 44.166 60.0752 44.634C60.5952 45.102 61.3405 45.336 62.3112 45.336C62.9005 45.336 63.3598 45.258 63.6892 45.102C64.0358 44.946 64.2872 44.738 64.4432 44.478C64.5992 44.2007 64.6772 43.8973 64.6772 43.568C64.6772 43.1693 64.5732 42.8573 64.3652 42.632C64.1745 42.3893 63.9058 42.19 63.5592 42.034C63.2298 41.878 62.8485 41.7307 62.4152 41.592C61.9125 41.4013 61.3925 41.202 60.8552 40.994C60.3352 40.7687 59.8412 40.5087 59.3732 40.214C58.9225 39.902 58.5585 39.5293 58.2812 39.096C58.0038 38.6453 57.8652 38.108 57.8652 37.484C57.8652 36.964 57.9692 36.4787 58.1772 36.028C58.3852 35.56 58.6798 35.1613 59.0612 34.832C59.4598 34.4853 59.9192 34.2167 60.4392 34.026C60.9765 33.8353 61.5658 33.74 62.2072 33.74C63.0738 33.74 63.8018 33.9133 64.3912 34.26C64.9978 34.6067 65.4572 35.1007 65.7692 35.742C66.0985 36.366 66.2718 37.094 66.2892 37.926H64.4952C64.3738 37.146 64.1225 36.5827 63.7412 36.236C63.3772 35.872 62.8485 35.69 62.1552 35.69C61.4445 35.69 60.8985 35.846 60.5172 36.158C60.1358 36.47 59.9452 36.886 59.9452 37.406C59.9452 37.7873 60.0838 38.108 60.3612 38.368C60.6385 38.6107 60.9938 38.836 61.4272 39.044C61.8778 39.2347 62.3545 39.434 62.8572 39.642C63.3598 39.85 63.8452 40.058 64.3132 40.266C64.7812 40.474 65.1972 40.7167 65.5612 40.994C65.9252 41.2713 66.2112 41.618 66.4192 42.034C66.6445 42.4327 66.7572 42.9353 66.7572 43.542C66.7572 44.27 66.5838 44.92 66.2372 45.492C65.9078 46.0467 65.4138 46.48 64.7552 46.792C64.1138 47.104 63.3252 47.26 62.3892 47.26C61.5398 47.26 60.8118 47.156 60.2052 46.948C59.6158 46.7227 59.1218 46.4367 58.7232 46.09C58.3245 45.726 58.0125 45.3447 57.7872 44.946C57.5792 44.5473 57.4405 44.1573 57.3712 43.776C57.3018 43.3947 57.2845 43.074 57.3192 42.814ZM77.7137 47.26C76.6911 47.26 75.7464 46.974 74.8797 46.402C74.0304 45.8127 73.3457 45.0153 72.8257 44.01C72.3231 42.9873 72.0717 41.826 72.0717 40.526C72.0717 39.226 72.3317 38.0647 72.8517 37.042C73.3717 36.0193 74.0737 35.2133 74.9577 34.624C75.8591 34.0347 76.8644 33.74 77.9737 33.74C79.1871 33.74 80.1057 34.052 80.7297 34.676C81.3711 35.2827 81.8044 36.0973 82.0297 37.12C82.2724 38.1427 82.3937 39.278 82.3937 40.526C82.3937 41.1847 82.3244 41.904 82.1857 42.684C82.0471 43.4467 81.8044 44.1833 81.4577 44.894C81.1284 45.5873 80.6604 46.1593 80.0537 46.61C79.4471 47.0433 78.6671 47.26 77.7137 47.26ZM78.2337 45.284C79.1177 45.284 79.8457 45.0673 80.4177 44.634C81.0071 44.2007 81.4404 43.6287 81.7177 42.918C81.9951 42.19 82.1337 41.3927 82.1337 40.526C82.1337 39.5727 81.9864 38.7407 81.6917 38.03C81.4144 37.302 80.9811 36.7387 80.3917 36.34C79.8197 35.924 79.1004 35.716 78.2337 35.716C76.9337 35.716 75.9284 36.1753 75.2177 37.094C74.5071 37.9953 74.1517 39.1393 74.1517 40.526C74.1517 41.4447 74.3251 42.268 74.6717 42.996C75.0357 43.7067 75.5211 44.27 76.1277 44.686C76.7517 45.0847 77.4537 45.284 78.2337 45.284ZM82.1337 34H84.2137V47H82.3157C82.3157 47 82.2984 46.844 82.2637 46.532C82.2464 46.22 82.2204 45.856 82.1857 45.44C82.1511 45.024 82.1337 44.6773 82.1337 44.4V34ZM95.8965 47.26C94.8565 47.26 93.9031 46.974 93.0365 46.402C92.1871 45.8127 91.5111 45.0153 91.0085 44.01C90.5058 42.9873 90.2545 41.826 90.2545 40.526C90.2545 39.226 90.4971 38.0647 90.9825 37.042C91.4678 36.0193 92.1351 35.2133 92.9845 34.624C93.8338 34.0347 94.8045 33.74 95.8965 33.74C96.8671 33.74 97.6558 33.922 98.2625 34.286C98.8865 34.6327 99.3631 35.118 99.6925 35.742C100.022 36.366 100.247 37.0853 100.369 37.9C100.507 38.7147 100.577 39.59 100.577 40.526C100.577 41.1847 100.507 41.904 100.369 42.684C100.23 43.4467 99.9871 44.1833 99.6405 44.894C99.3111 45.5873 98.8431 46.1593 98.2365 46.61C97.6298 47.0433 96.8498 47.26 95.8965 47.26ZM96.4165 45.284C97.3005 45.284 98.0285 45.0673 98.6005 44.634C99.1898 44.2007 99.6231 43.6287 99.9005 42.918C100.178 42.19 100.317 41.3927 100.317 40.526C100.317 39.5727 100.169 38.7407 99.8745 38.03C99.5971 37.302 99.1638 36.7387 98.5745 36.34C98.0025 35.924 97.2831 35.716 96.4165 35.716C95.1165 35.716 94.1111 36.1753 93.4005 37.094C92.6898 37.9953 92.3345 39.1393 92.3345 40.526C92.3345 41.4447 92.5078 42.268 92.8545 42.996C93.2185 43.7067 93.7038 44.27 94.3105 44.686C94.9345 45.0847 95.6365 45.284 96.4165 45.284ZM100.317 28.8H102.397V47H100.499C100.464 46.6187 100.421 46.168 100.369 45.648C100.334 45.128 100.317 44.712 100.317 44.4V28.8ZM114.46 47.26C113.438 47.26 112.493 46.974 111.626 46.402C110.777 45.8127 110.092 45.0153 109.572 44.01C109.07 42.9873 108.818 41.826 108.818 40.526C108.818 39.226 109.078 38.0647 109.598 37.042C110.118 36.0193 110.82 35.2133 111.704 34.624C112.606 34.0347 113.611 33.74 114.72 33.74C115.934 33.74 116.852 34.052 117.476 34.676C118.118 35.2827 118.551 36.0973 118.776 37.12C119.019 38.1427 119.14 39.278 119.14 40.526C119.14 41.1847 119.071 41.904 118.932 42.684C118.794 43.4467 118.551 44.1833 118.204 44.894C117.875 45.5873 117.407 46.1593 116.8 46.61C116.194 47.0433 115.414 47.26 114.46 47.26ZM114.98 45.284C115.864 45.284 116.592 45.0673 117.164 44.634C117.754 44.2007 118.187 43.6287 118.464 42.918C118.742 42.19 118.88 41.3927 118.88 40.526C118.88 39.5727 118.733 38.7407 118.438 38.03C118.161 37.302 117.728 36.7387 117.138 36.34C116.566 35.924 115.847 35.716 114.98 35.716C113.68 35.716 112.675 36.1753 111.964 37.094C111.254 37.9953 110.898 39.1393 110.898 40.526C110.898 41.4447 111.072 42.268 111.418 42.996C111.782 43.7067 112.268 44.27 112.874 44.686C113.498 45.0847 114.2 45.284 114.98 45.284ZM118.88 34H120.96V47H119.062C119.062 47 119.045 46.844 119.01 46.532C118.993 46.22 118.967 45.856 118.932 45.44C118.898 45.024 118.88 44.6773 118.88 44.4V34ZM127.105 42.814H129.029C129.081 43.5593 129.358 44.166 129.861 44.634C130.381 45.102 131.126 45.336 132.097 45.336C132.686 45.336 133.146 45.258 133.475 45.102C133.822 44.946 134.073 44.738 134.229 44.478C134.385 44.2007 134.463 43.8973 134.463 43.568C134.463 43.1693 134.359 42.8573 134.151 42.632C133.96 42.3893 133.692 42.19 133.345 42.034C133.016 41.878 132.634 41.7307 132.201 41.592C131.698 41.4013 131.178 41.202 130.641 40.994C130.121 40.7687 129.627 40.5087 129.159 40.214C128.708 39.902 128.344 39.5293 128.067 39.096C127.79 38.6453 127.651 38.108 127.651 37.484C127.651 36.964 127.755 36.4787 127.963 36.028C128.171 35.56 128.466 35.1613 128.847 34.832C129.246 34.4853 129.705 34.2167 130.225 34.026C130.762 33.8353 131.352 33.74 131.993 33.74C132.86 33.74 133.588 33.9133 134.177 34.26C134.784 34.6067 135.243 35.1007 135.555 35.742C135.884 36.366 136.058 37.094 136.075 37.926H134.281C134.16 37.146 133.908 36.5827 133.527 36.236C133.163 35.872 132.634 35.69 131.941 35.69C131.23 35.69 130.684 35.846 130.303 36.158C129.922 36.47 129.731 36.886 129.731 37.406C129.731 37.7873 129.87 38.108 130.147 38.368C130.424 38.6107 130.78 38.836 131.213 39.044C131.664 39.2347 132.14 39.434 132.643 39.642C133.146 39.85 133.631 40.058 134.099 40.266C134.567 40.474 134.983 40.7167 135.347 40.994C135.711 41.2713 135.997 41.618 136.205 42.034C136.43 42.4327 136.543 42.9353 136.543 43.542C136.543 44.27 136.37 44.92 136.023 45.492C135.694 46.0467 135.2 46.48 134.541 46.792C133.9 47.104 133.111 47.26 132.175 47.26C131.326 47.26 130.598 47.156 129.991 46.948C129.402 46.7227 128.908 46.4367 128.509 46.09C128.11 45.726 127.798 45.3447 127.573 44.946C127.365 44.5473 127.226 44.1573 127.157 43.776C127.088 43.3947 127.07 43.074 127.105 42.814ZM157.924 47.26C156.971 47.26 156.191 47.0433 155.584 46.61C154.978 46.1593 154.501 45.5873 154.154 44.894C153.825 44.1833 153.591 43.4467 153.452 42.684C153.314 41.904 153.244 41.1847 153.244 40.526C153.244 39.59 153.305 38.7147 153.426 37.9C153.565 37.0853 153.799 36.366 154.128 35.742C154.458 35.118 154.926 34.6327 155.532 34.286C156.156 33.922 156.954 33.74 157.924 33.74C158.964 33.74 159.909 34.0347 160.758 34.624C161.608 35.2133 162.284 36.0193 162.786 37.042C163.306 38.0647 163.566 39.226 163.566 40.526C163.566 41.826 163.306 42.9873 162.786 44.01C162.266 45.0153 161.573 45.8127 160.706 46.402C159.857 46.974 158.93 47.26 157.924 47.26ZM157.404 45.284C158.202 45.284 158.904 45.0847 159.51 44.686C160.134 44.27 160.62 43.7067 160.966 42.996C161.313 42.268 161.486 41.4447 161.486 40.526C161.486 39.1393 161.131 37.9953 160.42 37.094C159.71 36.1753 158.704 35.716 157.404 35.716C156.642 35.716 155.966 35.924 155.376 36.34C154.787 36.7387 154.328 37.302 153.998 38.03C153.669 38.7407 153.504 39.5727 153.504 40.526C153.504 41.3927 153.643 42.19 153.92 42.918C154.215 43.6287 154.648 44.2007 155.22 44.634C155.792 45.0673 156.52 45.284 157.404 45.284ZM151.424 34H153.426L153.504 36.73V52.2H151.424V34ZM174.521 47.26C173.499 47.26 172.554 46.974 171.687 46.402C170.838 45.8127 170.153 45.0153 169.633 44.01C169.131 42.9873 168.879 41.826 168.879 40.526C168.879 39.226 169.139 38.0647 169.659 37.042C170.179 36.0193 170.881 35.2133 171.765 34.624C172.667 34.0347 173.672 33.74 174.781 33.74C175.995 33.74 176.913 34.052 177.537 34.676C178.179 35.2827 178.612 36.0973 178.837 37.12C179.08 38.1427 179.201 39.278 179.201 40.526C179.201 41.1847 179.132 41.904 178.993 42.684C178.855 43.4467 178.612 44.1833 178.265 44.894C177.936 45.5873 177.468 46.1593 176.861 46.61C176.255 47.0433 175.475 47.26 174.521 47.26ZM175.041 45.284C175.925 45.284 176.653 45.0673 177.225 44.634C177.815 44.2007 178.248 43.6287 178.525 42.918C178.803 42.19 178.941 41.3927 178.941 40.526C178.941 39.5727 178.794 38.7407 178.499 38.03C178.222 37.302 177.789 36.7387 177.199 36.34C176.627 35.924 175.908 35.716 175.041 35.716C173.741 35.716 172.736 36.1753 172.025 37.094C171.315 37.9953 170.959 39.1393 170.959 40.526C170.959 41.4447 171.133 42.268 171.479 42.996C171.843 43.7067 172.329 44.27 172.935 44.686C173.559 45.0847 174.261 45.284 175.041 45.284ZM178.941 34H181.021V47H179.123C179.123 47 179.106 46.844 179.071 46.532C179.054 46.22 179.028 45.856 178.993 45.44C178.959 45.024 178.941 44.6773 178.941 44.4V34ZM187.79 34H189.87V47H187.79V34ZM194.03 35.95C193.146 35.95 192.401 36.1753 191.794 36.626C191.205 37.0593 190.737 37.5967 190.39 38.238C190.061 38.862 189.844 39.4687 189.74 40.058L189.714 38.55C189.714 38.394 189.749 38.134 189.818 37.77C189.887 37.406 190.017 36.9987 190.208 36.548C190.399 36.08 190.65 35.638 190.962 35.222C191.291 34.7887 191.707 34.4333 192.21 34.156C192.713 33.8787 193.319 33.74 194.03 33.74V35.95ZM204.666 47.26C203.643 47.26 202.699 46.974 201.832 46.402C200.983 45.8127 200.298 45.0153 199.778 44.01C199.275 42.9873 199.024 41.826 199.024 40.526C199.024 39.226 199.284 38.0647 199.804 37.042C200.324 36.0193 201.026 35.2133 201.91 34.624C202.811 34.0347 203.817 33.74 204.926 33.74C206.139 33.74 207.058 34.052 207.682 34.676C208.323 35.2827 208.757 36.0973 208.982 37.12C209.225 38.1427 209.346 39.278 209.346 40.526C209.346 41.1847 209.277 41.904 209.138 42.684C208.999 43.4467 208.757 44.1833 208.41 44.894C208.081 45.5873 207.613 46.1593 207.006 46.61C206.399 47.0433 205.619 47.26 204.666 47.26ZM205.186 45.284C206.07 45.284 206.798 45.0673 207.37 44.634C207.959 44.2007 208.393 43.6287 208.67 42.918C208.947 42.19 209.086 41.3927 209.086 40.526C209.086 39.5727 208.939 38.7407 208.644 38.03C208.367 37.302 207.933 36.7387 207.344 36.34C206.772 35.924 206.053 35.716 205.186 35.716C203.886 35.716 202.881 36.1753 202.17 37.094C201.459 37.9953 201.104 39.1393 201.104 40.526C201.104 41.4447 201.277 42.268 201.624 42.996C201.988 43.7067 202.473 44.27 203.08 44.686C203.704 45.0847 204.406 45.284 205.186 45.284ZM209.086 34H211.166V47H209.268C209.268 47 209.251 46.844 209.216 46.532C209.199 46.22 209.173 45.856 209.138 45.44C209.103 45.024 209.086 44.6773 209.086 44.4V34ZM225.864 34H233.508V35.95H225.864V34ZM228.646 30.62H230.726V47H228.646V30.62ZM250.369 47H248.289V34H250.369V47ZM248.419 40.942L248.445 41.67C248.428 41.878 248.376 42.1987 248.289 42.632C248.22 43.0653 248.09 43.5507 247.899 44.088C247.726 44.608 247.466 45.1107 247.119 45.596C246.79 46.0813 246.356 46.48 245.819 46.792C245.299 47.104 244.649 47.26 243.869 47.26C243.366 47.26 242.846 47.182 242.309 47.026C241.789 46.8873 241.304 46.6533 240.853 46.324C240.402 45.9773 240.038 45.5007 239.761 44.894C239.484 44.2873 239.345 43.5333 239.345 42.632V34H241.425V42.112C241.425 42.892 241.546 43.5073 241.789 43.958C242.049 44.3913 242.396 44.7033 242.829 44.894C243.262 45.0847 243.748 45.18 244.285 45.18C245.169 45.18 245.906 44.9547 246.495 44.504C247.084 44.0533 247.535 43.4987 247.847 42.84C248.159 42.1813 248.35 41.5487 248.419 40.942Z" fill="#B2AD99"/>
<path d="M12.112 31.448C10.2773 31.448 8.50667 31.224 6.8 30.776C5.11467 30.3067 3.73867 29.7093 2.672 28.984L4.752 24.312C5.75467 24.952 6.90667 25.4853 8.208 25.912C9.53067 26.3173 10.8427 26.52 12.144 26.52C13.0187 26.52 13.7227 26.4453 14.256 26.296C14.7893 26.1253 15.1733 25.912 15.408 25.656C15.664 25.3787 15.792 25.0587 15.792 24.696C15.792 24.184 15.5573 23.7787 15.088 23.48C14.6187 23.1813 14.0107 22.936 13.264 22.744C12.5173 22.552 11.6853 22.36 10.768 22.168C9.872 21.976 8.96533 21.7307 8.048 21.432C7.152 21.1333 6.33067 20.7493 5.584 20.28C4.83733 19.7893 4.22933 19.16 3.76 18.392C3.29067 17.6027 3.056 16.6107 3.056 15.416C3.056 14.072 3.41867 12.856 4.144 11.768C4.89067 10.68 6 9.80531 7.472 9.14398C8.944 8.48265 10.7787 8.15198 12.976 8.15198C14.448 8.15198 15.888 8.32265 17.296 8.66398C18.7253 8.98398 19.9947 9.46398 21.104 10.104L19.152 14.808C18.0853 14.232 17.0293 13.8053 15.984 13.528C14.9387 13.2293 13.9253 13.08 12.944 13.08C12.0693 13.08 11.3653 13.176 10.832 13.368C10.2987 13.5387 9.91467 13.7733 9.68 14.072C9.44533 14.3707 9.328 14.712 9.328 15.096C9.328 15.5867 9.552 15.9813 10 16.28C10.4693 16.5573 11.0773 16.792 11.824 16.984C12.592 17.1547 13.424 17.336 14.32 17.528C15.2373 17.72 16.144 17.9653 17.04 18.264C17.9573 18.5413 18.7893 18.9253 19.536 19.416C20.2827 19.8853 20.88 20.5147 21.328 21.304C21.7973 22.072 22.032 23.0427 22.032 24.216C22.032 25.5173 21.6587 26.7227 20.912 27.832C20.1867 28.92 19.088 29.7947 17.616 30.456C16.1653 31.1173 14.3307 31.448 12.112 31.448ZM39.1348 31.448C37.3428 31.448 35.6894 31.16 34.1748 30.584C32.6601 30.008 31.3374 29.1973 30.2068 28.152C29.0974 27.0853 28.2334 25.848 27.6148 24.44C26.9961 23.032 26.6868 21.4853 26.6868 19.8C26.6868 18.1147 26.9961 16.568 27.6148 15.16C28.2334 13.752 29.0974 12.5253 30.2068 11.48C31.3374 10.4133 32.6601 9.59198 34.1748 9.01598C35.6894 8.43998 37.3428 8.15198 39.1348 8.15198C40.9481 8.15198 42.6014 8.43998 44.0948 9.01598C45.6094 9.59198 46.9214 10.4133 48.0308 11.48C49.1401 12.5253 50.0041 13.752 50.6228 15.16C51.2628 16.568 51.5828 18.1147 51.5828 19.8C51.5828 21.4853 51.2628 23.0427 50.6228 24.472C50.0041 25.88 49.1401 27.1067 48.0308 28.152C46.9214 29.1973 45.6094 30.008 44.0948 30.584C42.6014 31.16 40.9481 31.448 39.1348 31.448ZM39.1348 26.2C39.9881 26.2 40.7774 26.0507 41.5028 25.752C42.2494 25.4533 42.8894 25.0267 43.4228 24.472C43.9774 23.896 44.4041 23.2133 44.7028 22.424C45.0228 21.6347 45.1828 20.76 45.1828 19.8C45.1828 18.8187 45.0228 17.944 44.7028 17.176C44.4041 16.3867 43.9774 15.7147 43.4228 15.16C42.8894 14.584 42.2494 14.1467 41.5028 13.848C40.7774 13.5493 39.9881 13.4 39.1348 13.4C38.2814 13.4 37.4814 13.5493 36.7348 13.848C36.0094 14.1467 35.3694 14.584 34.8148 15.16C34.2814 15.7147 33.8548 16.3867 33.5348 17.176C33.2361 17.944 33.0868 18.8187 33.0868 19.8C33.0868 20.76 33.2361 21.6347 33.5348 22.424C33.8548 23.2133 34.2814 23.896 34.8148 24.472C35.3694 25.0267 36.0094 25.4533 36.7348 25.752C37.4814 26.0507 38.2814 26.2 39.1348 26.2ZM57.7813 31V8.59998H64.1173V25.976H74.8053V31H57.7813ZM90.3097 31.448C87.0031 31.448 84.4217 30.5413 82.5657 28.728C80.7097 26.9147 79.7817 24.344 79.7817 21.016V8.59998H86.1178V20.824C86.1178 22.744 86.4911 24.12 87.2378 24.952C88.0057 25.784 89.0511 26.2 90.3737 26.2C91.6964 26.2 92.7311 25.784 93.4777 24.952C94.2244 24.12 94.5977 22.744 94.5977 20.824V8.59998H100.838V21.016C100.838 24.344 99.9098 26.9147 98.0538 28.728C96.1978 30.5413 93.6164 31.448 90.3097 31.448ZM119.178 31.448C117.407 31.448 115.765 31.1707 114.25 30.616C112.757 30.04 111.455 29.2293 110.346 28.184C109.258 27.1387 108.405 25.912 107.786 24.504C107.167 23.0747 106.858 21.5067 106.858 19.8C106.858 18.0933 107.167 16.536 107.786 15.128C108.405 13.6987 109.258 12.4613 110.346 11.416C111.455 10.3707 112.757 9.57065 114.25 9.01598C115.765 8.43998 117.407 8.15198 119.178 8.15198C121.247 8.15198 123.093 8.51465 124.714 9.23998C126.357 9.96531 127.722 11.0107 128.81 12.376L124.778 16.024C124.053 15.1707 123.253 14.52 122.378 14.072C121.525 13.624 120.565 13.4 119.498 13.4C118.581 13.4 117.738 13.5493 116.97 13.848C116.202 14.1467 115.541 14.584 114.986 15.16C114.453 15.7147 114.026 16.3867 113.706 17.176C113.407 17.9653 113.258 18.84 113.258 19.8C113.258 20.76 113.407 21.6347 113.706 22.424C114.026 23.2133 114.453 23.896 114.986 24.472C115.541 25.0267 116.202 25.4533 116.97 25.752C117.738 26.0507 118.581 26.2 119.498 26.2C120.565 26.2 121.525 25.976 122.378 25.528C123.253 25.08 124.053 24.4293 124.778 23.576L128.81 27.224C127.722 28.568 126.357 29.6133 124.714 30.36C123.093 31.0853 121.247 31.448 119.178 31.448ZM134.515 31V8.59998H140.851V31H134.515ZM159.535 31.448C157.743 31.448 156.089 31.16 154.575 30.584C153.06 30.008 151.737 29.1973 150.607 28.152C149.497 27.0853 148.633 25.848 148.015 24.44C147.396 23.032 147.087 21.4853 147.087 19.8C147.087 18.1147 147.396 16.568 148.015 15.16C148.633 13.752 149.497 12.5253 150.607 11.48C151.737 10.4133 153.06 9.59198 154.575 9.01598C156.089 8.43998 157.743 8.15198 159.535 8.15198C161.348 8.15198 163.001 8.43998 164.495 9.01598C166.009 9.59198 167.321 10.4133 168.431 11.48C169.54 12.5253 170.404 13.752 171.023 15.16C171.663 16.568 171.983 18.1147 171.983 19.8C171.983 21.4853 171.663 23.0427 171.023 24.472C170.404 25.88 169.54 27.1067 168.431 28.152C167.321 29.1973 166.009 30.008 164.495 30.584C163.001 31.16 161.348 31.448 159.535 31.448ZM159.535 26.2C160.388 26.2 161.177 26.0507 161.903 25.752C162.649 25.4533 163.289 25.0267 163.823 24.472C164.377 23.896 164.804 23.2133 165.103 22.424C165.423 21.6347 165.583 20.76 165.583 19.8C165.583 18.8187 165.423 17.944 165.103 17.176C164.804 16.3867 164.377 15.7147 163.823 15.16C163.289 14.584 162.649 14.1467 161.903 13.848C161.177 13.5493 160.388 13.4 159.535 13.4C158.681 13.4 157.881 13.5493 157.135 13.848C156.409 14.1467 155.769 14.584 155.215 15.16C154.681 15.7147 154.255 16.3867 153.935 17.176C153.636 17.944 153.487 18.8187 153.487 19.8C153.487 20.76 153.636 21.6347 153.935 22.424C154.255 23.2133 154.681 23.896 155.215 24.472C155.769 25.0267 156.409 25.4533 157.135 25.752C157.881 26.0507 158.681 26.2 159.535 26.2ZM178.181 31V8.59998H183.397L195.749 23.512H193.285V8.59998H199.493V31H194.277L181.925 16.088H184.389V31H178.181ZM212.667 17.272H223.067V22.008H212.667V17.272ZM213.115 26.104H224.827V31H206.843V8.59998H224.411V13.496H213.115V26.104ZM239.094 31.448C237.26 31.448 235.489 31.224 233.782 30.776C232.097 30.3067 230.721 29.7093 229.654 28.984L231.734 24.312C232.737 24.952 233.889 25.4853 235.19 25.912C236.513 26.3173 237.825 26.52 239.126 26.52C240.001 26.52 240.705 26.4453 241.238 26.296C241.772 26.1253 242.156 25.912 242.39 25.656C242.646 25.3787 242.774 25.0587 242.774 24.696C242.774 24.184 242.54 23.7787 242.07 23.48C241.601 23.1813 240.993 22.936 240.246 22.744C239.5 22.552 238.668 22.36 237.75 22.168C236.854 21.976 235.948 21.7307 235.03 21.432C234.134 21.1333 233.313 20.7493 232.566 20.28C231.82 19.7893 231.212 19.16 230.742 18.392C230.273 17.6027 230.038 16.6107 230.038 15.416C230.038 14.072 230.401 12.856 231.126 11.768C231.873 10.68 232.982 9.80531 234.454 9.14398C235.926 8.48265 237.761 8.15198 239.958 8.15198C241.43 8.15198 242.87 8.32265 244.278 8.66398C245.708 8.98398 246.977 9.46398 248.086 10.104L246.134 14.808C245.068 14.232 244.012 13.8053 242.966 13.528C241.921 13.2293 240.908 13.08 239.926 13.08C239.052 13.08 238.348 13.176 237.814 13.368C237.281 13.5387 236.897 13.7733 236.662 14.072C236.428 14.3707 236.31 14.712 236.31 15.096C236.31 15.5867 236.534 15.9813 236.982 16.28C237.452 16.5573 238.06 16.792 238.806 16.984C239.574 17.1547 240.406 17.336 241.302 17.528C242.22 17.72 243.126 17.9653 244.022 18.264C244.94 18.5413 245.772 18.9253 246.518 19.416C247.265 19.8853 247.862 20.5147 248.31 21.304C248.78 22.072 249.014 23.0427 249.014 24.216C249.014 25.5173 248.641 26.7227 247.894 27.832C247.169 28.92 246.07 29.7947 244.598 30.456C243.148 31.1173 241.313 31.448 239.094 31.448Z" fill="#FF007A"/>
</svg>
