<svg width="1409" height="360" viewBox="0 0 1409 360" fill="none" xmlns="http://www.w3.org/2000/svg">
<path opacity="0.9" d="M134.23 185.64L56.4899 3.63988H112.13L177.65 161.2H144.89L211.97 3.63988H262.93L184.93 185.64H134.23ZM273.584 185.64V3.63988H325.064V185.64H273.584ZM361.689 185.64V3.63988H443.069C469.589 3.63988 489.956 9.70655 504.169 21.8399C518.556 33.7999 525.749 50.1799 525.749 70.9799C525.749 84.6732 522.456 96.5466 515.869 106.6C509.283 116.48 499.923 124.107 487.789 129.48C475.829 134.68 461.529 137.28 444.889 137.28H390.289L413.169 115.7V185.64H361.689ZM474.269 185.64L429.029 119.34H483.889L529.389 185.64H474.269ZM413.169 121.16L390.289 97.4999H441.769C452.516 97.4999 460.489 95.1599 465.689 90.4799C471.063 85.7999 473.749 79.2999 473.749 70.9799C473.749 62.4866 471.063 55.8999 465.689 51.2199C460.489 46.5399 452.516 44.1999 441.769 44.1999H390.289L413.169 20.5399V121.16ZM645.15 189.28C630.764 189.28 617.417 187.027 605.11 182.52C592.804 177.84 582.144 171.253 573.13 162.76C564.29 154.267 557.357 144.3 552.33 132.86C547.304 121.247 544.79 108.507 544.79 94.6399C544.79 80.7732 547.304 68.1199 552.33 56.6799C557.357 45.0666 564.377 35.0132 573.39 26.5199C582.404 18.0266 593.064 11.5266 605.37 7.01988C617.85 2.33988 631.457 -0.000119448 646.19 -0.000119448C663.35 -0.000119448 678.69 2.85988 692.21 8.57988C705.73 14.2999 716.91 22.5332 725.75 33.2799L692.99 62.9199C686.75 56.1599 679.99 51.1332 672.71 47.8399C665.604 44.3732 657.63 42.6399 648.79 42.6399C640.99 42.6399 633.884 43.8532 627.47 46.2799C621.057 48.7066 615.597 52.2599 611.09 56.9399C606.584 61.4466 603.03 66.9066 600.43 73.3199C598.004 79.5599 596.79 86.6666 596.79 94.6399C596.79 102.267 598.004 109.287 600.43 115.7C603.03 122.113 606.584 127.66 611.09 132.34C615.597 136.847 620.97 140.4 627.21 143C633.624 145.427 640.644 146.64 648.27 146.64C655.897 146.64 663.35 145.427 670.63 143C677.91 140.4 685.277 136.067 692.73 130L721.59 166.14C711.19 173.593 699.144 179.313 685.45 183.3C671.757 187.287 658.324 189.28 645.15 189.28ZM721.59 166.14L676.09 159.38V90.7399H721.59V166.14ZM754.228 185.64V3.63988H805.708V185.64H754.228ZM842.334 185.64V3.63988H884.714L985.074 124.8H965.054V3.63988H1015.49V185.64H973.114L872.754 64.4799H892.774V185.64H842.334ZM1051.81 185.64V3.63988H1103.29V185.64H1051.81ZM1118.07 185.64L1198.41 3.63988H1249.11L1329.71 185.64H1276.15L1213.23 28.8599H1233.51L1170.59 185.64H1118.07ZM1162.01 150.28L1175.27 112.32H1264.19L1277.45 150.28H1162.01ZM-0.000195235 355.64V173.64H42.3798L117.78 297.4H95.4198L168.74 173.64H211.12L211.64 355.64H164.32L163.8 245.66H171.86L117 337.7H94.1198L37.6998 245.66H47.5798V355.64H-0.000195235ZM339.846 359.28C325.286 359.28 311.853 356.94 299.546 352.26C287.24 347.58 276.493 340.993 267.306 332.5C258.293 323.833 251.273 313.78 246.246 302.34C241.22 290.9 238.706 278.333 238.706 264.64C238.706 250.947 241.22 238.38 246.246 226.94C251.273 215.5 258.293 205.533 267.306 197.04C276.493 188.373 287.24 181.7 299.546 177.02C311.853 172.34 325.286 170 339.846 170C354.58 170 368.013 172.34 380.146 177.02C392.453 181.7 403.113 188.373 412.126 197.04C421.14 205.533 428.16 215.5 433.186 226.94C438.386 238.38 440.986 250.947 440.986 264.64C440.986 278.333 438.386 290.987 433.186 302.6C428.16 314.04 421.14 324.007 412.126 332.5C403.113 340.993 392.453 347.58 380.146 352.26C368.013 356.94 354.58 359.28 339.846 359.28ZM339.846 316.64C346.78 316.64 353.193 315.427 359.086 313C365.153 310.573 370.353 307.107 374.686 302.6C379.193 297.92 382.66 292.373 385.086 285.96C387.686 279.547 388.986 272.44 388.986 264.64C388.986 256.667 387.686 249.56 385.086 243.32C382.66 236.907 379.193 231.447 374.686 226.94C370.353 222.26 365.153 218.707 359.086 216.28C353.193 213.853 346.78 212.64 339.846 212.64C332.913 212.64 326.413 213.853 320.346 216.28C314.453 218.707 309.253 222.26 304.746 226.94C300.413 231.447 296.946 236.907 294.346 243.32C291.92 249.56 290.706 256.667 290.706 264.64C290.706 272.44 291.92 279.547 294.346 285.96C296.946 292.373 300.413 297.92 304.746 302.6C309.253 307.107 314.453 310.573 320.346 313C326.413 315.427 332.913 316.64 339.846 316.64ZM467.949 355.64V173.64H510.329L610.689 294.8H590.669V173.64H641.109V355.64H598.729L498.369 234.48H518.389V355.64H467.949ZM716.162 355.64V214.46H660.262V173.64H823.282V214.46H767.642V355.64H716.162ZM931.702 359.28C917.142 359.28 903.708 356.94 891.402 352.26C879.095 347.58 868.348 340.993 859.162 332.5C850.148 323.833 843.128 313.78 838.102 302.34C833.075 290.9 830.562 278.333 830.562 264.64C830.562 250.947 833.075 238.38 838.102 226.94C843.128 215.5 850.148 205.533 859.162 197.04C868.348 188.373 879.095 181.7 891.402 177.02C903.708 172.34 917.142 170 931.702 170C946.435 170 959.868 172.34 972.002 177.02C984.308 181.7 994.968 188.373 1003.98 197.04C1013 205.533 1020.02 215.5 1025.04 226.94C1030.24 238.38 1032.84 250.947 1032.84 264.64C1032.84 278.333 1030.24 290.987 1025.04 302.6C1020.02 314.04 1013 324.007 1003.98 332.5C994.968 340.993 984.308 347.58 972.002 352.26C959.868 356.94 946.435 359.28 931.702 359.28ZM931.702 316.64C938.635 316.64 945.048 315.427 950.942 313C957.008 310.573 962.208 307.107 966.542 302.6C971.048 297.92 974.515 292.373 976.942 285.96C979.542 279.547 980.842 272.44 980.842 264.64C980.842 256.667 979.542 249.56 976.942 243.32C974.515 236.907 971.048 231.447 966.542 226.94C962.208 222.26 957.008 218.707 950.942 216.28C945.048 213.853 938.635 212.64 931.702 212.64C924.768 212.64 918.268 213.853 912.202 216.28C906.308 218.707 901.108 222.26 896.602 226.94C892.268 231.447 888.802 236.907 886.202 243.32C883.775 249.56 882.562 256.667 882.562 264.64C882.562 272.44 883.775 279.547 886.202 285.96C888.802 292.373 892.268 297.92 896.602 302.6C901.108 307.107 906.308 310.573 912.202 313C918.268 315.427 924.768 316.64 931.702 316.64ZM1097.95 355.64V278.68L1109.91 309.62L1028.53 173.64H1082.87L1141.63 272.18H1110.17L1169.19 173.64H1219.11L1137.99 309.62L1149.43 278.68V355.64H1097.95ZM1196.4 355.64L1276.74 173.64H1327.44L1408.04 355.64H1354.48L1291.56 198.86H1311.84L1248.92 355.64H1196.4ZM1240.34 320.28L1253.6 282.32H1342.52L1355.78 320.28H1240.34Z" fill="#F4F2E0"/>
</svg>
