<svg width="1440" height="252" viewBox="0 0 1440 252" fill="none" xmlns="http://www.w3.org/2000/svg">
<path d="M1463.5 247.646L1463.51 245.146H1463.5V247.646ZM1464 248.146H1466.5V248.145L1464 248.146ZM1463.5 248.646V251.146H1463.51L1463.5 248.646ZM1104.48 248.646H1101.98V251.146H1104.48V248.646ZM1104.48 247.646V245.146H1101.98V247.646H1104.48ZM1003.04 206.191L1005.48 205.629L1004.91 203.191L1002.48 203.756L1003.04 206.191ZM1013.21 227.137L1011.34 228.796V228.796L1013.21 227.137ZM1032.3 239.563L1031.43 241.906V241.906L1032.3 239.563ZM1100.72 247.109L1103.22 247.107L1103.22 244.609H1100.72V247.109ZM1100.72 248.109V250.609H1103.22L1103.22 248.107L1100.72 248.109ZM1031.95 240.501L1031.08 242.844V242.844L1031.95 240.501ZM1012.46 227.8L1010.59 229.459V229.459L1012.46 227.8ZM1002.07 206.417L1001.5 203.982L999.07 204.545L999.631 206.979L1002.07 206.417ZM341.658 2.52148H339.158V5.00442L341.641 5.02143L341.658 2.52148ZM395.83 11.2344L396.734 8.90346V8.90345L395.83 11.2344ZM438.076 42.375L439.649 44.3181L441.618 42.7245L439.999 40.7768L438.076 42.375ZM438.035 42.4082L436.462 40.4651L434.378 42.152L436.207 44.113L438.035 42.4082ZM606.356 222.941L604.528 224.646L606.479 226.738L608.291 224.525L606.356 222.941ZM726.977 75.6367L728.557 73.6999L726.624 72.1217L725.042 74.0529L726.977 75.6367ZM727.364 75.9531L728.953 74.0226L728.945 74.0163L727.364 75.9531ZM727.75 76.2705L729.684 77.8544L731.264 75.9247L729.338 74.34L727.75 76.2705ZM606.518 224.323L604.924 226.25L606.86 227.851L608.452 225.907L606.518 224.323ZM606.416 224.239L608.009 222.313L606.31 220.907L604.703 222.418L606.416 224.239ZM606.301 224.348L604.472 226.053L606.185 227.889L608.014 226.169L606.301 224.348ZM436.253 41.9629L434.534 40.148L432.733 41.8537L434.424 43.6677L436.253 41.9629ZM436.346 41.875L438.065 43.6899L439.785 42.0602L438.25 40.2552L436.346 41.875ZM395.469 12.166L396.373 9.8351V9.83509L395.469 12.166ZM339.657 3.51562H337.157V6.01659L339.658 6.01562L339.657 3.51562ZM339.657 3.49902H342.157V0.999016L339.657 0.999023V3.49902ZM24 3.5L23.9978 6H24L24 3.5ZM23.5 3L21 2.99937L21 3.00215L23.5 3ZM24 2.5V-9.53674e-07L23.9978 9.53674e-07L24 2.5ZM341.658 2.5H344.158V0H341.658V2.5ZM1002.49 203.927L1002.86 206.4L1005.33 206.039L1004.97 203.564L1002.49 203.927ZM1001.51 204.071L999.032 204.434L999.395 206.907L1001.87 206.545L1001.51 204.071ZM984.505 88.0713L984.144 85.5975L981.669 85.9588L982.031 88.4338L984.505 88.0713ZM985 87.999L985.361 90.4728L985.362 90.4727L985 87.999ZM985.494 87.9268L987.968 87.5642L987.605 85.0914L985.132 85.4531L985.494 87.9268ZM864.786 172.662L863.352 174.71L865.273 176.055L866.738 174.224L864.786 172.662ZM941.547 76.7129L943.112 74.7631L941.159 73.196L939.595 75.1511L941.547 76.7129ZM941.938 77.0264L940.373 78.9762L940.379 78.9809L941.938 77.0264ZM942.328 77.3379L944.28 78.8996L945.844 76.9445L943.887 75.3833L942.328 77.3379ZM865.081 173.896L863.505 175.836L865.46 177.424L867.033 175.457L865.081 173.896ZM865.034 173.857L866.611 171.917L864.52 170.219L862.982 172.43L865.034 173.857ZM864.94 173.992L863.506 176.04L865.56 177.479L866.993 175.42L864.94 173.992ZM727.077 77.4355L725.03 76.0007L723.595 78.0486L725.643 79.4833L727.077 77.4355ZM727.651 76.6162L729.086 74.5685L727.038 73.1348L725.604 75.1814L727.651 76.6162ZM944.238 73.4824L942.336 71.86L940.712 73.764L942.618 75.3861L944.238 73.4824ZM968.409 62.2578L969.01 59.8312L969.01 59.8311L968.409 62.2578ZM984.805 84.9717L985.308 87.4205L987.753 86.9177L987.254 84.4717L984.805 84.9717ZM984.315 85.0723L984.813 87.5222L984.819 87.521L984.315 85.0723ZM983.825 85.1719L981.376 85.6718L981.875 88.1192L984.323 87.6218L983.825 85.1719ZM968.169 63.2285L968.77 60.8019V60.8018L968.169 63.2285ZM945 74.1318L943.377 76.0331L945.279 77.6573L946.902 75.7542L945 74.1318ZM944.619 73.8066L946.242 71.9054L946.24 71.903L944.619 73.8066ZM1463.5 247.646L1463.5 250.146C1462.4 250.144 1461.5 249.255 1461.5 248.148L1464 248.146L1466.5 248.145C1466.5 246.487 1465.16 245.15 1463.51 245.146L1463.5 247.646ZM1464 248.146H1461.5C1461.5 247.037 1462.4 246.149 1463.5 246.146L1463.5 248.646L1463.51 251.146C1465.15 251.143 1466.5 249.808 1466.5 248.146H1464ZM1463.5 248.646V246.146H1104.48V248.646V251.146H1463.5V248.646ZM1104.48 248.646H1106.98V247.646H1104.48H1101.98V248.646H1104.48ZM1104.48 247.646V250.146H1463.5V247.646V245.146H1104.48V247.646ZM1003.04 206.191L1000.61 206.754C1002.68 215.73 1006.19 222.993 1011.34 228.796L1013.21 227.137L1015.08 225.477C1010.59 220.415 1007.4 213.957 1005.48 205.629L1003.04 206.191ZM1013.21 227.137L1011.34 228.796C1016.49 234.598 1023.18 238.834 1031.43 241.906L1032.3 239.563L1033.17 237.221C1025.51 234.369 1019.58 230.542 1015.08 225.477L1013.21 227.137ZM1032.3 239.563L1031.43 241.906C1047.83 248.015 1070.7 249.609 1100.72 249.609V247.109V244.609C1070.65 244.609 1048.63 242.977 1033.17 237.221L1032.3 239.563ZM1100.72 247.109L1098.22 247.112L1098.22 248.112L1100.72 248.109L1103.22 248.107L1103.22 247.107L1100.72 247.109ZM1100.72 248.109V245.609C1070.66 245.609 1048.47 243.985 1032.82 238.158L1031.95 240.501L1031.08 242.844C1047.67 249.023 1070.71 250.609 1100.72 250.609V248.109ZM1031.95 240.501L1032.82 238.158C1025.05 235.263 1018.96 231.352 1014.33 226.14L1012.46 227.8L1010.59 229.459C1015.87 235.408 1022.71 239.728 1031.08 242.844L1031.95 240.501ZM1012.46 227.8L1014.33 226.141C1009.71 220.93 1006.46 214.312 1004.5 205.855L1002.07 206.417L999.631 206.979C1001.73 216.085 1005.31 223.508 1010.59 229.459L1012.46 227.8ZM1002.07 206.417L1002.63 208.852L1003.61 208.627L1003.04 206.191L1002.48 203.756L1001.5 203.982L1002.07 206.417ZM341.658 2.52148L341.641 5.02143C362.289 5.16288 379.72 7.66925 394.926 13.5653L395.83 11.2344L396.734 8.90345C380.77 2.71378 362.683 0.165462 341.675 0.021543L341.658 2.52148ZM395.83 11.2344L394.926 13.5653C410.588 19.6381 423.995 29.3478 436.154 43.9732L438.076 42.375L439.999 40.7768C427.34 25.5506 413.25 15.3076 396.734 8.90346L395.83 11.2344ZM438.076 42.375L436.503 40.4319L436.462 40.4651L438.035 42.4082L439.608 44.3513L439.649 44.3181L438.076 42.375ZM438.035 42.4082L436.207 44.113L604.528 224.646L606.356 222.941L608.185 221.237L439.864 40.7034L438.035 42.4082ZM606.356 222.941L608.291 224.525L728.911 77.2206L726.977 75.6367L725.042 74.0529L604.422 221.358L606.356 222.941ZM726.977 75.6367L725.396 77.5736L725.784 77.89L727.364 75.9531L728.945 74.0163L728.557 73.6999L726.977 75.6367ZM727.364 75.9531L725.776 77.8837L726.162 78.201L727.75 76.2705L729.338 74.34L728.953 74.0226L727.364 75.9531ZM727.75 76.2705L725.816 74.6866L604.583 222.739L606.518 224.323L608.452 225.907L729.684 77.8544L727.75 76.2705ZM606.518 224.323L608.111 222.397L608.009 222.313L606.416 224.239L604.823 226.166L604.924 226.25L606.518 224.323ZM606.416 224.239L604.703 222.418L604.588 222.527L606.301 224.348L608.014 226.169L608.129 226.06L606.416 224.239ZM606.301 224.348L608.129 222.643L438.081 40.258L436.253 41.9629L434.424 43.6677L604.472 226.053L606.301 224.348ZM436.253 41.9629L437.972 43.7778L438.065 43.6899L436.346 41.875L434.626 40.0601L434.534 40.148L436.253 41.9629ZM436.346 41.875L438.25 40.2552C425.944 25.7881 412.293 16.0081 396.373 9.8351L395.469 12.166L394.565 14.4969C409.656 20.3483 422.635 29.6144 434.441 43.4948L436.346 41.875ZM395.469 12.166L396.373 9.83509C380.056 3.50875 361.457 1.00723 339.656 1.01563L339.657 3.51562L339.658 6.01562C361.104 6.00737 379.029 8.47322 394.565 14.4969L395.469 12.166ZM339.657 3.51562H342.157V3.49902H339.657H337.157V3.51562H339.657ZM339.657 3.49902V0.999023L24 1L24 3.5L24 6L339.657 5.99902V3.49902ZM24 3.5L24.0022 1C25.1054 1.00096 25.999 1.89458 26 2.99785L23.5 3L21 3.00215C21.0014 4.657 22.343 5.99855 23.9978 6L24 3.5ZM23.5 3L26 3.00063C25.9997 4.10642 25.1038 4.99905 24.0022 5L24 2.5L23.9978 9.53674e-07C22.3444 0.0014236 21.0004 1.3417 21 2.99937L23.5 3ZM24 2.5V5H341.658V2.5V0H24V2.5ZM341.658 2.5H339.158V2.52148H341.658H344.158V2.5H341.658ZM1002.49 203.927L1002.13 201.453L1001.14 201.598L1001.51 204.071L1001.87 206.545L1002.86 206.4L1002.49 203.927ZM1001.51 204.071L1003.98 203.709L986.978 87.7088L984.505 88.0713L982.031 88.4338L999.032 204.434L1001.51 204.071ZM984.505 88.0713L984.866 90.5451L985.361 90.4728L985 87.999L984.639 85.5252L984.144 85.5975L984.505 88.0713ZM985 87.999L985.362 90.4727L985.856 90.4004L985.494 87.9268L985.132 85.4531L984.638 85.5253L985 87.999ZM985.494 87.9268L983.021 88.2893L1000.02 204.289L1002.49 203.927L1004.97 203.564L987.968 87.5642L985.494 87.9268ZM864.786 172.662L866.738 174.224L943.499 78.2746L941.547 76.7129L939.595 75.1511L862.834 171.1L864.786 172.662ZM941.547 76.7129L939.982 78.6627L940.373 78.9762L941.938 77.0264L943.502 75.0766L943.112 74.7631L941.547 76.7129ZM941.938 77.0264L940.379 78.9809L940.769 79.2924L942.328 77.3379L943.887 75.3833L943.496 75.0718L941.938 77.0264ZM942.328 77.3379L940.376 75.7761L863.129 172.334L865.081 173.896L867.033 175.457L944.28 78.8996L942.328 77.3379ZM865.081 173.896L866.658 171.955L866.611 171.917L865.034 173.857L863.458 175.798L863.505 175.836L865.081 173.896ZM865.034 173.857L862.982 172.43L862.888 172.565L864.94 173.992L866.993 175.42L867.086 175.285L865.034 173.857ZM864.94 173.992L866.375 171.944L728.511 75.3878L727.077 77.4355L725.643 79.4833L863.506 176.04L864.94 173.992ZM727.077 77.4355L729.124 78.8703L729.699 78.051L727.651 76.6162L725.604 75.1814L725.03 76.0007L727.077 77.4355ZM727.651 76.6162L726.217 78.6639L863.352 174.71L864.786 172.662L866.22 170.614L729.086 74.5685L727.651 76.6162ZM944.238 73.4824L946.14 75.1048C953.694 66.2488 961.564 63.1379 967.808 64.6845L968.409 62.2578L969.01 59.8311C960.105 57.6255 950.451 62.3462 942.336 71.86L944.238 73.4824ZM968.409 62.2578L967.808 64.6845C974.021 66.2235 979.74 72.6577 982.355 85.4716L984.805 84.9717L987.254 84.4717C984.471 70.8367 977.962 62.0486 969.01 59.8312L968.409 62.2578ZM984.805 84.9717L984.301 82.5229L983.812 82.6235L984.315 85.0723L984.819 87.521L985.308 87.4205L984.805 84.9717ZM984.315 85.0723L983.818 82.6223L983.327 82.7219L983.825 85.1719L984.323 87.6218L984.813 87.5222L984.315 85.0723ZM983.825 85.1719L986.275 84.672C983.525 71.1991 977.173 62.8833 968.77 60.8019L968.169 63.2285L967.568 65.6552C973.235 67.059 978.795 73.0249 981.376 85.6718L983.825 85.1719ZM968.169 63.2285L968.77 60.8018C960.398 58.7282 951.102 63.1259 943.098 72.5094L945 74.1318L946.902 75.7542C954.342 67.0317 961.854 64.24 967.568 65.6552L968.169 63.2285ZM945 74.1318L946.623 72.2306L946.242 71.9054L944.619 73.8066L942.996 75.7079L943.377 76.0331L945 74.1318ZM944.619 73.8066L946.24 71.903L945.859 71.5788L944.238 73.4824L942.618 75.3861L942.999 75.7103L944.619 73.8066Z" fill="#FFDE00"/>
</svg>
