<svg width="111" height="144" viewBox="0 0 111 144" fill="none" xmlns="http://www.w3.org/2000/svg">
<path d="M29.3655 104.596C24.0578 104.596 18.9809 102.75 15.0578 99.5193L1.21167 129.058L23.1347 121.212L31.2117 143.135L45.2886 113.135C42.9809 111.981 41.1347 110.596 39.2886 108.75C36.5194 105.981 33.0578 104.596 29.3655 104.596Z" fill="#E5E2D5"/>
<path d="M93.2884 101.365C89.8269 103.442 85.9038 104.596 81.5192 104.596C77.8269 104.596 74.3654 105.981 71.8269 108.75C69.2884 111.288 66.2884 113.135 62.8269 114.288L76.2115 143.135L84.2884 121.212L106.212 129.288L93.2884 101.365Z" fill="#E5E2D5"/>
<path d="M55.4424 18.5193C35.1347 18.5193 18.5193 35.1347 18.5193 55.4424C18.5193 75.7501 35.1347 92.3654 55.4424 92.3654C75.7501 92.3654 92.3654 75.7501 92.3654 55.4424C92.3654 35.1347 75.7501 18.5193 55.4424 18.5193ZM71.5962 77.827L55.4424 69.2885L39.2885 77.827L42.2885 59.827L29.1347 47.1347L47.1347 44.5962L55.2116 28.2116L63.2885 44.5962L81.2885 47.1347L68.1347 59.827L71.5962 77.827Z" fill="#E5E2D5"/>
<path d="M81.5192 99.9808C91.6731 99.9808 99.9808 91.6731 99.9808 81.5192C99.9808 76.6731 101.827 71.8269 105.288 68.3654C112.442 61.2115 112.442 49.4423 105.288 42.2885C101.827 38.8269 99.9808 34.2115 99.9808 29.1346C99.9808 18.9808 91.6731 10.6731 81.5192 10.6731C76.6731 10.6731 71.8269 8.82692 68.3654 5.36538C61.2115 -1.78846 49.4423 -1.78846 42.2885 5.36538C38.8269 8.82692 34.2115 10.6731 29.1346 10.6731C18.9808 10.6731 10.6731 18.9808 10.6731 29.1346C10.6731 33.9808 8.82692 38.8269 5.36538 42.2885C-1.78846 49.6731 -1.78846 61.2115 5.36538 68.5962C8.82692 72.0577 10.6731 76.6731 10.6731 81.75C10.6731 91.9039 18.9808 100.212 29.1346 100.212C33.9808 100.212 38.8269 102.058 42.2885 105.519C49.4423 112.673 61.2115 112.673 68.3654 105.519C72.0577 102.058 76.6731 99.9808 81.5192 99.9808ZM55.4423 96.9808C32.5962 96.9808 13.9038 78.2885 13.9038 55.4423C13.9038 32.5962 32.5962 13.9038 55.4423 13.9038C78.2885 13.9038 96.9808 32.5962 96.9808 55.4423C96.9808 78.2885 78.2885 96.9808 55.4423 96.9808Z" fill="#E5E2D5"/>
</svg>
