<svg width="1440" height="476" viewBox="0 0 1440 476" fill="none" xmlns="http://www.w3.org/2000/svg">
<path fill-rule="evenodd" clip-rule="evenodd" d="M0 0H334.194C346.094 7.46846e-05 362.161 6.22037 375.315 12.4922C381.879 15.6214 387.694 18.7511 391.867 21.0986C393.954 22.2722 395.629 23.2504 396.783 23.9346C397.36 24.2766 397.807 24.5456 398.108 24.7285C398.259 24.8199 398.374 24.8894 398.451 24.9365C398.476 24.9516 398.497 24.9643 398.514 24.9746L572.332 204.555L572.708 204.943L573.065 204.538L694.537 67.3057L836.474 156.892L836.84 157.123L837.121 156.794L913.762 67.0029C919.069 62.1474 923.521 58.7115 927.294 56.8291C931.07 54.9457 934.076 54.6607 936.572 55.9434C939.1 57.2426 941.254 60.2195 943.131 65.2246C945.002 70.2147 946.565 77.1266 947.979 86.1533C950.809 104.208 952.938 126.04 954.358 143.364C955.069 152.025 955.602 159.557 955.958 164.923C956.136 167.606 956.269 169.748 956.358 171.219C956.403 171.954 956.437 172.522 956.459 172.905C956.47 173.097 956.478 173.243 956.483 173.341C956.486 173.389 956.489 173.427 956.49 173.451C956.491 173.463 956.491 173.473 956.491 173.479C956.491 173.482 956.492 173.485 956.492 173.486V173.487L956.991 173.461L956.492 173.488L956.494 173.527L956.503 173.566C960.551 192.288 966.047 203.838 974.855 210.947C983.658 218.052 995.68 220.646 1012.58 221.697L1012.59 221.698H1440V475.026H0V0Z" fill="#F4F2E9"/>
</svg>
