<svg width="160" height="144" viewBox="0 0 160 144" fill="none" xmlns="http://www.w3.org/2000/svg">
<circle cx="81.7391" cy="71.8012" r="71.8012" fill="#FFDE00"/>
<path d="M107.37 73.2295C107.164 71.0148 106.958 68.8001 106.752 66.5854C106.646 66.54 106.54 66.4946 106.434 66.4491C103.431 72.0926 100.429 77.736 97.3286 83.5633C92.4946 78.3558 87.7946 73.2926 82.9741 68.0996C78.5765 76.1396 74.1975 84.1456 69.709 92.3517C67.2154 88.3476 64.827 84.573 62.4999 80.7629C58.0226 73.4324 53.5662 66.0897 49.1322 58.7344C47.97 56.8065 46.1771 55.9217 43.8286 55.4431C41.5976 55.4065 39.5773 55.4292 37.5571 55.4519C37.3415 55.4347 37.1259 55.4176 36.6987 55.3866C36.1902 55.3997 35.8932 55.4267 35.5962 55.4537C35.1088 55.4367 34.6214 55.4197 33.8901 55.3885C28.3067 55.4019 22.9673 55.4296 17.6279 55.4572C17.5141 55.4391 17.4004 55.4209 17.0802 55.3881C16.0972 55.3991 15.3207 55.4247 14.5442 55.4502C14.3462 55.4332 14.1481 55.4161 13.7261 55.3859C11.6191 55.306 9.7361 55.2392 7.85305 55.1724C7.85305 55.1724 7.7965 55.0718 7.71084 54.973C6.4036 53.8014 5.18202 52.7285 3.96045 51.6555C4.06914 51.5153 4.17782 51.3751 4.28651 51.2348C5.38925 51.2348 6.492 51.2388 7.59472 51.2342C13.9369 51.2075 20.279 51.1789 26.6211 51.1509C26.7444 51.166 26.8676 51.1811 27.2106 51.2131C32.9557 51.225 38.4809 51.22 44.0061 51.2149C45.7976 51.8254 47.6581 52.2945 49.3625 53.0835C51.3178 53.9886 52.4801 55.7273 53.5576 57.5257C58.5576 65.8719 63.6063 74.1904 68.6409 82.5169C68.8711 82.8977 69.1336 83.26 69.4522 83.7376C73.6522 76.0387 77.7943 68.4461 82.0148 60.7095C86.7563 65.9224 91.4384 71.0702 96.2219 76.3294C98.4761 72.1087 100.64 68.0602 102.8 64.0102C103.273 63.1243 103.706 62.2174 104.208 61.3479C105.011 59.9566 106.429 59.3438 107.996 59.6573C109.532 59.9646 110.512 61.1148 110.672 62.7477C110.92 65.281 111.189 67.8124 111.463 70.5692C111.578 71.4542 111.68 72.1146 111.781 72.775C111.781 72.775 111.803 72.7626 111.766 72.8876C112.119 76.6699 112.466 80.3323 112.919 83.9823C113.19 86.1652 114.433 87.8737 116.477 88.7112C117.843 89.2708 119.44 89.5052 120.936 89.5165C130.781 89.5911 140.627 89.5632 150.472 89.5802C150.925 89.581 151.545 89.5288 151.802 89.779C153.066 91.0105 154.234 92.3357 155.483 93.679C153.343 93.679 151.135 93.6776 148.927 93.6792C139.548 93.6863 130.17 93.686 120.791 93.7055C116.291 93.7149 112.635 92.1093 110.002 88.4812C110.002 88.4812 109.98 88.4573 109.947 88.3495C109.418 86.5152 108.734 84.8157 108.467 83.0563C107.973 79.7992 107.722 76.5071 107.37 73.2295Z" fill="#FDFCF5"/>
<path d="M113.94 94.8566C113.33 94.6232 112.593 94.0474 111.969 93.6194C109.952 92.1958 109.201 91.1531 108.229 89.7681L108.401 89.9771C108.262 89.8219 108.288 89.8443 108.257 89.8056C108.236 89.7782 108.221 89.7572 108.208 89.7397C108.183 89.7029 108.166 89.6767 108.15 89.6517C108.119 89.6041 108.099 89.5689 108.082 89.5383C108.048 89.4763 108.027 89.4335 108.008 89.3944C107.973 89.3177 107.951 89.2637 107.933 89.2153C107.896 89.12 107.876 89.0523 107.857 88.9902L107.847 88.955C107.761 88.6006 107.657 88.2117 107.525 87.7571C107.273 86.8273 106.699 85.36 106.392 83.3713C105.764 78.863 105.471 73.4341 106.242 73.3507C106.242 73.3507 106.242 73.3507 106.243 73.3507C106.253 73.3495 106.265 73.3493 106.276 73.3501C106.494 73.363 106.82 74.2264 107.074 74.3345C107.329 74.4416 108.88 74.1846 109.093 75.4468C109.377 77.2841 109.45 81.676 109.637 82.6249C109.651 82.7052 109.667 82.7875 109.684 82.8715C109.802 83.4156 110.063 84.0369 110.284 84.7172C110.687 85.9414 111.04 86.9435 111.356 87.9431L111.349 87.9195C111.349 87.9165 111.348 87.9091 111.339 87.8826C111.333 87.8688 111.327 87.851 111.311 87.8175C111.303 87.8003 111.294 87.7802 111.276 87.7474C111.267 87.7312 111.256 87.7118 111.238 87.6839C111.229 87.6694 111.219 87.6536 111.203 87.631C111.175 87.5952 111.208 87.6244 111.078 87.4769L111.193 87.6172C111.749 88.3212 112.379 88.9403 113.296 89.4728C113.815 90.1791 114.438 90.8312 115.165 91.4027C116.24 91.8506 117.943 92.5231 118.697 92.5822C119.304 92.6458 119.671 92.512 120.302 92.5244C120.449 92.5264 120.609 92.5345 120.788 92.5444C121.519 92.5825 122.482 92.6862 123.58 92.6635C125.847 92.6176 126.25 92.1965 127.61 92.1413C129.02 92.0843 131.214 92.3108 133.014 92.1613C133.239 92.1149 133.465 92.0684 133.691 92.0219C133.529 91.9174 133.367 91.8128 133.205 91.7083C134.112 91.6589 134.502 91.8731 135.335 91.8764C136.315 91.8805 136.815 91.6768 137.474 91.6773C138.014 91.678 138.747 91.8406 139.447 91.83C140.468 91.8154 140.245 91.5801 140.795 91.5357C141.014 91.5185 145.067 91.3863 145.296 91.3843C147.035 91.3739 147.187 91.6961 148.573 91.7233C148.691 91.7255 148.808 91.7275 148.926 91.7291C151.115 91.7597 153.331 91.6895 155.483 91.6055L153.965 95.0912C152.864 93.9936 151.833 92.9364 150.854 91.9946C150.645 91.7939 150.436 91.5938 150.227 91.3956C150.612 91.7546 150.863 91.7907 150.957 91.8233C151.059 91.8479 151.06 91.8417 151.029 91.8414C150.958 91.8366 150.777 91.8415 150.468 91.8419C149.616 91.8358 148.763 91.8166 147.931 91.7887C150.426 90.9664 144.906 90.319 146.97 91.6117C145.208 91.4266 143.958 91.7746 142.288 91.715C141.207 91.6762 140.459 91.4971 138.916 91.5011C136.177 91.5096 133.18 92.0145 132.393 91.0934C129.177 91.2502 126.392 90.9052 125.229 91.7111C124.398 91.7569 122.274 91.2609 121.344 91.1881C121.258 91.1813 121.114 91.1726 120.924 91.1624C119.942 91.1171 117.831 90.9341 115.916 90.0815C113.958 89.2803 112.742 87.5236 112.489 87.0047C112.072 86.2946 111.681 85.1698 111.558 84.1512C111.479 83.5715 111.4 83.0357 111.328 82.6643C111.106 81.5094 110.175 80.7773 110.942 78.5988C110.62 76.1935 110.57 75.3312 110.473 73.0811C110.472 73.0556 110.472 73.0315 110.472 73.0086L110.522 72.5112C110.525 72.5106 110.526 72.5131 110.521 72.5464C110.519 72.5655 110.514 72.5861 110.508 72.6568C110.505 72.696 110.498 72.7378 110.505 72.8666C110.515 72.9408 110.505 73.0191 110.599 73.2644C110.658 73.3883 110.729 73.5994 111.075 73.8441C111.24 73.9574 111.495 74.0488 111.723 74.0558C111.836 74.0611 111.946 74.0509 112.047 74.0294C112.161 74.0003 112.198 74.0025 112.407 73.8943L110.773 74.7846L110.514 72.97C110.524 72.7264 110.61 72.6456 110.581 72.4524C110.52 72.0529 110.354 71.4278 110.229 70.7301L110.225 70.6921C110.202 70.54 110.181 70.3852 110.163 70.2285C109.999 68.8023 110.221 67.9552 109.77 68.1622C109.595 67.2279 109.42 66.2928 109.246 65.3563C109.302 65.0159 109.359 64.6753 109.416 64.3347C109.273 63.8611 109.131 63.3871 108.99 62.9124C108.984 62.8985 108.979 62.8848 108.973 62.8713C109.023 62.8923 109.067 62.9024 109.105 62.9012C109.113 62.9012 109.12 62.9004 109.128 62.8989C109.361 62.8695 109.316 62.3168 109.08 62.029C108.844 61.7291 108.568 61.7245 108.567 62.0089C108.418 61.6795 108.158 61.412 107.678 61.2471C107.077 61.051 106.511 61.0714 106.004 61.3591C105.876 61.0445 105.388 61.2856 105.133 61.8816C104.692 62.8345 104.403 64.1633 104.704 64.0875C104.606 64.2767 104.506 64.4685 104.403 64.6621C104.37 64.7119 104.337 64.762 104.303 64.8121C103.312 66.2953 102.668 67.8272 101.526 69.6822C100.347 71.5965 100.38 71.3752 99.7453 71.8097C99.5145 72.285 99.2837 72.7603 99.0529 73.2356C98.733 75.3169 97.9963 75.2749 97.0239 76.7577L96.3999 77.8966L95.5494 76.9412C95.127 76.3834 94.4937 75.7118 93.4342 74.861C92.8671 73.3279 90.1153 70.7803 88.3111 69.0725C88.1012 68.8737 88.01 68.9501 87.7246 68.6907C87.0279 68.0556 85.5293 66.181 85.3009 66.4995C84.8251 65.8115 84.3492 65.1236 83.8734 64.4356C83.3659 63.9812 82.8584 63.5268 82.3508 63.0723C82.2646 63.1553 82.1784 63.2384 82.0922 63.3214C81.8345 62.7846 81.4119 62.2134 80.9607 61.6683L83.2657 61.3919C82.7544 62.2334 82.3092 63.1108 81.9647 63.6238C81.8465 63.7992 81.6799 63.76 81.327 64.3128C80.9139 64.9585 80.2743 66.2329 79.7927 67.0081C79.7834 67.4068 79.7744 67.8051 79.7651 68.2038C79.0717 69.6818 78.3739 69.9536 77.8827 70.7756C77.7945 70.9238 76.3195 73.6998 76.2475 73.8534C75.6552 75.1096 76.2041 74.9617 74.2064 78.4397C73.8505 79.059 73.449 79.4978 73.1349 80.0617C72.5799 81.0576 71.2176 84.2283 71.35 84.6081C71.3172 84.6424 71.2838 84.6791 71.2497 84.7182L69.5885 87.692L67.7489 84.8739C67.6251 84.5295 67.3791 84.1105 67.0363 83.4871C66.2683 82.0235 65.1174 80.2313 64.7784 79.5215C64.6364 79.2229 64.8013 79.0364 64.3212 78.1452C63.9321 77.4227 62.6764 75.7152 62.1655 74.8092C61.6239 73.847 61.5908 73.4065 61.3469 72.9761C61.1164 72.5696 60.7556 72.2844 60.4271 71.7392C59.4036 70.0356 58.6951 68.3609 57.8877 67.0134C56.7205 65.0644 55.2764 63.5914 54.1151 62.0707C53.8985 61.6503 53.7475 61.2001 53.4935 60.7754C53.0307 60.0002 52.5607 59.2094 52.0862 58.4072C51.0905 56.7002 50.0595 55.2401 48.6638 54.5929C47.1391 53.8613 45.3364 53.3751 43.4928 52.7213L44.0076 52.8063C42.4728 52.7857 40.9605 52.7635 39.4919 52.74C36.6429 52.6966 29.5577 52.045 31.448 53.1265C30.9841 53.2148 29.1584 53.1648 27.2068 53.0835L27.0366 53.0754C26.8382 53.049 26.6115 53.0188 26.3966 52.9834L26.6293 52.9971C24.5984 52.9213 22.5668 52.8264 21.9036 52.8262C20.5349 52.8258 19.4507 53.0244 18.3749 53.032C15.1283 53.0548 12.8415 52.9253 8.89021 53.1108C8.46002 53.1312 8.01701 53.1846 7.60314 53.2396C7.02984 53.315 6.51355 53.3911 6.16263 53.3894C5.58636 53.3863 4.97784 53.2463 4.28651 53.1808L5.82462 52.4269C5.7065 52.5529 5.58872 52.6857 5.4733 52.8281L5.22355 50.2175C5.23467 50.2277 5.24587 50.2379 5.25713 50.2481C6.20073 51.101 7.63977 52.3429 8.99274 53.5428L9.16144 53.7142C9.31481 53.8959 9.38545 53.9883 9.52873 54.2311L7.92119 53.2516C9.20841 53.2905 10.4283 53.3311 11.3086 53.3789C11.702 53.4008 11.8336 53.6006 12.3946 53.6823C12.8554 53.7496 13.3285 53.8061 13.7845 53.8474L13.836 53.8502C14.1199 53.8852 14.4104 53.917 14.6741 53.943L14.4944 53.9382C15.8171 53.9056 16.8113 53.7437 16.5102 53.3385C16.6936 53.3578 16.8761 53.375 17.0579 53.3902L17.2838 53.4005C17.4726 53.4379 17.7168 53.4804 17.9357 53.5298L17.6177 53.5054C20.0199 53.6619 22.282 53.4041 24.5493 53.3764C27.0372 53.3466 30.4488 53.3519 33.8852 53.3466L33.9772 53.3484C34.5419 53.3732 35.101 53.3941 35.6675 53.413L35.4113 53.4201C35.7865 53.3832 36.2506 53.3528 36.6458 53.3429L36.8466 53.3476C37.1369 53.3677 37.4338 53.3891 37.7195 53.4106L37.5341 53.4043C39.8752 53.364 42.0992 53.3236 43.8639 53.2891L44.2588 53.3322C44.68 53.4034 45.084 53.4841 45.4661 53.5737C48.2548 54.3897 49.3553 54.5981 51.2644 57.449C51.5401 57.9319 51.8579 58.5105 52.2386 59.2262C52.7036 60.1 53.1506 60.9796 53.7162 62.0386C55.0415 64.5209 55.9367 66.9935 57.5792 68.5024C59.0607 71.2544 60.4503 73.3184 61.2014 75.5728C61.4523 75.7396 61.7032 75.9065 61.9541 76.0732C62.156 76.3984 62.3579 76.7235 62.5598 77.0485C62.5181 77.2137 62.4765 77.3789 62.4349 77.5442C62.8804 78.2946 63.4111 79.0805 63.9665 79.8671C65.1521 81.5453 66.4646 83.2188 67.2985 84.5605C68.2247 86.0523 69.7913 88.6239 71.3912 91.3041L67.9704 91.4007C69.8452 88.123 71.815 84.7279 72.8644 82.9966C73.8812 81.3192 73.7032 81.1019 74.7112 80.3745C74.8888 79.972 75.0664 79.5699 75.2441 79.1673C75.2729 78.8705 75.3017 78.5737 75.3305 78.2768C76.5327 76.069 78.1233 73.5404 79.2709 71.4385C79.9383 70.2157 80.6842 68.7818 81.465 67.2742L82.6421 65.1762L84.2347 66.9294C86.7576 69.5268 89.5475 72.3802 91.4715 74.6649C92.1799 75.5065 92.9373 76.6776 93.6713 77.4644C94.7396 78.6097 95.2923 78.6157 96.6499 80.0671C97.2341 80.692 97.9217 81.4721 98.6596 82.3278L95.7253 82.7103C97.428 79.7743 99.6248 76.1893 100.742 74.0323C101.185 73.1785 101.264 72.7125 101.561 72.1188C102.739 69.7684 103.771 67.8437 104.766 65.562L105.609 64.0206L107.177 64.7127C107.286 64.7496 107.396 64.7864 107.507 64.8231L108.57 65.2923L108.661 66.408C108.667 66.4406 108.673 66.4733 108.679 66.5061C108.561 69.3959 108.044 69.1952 107.628 70.1261C107.314 70.8314 106.634 72.968 106.331 73.2904C106.119 73.5169 105.75 72.7793 105.522 73.0902C105.088 70.2587 105.078 68.7744 105.145 66.7349L106.117 68.0697C106.018 68.0118 105.918 67.9529 105.816 67.8928L107.82 67.1867C107.643 67.436 107.458 67.6963 107.262 67.973C104.855 72.5263 102.449 77.0796 100.043 81.6329C99.6996 81.9808 99.3561 82.3291 99.0128 82.6769C99.0125 82.6768 99.0123 82.6767 99.012 82.6765C98.6742 83.2032 98.4356 83.6537 98.2533 84.0553L97.5813 85.3517L96.561 84.2759C95.8669 83.6166 95.3061 83.2863 94.7683 82.7891C91.2688 79.5539 86.5339 74.5443 81.7069 69.2759L84.491 68.9293C80.5046 76.1059 76.2328 83.5058 73.3072 88.7564C72.8275 89.6175 71.9445 91.2874 70.9983 93.0569L69.8198 95.2626L68.4616 93.1286C66.8939 90.6647 65.1967 87.9813 64.7888 87.0722C64.6109 86.6756 64.7301 86.4599 64.4955 86.066C63.4656 84.5236 62.4386 82.9769 61.4209 81.4219C60.1939 79.5475 58.9683 77.6721 57.744 75.7957C54.6995 70.3154 51.2954 64.8699 47.9347 59.4562C47.0431 57.9759 45.4739 57.2502 43.5356 56.8808L43.8046 56.9102C43.7751 56.9099 43.7457 56.9096 43.7163 56.9093C41.6765 56.889 39.6329 56.9212 37.574 56.9579L37.4376 56.9532C37.1527 56.9322 36.8743 56.9129 36.5894 56.8941L36.7379 56.8975C36.3911 56.9085 36.095 56.9293 35.7336 56.9659L35.5431 56.9712C34.9739 56.9551 34.3974 56.9372 33.8249 56.9161L33.8938 56.9175C28.4637 56.9645 23.0454 57.0259 17.6363 57.0839L17.3713 57.0636C17.2235 57.0401 17.0919 57.0268 16.9141 57.0094L17.0983 57.0178C16.2681 57.0311 15.4432 57.0599 14.5983 57.0927L14.4031 57.0876C14.1342 57.0655 13.8789 57.0473 13.6086 57.0294L13.6637 57.0324C11.7063 56.9682 9.75035 56.9081 7.79363 56.8475L6.87116 56.8251L6.39168 55.9934C6.43912 56.0741 6.41108 56.0295 6.44406 56.0724L6.59138 56.2221C5.35022 55.1194 4.0976 54.0273 2.84 52.9312L1.64307 51.9033L2.61846 50.6154C2.72662 50.4748 2.83479 50.3342 2.94296 50.1935L3.43454 49.5445L4.28651 49.535C5.39375 49.531 6.49413 49.5312 7.58754 49.5232C13.9424 49.4767 20.2837 49.4389 26.6135 49.4181L26.8318 49.4309C27.0096 49.4535 27.1779 49.4701 27.3718 49.4886L27.2142 49.481C28.4062 49.485 29.5967 49.4889 30.7879 49.4928C34.8319 49.5067 39.8864 49.3644 44.0045 49.4237L44.5839 49.5194C44.8685 49.6216 45.1537 49.7208 45.4368 49.8189C47.0694 50.3997 47.7083 50.8373 50.0464 51.606C50.0956 51.624 50.1451 51.6426 50.1951 51.6617C50.182 51.759 50.1678 51.856 50.1526 51.9526C52.3983 53.0207 53.5416 54.3091 54.8229 56.317C54.8856 56.4178 54.9535 56.5282 55.0255 56.6463C56.1401 58.4775 58.5238 62.4208 59.3229 63.81C59.7637 64.5757 59.4447 64.3838 59.8707 65.0885C60.6011 66.2944 62.3646 68.7486 63.3715 70.4136C64.2835 71.9219 65.6504 74.5683 66.3771 75.7129C67.5859 77.6184 68.8786 79.5822 70.1778 81.5876C70.3829 81.8986 70.6813 82.289 70.9822 82.7169L67.8377 82.8568C68.8859 80.8036 69.9675 78.7397 71.1034 76.7313C71.8114 75.4807 72.8947 73.9663 73.1047 73.5682C73.5141 72.7903 73.447 72.4554 73.705 71.9235C75.0163 69.2224 77.4841 65.243 78.9011 62.6672C79.4136 61.7354 79.9282 60.7967 80.4442 59.8527L81.6148 57.6511L83.3383 59.5057C88.0156 64.6569 92.8829 69.9404 97.574 75.0997L94.6098 75.4685C95.3928 74.0029 96.1724 72.5495 96.9471 71.1138C98.1423 68.8987 99.6553 66.0648 101.212 63.1631C101.662 62.3272 102.108 61.3976 102.658 60.453C103.673 58.4632 106.421 57.4057 108.341 57.9332C110.77 58.305 112.353 60.8766 112.35 62.5835C112.367 62.8264 112.384 63.0624 112.4 63.291C112.483 64.4851 112.212 64.1917 112.314 65.1927C112.427 66.3029 112.65 66.8882 112.716 67.4065C112.82 68.2179 112.95 69.252 113.089 70.4077L113.083 70.3577C113.186 71.0428 113.306 71.7597 113.437 72.5204L110.964 71.3128C111.155 71.2116 111.174 71.2144 111.26 71.1831C111.343 71.1564 111.399 71.1422 111.484 71.1263C111.627 71.1004 111.792 71.0903 111.968 71.1098C112.31 71.1442 112.641 71.3052 112.852 71.4847C113.257 71.8411 113.315 72.0993 113.373 72.2417C113.468 72.5456 113.454 72.6357 113.462 72.7276C113.466 72.8949 113.455 72.9534 113.449 73.0103C113.436 73.1146 113.424 73.1616 113.415 73.2048C113.396 73.286 113.383 73.3308 113.371 73.3734L113.435 72.7315C113.817 76.2481 114.233 80.1552 114.382 82.2807C114.425 82.9247 114.295 83.4116 114.343 83.7949C114.343 83.7983 114.344 83.8018 114.344 83.8054C114.369 83.9659 114.537 84.2914 114.687 84.714C115.135 85.9648 116.007 86.7529 117.098 87.1954C118.257 87.6604 119.59 87.8677 120.948 87.8933C122.612 87.9194 124.321 87.9488 126.199 87.9725C133.766 88.0682 142.225 87.9386 150.475 87.9407C150.647 87.9416 150.911 87.9269 151.253 87.9451C151.599 88.0093 152.053 87.863 152.947 88.6039C154.301 89.9251 155.495 91.2937 156.669 92.5758L159.214 95.2705L155.483 95.2989C154.861 95.2938 154.242 95.2875 153.626 95.28C151.282 95.2512 149.675 94.8794 149.345 94.8835C149.199 94.8851 149.064 94.8966 148.928 94.9145C148.394 94.9851 147.863 95.155 146.694 95.2051C141.821 95.4116 135.26 95.1469 130.627 95.2771C128.338 95.3411 125.193 95.663 122.941 95.7375C122.396 95.7555 121.626 95.7573 120.795 95.7553C118.669 95.8021 116.151 95.1833 115.513 95.0401C114.95 94.9427 114.601 95.1067 113.94 94.8566ZM137.272 91.2912C137.593 90.8585 134.222 91.2155 135.486 91.4491C135.771 91.5017 137.189 91.4036 137.272 91.2912ZM49.5352 54.2741C49.4923 54.3931 49.4481 54.5114 49.4022 54.6288C49.7264 54.7747 50.0445 54.9597 50.3539 55.1804C50.2508 54.9812 50.1379 54.7864 50.0131 54.5969C49.8582 54.4807 49.699 54.373 49.5352 54.2741Z" fill="#FDFCF5"/>
</svg>
