<svg width="812" height="194" viewBox="0 0 812 194" fill="none" xmlns="http://www.w3.org/2000/svg">
<rect y="0.392029" width="812" height="190" fill="#FDFCF5"/>
<path opacity="0.9" d="M133.48 91.392L95.208 1.79202H122.6L154.856 79.36H138.728L171.752 1.79202H196.84L158.44 91.392H133.48ZM202.085 91.392V1.79202H227.429V91.392H202.085ZM245.46 91.392V1.79202H285.524C298.58 1.79202 308.607 4.77869 315.604 10.752C322.687 16.64 326.228 24.704 326.228 34.944C326.228 41.6854 324.607 47.5307 321.364 52.48C318.121 57.344 313.513 61.0987 307.54 63.744C301.652 66.304 294.612 67.584 286.42 67.584H259.54L270.804 56.96V91.392H245.46ZM300.884 91.392L278.612 58.752H305.62L328.02 91.392H300.884ZM270.804 59.648L259.54 48H284.884C290.175 48 294.1 46.848 296.66 44.544C299.305 42.24 300.628 39.04 300.628 34.944C300.628 30.7627 299.305 27.52 296.66 25.216C294.1 22.912 290.175 21.76 284.884 21.76H259.54L270.804 10.112V59.648ZM385.01 93.184C377.927 93.184 371.357 92.0747 365.298 89.856C359.239 87.552 353.991 84.3094 349.554 80.128C345.202 75.9467 341.789 71.04 339.314 65.408C336.839 59.6907 335.602 53.4187 335.602 46.592C335.602 39.7654 336.839 33.536 339.314 27.904C341.789 22.1867 345.245 17.2374 349.682 13.056C354.119 8.87469 359.367 5.67469 365.426 3.45602C371.57 1.15202 378.269 2.28882e-05 385.522 2.28882e-05C393.97 2.28882e-05 401.522 1.40802 408.178 4.22402C414.834 7.04003 420.338 11.0934 424.69 16.384L408.562 30.976C405.49 27.648 402.162 25.1734 398.578 23.552C395.079 21.8454 391.154 20.992 386.802 20.992C382.962 20.992 379.463 21.5894 376.306 22.784C373.149 23.9787 370.461 25.728 368.242 28.032C366.023 30.2507 364.274 32.9387 362.994 36.096C361.799 39.168 361.202 42.6667 361.202 46.592C361.202 50.3467 361.799 53.8027 362.994 56.96C364.274 60.1174 366.023 62.848 368.242 65.152C370.461 67.3707 373.106 69.12 376.178 70.4C379.335 71.5947 382.791 72.192 386.546 72.192C390.301 72.192 393.97 71.5947 397.554 70.4C401.138 69.12 404.765 66.9867 408.434 64L422.642 81.792C417.522 85.4614 411.591 88.2774 404.85 90.24C398.109 92.2027 391.495 93.184 385.01 93.184ZM422.642 81.792L400.242 78.464V44.672H422.642V81.792ZM438.71 91.392V1.79202H464.054V91.392H438.71ZM482.085 91.392V1.79202H502.949L552.357 61.44H542.501V1.79202H567.333V91.392H546.469L497.061 31.744H506.917V91.392H482.085ZM585.21 91.392V1.79202H610.554V91.392H585.21ZM617.833 91.392L657.385 1.79202H682.345L722.025 91.392H695.657L664.681 14.208H674.665L643.689 91.392H617.833ZM639.465 73.984L645.993 55.296H689.769L696.297 73.984H639.465ZM105.96 191.392V101.792H126.824L163.944 162.72H152.936L189.032 101.792H209.896L210.152 191.392H186.856L186.6 137.248H190.568L163.56 182.56H152.296L124.52 137.248H129.384V191.392H105.96ZM273.269 193.184C266.101 193.184 259.488 192.032 253.429 189.728C247.37 187.424 242.08 184.181 237.557 180C233.12 175.733 229.664 170.784 227.189 165.152C224.714 159.52 223.477 153.333 223.477 146.592C223.477 139.851 224.714 133.664 227.189 128.032C229.664 122.4 233.12 117.493 237.557 113.312C242.08 109.045 247.37 105.76 253.429 103.456C259.488 101.152 266.101 100 273.269 100C280.522 100 287.136 101.152 293.109 103.456C299.168 105.76 304.416 109.045 308.853 113.312C313.29 117.493 316.746 122.4 319.221 128.032C321.781 133.664 323.061 139.851 323.061 146.592C323.061 153.333 321.781 159.563 319.221 165.28C316.746 170.912 313.29 175.819 308.853 180C304.416 184.181 299.168 187.424 293.109 189.728C287.136 192.032 280.522 193.184 273.269 193.184ZM273.269 172.192C276.682 172.192 279.84 171.595 282.741 170.4C285.728 169.205 288.288 167.499 290.421 165.28C292.64 162.976 294.346 160.245 295.541 157.088C296.821 153.931 297.461 150.432 297.461 146.592C297.461 142.667 296.821 139.168 295.541 136.096C294.346 132.939 292.64 130.251 290.421 128.032C288.288 125.728 285.728 123.979 282.741 122.784C279.84 121.589 276.682 120.992 273.269 120.992C269.856 120.992 266.656 121.589 263.669 122.784C260.768 123.979 258.208 125.728 255.989 128.032C253.856 130.251 252.149 132.939 250.869 136.096C249.674 139.168 249.077 142.667 249.077 146.592C249.077 150.432 249.674 153.931 250.869 157.088C252.149 160.245 253.856 162.976 255.989 165.28C258.208 167.499 260.768 169.205 263.669 170.4C266.656 171.595 269.856 172.192 273.269 172.192ZM336.335 191.392V101.792H357.199L406.607 161.44H396.751V101.792H421.583V191.392H400.719L351.311 131.744H361.167V191.392H336.335ZM458.532 191.392V121.888H431.012V101.792H511.268V121.888H483.876V191.392H458.532ZM564.644 193.184C557.476 193.184 550.863 192.032 544.804 189.728C538.745 187.424 533.455 184.181 528.932 180C524.495 175.733 521.039 170.784 518.564 165.152C516.089 159.52 514.852 153.333 514.852 146.592C514.852 139.851 516.089 133.664 518.564 128.032C521.039 122.4 524.495 117.493 528.932 113.312C533.455 109.045 538.745 105.76 544.804 103.456C550.863 101.152 557.476 100 564.644 100C571.897 100 578.511 101.152 584.484 103.456C590.543 105.76 595.791 109.045 600.228 113.312C604.665 117.493 608.121 122.4 610.596 128.032C613.156 133.664 614.436 139.851 614.436 146.592C614.436 153.333 613.156 159.563 610.596 165.28C608.121 170.912 604.665 175.819 600.228 180C595.791 184.181 590.543 187.424 584.484 189.728C578.511 192.032 571.897 193.184 564.644 193.184ZM564.644 172.192C568.057 172.192 571.215 171.595 574.116 170.4C577.103 169.205 579.663 167.499 581.796 165.28C584.015 162.976 585.721 160.245 586.916 157.088C588.196 153.931 588.836 150.432 588.836 146.592C588.836 142.667 588.196 139.168 586.916 136.096C585.721 132.939 584.015 130.251 581.796 128.032C579.663 125.728 577.103 123.979 574.116 122.784C571.215 121.589 568.057 120.992 564.644 120.992C561.231 120.992 558.031 121.589 555.044 122.784C552.143 123.979 549.583 125.728 547.364 128.032C545.231 130.251 543.524 132.939 542.244 136.096C541.049 139.168 540.452 142.667 540.452 146.592C540.452 150.432 541.049 153.931 542.244 157.088C543.524 160.245 545.231 162.976 547.364 165.28C549.583 167.499 552.143 169.205 555.044 170.4C558.031 171.595 561.231 172.192 564.644 172.192ZM646.491 191.392V153.504L652.379 168.736L612.315 101.792H639.067L667.995 150.304H652.507L681.563 101.792H706.139L666.203 168.736L671.835 153.504V191.392H646.491ZM694.958 191.392L734.51 101.792H759.47L799.15 191.392H772.782L741.806 114.208H751.79L720.814 191.392H694.958ZM716.59 173.984L723.118 155.296H766.894L773.422 173.984H716.59Z" fill="#F4F2E0"/>
<path d="M175.303 105.392V82.992H185.895C188.369 82.992 190.545 83.4507 192.423 84.368C194.3 85.2854 195.761 86.576 196.807 88.24C197.873 89.904 198.407 91.888 198.407 94.192C198.407 96.4747 197.873 98.4587 196.807 100.144C195.761 101.808 194.3 103.099 192.423 104.016C190.545 104.933 188.369 105.392 185.895 105.392H175.303ZM181.639 100.336H185.639C186.919 100.336 188.028 100.101 188.967 99.632C189.927 99.1414 190.673 98.4374 191.207 97.52C191.74 96.5814 192.007 95.472 192.007 94.192C192.007 92.8907 191.74 91.7814 191.207 90.864C190.673 89.9467 189.927 89.2534 188.967 88.784C188.028 88.2934 186.919 88.048 185.639 88.048H181.639V100.336ZM201.74 105.392V82.992H219.308V87.888H208.012V100.496H219.724V105.392H201.74ZM207.564 96.4V91.664H217.964V96.4H207.564ZM231.112 105.84C229.277 105.84 227.507 105.616 225.8 105.168C224.115 104.699 222.739 104.101 221.672 103.376L223.752 98.704C224.755 99.344 225.907 99.8774 227.208 100.304C228.531 100.709 229.843 100.912 231.144 100.912C232.019 100.912 232.723 100.837 233.256 100.688C233.789 100.517 234.173 100.304 234.408 100.048C234.664 99.7707 234.792 99.4507 234.792 99.088C234.792 98.576 234.557 98.1707 234.088 97.872C233.619 97.5734 233.011 97.328 232.264 97.136C231.517 96.944 230.685 96.752 229.768 96.56C228.872 96.368 227.965 96.1227 227.048 95.824C226.152 95.5254 225.331 95.1414 224.584 94.672C223.837 94.1814 223.229 93.552 222.76 92.784C222.291 91.9947 222.056 91.0027 222.056 89.808C222.056 88.464 222.419 87.248 223.144 86.16C223.891 85.072 225 84.1974 226.472 83.536C227.944 82.8747 229.779 82.544 231.976 82.544C233.448 82.544 234.888 82.7147 236.296 83.056C237.725 83.376 238.995 83.856 240.104 84.496L238.152 89.2C237.085 88.624 236.029 88.1974 234.984 87.92C233.939 87.6214 232.925 87.472 231.944 87.472C231.069 87.472 230.365 87.568 229.832 87.76C229.299 87.9307 228.915 88.1654 228.68 88.464C228.445 88.7627 228.328 89.104 228.328 89.488C228.328 89.9787 228.552 90.3734 229 90.672C229.469 90.9494 230.077 91.184 230.824 91.376C231.592 91.5467 232.424 91.728 233.32 91.92C234.237 92.112 235.144 92.3574 236.04 92.656C236.957 92.9334 237.789 93.3174 238.536 93.808C239.283 94.2774 239.88 94.9067 240.328 95.696C240.797 96.464 241.032 97.4347 241.032 98.608C241.032 99.9094 240.659 101.115 239.912 102.224C239.187 103.312 238.088 104.187 236.616 104.848C235.165 105.509 233.331 105.84 231.112 105.84ZM241.271 105.392L251.159 82.992H257.399L267.319 105.392H260.727L252.983 86.096H255.479L247.735 105.392H241.271ZM246.679 101.04L248.311 96.368H259.255L260.887 101.04H246.679ZM269.115 105.392V82.992H279.131C282.395 82.992 284.902 83.7387 286.651 85.232C288.422 86.704 289.307 88.72 289.307 91.28C289.307 92.9654 288.902 94.4267 288.091 95.664C287.28 96.88 286.128 97.8187 284.635 98.48C283.163 99.12 281.403 99.44 279.355 99.44H272.635L275.451 96.784V105.392H269.115ZM282.971 105.392L277.403 97.232H284.155L289.755 105.392H282.971ZM275.451 97.456L272.635 94.544H278.971C280.294 94.544 281.275 94.256 281.915 93.68C282.576 93.104 282.907 92.304 282.907 91.28C282.907 90.2347 282.576 89.424 281.915 88.848C281.275 88.272 280.294 87.984 278.971 87.984H272.635L275.451 85.072V97.456ZM292.803 105.392V82.992H302.819C306.083 82.992 308.589 83.7387 310.339 85.232C312.109 86.704 312.995 88.72 312.995 91.28C312.995 92.9654 312.589 94.4267 311.779 95.664C310.968 96.88 309.816 97.8187 308.323 98.48C306.851 99.12 305.091 99.44 303.043 99.44H296.323L299.139 96.784V105.392H292.803ZM306.659 105.392L301.091 97.232H307.843L313.443 105.392H306.659ZM299.139 97.456L296.323 94.544H302.659C303.981 94.544 304.963 94.256 305.603 93.68C306.264 93.104 306.595 92.304 306.595 91.28C306.595 90.2347 306.264 89.424 305.603 88.848C304.963 88.272 303.981 87.984 302.659 87.984H296.323L299.139 85.072V97.456ZM327.786 105.84C325.994 105.84 324.341 105.552 322.826 104.976C321.311 104.4 319.989 103.589 318.858 102.544C317.749 101.477 316.885 100.24 316.266 98.832C315.647 97.424 315.338 95.8774 315.338 94.192C315.338 92.5067 315.647 90.96 316.266 89.552C316.885 88.144 317.749 86.9174 318.858 85.872C319.989 84.8054 321.311 83.984 322.826 83.408C324.341 82.832 325.994 82.544 327.786 82.544C329.599 82.544 331.253 82.832 332.746 83.408C334.261 83.984 335.573 84.8054 336.682 85.872C337.791 86.9174 338.655 88.144 339.274 89.552C339.914 90.96 340.234 92.5067 340.234 94.192C340.234 95.8774 339.914 97.4347 339.274 98.864C338.655 100.272 337.791 101.499 336.682 102.544C335.573 103.589 334.261 104.4 332.746 104.976C331.253 105.552 329.599 105.84 327.786 105.84ZM327.786 100.592C328.639 100.592 329.429 100.443 330.154 100.144C330.901 99.8454 331.541 99.4187 332.074 98.864C332.629 98.288 333.055 97.6054 333.354 96.816C333.674 96.0267 333.834 95.152 333.834 94.192C333.834 93.2107 333.674 92.336 333.354 91.568C333.055 90.7787 332.629 90.1067 332.074 89.552C331.541 88.976 330.901 88.5387 330.154 88.24C329.429 87.9414 328.639 87.792 327.786 87.792C326.933 87.792 326.133 87.9414 325.386 88.24C324.661 88.5387 324.021 88.976 323.466 89.552C322.933 90.1067 322.506 90.7787 322.186 91.568C321.887 92.336 321.738 93.2107 321.738 94.192C321.738 95.152 321.887 96.0267 322.186 96.816C322.506 97.6054 322.933 98.288 323.466 98.864C324.021 99.4187 324.661 99.8454 325.386 100.144C326.133 100.443 326.933 100.592 327.786 100.592ZM343.553 105.392V82.992H349.889V100.368H360.577V105.392H343.553ZM363.084 105.392V82.992H369.42V100.368H380.108V105.392H363.084ZM393.567 105.84C391.775 105.84 390.122 105.552 388.607 104.976C387.093 104.4 385.77 103.589 384.639 102.544C383.53 101.477 382.666 100.24 382.047 98.832C381.429 97.424 381.119 95.8774 381.119 94.192C381.119 92.5067 381.429 90.96 382.047 89.552C382.666 88.144 383.53 86.9174 384.639 85.872C385.77 84.8054 387.093 83.984 388.607 83.408C390.122 82.832 391.775 82.544 393.567 82.544C395.381 82.544 397.034 82.832 398.527 83.408C400.042 83.984 401.354 84.8054 402.463 85.872C403.573 86.9174 404.437 88.144 405.055 89.552C405.695 90.96 406.015 92.5067 406.015 94.192C406.015 95.8774 405.695 97.4347 405.055 98.864C404.437 100.272 403.573 101.499 402.463 102.544C401.354 103.589 400.042 104.4 398.527 104.976C397.034 105.552 395.381 105.84 393.567 105.84ZM393.567 100.592C394.421 100.592 395.21 100.443 395.935 100.144C396.682 99.8454 397.322 99.4187 397.855 98.864C398.41 98.288 398.837 97.6054 399.135 96.816C399.455 96.0267 399.615 95.152 399.615 94.192C399.615 93.2107 399.455 92.336 399.135 91.568C398.837 90.7787 398.41 90.1067 397.855 89.552C397.322 88.976 396.682 88.5387 395.935 88.24C395.21 87.9414 394.421 87.792 393.567 87.792C392.714 87.792 391.914 87.9414 391.167 88.24C390.442 88.5387 389.802 88.976 389.247 89.552C388.714 90.1067 388.287 90.7787 387.967 91.568C387.669 92.336 387.519 93.2107 387.519 94.192C387.519 95.152 387.669 96.0267 387.967 96.816C388.287 97.6054 388.714 98.288 389.247 98.864C389.802 99.4187 390.442 99.8454 391.167 100.144C391.914 100.443 392.714 100.592 393.567 100.592ZM424.182 105.392L416.918 82.992H423.446L429.558 102.384H426.262L432.694 82.992H438.518L444.598 102.384H441.43L447.734 82.992H453.782L446.518 105.392H439.734L434.55 88.912H436.374L430.966 105.392H424.182ZM456.053 105.392V82.992H473.621V87.888H462.325V100.496H474.037V105.392H456.053ZM461.877 96.4V91.664H472.277V96.4H461.877ZM477.553 105.392V82.992H489.009C491.953 82.992 494.15 83.536 495.601 84.624C497.051 85.6907 497.777 87.0987 497.777 88.848C497.777 90 497.467 91.0134 496.849 91.888C496.251 92.7414 495.398 93.424 494.289 93.936C493.201 94.4267 491.899 94.672 490.385 94.672L491.025 93.136C492.603 93.136 493.979 93.3814 495.153 93.872C496.326 94.3414 497.233 95.0347 497.873 95.952C498.534 96.848 498.865 97.9467 498.865 99.248C498.865 101.189 498.075 102.704 496.497 103.792C494.939 104.859 492.657 105.392 489.649 105.392H477.553ZM483.825 100.816H489.137C490.225 100.816 491.046 100.635 491.601 100.272C492.177 99.888 492.465 99.312 492.465 98.544C492.465 97.776 492.177 97.2107 491.601 96.848C491.046 96.464 490.225 96.272 489.137 96.272H483.377V91.888H488.177C489.243 91.888 490.043 91.7067 490.577 91.344C491.11 90.9814 491.377 90.4374 491.377 89.712C491.377 88.9867 491.11 88.4534 490.577 88.112C490.043 87.7494 489.243 87.568 488.177 87.568H483.825V100.816ZM529.187 105.776L515.875 93.904C515.149 93.264 514.552 92.6454 514.083 92.048C513.635 91.4507 513.293 90.8534 513.059 90.256C512.845 89.6587 512.739 89.0507 512.739 88.432C512.739 87.28 513.048 86.2774 513.667 85.424C514.285 84.5494 515.16 83.8774 516.291 83.408C517.421 82.9174 518.744 82.672 520.259 82.672C521.645 82.672 522.851 82.8854 523.875 83.312C524.92 83.7387 525.731 84.3574 526.307 85.168C526.883 85.9787 527.171 86.9387 527.171 88.048C527.171 89.0294 526.915 89.9254 526.403 90.736C525.912 91.5467 525.144 92.2934 524.099 92.976C523.075 93.6587 521.763 94.3307 520.163 94.992C519.181 95.3974 518.392 95.8027 517.795 96.208C517.219 96.6134 516.803 97.0294 516.547 97.456C516.291 97.8614 516.163 98.3307 516.163 98.864C516.163 99.2907 516.301 99.6854 516.579 100.048C516.856 100.411 517.251 100.699 517.763 100.912C518.275 101.104 518.883 101.2 519.587 101.2C520.824 101.2 521.965 100.901 523.011 100.304C524.056 99.6854 524.952 98.7894 525.699 97.616C526.467 96.4427 526.989 95.024 527.267 93.36L532.163 94.832C531.693 97.0294 530.84 98.9494 529.603 100.592C528.387 102.235 526.883 103.525 525.091 104.464C523.32 105.381 521.336 105.84 519.139 105.84C517.432 105.84 515.907 105.573 514.563 105.04C513.219 104.485 512.152 103.728 511.363 102.768C510.595 101.808 510.211 100.731 510.211 99.536C510.211 98.3627 510.467 97.3174 510.979 96.4C511.512 95.4827 512.323 94.64 513.411 93.872C514.52 93.104 515.928 92.368 517.635 91.664C518.765 91.1734 519.651 90.736 520.291 90.352C520.931 89.968 521.379 89.6054 521.635 89.264C521.912 88.9014 522.051 88.5387 522.051 88.176C522.051 87.728 521.901 87.3654 521.603 87.088C521.304 86.8107 520.856 86.672 520.259 86.672C519.64 86.672 519.149 86.832 518.787 87.152C518.445 87.472 518.275 87.8667 518.275 88.336C518.275 88.6134 518.328 88.8907 518.435 89.168C518.563 89.4454 518.797 89.7654 519.139 90.128C519.501 90.4907 520.003 90.96 520.643 91.536L532.451 102.032L529.187 105.776ZM544.834 105.392V82.992H555.426C557.9 82.992 560.076 83.4507 561.954 84.368C563.831 85.2854 565.292 86.576 566.338 88.24C567.404 89.904 567.938 91.888 567.938 94.192C567.938 96.4747 567.404 98.4587 566.338 100.144C565.292 101.808 563.831 103.099 561.954 104.016C560.076 104.933 557.9 105.392 555.426 105.392H544.834ZM551.17 100.336H555.17C556.45 100.336 557.559 100.101 558.498 99.632C559.458 99.1414 560.204 98.4374 560.738 97.52C561.271 96.5814 561.538 95.472 561.538 94.192C561.538 92.8907 561.271 91.7814 560.738 90.864C560.204 89.9467 559.458 89.2534 558.498 88.784C557.559 88.2934 556.45 88.048 555.17 88.048H551.17V100.336ZM571.271 105.392V82.992H577.607V105.392H571.271ZM589.987 105.84C588.152 105.84 586.382 105.616 584.675 105.168C582.99 104.699 581.614 104.101 580.547 103.376L582.627 98.704C583.63 99.344 584.782 99.8774 586.083 100.304C587.406 100.709 588.718 100.912 590.019 100.912C590.894 100.912 591.598 100.837 592.131 100.688C592.664 100.517 593.048 100.304 593.283 100.048C593.539 99.7707 593.667 99.4507 593.667 99.088C593.667 98.576 593.432 98.1707 592.963 97.872C592.494 97.5734 591.886 97.328 591.139 97.136C590.392 96.944 589.56 96.752 588.643 96.56C587.747 96.368 586.84 96.1227 585.923 95.824C585.027 95.5254 584.206 95.1414 583.459 94.672C582.712 94.1814 582.104 93.552 581.635 92.784C581.166 91.9947 580.931 91.0027 580.931 89.808C580.931 88.464 581.294 87.248 582.019 86.16C582.766 85.072 583.875 84.1974 585.347 83.536C586.819 82.8747 588.654 82.544 590.851 82.544C592.323 82.544 593.763 82.7147 595.171 83.056C596.6 83.376 597.87 83.856 598.979 84.496L597.027 89.2C595.96 88.624 594.904 88.1974 593.859 87.92C592.814 87.6214 591.8 87.472 590.819 87.472C589.944 87.472 589.24 87.568 588.707 87.76C588.174 87.9307 587.79 88.1654 587.555 88.464C587.32 88.7627 587.203 89.104 587.203 89.488C587.203 89.9787 587.427 90.3734 587.875 90.672C588.344 90.9494 588.952 91.184 589.699 91.376C590.467 91.5467 591.299 91.728 592.195 91.92C593.112 92.112 594.019 92.3574 594.915 92.656C595.832 92.9334 596.664 93.3174 597.411 93.808C598.158 94.2774 598.755 94.9067 599.203 95.696C599.672 96.464 599.907 97.4347 599.907 98.608C599.907 99.9094 599.534 101.115 598.787 102.224C598.062 103.312 596.963 104.187 595.491 104.848C594.04 105.509 592.206 105.84 589.987 105.84ZM602.834 105.392V82.992H620.402V87.888H609.106V100.496H620.818V105.392H602.834ZM608.658 96.4V91.664H619.058V96.4H608.658ZM624.334 105.392V82.992H629.55L641.902 97.904H639.438V82.992H645.646V105.392H640.43L628.078 90.48H630.542V105.392H624.334ZM637.55 81.424C636.974 81.424 636.451 81.328 635.982 81.136C635.534 80.9227 635.128 80.688 634.766 80.432C634.403 80.1547 634.062 79.92 633.742 79.728C633.422 79.5147 633.102 79.408 632.782 79.408C632.376 79.408 632.035 79.568 631.758 79.888C631.502 80.208 631.352 80.624 631.31 81.136H628.27C628.312 79.6 628.696 78.352 629.422 77.392C630.147 76.432 631.15 75.952 632.43 75.952C633.027 75.952 633.55 76.0587 633.998 76.272C634.446 76.464 634.851 76.6987 635.214 76.976C635.598 77.232 635.95 77.4667 636.27 77.68C636.59 77.872 636.899 77.968 637.198 77.968C637.624 77.968 637.966 77.8187 638.222 77.52C638.499 77.2 638.648 76.7947 638.67 76.304H641.678C641.656 77.8187 641.283 79.056 640.558 80.016C639.832 80.9547 638.83 81.424 637.55 81.424ZM661.411 105.84C659.619 105.84 657.966 105.552 656.451 104.976C654.936 104.4 653.614 103.589 652.483 102.544C651.374 101.477 650.51 100.24 649.891 98.832C649.272 97.424 648.963 95.8774 648.963 94.192C648.963 92.5067 649.272 90.96 649.891 89.552C650.51 88.144 651.374 86.9174 652.483 85.872C653.614 84.8054 654.936 83.984 656.451 83.408C657.966 82.832 659.619 82.544 661.411 82.544C663.224 82.544 664.878 82.832 666.371 83.408C667.886 83.984 669.198 84.8054 670.307 85.872C671.416 86.9174 672.28 88.144 672.899 89.552C673.539 90.96 673.859 92.5067 673.859 94.192C673.859 95.8774 673.539 97.4347 672.899 98.864C672.28 100.272 671.416 101.499 670.307 102.544C669.198 103.589 667.886 104.4 666.371 104.976C664.878 105.552 663.224 105.84 661.411 105.84ZM661.411 100.592C662.264 100.592 663.054 100.443 663.779 100.144C664.526 99.8454 665.166 99.4187 665.699 98.864C666.254 98.288 666.68 97.6054 666.979 96.816C667.299 96.0267 667.459 95.152 667.459 94.192C667.459 93.2107 667.299 92.336 666.979 91.568C666.68 90.7787 666.254 90.1067 665.699 89.552C665.166 88.976 664.526 88.5387 663.779 88.24C663.054 87.9414 662.264 87.792 661.411 87.792C660.558 87.792 659.758 87.9414 659.011 88.24C658.286 88.5387 657.646 88.976 657.091 89.552C656.558 90.1067 656.131 90.7787 655.811 91.568C655.512 92.336 655.363 93.2107 655.363 94.192C655.363 95.152 655.512 96.0267 655.811 96.816C656.131 97.6054 656.558 98.288 657.091 98.864C657.646 99.4187 658.286 99.8454 659.011 100.144C659.758 100.443 660.558 100.592 661.411 100.592Z" fill="#4A483F"/>
<ellipse cx="51.0868" cy="93.2678" rx="44.8758" ry="44.8758" fill="#FFDE00"/>
<g clip-path="url(#clip0_334_58)">
<path d="M67.1062 94.1605C66.9776 92.7764 66.8489 91.3922 66.7202 90.008C66.6539 89.9796 66.5875 89.9512 66.5212 89.9228C64.6446 93.45 62.7681 96.9771 60.8304 100.619C57.8091 97.3645 54.8716 94.2 51.8588 90.9543C49.1103 95.9794 46.3734 100.983 43.5681 106.112C42.0096 103.609 40.5169 101.25 39.0624 98.8689C36.2641 94.2874 33.4789 89.6982 30.7076 85.1011C29.9813 83.8961 28.8607 83.3432 27.3929 83.044C25.9985 83.0212 24.7358 83.0353 23.4732 83.0495C23.3384 83.0388 23.2037 83.0281 22.9367 83.0087C22.6189 83.0169 22.4332 83.0338 22.2476 83.0507C21.943 83.04 21.6384 83.0294 21.1813 83.0099C17.6917 83.0183 14.3546 83.0356 11.0174 83.0529C10.9463 83.0415 10.8752 83.0302 10.6751 83.0097C10.0608 83.0165 9.57544 83.0325 9.09012 83.0485C8.96635 83.0378 8.84257 83.0272 8.57883 83.0083C7.26196 82.9583 6.08506 82.9166 4.90816 82.8748C4.90816 82.8748 4.87281 82.8119 4.81927 82.7502C4.00225 82.018 3.23877 81.3474 2.47528 80.6768C2.54321 80.5892 2.61114 80.5015 2.67907 80.4139C3.36828 80.4139 4.0575 80.4163 4.7467 80.4135C8.71053 80.3968 12.6744 80.3789 16.6382 80.3614C16.7152 80.3708 16.7922 80.3803 17.0066 80.4003C20.5973 80.4077 24.0506 80.4046 27.5038 80.4014C28.6235 80.7829 29.7863 81.0762 30.8515 81.5693C32.0737 82.1349 32.8001 83.2216 33.4735 84.3457C36.5985 89.562 39.7539 94.7611 42.9006 99.9651C43.0445 100.203 43.2085 100.43 43.4076 100.728C46.0326 95.9163 48.6214 91.1709 51.2593 86.3355C54.2227 89.5936 57.149 92.8109 60.1387 96.098C61.5476 93.46 62.8997 90.9297 64.2501 88.3985C64.5455 87.8448 64.8164 87.278 65.1301 86.7345C65.632 85.865 66.5184 85.482 67.4975 85.6779C68.4576 85.87 69.0702 86.5889 69.1701 87.6094C69.3251 89.1927 69.493 90.7749 69.6641 92.4978C69.7363 93.0509 69.7997 93.4637 69.8632 93.8765C69.8632 93.8765 69.8772 93.8687 69.8535 93.9469C70.0745 96.3108 70.2912 98.5998 70.5743 100.881C70.7436 102.245 71.5208 103.313 72.7982 103.837C73.6516 104.186 74.6498 104.333 75.5851 104.34C81.7381 104.387 87.8917 104.369 94.0451 104.38C94.3281 104.38 94.7157 104.348 94.8762 104.504C95.6663 105.274 96.3962 106.102 97.177 106.941C95.8395 106.941 94.4596 106.941 93.0796 106.942C87.2178 106.946 81.356 106.946 75.4942 106.958C72.6817 106.964 70.3967 105.96 68.7515 103.693C68.7515 103.693 68.7375 103.678 68.7168 103.611C68.3863 102.464 67.9589 101.402 67.7919 100.302C67.4829 98.2666 67.3263 96.209 67.1062 94.1605Z" fill="#FDFCF5"/>
<path d="M71.2378 107.62C70.8596 107.475 70.4009 107.121 70.0133 106.855C68.7609 105.972 68.2931 105.325 67.6873 104.465L67.7906 104.59C67.6734 104.457 67.7015 104.482 67.675 104.448C67.6595 104.426 67.6493 104.41 67.6397 104.395C67.6216 104.366 67.6094 104.345 67.5991 104.327C67.5784 104.289 67.5658 104.264 67.5547 104.24C67.533 104.194 67.52 104.161 67.5088 104.132C67.4869 104.074 67.4743 104.033 67.4632 103.995L67.4569 103.974C67.4028 103.752 67.3368 103.508 67.254 103.224C67.0959 102.643 66.7378 101.726 66.5468 100.491C66.154 97.6777 65.9681 94.2832 66.4297 94.2332C66.4297 94.2332 66.4297 94.2332 66.4298 94.2332C66.4363 94.2325 66.4431 94.2324 66.45 94.233C66.5807 94.2416 66.7786 94.782 66.9316 94.8501C67.0847 94.9177 68.015 94.761 68.1461 95.55C68.3208 96.6983 68.3761 99.4436 68.4932 100.037C68.5015 100.087 68.5114 100.139 68.5224 100.191C68.5951 100.533 68.7557 100.924 68.894 101.35C69.1451 102.117 69.3656 102.743 69.5625 103.367L69.5583 103.353C69.5583 103.351 69.5578 103.347 69.5524 103.332C69.5494 103.324 69.5456 103.314 69.5365 103.294C69.5317 103.284 69.526 103.272 69.5153 103.252C69.5099 103.243 69.5033 103.231 69.4928 103.214C69.4717 103.186 69.5031 103.214 69.3967 103.09L69.466 103.174C69.8143 103.617 70.2082 104.007 70.7815 104.346C71.1122 104.786 71.5071 105.191 71.9658 105.545C72.6399 105.829 73.7102 106.243 74.1826 106.281C74.5626 106.321 74.7924 106.241 75.1881 106.249C75.2803 106.25 75.3807 106.255 75.4928 106.261C75.9494 106.284 76.5511 106.346 77.2376 106.333C78.6544 106.305 78.9062 106.052 79.7563 106.019C80.6378 105.985 82.0089 106.121 83.1336 106.031C83.2747 106.003 83.4157 105.975 83.5568 105.947C83.4557 105.885 83.3546 105.822 83.2534 105.759C83.82 105.73 84.0637 105.858 84.5843 105.86C85.1968 105.863 85.5092 105.74 85.9214 105.741C86.259 105.741 86.7168 105.839 87.1546 105.832C87.7928 105.823 87.6532 105.682 87.9966 105.656C88.1337 105.645 90.667 105.566 90.8099 105.565C91.8968 105.558 91.9916 105.752 92.8583 105.768C92.9317 105.769 93.0052 105.771 93.0787 105.772C94.4468 105.79 95.8318 105.748 97.177 105.697L96.266 107.789C95.5793 107.102 94.936 106.44 94.3235 105.85C94.1931 105.724 94.0625 105.598 93.9314 105.474C94.1602 105.687 94.3078 105.708 94.3618 105.727C94.4199 105.741 94.4179 105.737 94.3966 105.736C94.3478 105.733 94.2336 105.737 94.0427 105.737C93.5101 105.733 92.9772 105.722 92.4569 105.705C94.0164 105.211 90.5665 104.823 91.8562 105.598C90.7551 105.487 89.9741 105.696 88.9298 105.66C88.2544 105.637 87.787 105.53 86.8224 105.532C85.1109 105.537 83.2373 105.84 82.7458 105.287C80.7356 105.381 78.9953 105.174 78.2681 105.657C77.7493 105.685 76.4218 105.387 75.8406 105.343C75.7863 105.339 75.6964 105.334 75.5776 105.327C74.9666 105.3 73.652 105.187 72.4613 104.659C71.2466 104.163 70.4926 103.075 70.3357 102.753C70.0766 102.313 69.834 101.615 69.7578 100.982C69.7087 100.62 69.6599 100.285 69.6155 100.053C69.4789 99.3312 68.9181 98.8717 69.3728 97.5129C69.1735 96.0096 69.1415 95.4707 69.0783 94.0647C69.0776 94.0488 69.0773 94.0337 69.0773 94.0194L69.1073 93.721C69.109 93.7201 69.1098 93.7211 69.1071 93.7406C69.1058 93.7518 69.1033 93.7639 69.0992 93.8062C69.0978 93.8296 69.0935 93.8545 69.0979 93.9317C69.1037 93.9761 69.0979 94.023 69.1538 94.1702C69.1893 94.2445 69.2318 94.3711 69.4396 94.518C69.5384 94.5859 69.6914 94.6407 69.8282 94.6449C69.9789 94.644 70.0447 94.6448 70.2386 94.548L69.259 95.0825L69.1029 93.9934C69.108 93.8414 69.1594 93.7913 69.1411 93.6706C69.1031 93.421 69.001 93.0302 68.9241 92.5944L68.9215 92.5716C68.9076 92.4765 68.8947 92.3797 68.8835 92.2818C68.7812 91.3903 68.9121 90.8616 68.642 90.9898C68.535 90.4057 68.4274 89.821 68.3204 89.2356C68.3535 89.023 68.3867 88.8104 68.42 88.5978C68.3333 88.3016 68.2468 88.0051 68.1609 87.7082C68.1574 87.6993 68.1538 87.6906 68.1502 87.6819C68.1808 87.6956 68.2071 87.7022 68.2297 87.7015C68.2344 87.7015 68.2389 87.701 68.2433 87.7001C68.3832 87.682 68.3545 87.3318 68.2059 87.1456C68.0582 86.9521 67.8844 86.941 67.8917 87.1221C67.7907 86.9069 67.6152 86.7347 67.3067 86.6318C66.9217 86.509 66.5557 86.5258 66.2311 86.7138C66.1569 86.5234 65.8486 86.6786 65.6848 87.0547C65.4066 87.6506 65.2187 88.4772 65.4018 88.4271C65.3406 88.5453 65.2782 88.665 65.2141 88.7858C65.1933 88.817 65.1726 88.8483 65.152 88.8796C64.536 89.8087 64.1303 90.7643 63.4195 91.9253C62.686 93.1233 62.7082 92.9859 62.3193 93.2616C62.1746 93.5585 62.0298 93.8553 61.8851 94.1521C61.6698 95.4447 61.2241 95.4263 60.6199 96.355L60.2459 97.0382L59.7352 96.465C59.47 96.1175 59.0745 95.6974 58.4162 95.1621C58.0505 94.2142 56.3366 92.6166 55.2124 91.5461C55.0816 91.4215 55.0268 91.4672 54.8491 91.3045C54.4152 90.9061 53.4758 89.737 53.3402 89.9296C53.0407 89.5015 52.7412 89.0734 52.4418 88.6453C52.1259 88.3601 51.81 88.0749 51.494 87.7897C51.4424 87.8396 51.3907 87.8895 51.3391 87.9394C51.1748 87.6068 50.9094 87.2509 50.6268 86.9108L52.0098 86.745C51.6912 87.2715 51.4123 87.8195 51.1983 88.1408C51.1248 88.2506 51.0243 88.2281 50.8048 88.5742C50.5478 88.9783 50.1469 89.7743 49.847 90.2594C49.8372 90.5064 49.8276 90.7532 49.8178 91.0001C49.3822 91.9227 48.9566 92.0983 48.6505 92.6126C48.5955 92.7052 47.6729 94.4398 47.6277 94.5357C47.2557 95.3199 47.5897 95.2225 46.3431 97.3973C46.121 97.7846 45.8732 98.0605 45.677 98.413C45.3303 99.0356 44.4718 101.013 44.548 101.247C44.5278 101.269 44.5072 101.292 44.4861 101.316L43.4904 103.101L42.3857 101.41C42.3062 101.195 42.151 100.934 41.9378 100.547C41.4557 99.6338 40.7375 98.5129 40.524 98.0703C40.4346 97.8841 40.5326 97.7706 40.2314 97.2143C39.9873 96.7633 39.2066 95.6936 38.8866 95.1278C38.5474 94.5269 38.5224 94.2541 38.3697 93.9853C38.2253 93.7314 38.0033 93.5511 37.7979 93.2103C37.1582 92.1456 36.7098 91.1023 36.2051 90.2602C35.4754 89.0422 34.5831 88.1154 33.8618 87.1623C33.7258 86.9 33.6292 86.6199 33.4705 86.3545C33.1811 85.87 32.8873 85.3758 32.5907 84.8746C31.9676 83.8073 31.3183 82.8853 30.4323 82.4749C29.4743 82.016 28.3463 81.7126 27.1958 81.3052L27.5047 81.3563C26.5455 81.3439 25.6003 81.3306 24.6824 81.3166C22.9018 81.2906 18.4736 80.8995 19.655 81.5485C19.3651 81.6014 18.2241 81.5714 17.0043 81.5225L16.9022 81.5176C16.7783 81.5014 16.6373 81.4827 16.5035 81.4609L16.6431 81.4691C15.3738 81.4239 14.1041 81.3672 13.6896 81.3671C12.8341 81.367 12.1565 81.4863 11.4841 81.491C9.45499 81.505 8.02575 81.4275 5.55618 81.5393C5.28731 81.5516 5.01042 81.5837 4.75175 81.6167C4.39356 81.662 4.07096 81.7077 3.85167 81.7067C3.49155 81.7048 3.11122 81.6207 2.67907 81.5814L3.60193 81.1291C3.52843 81.2081 3.45505 81.2913 3.38299 81.3803L3.23314 79.8139C3.2401 79.8203 3.2471 79.8267 3.25414 79.8331C3.8442 80.3658 4.74321 81.1422 5.58842 81.8921L5.68963 81.9949C5.78299 82.1055 5.82657 82.1626 5.91357 82.31L4.94904 81.7224C5.75355 81.7468 6.51594 81.7723 7.0661 81.8018C7.31204 81.8153 7.39441 81.9353 7.74508 81.9848C8.03314 82.0256 8.32881 82.0599 8.61385 82.0851L8.64474 82.0868C8.82214 82.1084 9.00333 82.128 9.16807 82.1441L9.06022 82.1413C9.88684 82.1206 10.5076 82.0231 10.3198 81.7801C10.4343 81.7916 10.5482 81.8018 10.6618 81.8109L10.7973 81.8171C10.9152 81.84 11.0663 81.866 11.2021 81.8964L11.0113 81.8818C12.5127 81.9754 13.9265 81.8204 15.3436 81.8035C16.8985 81.7853 19.0307 81.7881 21.1784 81.7848L21.2336 81.7859C21.5866 81.8013 21.9363 81.8144 22.2904 81.8262L22.1367 81.8305C22.371 81.8075 22.6586 81.7886 22.9049 81.7825L23.0254 81.7853C23.2068 81.7979 23.3921 81.8113 23.5706 81.8248L23.4594 81.821C24.9226 81.7961 26.3118 81.7716 27.414 81.7517L27.651 81.7775C27.913 81.8221 28.1641 81.8726 28.4013 81.9287C30.1322 82.4382 30.8056 82.5686 31.9869 84.3299C32.1595 84.6315 32.3588 84.9928 32.5977 85.4395C32.8894 85.985 33.1703 86.5338 33.5252 87.1949C34.3567 88.7444 34.9273 90.2831 35.9406 91.2343C36.87 92.9522 37.736 94.2438 38.2168 95.6458C38.3709 95.7518 38.525 95.8577 38.6791 95.9636C38.8052 96.1668 38.9313 96.3701 39.0575 96.5733C39.034 96.6749 39.0106 96.7766 38.9872 96.8783C39.2659 97.3472 39.5966 97.839 39.9424 98.3314C40.6806 99.3823 41.496 100.431 42.0173 101.27C42.5963 102.202 43.5763 103.809 44.5774 105.483L42.5249 105.541C43.6951 103.492 44.9241 101.369 45.578 100.286C46.2116 99.2362 46.1061 99.1035 46.7243 98.6424C46.8361 98.3914 46.9479 98.1404 47.0598 97.8893C47.0804 97.7052 47.1009 97.5211 47.1215 97.3369C47.873 95.9571 48.8631 94.3746 49.5804 93.0609C49.9976 92.2967 50.4645 91.4009 50.9534 90.4591L51.6589 89.2004L52.6152 90.2522C54.1905 91.877 55.9323 93.6621 57.1374 95.0876C57.5811 95.6127 58.0589 96.3405 58.5176 96.8323C59.1853 97.5482 59.5234 97.5587 60.3717 98.466C60.7368 98.8566 61.167 99.3438 61.629 99.8778L59.8684 100.107C60.9299 98.2709 62.2972 96.0273 62.9962 94.6794C63.273 94.146 63.3256 93.8564 63.5121 93.4856C64.2493 92.0173 64.8943 90.8143 65.5207 89.3905L66.0253 88.4659L66.9671 88.8809C67.0351 88.9042 67.1037 88.9274 67.1728 88.9506L67.8104 89.2316L67.8654 89.9015C67.869 89.9219 67.8726 89.9424 67.8762 89.9629C67.8125 91.7681 67.5018 91.6415 67.2541 92.2222C67.0674 92.6621 66.6637 93.9954 66.483 94.1962C66.3561 94.3372 66.133 93.8755 65.9968 94.0692C65.7297 92.2992 65.7203 91.3718 65.7557 90.0976L66.339 90.8986C66.2771 90.8627 66.2144 90.8262 66.1504 90.789L67.353 90.3654C67.2434 90.5216 67.1284 90.6848 67.0066 90.8582C65.5024 93.7039 63.9982 96.5495 62.4939 99.3951C62.2824 99.6142 62.0708 99.8335 61.8594 100.053C61.8592 100.053 61.859 100.052 61.8589 100.052C61.6489 100.382 61.4998 100.664 61.3852 100.914L60.9815 101.692L60.3698 101.047C59.9371 100.634 59.59 100.424 59.2549 100.112C57.0744 98.0842 54.1162 94.9521 51.0985 91.6601L52.7689 91.4522C50.2786 95.9382 47.6131 100.565 45.7856 103.848C45.486 104.386 44.9335 105.429 44.3417 106.535L43.6339 107.858L42.8197 106.578C41.8404 105.038 40.7799 103.36 40.5222 102.794C40.4097 102.547 40.4796 102.415 40.3328 102.169C39.6904 101.204 39.0498 100.237 38.415 99.2643C37.6497 98.0919 36.8851 96.9189 36.1215 95.7452C34.2134 92.3233 32.0878 88.9188 29.9891 85.5342C29.427 84.5981 28.4319 84.138 27.2171 83.9067L27.3785 83.9243C27.36 83.9241 27.3416 83.9239 27.3233 83.9237C26.0478 83.9107 24.7701 83.9305 23.4833 83.9531L23.4015 83.9503C23.2234 83.9371 23.0492 83.925 22.8711 83.9132L22.9602 83.9153C22.7429 83.9221 22.5561 83.9351 22.3301 83.958L22.2158 83.9612C21.86 83.951 21.4999 83.9397 21.1422 83.9265L21.1835 83.9273C17.7896 83.9559 14.4031 83.9933 11.0225 84.0289L10.8635 84.0167C10.7703 84.0018 10.6868 83.9934 10.5755 83.9824L10.686 83.9875C10.1667 83.9957 9.65067 84.0136 9.12259 84.034L9.00544 84.0309C8.83734 84.017 8.67735 84.0056 8.5083 83.9944L8.54137 83.9962C7.31793 83.9558 6.09544 83.918 4.8725 83.8799L4.31858 83.8662L4.03133 83.3674C4.05877 83.4141 4.04076 83.3857 4.05921 83.4098L4.1476 83.4997C3.37181 82.8102 2.58891 82.1273 1.80301 81.4422L1.08478 80.8248L1.67008 80.0527C1.7377 79.9649 1.80532 79.877 1.87294 79.7891L2.16834 79.3994L2.67907 79.394C3.37099 79.3915 4.05879 79.3918 4.74239 79.3868C8.71416 79.3583 12.6775 79.3349 16.6336 79.3217L16.7646 79.3294C16.8762 79.3436 16.9821 79.354 17.1033 79.3656L17.0088 79.361C17.7538 79.3635 18.4979 79.3659 19.2424 79.3682C21.7699 79.3767 24.929 79.2912 27.5028 79.3267L27.8505 79.3841C28.0288 79.448 28.2073 79.5099 28.3846 79.5711C29.4056 79.9332 29.8077 80.1991 31.2619 80.6828C31.2923 80.694 31.323 80.7056 31.3539 80.7176C31.3467 80.7762 31.3387 80.8346 31.3301 80.8929C32.7227 81.5581 33.429 82.3595 34.2279 83.6124C34.267 83.6754 34.3093 83.7442 34.3542 83.818C35.0506 84.9627 36.5402 87.4275 37.0403 88.2953C37.3162 88.7736 37.1205 88.6515 37.3868 89.0919C37.8433 89.8457 38.9403 91.3827 39.5696 92.4233C40.1396 93.366 40.9982 95.0174 41.4518 95.7332C42.2063 96.9247 43.0123 98.1532 43.8227 99.4075C43.9521 99.6046 44.1383 99.8487 44.3256 100.116L42.4389 100.2C43.0954 98.9171 43.7723 97.6277 44.4815 96.372C44.9235 95.5901 45.5956 94.6408 45.7269 94.3921C45.9831 93.9061 45.946 93.6994 46.1079 93.3673C46.9305 91.6809 48.4672 89.1906 49.3526 87.5806C49.6729 86.9982 49.9944 86.4115 50.3169 85.8214L51.02 84.5004L52.0534 85.6132C54.9768 88.8327 58.018 92.1356 60.9499 95.3601L59.1714 95.5814C59.6608 94.6655 60.148 93.757 60.632 92.8596C61.3788 91.475 62.3245 89.7039 63.2973 87.8902C63.5788 87.3666 63.8577 86.786 64.2 86.1976C64.827 84.9694 66.5177 84.3186 67.7045 84.6434C69.2031 84.8733 70.1767 86.4547 70.1765 87.5109C70.1877 87.6627 70.1983 87.8102 70.2084 87.9531C70.2614 88.6994 70.0982 88.5154 70.1616 89.1411C70.2323 89.835 70.3679 90.2011 70.4089 90.5251C70.4732 91.0323 70.5539 91.6786 70.6398 92.4009L70.6364 92.3709C70.7006 92.7995 70.7753 93.2482 70.8566 93.7237L69.3729 92.9992C69.6453 92.864 69.7515 92.8645 69.9751 92.8773C70.1804 92.898 70.3791 92.9946 70.5061 93.1023C70.749 93.3162 70.7834 93.4711 70.8187 93.5566C70.8753 93.739 70.867 93.7931 70.8719 93.8483C70.8743 93.9488 70.8677 93.9841 70.8642 94.0183C70.856 94.0811 70.8491 94.1096 70.8435 94.1357C70.8322 94.1849 70.8241 94.2123 70.8166 94.2383L70.8554 93.8532C71.0922 96.0512 71.3518 98.4938 71.4475 99.8223C71.4752 100.225 71.3985 100.529 71.4286 100.768C71.4289 100.77 71.4292 100.773 71.4295 100.775C71.4453 100.876 71.5473 101.083 71.6421 101.35C71.9241 102.144 72.4801 102.647 73.1709 102.927C73.9019 103.221 74.7395 103.35 75.5924 103.366C76.6321 103.382 77.7003 103.4 78.8742 103.414C83.6035 103.473 88.8909 103.394 94.0468 103.396C94.1555 103.397 94.3199 103.387 94.5308 103.399C94.7442 103.438 95.0228 103.35 95.563 103.799C96.4079 104.623 97.1538 105.478 97.8887 106.28L99.4153 107.897L97.177 107.913C96.7881 107.91 96.401 107.907 96.0163 107.902C94.551 107.885 93.5467 107.662 93.3407 107.664C93.2493 107.665 93.1647 107.672 93.0801 107.683C92.7461 107.725 92.4142 107.827 91.6834 107.857C88.6383 107.981 84.5375 107.822 81.6418 107.901C80.2111 107.939 78.2455 108.132 76.838 108.177C76.4973 108.188 76.016 108.189 75.4968 108.188C74.1734 108.217 72.6075 107.833 72.2116 107.742C71.8623 107.68 71.6476 107.776 71.2378 107.62ZM85.7948 105.406C85.9954 105.146 83.8891 105.361 84.6791 105.501C84.857 105.532 85.743 105.474 85.7948 105.406ZM30.9722 82.2928C30.9472 82.3646 30.9213 82.436 30.8944 82.5069C31.0982 82.6004 31.2978 82.7183 31.4915 82.8583C31.4251 82.7345 31.3526 82.6136 31.2728 82.4961C31.1755 82.423 31.0753 82.3551 30.9722 82.2928Z" fill="#FDFCF5"/>
</g>
<defs>
<clipPath id="clip0_334_58">
<rect width="100" height="43.4783" fill="white" transform="translate(0 78.8268)"/>
</clipPath>
</defs>
</svg>
