<svg width="389" height="152" viewBox="0 0 389 152" fill="none" xmlns="http://www.w3.org/2000/svg">
<path d="M91.208 0C94.3669 0.000274336 98.6861 1.62917 102.277 3.30762C104.059 4.14033 105.639 4.97439 106.772 5.59961C107.339 5.91194 107.795 6.17272 108.107 6.35449C108.263 6.44501 108.384 6.51614 108.466 6.56445C108.493 6.5806 108.517 6.59456 108.535 6.60547L155.941 54.6182L156.313 54.9941L156.668 54.6016L189.617 18.1104L228.098 41.9199L228.459 42.1436L228.738 41.8232L249.636 17.8203C251.072 16.5331 252.253 15.6462 253.233 15.167C254.215 14.6873 254.907 14.6572 255.444 14.9277C256.01 15.2131 256.556 15.9034 257.058 17.2158C257.554 18.5148 257.976 20.3347 258.36 22.7412C259.13 27.5575 259.711 33.3875 260.099 38.0195C260.292 40.3337 260.437 42.3472 260.534 43.7812C260.583 44.4978 260.619 45.0711 260.644 45.4639C260.656 45.6596 260.665 45.8118 260.671 45.9141C260.674 45.9646 260.676 46.0043 260.678 46.0303C260.678 46.0426 260.679 46.0531 260.68 46.0596V46.0693L260.683 46.1094L260.69 46.1484C261.801 51.1834 263.326 54.3762 265.83 56.3574C268.326 58.332 271.706 59.0298 276.327 59.3115L276.343 59.3125H393V151.27H0V0H91.208Z" fill="#FFDE00"/>
</svg>
