<svg width="393" height="801" viewBox="0 0 393 801" fill="none" xmlns="http://www.w3.org/2000/svg">
<path d="M393.021 800.999H257.519L257.499 800.997C252.144 800.584 248.241 799.559 245.373 796.69C242.522 793.837 240.778 789.241 239.5 781.915L239.495 781.883L239.493 781.852L239.993 781.829L239.493 781.851V781.848C239.493 781.845 239.492 781.841 239.492 781.837C239.492 781.827 239.491 781.813 239.49 781.794C239.488 781.756 239.486 781.698 239.482 781.624C239.475 781.474 239.465 781.252 239.451 780.965C239.423 780.39 239.381 779.552 239.325 778.504C239.213 776.406 239.044 773.461 238.82 770.075C238.372 763.301 237.701 754.769 236.81 747.716C236.364 744.19 235.873 741.505 235.289 739.575C234.697 737.618 234.041 736.555 233.354 736.117C232.74 735.726 231.958 735.761 230.817 736.466C229.676 737.172 228.303 738.478 226.637 740.366L202.47 775.467L202.169 775.905L201.75 775.577L157.271 740.774L119.167 794.144L118.778 794.688L118.366 794.161L63.5566 723.962C63.534 723.945 63.5036 723.921 63.4668 723.894C63.3725 723.823 63.2322 723.719 63.0518 723.586C62.6898 723.32 62.1631 722.938 61.5078 722.481C60.1962 721.567 58.3691 720.348 56.3086 719.13C54.2465 717.911 51.9576 716.698 49.7217 715.791C47.4778 714.881 45.3251 714.295 43.5234 714.295H0V544H393.021V800.999Z" fill="#FDFCF5"/>
<rect width="394" height="621" fill="#FDFCF5"/>
<path opacity="0.9" d="M86.5762 593.452C91.2227 593.452 95.4595 594.19 99.2861 595.666C103.167 597.142 106.529 599.247 109.372 601.98C112.215 604.659 114.428 607.802 116.014 611.41C117.654 615.018 118.474 618.981 118.474 623.3C118.474 627.618 117.654 631.61 116.014 635.272C114.428 638.88 112.215 642.024 109.372 644.702C106.529 647.381 103.167 649.458 99.2861 650.934C95.4595 652.41 91.2227 653.148 86.5762 653.148C81.9842 653.148 77.7475 652.41 73.8662 650.934C69.985 649.458 66.5955 647.381 63.6982 644.702C60.8557 641.969 58.641 638.798 57.0557 635.19C55.4703 631.582 54.6777 627.618 54.6777 623.3C54.6778 618.981 55.4704 615.018 57.0557 611.41C58.641 607.802 60.8556 604.659 63.6982 601.98C66.5956 599.247 69.9849 597.142 73.8662 595.666C77.7475 594.19 81.9843 593.452 86.5762 593.452ZM273.238 593.452C277.885 593.452 282.122 594.19 285.948 595.666C289.829 597.142 293.192 599.247 296.034 601.98C298.877 604.659 301.091 607.802 302.676 611.41C304.316 615.018 305.136 618.981 305.136 623.3C305.136 627.618 304.316 631.61 302.676 635.272C301.09 638.88 298.877 642.024 296.034 644.702C293.192 647.381 289.829 649.458 285.948 650.934C282.122 652.41 277.885 653.148 273.238 653.148C268.646 653.148 264.41 652.41 260.528 650.934C256.647 649.458 253.258 647.381 250.36 644.702C247.518 641.969 245.303 638.798 243.718 635.19C242.132 631.582 241.34 627.618 241.34 623.3C241.34 618.981 242.133 615.018 243.718 611.41C245.303 607.802 247.518 604.659 250.36 601.98C253.258 599.247 256.647 597.142 260.528 595.666C264.41 594.19 268.646 593.452 273.238 593.452ZM46.1416 652H31.2178L31.0732 621.545L16.2939 646.342H9.07715L0 631.534V606.483L12.9639 627.763L32.6113 594.6H45.9775L46.1416 652ZM165.682 625.188V594.6H181.59V652H168.224L142.886 621.411V652H126.978V594.6H140.344L165.682 625.188ZM239.044 607.474H221.496V652H205.26V607.474H187.63V594.6H239.044V607.474ZM334.497 617.376L348.14 594.6H363.883L341.907 631.438V652H325.671V631.183L303.777 594.6H320.915L334.497 617.376ZM393 618.171L389.93 610.521L382.564 628.876H393V640.848H377.76L373.284 652H356.721L382.059 594.6H393V618.171ZM86.5762 606.9C84.3895 606.9 82.3391 607.283 80.4258 608.048C78.5671 608.813 76.9272 609.934 75.5059 611.41C74.1392 612.831 73.0456 614.554 72.2256 616.576C71.4603 618.544 71.0781 620.785 71.0781 623.3C71.0781 625.76 71.4603 628.002 72.2256 630.024C73.0456 632.047 74.1393 633.797 75.5059 635.272C76.9271 636.694 78.5673 637.786 80.4258 638.552C82.3391 639.317 84.3895 639.7 86.5762 639.7C88.7627 639.7 90.785 639.317 92.6436 638.552C94.5567 637.787 96.1969 636.694 97.5635 635.272C98.9847 633.797 100.078 632.047 100.844 630.024C101.664 628.002 102.074 625.76 102.074 623.3C102.074 620.785 101.664 618.544 100.844 616.576C100.078 614.554 98.9848 612.831 97.5635 611.41C96.1968 609.934 94.5568 608.813 92.6436 608.048C90.7851 607.283 88.7626 606.9 86.5762 606.9ZM273.238 606.9C271.052 606.9 269.001 607.283 267.088 608.048C265.229 608.813 263.589 609.934 262.168 611.41C260.801 612.831 259.708 614.554 258.888 616.576C258.122 618.544 257.74 620.785 257.74 623.3C257.74 625.76 258.122 628.002 258.888 630.024C259.708 632.047 260.801 633.797 262.168 635.272C263.589 636.694 265.229 637.786 267.088 638.552C269.001 639.317 271.052 639.7 273.238 639.7C275.425 639.7 277.447 639.317 279.306 638.552C281.219 637.787 282.859 636.694 284.226 635.272C285.647 633.797 286.741 632.047 287.506 630.024C288.326 628.002 288.736 625.76 288.736 623.3C288.736 620.785 288.326 618.544 287.506 616.576C286.741 614.554 285.647 612.831 284.226 611.41C282.859 609.934 281.219 608.813 279.306 608.048C277.447 607.283 275.425 606.9 273.238 606.9ZM181.142 493.452C186.554 493.452 191.392 494.354 195.656 496.158C199.92 497.962 203.446 500.559 206.234 503.948L195.902 513.296C193.934 511.164 191.802 509.579 189.506 508.54C187.265 507.447 184.75 506.9 181.962 506.9C179.502 506.9 177.261 507.283 175.238 508.048C173.216 508.813 171.494 509.934 170.072 511.41C168.651 512.831 167.53 514.554 166.71 516.576C165.945 518.544 165.563 520.785 165.562 523.3C165.562 525.705 165.945 527.92 166.71 529.942C167.53 531.965 168.651 533.715 170.072 535.19C171.494 536.612 173.188 537.732 175.156 538.552C177.179 539.317 179.393 539.7 181.798 539.7C184.203 539.7 186.554 539.317 188.85 538.552C189.422 538.347 189.997 538.109 190.572 537.837V522.07H204.922V545.85C201.642 548.2 197.843 550.004 193.524 551.262C189.206 552.519 184.969 553.148 180.814 553.148C176.277 553.148 172.068 552.437 168.187 551.016C164.305 549.54 160.942 547.463 158.1 544.784C155.312 542.106 153.125 538.961 151.54 535.354C149.955 531.691 149.162 527.673 149.162 523.3C149.162 518.927 149.955 514.936 151.54 511.328C153.125 507.666 155.339 504.495 158.182 501.816C161.024 499.138 164.386 497.087 168.268 495.666C172.203 494.19 176.495 493.452 181.142 493.452ZM15.9658 532.015L31.8955 494.6H47.9678L23.3672 552H7.37793L0 534.727V494.6H0.407227L15.9658 532.015ZM71.6641 552H55.4277V494.6H71.6641V552ZM112.98 494.6C121.344 494.6 127.768 496.513 132.251 500.34C136.788 504.112 139.057 509.278 139.057 515.838C139.057 520.157 138.018 523.902 135.94 527.072C133.998 529.986 131.289 532.278 127.816 533.949L140.205 552H122.821L112.414 536.748H103.551V552H87.3145V494.6H112.98ZM235.552 552H219.315V494.6H235.552V552ZM289.906 525.188V494.6H305.814V552H292.448L267.11 521.41V552H251.203V494.6H264.568L289.906 525.188ZM337.604 552H321.367V494.6H337.604V552ZM393 506.58V543.97L391.747 540.848H367.406L362.931 552H346.366L371.704 494.6H387.694L393 506.58ZM372.211 528.876H386.942L379.576 510.522L372.211 528.876ZM103.551 524.202H112.571C115.96 524.202 118.475 523.464 120.115 521.988C121.81 520.512 122.657 518.462 122.657 515.838C122.657 513.16 121.81 511.082 120.115 509.606C118.475 508.131 115.96 507.392 112.571 507.392H103.551V524.202Z" fill="#F4F2E0"/>
</svg>
