<svg width="148" height="156" viewBox="0 0 148 156" fill="none" xmlns="http://www.w3.org/2000/svg">
<path d="M88.4835 30.9148C101.575 30.9149 111.999 41.3387 111.999 54.4304C111.999 59.3829 110.484 64.3629 107.757 68.2585L107.607 68.4734L107.421 68.6599H107.42L107.409 68.6707C107.402 68.6781 107.391 68.6897 107.377 68.7039C107.349 68.7321 107.308 68.7722 107.258 68.822L106.064 70.0164L75.795 99.949L73.6974 102.023L71.588 99.9617L41.9923 71.0378L41.882 70.9304L41.7843 70.8132C38.1209 66.4171 35.3712 61.0519 35.3712 54.4304C35.3713 41.3386 45.7951 30.9148 58.8868 30.9148C64.3926 30.9148 69.6268 32.8227 73.6847 35.9773C77.7426 32.8225 82.9775 30.9148 88.4835 30.9148Z" stroke="#E5E2D5" stroke-width="6" stroke-miterlimit="10"/>
<mask id="path-2-outside-1_62_207" maskUnits="userSpaceOnUse" x="76.4294" y="126.457" width="61" height="30" fill="black">
<rect fill="white" x="76.4294" y="126.457" width="61" height="30"/>
<path d="M131.196 156V132.794C131.196 132.794 131.196 132.457 130.86 132.457H82.7658C82.7658 132.457 82.4294 132.457 82.4294 132.794V156"/>
</mask>
<path d="M131.196 132.794L125.196 132.794V132.794H131.196ZM82.7658 132.457V126.457H82.7656L82.7658 132.457ZM131.196 156H137.196V132.794H131.196H125.196V156H131.196ZM131.196 132.794C137.196 132.794 137.196 132.791 137.196 132.788C137.196 132.787 137.196 132.784 137.196 132.782C137.196 132.778 137.196 132.774 137.196 132.77C137.196 132.762 137.196 132.754 137.196 132.746C137.196 132.73 137.196 132.713 137.196 132.696C137.195 132.662 137.194 132.627 137.193 132.59C137.19 132.517 137.186 132.437 137.18 132.352C137.168 132.183 137.147 131.981 137.109 131.755C137.039 131.33 136.886 130.673 136.521 129.942C136.144 129.189 135.484 128.252 134.383 127.518C133.243 126.758 131.994 126.457 130.86 126.457V132.457V138.457C129.894 138.457 128.771 138.199 127.726 137.502C126.719 136.831 126.122 135.978 125.788 135.309C125.465 134.662 125.333 134.089 125.273 133.727C125.24 133.533 125.222 133.357 125.211 133.207C125.205 133.13 125.202 133.058 125.2 132.99C125.198 132.956 125.198 132.922 125.197 132.889C125.197 132.873 125.197 132.857 125.196 132.841C125.196 132.833 125.196 132.825 125.196 132.817C125.196 132.813 125.196 132.809 125.196 132.805C125.196 132.803 125.196 132.8 125.196 132.8C125.196 132.797 125.196 132.794 131.196 132.794ZM130.86 132.457V126.457H82.7658V132.457V138.457H130.86V132.457ZM82.7658 132.457C82.7656 126.457 82.7627 126.457 82.7598 126.457C82.7588 126.457 82.7558 126.457 82.7539 126.457C82.7499 126.457 82.7459 126.457 82.742 126.457C82.734 126.457 82.7259 126.458 82.7178 126.458C82.7015 126.458 82.6849 126.458 82.6679 126.458C82.634 126.459 82.5987 126.46 82.562 126.461C82.4888 126.463 82.4091 126.467 82.3237 126.473C82.155 126.485 81.9532 126.507 81.7267 126.544C81.3022 126.615 80.6446 126.768 79.9143 127.133C79.1605 127.51 78.2242 128.169 77.4897 129.271C76.7302 130.41 76.4294 131.66 76.4294 132.794H82.4294H88.4294C88.4294 133.76 88.1707 134.883 87.4743 135.928C86.8029 136.935 85.9506 137.531 85.2809 137.866C84.6347 138.189 84.0611 138.321 83.6997 138.381C83.5048 138.413 83.3292 138.432 83.1789 138.443C83.1028 138.448 83.0303 138.452 82.962 138.454C82.9278 138.455 82.8943 138.456 82.8617 138.457C82.8454 138.457 82.8292 138.457 82.8133 138.457C82.8053 138.457 82.7974 138.457 82.7895 138.457C82.7855 138.457 82.7816 138.457 82.7777 138.457C82.7757 138.457 82.7728 138.457 82.7718 138.457C82.7688 138.457 82.7659 138.457 82.7658 132.457ZM82.4294 132.794H76.4294V156H82.4294H88.4294V132.794H82.4294Z" fill="#E5E2D5" mask="url(#path-2-outside-1_62_207)"/>
<mask id="path-4-outside-2_62_207" maskUnits="userSpaceOnUse" x="84.8374" y="23.9148" width="63" height="112" fill="black">
<rect fill="white" x="84.8374" y="23.9148" width="63" height="112"/>
<path d="M90.8374 132.794V102.861C91.1737 101.179 92.1827 98.4888 93.528 97.1435L111.689 77.6368C116.062 71.9193 125.479 77.9731 120.434 83.3543L105.972 103.534H113.035L130.524 84.6995C130.524 84.6995 131.533 73.2646 131.869 71.583L123.461 50.7309C122.115 47.3677 121.779 43.3318 123.124 39.6323C124.133 36.9417 125.479 34.5874 126.488 33.9148L140.95 69.9013C141.622 71.2466 141.286 90.7534 141.286 90.7534L121.106 132.794"/>
</mask>
<path d="M90.8374 102.861L84.9539 101.684L84.8374 102.267V102.861H90.8374ZM93.528 97.1435L97.7706 101.386L97.8464 101.31L97.9194 101.232L93.528 97.1435ZM111.689 77.6368L116.081 81.7253L116.279 81.5125L116.456 81.2815L111.689 77.6368ZM120.434 83.3543L116.057 79.2506L115.787 79.5384L115.557 79.8591L120.434 83.3543ZM105.972 103.534L101.095 100.039L94.2902 109.534H105.972V103.534ZM113.035 103.534V109.534H115.651L117.431 107.616L113.035 103.534ZM130.524 84.6995L134.92 88.7823L136.32 87.2753L136.5 85.2269L130.524 84.6995ZM131.869 71.583L137.752 72.7597L138.104 71.0018L137.433 69.3391L131.869 71.583ZM123.461 50.7309L117.89 52.9593L117.893 52.967L117.896 52.9748L123.461 50.7309ZM123.124 39.6323L117.506 37.5255L117.496 37.5536L117.486 37.5818L123.124 39.6323ZM126.488 33.9148L132.055 31.6775L129.302 24.8274L123.159 28.9225L126.488 33.9148ZM140.95 69.9013L135.382 72.1387L135.474 72.3657L135.583 72.5846L140.95 69.9013ZM141.286 90.7534L146.695 93.3498L147.262 92.1677L147.285 90.8568L141.286 90.7534ZM90.8374 132.794H96.8374V102.861H90.8374H84.8374V132.794H90.8374ZM90.8374 102.861L96.7209 104.038C96.7986 103.649 96.9977 102.971 97.2962 102.293C97.439 101.968 97.5764 101.708 97.6914 101.522C97.8152 101.322 97.8539 101.303 97.7706 101.386L93.528 97.1435L89.2854 92.9009C87.8527 94.3335 86.9036 96.1162 86.3125 97.4597C85.6861 98.8833 85.2126 100.391 84.9539 101.684L90.8374 102.861ZM93.528 97.1435L97.9194 101.232L116.081 81.7253L111.689 77.6368L107.298 73.5483L89.1366 93.055L93.528 97.1435ZM111.689 77.6368L116.456 81.2815C116.522 81.1947 116.527 81.2174 116.448 81.2615C116.374 81.3027 116.299 81.3218 116.25 81.327C116.198 81.3327 116.261 81.3241 116.33 81.3684C116.423 81.4289 116.06 81.243 115.922 80.5393C115.849 80.1642 115.879 79.7867 115.978 79.4805C116.072 79.1905 116.175 79.1247 116.057 79.2506L120.434 83.3543L124.811 87.4579C127.181 84.9305 128.367 81.646 127.699 78.2341C127.078 75.0605 125.033 72.7095 122.856 71.2986C118.567 68.5182 111.424 68.1066 106.923 73.9921L111.689 77.6368ZM120.434 83.3543L115.557 79.8591L101.095 100.039L105.972 103.534L110.849 107.029L125.311 86.8494L120.434 83.3543ZM105.972 103.534V109.534H113.035V103.534V97.5336H105.972V103.534ZM113.035 103.534L117.431 107.616L134.92 88.7823L130.524 84.6995L126.127 80.6168L108.638 99.4509L113.035 103.534ZM130.524 84.6995C136.5 85.2269 136.5 85.2269 136.5 85.2269C136.5 85.2268 136.5 85.2267 136.5 85.2266C136.5 85.2263 136.5 85.2258 136.5 85.2252C136.501 85.2239 136.501 85.222 136.501 85.2194C136.501 85.2141 136.502 85.2062 136.503 85.1956C136.505 85.1745 136.508 85.1428 136.511 85.1013C136.519 85.0183 136.53 84.8958 136.544 84.7392C136.572 84.4258 136.612 83.9755 136.662 83.4298C136.761 82.3375 136.897 80.866 137.043 79.3446C137.189 77.8194 137.344 76.2608 137.482 74.9887C137.551 74.3511 137.614 73.8052 137.667 73.3807C137.728 72.8982 137.758 72.7328 137.752 72.7597L131.869 71.583L125.985 70.4063C125.74 71.6348 125.371 75.3502 125.097 78.1991C124.949 79.7466 124.811 81.239 124.711 82.3433C124.661 82.8959 124.62 83.3521 124.591 83.6707C124.577 83.8299 124.566 83.9548 124.558 84.0401C124.555 84.0828 124.552 84.1155 124.55 84.1378C124.549 84.1489 124.548 84.1574 124.548 84.1631C124.547 84.166 124.547 84.1682 124.547 84.1697C124.547 84.1705 124.547 84.1711 124.547 84.1715C124.547 84.1717 124.547 84.1719 124.547 84.172C124.547 84.1721 124.547 84.1722 130.524 84.6995ZM131.869 71.583L137.433 69.3391L129.025 48.4871L123.461 50.7309L117.896 52.9748L126.304 73.8268L131.869 71.583ZM123.461 50.7309L129.032 48.5026C128.14 46.2734 128.002 43.7751 128.763 41.6827L123.124 39.6323L117.486 37.5818C115.556 42.8886 116.091 48.462 117.89 52.9593L123.461 50.7309ZM123.124 39.6323L128.742 41.739C129.151 40.6501 129.601 39.7051 129.989 39.04C130.183 38.707 130.319 38.5184 130.377 38.4449C130.479 38.3168 130.302 38.5833 129.816 38.9071L126.488 33.9148L123.159 28.9225C121.425 30.079 120.26 31.9016 119.623 32.9936C118.834 34.3464 118.107 35.9239 117.506 37.5255L123.124 39.6323ZM126.488 33.9148L120.92 36.1521L135.382 72.1387L140.95 69.9013L146.517 67.664L132.055 31.6775L126.488 33.9148ZM140.95 69.9013L135.583 72.5846C135.317 72.0523 135.211 71.6238 135.189 71.5347C135.169 71.4542 135.156 71.3939 135.15 71.3601C135.143 71.3251 135.139 71.304 135.139 71.2999C135.138 71.2943 135.142 71.3231 135.151 71.3958C135.158 71.4659 135.168 71.5603 135.178 71.6819C135.22 72.1909 135.258 72.9433 135.289 73.9144C135.349 75.8377 135.37 78.3281 135.37 80.8318C135.37 83.3237 135.349 85.7798 135.328 87.6162C135.318 88.5335 135.307 89.294 135.3 89.8243C135.296 90.0895 135.293 90.297 135.29 90.4376C135.289 90.508 135.288 90.5616 135.288 90.5974C135.287 90.6153 135.287 90.6287 135.287 90.6375C135.287 90.6419 135.287 90.6451 135.287 90.6472C135.287 90.6483 135.287 90.649 135.287 90.6495C135.287 90.6497 135.287 90.6498 135.287 90.6499C135.287 90.65 135.287 90.6499 141.286 90.7534C147.285 90.8568 147.285 90.8566 147.285 90.8564C147.285 90.8562 147.285 90.8559 147.285 90.8555C147.285 90.8548 147.285 90.8537 147.285 90.8524C147.285 90.8498 147.285 90.8459 147.285 90.841C147.285 90.831 147.286 90.8164 147.286 90.7974C147.287 90.7592 147.288 90.7031 147.289 90.6303C147.291 90.4846 147.294 90.2717 147.298 90.0008C147.306 89.4591 147.317 88.6851 147.328 87.7526C147.349 85.8895 147.37 83.3848 147.37 80.8318C147.37 78.2907 147.349 75.6522 147.283 73.5396C147.25 72.4928 147.204 71.5005 147.136 70.6853C147.103 70.2845 147.057 69.8404 146.99 69.4145C146.96 69.2295 146.819 68.2245 146.316 67.2181L140.95 69.9013ZM141.286 90.7534L135.877 88.157L115.697 130.197L121.106 132.794L126.516 135.39L146.695 93.3498L141.286 90.7534Z" fill="#E5E2D5" mask="url(#path-4-outside-2_62_207)"/>
<mask id="path-6-outside-3_62_207" maskUnits="userSpaceOnUse" x="10.1737" y="126.457" width="61" height="30" fill="black">
<rect fill="white" x="10.1737" y="126.457" width="61" height="30"/>
<path d="M16.1737 156V132.794C16.1737 132.794 16.1737 132.457 16.51 132.457H64.6042C64.6042 132.457 64.9406 132.457 64.9406 132.794V156"/>
</mask>
<path d="M16.1737 132.794L10.1737 132.794V132.794H16.1737ZM64.6042 132.457L64.6044 126.457H64.6042V132.457ZM16.1737 156H22.1737V132.794H16.1737H10.1737V156H16.1737ZM16.1737 132.794C22.1737 132.794 22.1737 132.797 22.1737 132.8C22.1737 132.801 22.1737 132.804 22.1737 132.805C22.1737 132.809 22.1737 132.813 22.1737 132.817C22.1736 132.825 22.1736 132.833 22.1735 132.841C22.1734 132.857 22.1732 132.873 22.1729 132.89C22.1724 132.922 22.1716 132.956 22.1705 132.99C22.1682 133.058 22.1646 133.131 22.1591 133.207C22.1484 133.357 22.1298 133.533 22.0973 133.728C22.0371 134.089 21.9054 134.663 21.5823 135.309C21.2475 135.979 20.651 136.831 19.6438 137.502C18.5992 138.199 17.4759 138.457 16.51 138.457V132.457V126.457C15.376 126.457 14.1266 126.758 12.9873 127.518C11.8856 128.252 11.2261 129.189 10.8492 129.942C10.484 130.673 10.3313 131.33 10.2606 131.755C10.2229 131.981 10.2017 132.183 10.1896 132.352C10.1835 132.437 10.1796 132.517 10.1771 132.59C10.1759 132.627 10.175 132.662 10.1745 132.696C10.1742 132.713 10.174 132.73 10.1739 132.746C10.1738 132.754 10.1738 132.762 10.1738 132.77C10.1737 132.774 10.1737 132.778 10.1737 132.782C10.1737 132.784 10.1737 132.787 10.1737 132.788C10.1737 132.791 10.1737 132.794 16.1737 132.794ZM16.51 132.457V138.457H64.6042V132.457V126.457H16.51V132.457ZM64.6042 132.457C64.6041 138.457 64.6012 138.457 64.5982 138.457C64.5972 138.457 64.5943 138.457 64.5923 138.457C64.5884 138.457 64.5845 138.457 64.5805 138.457C64.5726 138.457 64.5647 138.457 64.5567 138.457C64.5408 138.457 64.5246 138.457 64.5083 138.457C64.4757 138.456 64.4422 138.455 64.408 138.454C64.3397 138.452 64.2672 138.448 64.1911 138.443C64.0408 138.432 63.8652 138.413 63.6703 138.381C63.3088 138.321 62.7352 138.189 62.089 137.866C61.4193 137.531 60.5671 136.935 59.8957 135.927C59.1993 134.883 58.9406 133.76 58.9406 132.794H64.9406H70.9406C70.9406 131.66 70.6398 130.41 69.8803 129.271C69.1459 128.169 68.2096 127.51 67.4558 127.133C66.7255 126.768 66.0678 126.615 65.6433 126.544C65.4168 126.507 65.215 126.485 65.0463 126.473C64.9609 126.467 64.8813 126.463 64.808 126.461C64.7713 126.46 64.736 126.459 64.7021 126.458C64.6851 126.458 64.6685 126.458 64.6522 126.458C64.6441 126.458 64.636 126.457 64.6281 126.457C64.6241 126.457 64.6201 126.457 64.6161 126.457C64.6142 126.457 64.6112 126.457 64.6102 126.457C64.6073 126.457 64.6044 126.457 64.6042 132.457ZM64.9406 132.794H58.9406V156H64.9406H70.9406V132.794H64.9406Z" fill="#E5E2D5" mask="url(#path-6-outside-3_62_207)"/>
<mask id="path-8-outside-4_62_207" maskUnits="userSpaceOnUse" x="0" y="23.5785" width="63" height="112" fill="black">
<rect fill="white" y="23.5785" width="63" height="112"/>
<path d="M56.5325 132.794V102.861C56.1962 101.179 55.1873 98.4888 53.842 97.1435L35.6805 77.6368C31.3083 71.9193 21.8913 77.9731 26.9361 83.3543L41.398 103.534H34.3352L16.8464 84.3633C16.8464 84.3633 15.8375 72.9283 15.5011 71.2467L23.9092 50.3946C25.2545 47.0314 25.5908 42.9955 24.2455 39.296C23.2366 36.6054 21.8913 34.2511 20.8823 33.5785L6.4204 69.565C5.74776 70.9103 6.08408 90.4171 6.08408 90.4171L26.2635 132.457"/>
</mask>
<path d="M56.5325 102.861H62.5325V102.267L62.416 101.684L56.5325 102.861ZM53.842 97.1435L49.4506 101.232L49.5236 101.31L49.5993 101.386L53.842 97.1435ZM35.6805 77.6368L30.9144 81.2815L31.091 81.5125L31.2892 81.7253L35.6805 77.6368ZM26.9361 83.3543L31.813 79.8592L31.5832 79.5385L31.3133 79.2506L26.9361 83.3543ZM41.398 103.534V109.534H53.0797L46.2749 100.039L41.398 103.534ZM34.3352 103.534L29.9026 107.577L31.6873 109.534H34.3352V103.534ZM16.8464 84.3633L10.8696 84.8906L11.0478 86.9096L12.4138 88.407L16.8464 84.3633ZM15.5011 71.2467L9.93648 69.0028L9.26607 70.6655L9.61764 72.4234L15.5011 71.2467ZM23.9092 50.3946L29.4739 52.6384L29.477 52.6307L29.4801 52.623L23.9092 50.3946ZM24.2455 39.296L29.8843 37.2455L29.874 37.2173L29.8635 37.1892L24.2455 39.296ZM20.8823 33.5785L24.2105 28.5862L18.0679 24.4911L15.315 31.3412L20.8823 33.5785ZM6.4204 69.565L11.787 72.2483L11.8964 72.0294L11.9877 71.8024L6.4204 69.565ZM6.08408 90.4171L0.0849719 90.5205L0.107574 91.8314L0.674942 93.0134L6.08408 90.4171ZM56.5325 132.794H62.5325V102.861H56.5325H50.5325V132.794H56.5325ZM56.5325 102.861L62.416 101.684C62.1574 100.391 61.6839 98.8833 61.0575 97.4597C60.4664 96.1163 59.5173 94.3336 58.0846 92.9009L53.842 97.1435L49.5993 101.386C49.516 101.303 49.5548 101.322 49.6786 101.522C49.7935 101.708 49.9309 101.968 50.0737 102.293C50.3722 102.971 50.5714 103.649 50.6491 104.038L56.5325 102.861ZM53.842 97.1435L58.2333 93.055L40.0719 73.5483L35.6805 77.6368L31.2892 81.7253L49.4506 101.232L53.842 97.1435ZM35.6805 77.6368L40.4467 73.9921C35.946 68.1066 28.8033 68.5183 24.5136 71.2986C22.3367 72.7095 20.2923 75.0605 19.671 78.2341C19.0032 81.646 20.1894 84.9305 22.5589 87.4579L26.9361 83.3543L31.3133 79.2506C31.1953 79.1247 31.2983 79.1905 31.3922 79.4806C31.4914 79.7867 31.521 80.1642 31.4475 80.5393C31.3098 81.2431 30.947 81.429 31.0403 81.3685C31.1087 81.3242 31.1724 81.3327 31.1195 81.327C31.0708 81.3218 30.9962 81.3028 30.9221 81.2615C30.843 81.2174 30.8481 81.1948 30.9144 81.2815L35.6805 77.6368ZM26.9361 83.3543L22.0592 86.8494L36.5211 107.029L41.398 103.534L46.2749 100.039L31.813 79.8592L26.9361 83.3543ZM41.398 103.534V97.5337H34.3352V103.534V109.534H41.398V103.534ZM34.3352 103.534L38.7678 99.4899L21.279 80.3195L16.8464 84.3633L12.4138 88.407L29.9026 107.577L34.3352 103.534ZM16.8464 84.3633C22.8232 83.8359 22.8232 83.8358 22.8232 83.8357C22.8232 83.8356 22.8232 83.8354 22.8231 83.8352C22.8231 83.8348 22.8231 83.8342 22.823 83.8334C22.8228 83.8319 22.8227 83.8297 22.8224 83.8268C22.8219 83.8211 22.8211 83.8126 22.8202 83.8015C22.8182 83.7792 22.8153 83.7465 22.8115 83.7038C22.8039 83.6185 22.7928 83.4936 22.7786 83.3344C22.7501 83.0159 22.7091 82.5596 22.6589 82.007C22.5585 80.9027 22.4209 79.4103 22.2725 77.8628C21.9993 75.0139 21.6303 71.2985 21.3846 70.07L15.5011 71.2467L9.61764 72.4234C9.61227 72.3965 9.64182 72.5619 9.70272 73.0444C9.7563 73.4689 9.81905 74.0148 9.88818 74.6524C10.0261 75.9245 10.181 77.4831 10.3273 79.0083C10.4732 80.5297 10.6089 82.0012 10.7082 83.0935C10.7578 83.6392 10.7982 84.0895 10.8262 84.4029C10.8403 84.5596 10.8511 84.682 10.8585 84.765C10.8622 84.8065 10.865 84.8382 10.8669 84.8593C10.8678 84.8699 10.8685 84.8779 10.869 84.8831C10.8692 84.8857 10.8694 84.8877 10.8695 84.8889C10.8695 84.8895 10.8696 84.89 10.8696 84.8903C10.8696 84.8904 10.8696 84.8905 10.8696 84.8906C10.8696 84.8906 10.8696 84.8906 16.8464 84.3633ZM15.5011 71.2467L21.0658 73.4905L29.4739 52.6384L23.9092 50.3946L18.3446 48.1508L9.93648 69.0028L15.5011 71.2467ZM23.9092 50.3946L29.4801 52.623C31.279 48.1257 31.814 42.5523 29.8843 37.2455L24.2455 39.296L18.6068 41.3464C19.3676 43.4388 19.23 45.9371 18.3383 48.1663L23.9092 50.3946ZM24.2455 39.296L29.8635 37.1892C29.2629 35.5875 28.5357 34.0101 27.7466 32.6573C27.1096 31.5653 25.9453 29.7427 24.2105 28.5862L20.8823 33.5785L17.5541 38.5708C17.0684 38.247 16.8912 37.9805 16.9929 38.1086C17.0513 38.1821 17.187 38.3707 17.3812 38.7037C17.7692 39.3688 18.2192 40.3138 18.6276 41.4027L24.2455 39.296ZM20.8823 33.5785L15.315 31.3412L0.85314 67.3277L6.4204 69.565L11.9877 71.8024L26.4496 35.8158L20.8823 33.5785ZM6.4204 69.565L1.05384 66.8818C0.550626 67.8882 0.409739 68.8932 0.380297 69.0782C0.312544 69.5041 0.266959 69.9482 0.233556 70.349C0.16562 71.1642 0.119722 72.1565 0.087009 73.2033C0.0209899 75.3159 0 77.9544 0 80.4955C0 83.0485 0.021256 85.5532 0.0424275 87.4163C0.0530243 88.3488 0.0636253 89.1228 0.0715914 89.6645C0.0755749 89.9354 0.0789008 90.1483 0.0812407 90.294C0.0824103 90.3668 0.0833335 90.4229 0.0839691 90.461C0.0842867 90.4801 0.0845327 90.4947 0.0847015 90.5047C0.0847859 90.5096 0.0848513 90.5135 0.0848966 90.5161C0.084919 90.5174 0.0849366 90.5184 0.084949 90.5192C0.0849557 90.5196 0.0849609 90.5199 0.0849643 90.5201C0.0849686 90.5203 0.0849719 90.5205 6.08408 90.4171C12.0832 90.3136 12.0832 90.3137 12.0832 90.3136C12.0832 90.3135 12.0832 90.3134 12.0832 90.3132C12.0832 90.3127 12.0832 90.312 12.0831 90.3109C12.0831 90.3088 12.0831 90.3056 12.083 90.3012C12.0828 90.2924 12.0826 90.279 12.0823 90.2611C12.0817 90.2253 12.0808 90.1717 12.0797 90.1013C12.0774 89.9607 12.0742 89.7532 12.0703 89.488C12.0625 88.9577 12.0521 88.1972 12.0417 87.2799C12.0208 85.4435 12 82.9874 12 80.4955C12 77.9918 12.0211 75.5014 12.0812 73.5781C12.1115 72.607 12.1497 71.8546 12.1921 71.3456C12.2022 71.224 12.2115 71.1296 12.2194 71.0595C12.2275 70.9868 12.2322 70.958 12.2313 70.9636C12.2306 70.9677 12.2272 70.9888 12.2204 71.0238C12.2137 71.0576 12.2012 71.1179 12.1811 71.1984C12.1589 71.2875 12.0531 71.716 11.787 72.2483L6.4204 69.565ZM6.08408 90.4171L0.674942 93.0134L20.8543 135.054L26.2635 132.457L31.6726 129.861L11.4932 87.8207L6.08408 90.4171Z" fill="#E5E2D5" mask="url(#path-8-outside-4_62_207)"/>
<mask id="path-10-outside-5_62_207" maskUnits="userSpaceOnUse" x="22.9449" y="0" width="101" height="30" fill="black">
<rect fill="white" x="22.9449" width="101" height="30"/>
<path d="M27.9449 24.8341C33.6624 19.1166 40.7252 14.4081 48.4607 11.0448C56.1961 7.68161 64.6042 6 73.6849 6C82.7656 6 91.1737 7.68161 98.9091 11.0448C106.645 14.4081 113.707 19.1166 119.425 24.8341"/>
</mask>
<path d="M98.9091 11.0448L100.105 8.29363L98.9091 11.0448ZM27.9449 24.8341L30.0663 26.9554C30.2977 26.724 30.5315 26.4942 30.7677 26.2661L28.6837 24.1081L26.5998 21.9501C26.3386 22.2023 26.0799 22.4565 25.8236 22.7128L27.9449 24.8341ZM30.1987 22.6947L32.2075 24.9228C32.6942 24.4841 33.1898 24.0522 33.6938 23.6274L31.7605 21.3334L29.8273 19.0394C29.2726 19.5068 28.7267 19.9826 28.1899 20.4665L30.1987 22.6947ZM33.3664 20.0244L35.2238 22.3803C35.7397 21.9736 36.2636 21.5741 36.795 21.182L35.0139 18.7679L33.2328 16.3539C32.6503 16.7836 32.0756 17.2219 31.5091 17.6685L33.3664 20.0244ZM36.7002 17.5642L38.4047 20.0329C38.9465 19.6589 39.4953 19.2924 40.0507 18.9336L38.4231 16.4135L36.7954 13.8935C36.1885 14.2855 35.5885 14.6862 34.9957 15.0955L36.7002 17.5642ZM40.1805 15.316L41.7308 17.8844C42.2954 17.5436 42.8662 17.2106 43.4427 16.8858L41.9701 14.2721L40.4974 11.6584C39.8688 12.0126 39.2462 12.3758 38.6301 12.7477L40.1805 15.316ZM43.79 13.282L45.1845 15.9382C45.7692 15.6313 46.3592 15.3326 46.9542 15.0422L45.6385 12.3461L44.3229 9.64996C43.6751 9.96607 43.0325 10.2914 42.3956 10.6258L43.79 13.282ZM47.5136 11.4648L48.7498 14.1983C49.051 14.0621 49.3534 13.928 49.6568 13.7961L48.4607 11.0448L47.2645 8.29363C46.9343 8.4372 46.6052 8.58313 46.2774 8.73138L47.5136 11.4648ZM48.4607 11.0448L49.6568 13.7961C49.9701 13.6599 50.2845 13.5266 50.6001 13.3962L49.4545 10.6235L48.309 7.85085C47.9595 7.99523 47.6113 8.14282 47.2645 8.29363L48.4607 11.0448ZM51.4645 9.83587L52.5077 12.6487C53.1476 12.4113 53.7923 12.1856 54.4417 11.9714L53.502 9.12235L52.5624 6.27331C51.8437 6.51035 51.13 6.76027 50.4214 7.02307L51.4645 9.83587ZM55.5641 8.48357L56.3997 11.3648C57.0549 11.1748 57.7148 10.9963 58.3796 10.8291L57.648 7.91967L56.9165 5.01024C56.1823 5.19484 55.453 5.39219 54.7285 5.60229L55.5641 8.48357ZM59.7508 7.43045L60.3789 10.364C61.0461 10.2211 61.7181 10.0894 62.3949 9.96898L61.8692 7.0154L61.3435 4.06182C60.5986 4.1944 59.8584 4.33943 59.1228 4.49694L59.7508 7.43045ZM64.0008 6.67346L64.4257 9.64322C65.102 9.54647 65.783 9.46059 66.4689 9.38562L66.1429 6.40338L65.817 3.42115C65.0656 3.50328 64.3186 3.59745 63.5759 3.7037L64.0008 6.67346ZM68.2922 6.2037L68.5217 9.19491C69.204 9.14258 69.891 9.10075 70.5828 9.06948L70.4473 6.07254L70.3118 3.0756C69.558 3.10968 68.8083 3.1553 68.0628 3.21249L68.2922 6.2037ZM72.6051 6.00797L72.6495 9.00764C72.9935 9.00255 73.3386 9 73.6849 9V6V3C73.3092 3 72.9344 3.00277 72.5606 3.0083L72.6051 6.00797ZM73.6849 6V9C74.0312 9 74.3763 9.00255 74.7203 9.00764L74.7647 6.00797L74.8091 3.0083C74.4354 3.00277 74.0606 3 73.6849 3V6ZM76.9225 6.07254L76.787 9.06948C77.4787 9.10075 78.1658 9.14258 78.8481 9.19491L79.0775 6.2037L79.307 3.21249C78.5615 3.1553 77.8118 3.10968 77.058 3.0756L76.9225 6.07254ZM81.2268 6.40338L80.9009 9.38562C81.5867 9.46059 82.2678 9.54647 82.9441 9.64322L83.369 6.67346L83.7938 3.7037C83.0512 3.59745 82.3042 3.50328 81.5528 3.42115L81.2268 6.40338ZM85.5006 7.0154L84.9748 9.96898C85.6517 10.0894 86.3237 10.2211 86.9908 10.364L87.6189 7.43045L88.247 4.49694C87.5114 4.33943 86.7711 4.1944 86.0263 4.06182L85.5006 7.0154ZM89.7217 7.91967L88.9902 10.8291C89.6549 10.9963 90.3149 11.1748 90.97 11.3648L91.8056 8.48357L92.6413 5.60229C91.9168 5.39219 91.1875 5.19484 90.4533 5.01024L89.7217 7.91967ZM93.8677 9.12235L92.9281 11.9714C93.5775 12.1856 94.2221 12.4113 94.8621 12.6487L95.9052 9.83587L96.9484 7.02307C96.2398 6.76027 95.5261 6.51035 94.8074 6.27331L93.8677 9.12235ZM97.9153 10.6235L96.7697 13.3962C97.0853 13.5266 97.3997 13.6599 97.7129 13.7961L98.9091 11.0448L100.105 8.29363C99.7584 8.14282 99.4103 7.99523 99.0608 7.85084L97.9153 10.6235ZM98.9091 11.0448L97.7129 13.7961C98.0164 13.928 98.3188 14.0621 98.62 14.1983L99.8562 11.4648L101.092 8.73138C100.765 8.58313 100.436 8.4372 100.105 8.29363L98.9091 11.0448ZM101.731 12.3461L100.416 15.0422C101.011 15.3325 101.601 15.6313 102.185 15.9382L103.58 13.282L104.974 10.6258C104.337 10.2914 103.695 9.96607 103.047 9.64996L101.731 12.3461ZM105.4 14.2721L103.927 16.8858C104.504 17.2106 105.074 17.5436 105.639 17.8844L107.189 15.316L108.74 12.7477C108.124 12.3758 107.501 12.0126 106.872 11.6584L105.4 14.2721ZM108.947 16.4135L107.319 18.9336C107.874 19.2924 108.423 19.6589 108.965 20.0329L110.67 17.5642L112.374 15.0955C111.781 14.6862 111.181 14.2855 110.574 13.8935L108.947 16.4135ZM112.356 18.7679L110.575 21.182C111.106 21.574 111.63 21.9736 112.146 22.3803L114.003 20.0244L115.861 17.6685C115.294 17.2219 114.719 16.7836 114.137 16.3539L112.356 18.7679ZM115.609 21.3334L113.676 23.6274C114.18 24.0522 114.676 24.4841 115.162 24.9228L117.171 22.6947L119.18 20.4665C118.643 19.9826 118.097 19.5068 117.543 19.0394L115.609 21.3334ZM118.686 24.1081L116.602 26.2661C116.838 26.4942 117.072 26.724 117.304 26.9554L119.425 24.8341L121.546 22.7128C121.29 22.4565 121.031 22.2023 120.77 21.9501L118.686 24.1081ZM98.9091 11.0448L101.301 5.54242L98.9091 11.0448ZM27.9449 24.8341L32.1876 29.0767C32.4066 28.8577 32.628 28.6402 32.8516 28.4242L28.6837 24.1081L24.5158 19.792C24.2422 20.0563 23.971 20.3228 23.7023 20.5914L27.9449 24.8341ZM30.1987 22.6947L34.2164 27.151C34.678 26.7348 35.1483 26.3249 35.6271 25.9214L31.7605 21.3334L27.894 16.7454C27.3141 17.2341 26.7429 17.7318 26.1811 18.2384L30.1987 22.6947ZM33.3664 20.0244L37.0811 24.7362C37.5718 24.3494 38.0702 23.9693 38.5761 23.596L35.0139 18.7679L31.4516 13.9398C30.8437 14.3884 30.2436 14.846 29.6517 15.3126L33.3664 20.0244ZM36.7002 17.5642L40.1093 22.5016C40.6255 22.1452 41.1487 21.7958 41.6784 21.4537L38.4231 16.4135L35.1678 11.3734C34.5351 11.782 33.9094 12.1999 33.2911 12.6268L36.7002 17.5642ZM40.1805 15.316L43.2812 20.4527C43.82 20.1275 44.3648 19.8096 44.9154 19.4994L41.9701 14.2721L39.0248 9.04475C38.3702 9.41359 37.7217 9.79185 37.0797 10.1794L40.1805 15.316ZM43.79 13.282L46.5789 18.5945C47.1375 18.3012 47.7012 18.0158 48.2698 17.7383L45.6385 12.3461L43.0072 6.95384C42.333 7.28283 41.6642 7.62146 41.0011 7.96956L43.79 13.282ZM47.5136 11.4648L49.986 16.9318C50.2739 16.8016 50.5629 16.6734 50.853 16.5473L48.4607 11.0448L46.0683 5.54242C45.7247 5.69181 45.3823 5.84365 45.0412 5.99792L47.5136 11.4648ZM48.4607 11.0448L50.853 16.5473C51.1495 16.4184 51.447 16.2922 51.7457 16.1688L49.4545 10.6235L47.1634 5.07818C46.797 5.22956 46.432 5.38431 46.0683 5.54242L48.4607 11.0448ZM51.4645 9.83587L53.5509 15.4615C54.1565 15.2369 54.7666 15.0232 55.3814 14.8204L53.502 9.12235L51.6227 3.42426C50.8693 3.67274 50.1211 3.93475 49.3782 4.21028L51.4645 9.83587ZM55.5641 8.48357L57.2353 14.2461C57.8558 14.0662 58.4811 13.897 59.1112 13.7385L57.648 7.91967L56.1849 2.1008C55.416 2.29413 54.652 2.50086 53.8929 2.72101L55.5641 8.48357ZM59.7508 7.43045L61.007 13.2975C61.64 13.162 62.2778 13.037 62.9207 12.9226L61.8692 7.0154L60.8178 1.10824C60.0389 1.24688 59.2645 1.39859 58.4947 1.56342L59.7508 7.43045ZM64.0008 6.67346L64.8506 12.613C65.4937 12.521 66.1418 12.4393 66.7949 12.3679L66.1429 6.40338L65.491 0.438911C64.7069 0.524622 63.9269 0.622946 63.1511 0.733937L64.0008 6.67346ZM68.2922 6.2037L68.7511 12.1861C69.4018 12.1362 70.0576 12.0963 70.7183 12.0664L70.4473 6.07254L70.1763 0.0786614C69.3915 0.114145 68.6105 0.161664 67.8333 0.221276L68.2922 6.2037ZM72.6051 6.00797L72.6939 12.0073C73.023 12.0024 73.3533 12 73.6849 12V6V0C73.2944 0 72.9049 0.00287437 72.5162 0.00863123L72.6051 6.00797ZM73.6849 6V12C74.0164 12 74.3468 12.0024 74.6759 12.0073L74.7647 6.00797L74.8536 0.00863123C74.4649 0.00287437 74.0753 0 73.6849 0V6ZM76.9225 6.07254L76.6515 12.0664C77.3122 12.0963 77.9679 12.1362 78.6187 12.1861L79.0775 6.2037L79.5364 0.221276C78.7593 0.161664 77.9783 0.114145 77.1935 0.078661L76.9225 6.07254ZM81.2268 6.40338L80.5749 12.3679C81.228 12.4393 81.8761 12.521 82.5192 12.613L83.369 6.67346L84.2187 0.733937C83.4429 0.622947 82.6629 0.524622 81.8788 0.438911L81.2268 6.40338ZM85.5006 7.0154L84.4491 12.9226C85.092 13.037 85.7298 13.162 86.3627 13.2975L87.6189 7.43045L88.8751 1.56342C88.1053 1.39859 87.3309 1.24688 86.552 1.10824L85.5006 7.0154ZM89.7217 7.91967L88.2586 13.7385C88.8887 13.897 89.5139 14.0662 90.1344 14.2461L91.8056 8.48357L93.4769 2.72101C92.7178 2.50086 91.9537 2.29413 91.1849 2.1008L89.7217 7.91967ZM93.8677 9.12235L91.9884 14.8204C92.6032 15.0232 93.2133 15.2369 93.8189 15.4614L95.9052 9.83587L97.9916 4.21028C97.2486 3.93475 96.5005 3.67274 95.7471 3.42426L93.8677 9.12235ZM97.9153 10.6235L95.6241 16.1688C95.9228 16.2922 96.2203 16.4184 96.5168 16.5473L98.9091 11.0448L101.301 5.54242C100.938 5.38431 100.573 5.22956 100.206 5.07818L97.9153 10.6235ZM98.9091 11.0448L96.5168 16.5473C96.8068 16.6734 97.0959 16.8016 97.3838 16.9318L99.8562 11.4648L102.329 5.99792C101.987 5.84365 101.645 5.69181 101.301 5.54242L98.9091 11.0448ZM101.731 12.3461L99.1 17.7383C99.6686 18.0158 100.232 18.3012 100.791 18.5945L103.58 13.282L106.369 7.96956C105.706 7.62146 105.037 7.28283 104.363 6.95384L101.731 12.3461ZM105.4 14.2721L102.454 19.4994C103.005 19.8096 103.55 20.1275 104.089 20.4527L107.189 15.316L110.29 10.1794C109.648 9.79185 109 9.41359 108.345 9.04475L105.4 14.2721ZM108.947 16.4135L105.691 21.4537C106.221 21.7958 106.744 22.1452 107.26 22.5016L110.67 17.5642L114.079 12.6268C113.46 12.1999 112.835 11.782 112.202 11.3734L108.947 16.4135ZM112.356 18.7679L108.794 23.596C109.3 23.9693 109.798 24.3494 110.289 24.7362L114.003 20.0244L117.718 15.3126C117.126 14.846 116.526 14.3884 115.918 13.9398L112.356 18.7679ZM115.609 21.3334L111.743 25.9214C112.221 26.3249 112.692 26.7348 113.153 27.151L117.171 22.6947L121.189 18.2384C120.627 17.7318 120.056 17.2341 119.476 16.7454L115.609 21.3334ZM118.686 24.1081L114.518 28.4242C114.742 28.6402 114.963 28.8577 115.182 29.0767L119.425 24.8341L123.667 20.5914C123.399 20.3228 123.128 20.0563 122.854 19.792L118.686 24.1081Z" fill="#E5E2D5" mask="url(#path-10-outside-5_62_207)"/>
</svg>
