<svg width="150" height="150" viewBox="0 0 150 150" fill="none" xmlns="http://www.w3.org/2000/svg">
<path d="M66.2655 135.766C64.9999 135.766 63.7343 135.766 62.4374 135.656H61.7499C54.029 135.651 46.389 134.084 39.2893 131.05C32.1897 128.016 25.7771 123.577 20.4374 118C14.6717 112.073 10.1654 105.04 7.19007 97.3253C4.21474 89.6104 2.83191 81.373 3.1249 73.1094C4.03115 41.7344 28.4218 15.8906 58.6718 14.2969C75.8593 13.375 96.5468 20.1563 101.094 34.5C103.891 43.3281 98.6249 52.9844 93.9843 61.5313C89.7812 69.25 85.7968 76.5625 88.9062 81.1563C90.0903 82.9292 91.8692 84.2204 93.9218 84.7969C96.953 85.4844 99.8437 83.7188 102.891 81.8438C106.281 79.75 109.797 77.5938 113.672 79.0781C115.332 79.7646 116.751 80.9283 117.75 82.4219C124.203 91.0625 118.016 110.672 108.516 119.531C97.0207 130.137 81.9048 135.945 66.2655 135.766ZM61.828 17.3281C60.8124 17.3281 59.828 17.3281 58.828 17.4063C30.1874 18.9375 7.10928 43.4375 6.2499 73.2031C5.97184 81.0469 7.28179 88.8659 10.1011 96.1907C12.9204 103.515 17.1909 110.195 22.6562 115.828C27.7073 121.097 33.7715 125.289 40.4843 128.154C47.1972 131.019 54.42 132.498 61.7187 132.5H62.5937C70.5432 133.061 78.5236 131.994 86.0463 129.364C93.569 126.733 100.476 122.596 106.344 117.203C115.375 108.781 120.187 90.9063 115.219 84.2344C114.549 83.2409 113.604 82.4644 112.5 82C110.047 81.0625 107.469 82.6563 104.453 84.5C101.172 86.5156 97.453 88.7969 93.1718 87.8438C90.3392 87.0979 87.8773 85.3417 86.2499 82.9063C82.078 76.6563 86.4999 68.6094 91.1718 60.0313C95.8437 51.4531 100.453 43 98.0468 35.4375C94.2812 23.4375 77.1405 17.3281 61.828 17.3281Z" fill="#E5E2D5" stroke="#E5E2D5" stroke-width="3"/>
<path d="M63.6719 44.4375C61.5636 44.4406 59.5018 43.8182 57.7473 42.6492C55.9929 41.4801 54.6246 39.817 53.8157 37.8701C53.0067 35.9232 52.7935 33.78 53.2029 31.7119C53.6123 29.6438 54.6259 27.7435 56.1156 26.2517C57.6053 24.7598 59.504 23.7433 61.5716 23.3309C63.6391 22.9185 65.7825 23.1286 67.7306 23.9347C69.6787 24.7408 71.3439 26.1066 72.5155 27.8593C73.6871 29.6121 74.3125 31.673 74.3125 33.7812C74.3084 36.6035 73.1865 39.3092 71.1923 41.3063C69.1982 43.3034 66.4941 44.4292 63.6719 44.4375ZM63.6719 26.2656C62.181 26.2625 60.7228 26.702 59.4819 27.5284C58.241 28.3547 57.2733 29.5308 56.7013 30.9076C56.1293 32.2844 55.9789 33.7999 56.269 35.2623C56.5591 36.7247 57.2767 38.068 58.3309 39.1222C59.3851 40.1765 60.7284 40.8941 62.1908 41.1841C63.6532 41.4742 65.1688 41.3238 66.5456 40.7518C67.9224 40.1799 69.0984 39.2121 69.9248 37.9713C70.7511 36.7304 71.1906 35.2721 71.1875 33.7812C71.1834 31.7892 70.3902 29.88 68.9817 28.4715C67.5731 27.0629 65.6639 26.2697 63.6719 26.2656Z" fill="#E5E2D5" stroke="#E5E2D5" stroke-width="3"/>
<path d="M34.5781 56.4844C32.8268 56.4753 31.1048 56.0348 29.5644 55.2018C28.0239 54.3688 26.7125 53.169 25.7461 51.7085C24.7797 50.248 24.1882 48.5719 24.0238 46.8283C23.8595 45.0848 24.1274 43.3276 24.8038 41.7123C25.4802 40.0969 26.5443 38.6732 27.902 37.567C29.2596 36.4608 30.869 35.7063 32.5877 35.3701C34.3064 35.034 36.0815 35.1266 37.7558 35.6398C39.4302 36.153 40.9523 37.071 42.1875 38.3125C43.6709 39.8036 44.6798 41.7003 45.0873 43.7637C45.4948 45.8272 45.2825 47.965 44.4772 49.908C43.672 51.8511 42.3097 53.5123 40.562 54.6826C38.8144 55.8529 36.7595 56.4798 34.6562 56.4844H34.5781ZM34.5781 38.3125C33.5905 38.3078 32.612 38.5002 31.6998 38.8785C30.7875 39.2569 29.96 39.8134 29.2656 40.5156C27.8563 41.9276 27.0648 43.841 27.0648 45.8359C27.0648 47.8308 27.8563 49.7443 29.2656 51.1562C29.9624 51.8554 30.7903 52.4102 31.7019 52.7887C32.6136 53.1673 33.591 53.3621 34.5781 53.3621C35.5652 53.3621 36.5426 53.1673 37.4542 52.7887C38.3659 52.4102 39.1938 51.8554 39.8906 51.1562C41.2999 49.7443 42.0914 47.8308 42.0914 45.8359C42.0914 43.841 41.2999 41.9276 39.8906 40.5156C39.1957 39.8141 38.368 39.258 37.4559 38.8798C36.5438 38.5015 35.5655 38.3087 34.5781 38.3125Z" fill="#E5E2D5" stroke="#E5E2D5" stroke-width="3"/>
<path d="M22.5312 85.5625C20.4234 85.5624 18.3631 84.9364 16.6116 83.7637C14.8601 82.591 13.4963 80.9245 12.6933 78.9756C11.8903 77.0267 11.6842 74.8833 12.1011 72.8171C12.5181 70.7509 13.5393 68.8551 15.0352 67.3702C16.5312 65.8852 18.4344 64.878 20.5036 64.4763C22.5728 64.0746 24.7147 64.2965 26.6576 65.1138C28.6005 65.9312 30.2569 67.3072 31.4167 69.0673C32.5764 70.8273 33.1873 72.8922 33.1718 75C33.1471 77.8072 32.0157 80.4913 30.0233 82.4691C28.0309 84.4468 25.3385 85.5585 22.5312 85.5625ZM22.5312 67.4063C21.0481 67.4063 19.5982 67.8452 18.364 68.6676C17.1298 69.4901 16.1665 70.6593 15.5955 72.028C15.0244 73.3968 14.8711 74.9039 15.1548 76.3596C15.4385 77.8153 16.1466 79.1546 17.1899 80.2087C18.2331 81.2628 19.565 81.9847 21.0177 82.2834C22.4704 82.5822 23.979 82.4445 25.3536 81.8876C26.7282 81.3307 27.9073 80.3796 28.7424 79.154C29.5776 77.9283 30.0314 76.483 30.0468 75C30.0551 74.0071 29.8669 73.0223 29.4931 72.1023C29.1193 71.1824 28.5672 70.3455 27.8687 69.6397C27.1702 68.9339 26.339 68.3733 25.423 67.99C24.507 67.6067 23.5242 67.4083 22.5312 67.4063Z" fill="#E5E2D5" stroke="#E5E2D5" stroke-width="3"/>
<path d="M34.5781 114.656C32.4748 114.652 30.4199 114.025 28.6722 112.854C26.9246 111.684 25.5623 110.023 24.757 108.08C23.9518 106.137 23.7395 103.999 24.147 101.936C24.5544 99.8722 25.5634 97.9754 27.0468 96.4844C28.2846 95.2489 29.8078 94.3377 31.4817 93.8311C33.1555 93.3246 34.9284 93.2384 36.6435 93.5802C38.3586 93.9221 39.963 94.6814 41.3147 95.7909C42.6665 96.9005 43.7239 98.3261 44.3935 99.9417C45.0631 101.557 45.3241 103.313 45.1536 105.053C44.983 106.794 44.3861 108.466 43.4156 109.92C42.4451 111.375 41.131 112.568 39.5896 113.394C38.0482 114.221 36.3269 114.654 34.5781 114.656ZM34.5781 96.4844C33.5905 96.4797 32.612 96.6721 31.6997 97.0504C30.7875 97.4287 29.96 97.9853 29.2656 98.6875C28.0405 99.9156 27.2789 101.53 27.1107 103.257C26.9424 104.983 27.3778 106.715 28.3427 108.156C29.3076 109.598 30.7423 110.66 32.4026 111.163C34.0629 111.665 35.846 111.577 37.4483 110.912C39.0507 110.248 40.3731 109.048 41.1905 107.518C42.0078 105.988 42.2696 104.222 41.9311 102.521C41.5927 100.82 40.6749 99.2883 39.3342 98.1876C37.9935 97.0869 36.3127 96.485 34.5781 96.4844Z" fill="#E5E2D5" stroke="#E5E2D5" stroke-width="3"/>
<path d="M63.6719 126.703C61.5629 126.706 59.5005 126.083 57.7457 124.914C55.9909 123.744 54.6226 122.08 53.8142 120.132C53.0057 118.184 52.7933 116.04 53.204 113.972C53.6147 111.903 54.6299 110.003 56.1211 108.512C57.6124 107.021 59.5126 106.005 61.5812 105.595C63.6497 105.184 65.7936 105.396 67.7414 106.205C69.6892 107.013 71.3534 108.382 72.5231 110.136C73.6928 111.891 74.3156 113.954 74.3125 116.062C74.3043 118.882 73.1805 121.584 71.1868 123.577C69.1931 125.571 66.4914 126.695 63.6719 126.703ZM63.6719 108.531C62.1817 108.528 60.724 108.967 59.4835 109.793C58.2429 110.619 57.2752 111.794 56.7028 113.17C56.1303 114.545 55.979 116.06 56.2678 117.522C56.5566 118.984 57.2727 120.328 58.3253 121.382C59.378 122.437 60.7199 123.156 62.1812 123.448C63.6426 123.74 65.1576 123.591 66.5347 123.022C67.9118 122.452 69.0889 121.487 69.9172 120.248C70.7454 119.009 71.1875 117.553 71.1875 116.062C71.1875 114.068 70.3962 112.155 68.9872 110.743C67.5782 109.331 65.6666 108.535 63.6719 108.531Z" fill="#E5E2D5" stroke="#E5E2D5" stroke-width="3"/>
<path d="M140.516 86.7031H126.922C126.507 86.7031 126.11 86.5385 125.817 86.2454C125.524 85.9524 125.359 85.555 125.359 85.1406L127.672 25C127.751 23.4514 128.421 21.9923 129.545 20.9242C130.669 19.856 132.16 19.2604 133.711 19.2604C135.261 19.2604 136.753 19.856 137.877 20.9242C139.001 21.9923 139.671 23.4514 139.75 25L142.078 85.0312C142.078 85.4456 141.914 85.843 141.62 86.1361C141.327 86.4291 140.93 86.5937 140.516 86.5937V86.7031ZM128.547 83.5781H138.891L136.641 25.1562C136.641 24.3813 136.333 23.6381 135.785 23.0901C135.237 22.5422 134.494 22.2343 133.719 22.2343C132.944 22.2343 132.201 22.5422 131.653 23.0901C131.105 23.6381 130.797 24.3813 130.797 25.1562L128.547 83.5781Z" fill="#E5E2D5" stroke="#E5E2D5" stroke-width="3"/>
<path d="M138.859 96.1563H128.578C128.206 96.1617 127.844 96.034 127.558 95.7963C127.271 95.5585 127.079 95.2263 127.016 94.8594L125.359 85.4063C125.32 85.18 125.332 84.9479 125.393 84.7265C125.453 84.5051 125.562 84.2999 125.711 84.1253C125.861 83.9508 126.046 83.8113 126.256 83.7167C126.465 83.6221 126.692 83.5748 126.922 83.5782H140.516C140.745 83.5748 140.973 83.6221 141.182 83.7167C141.391 83.8113 141.577 83.9508 141.726 84.1253C141.875 84.2999 141.984 84.5051 142.045 84.7265C142.106 84.9479 142.117 85.18 142.078 85.4063L140.406 94.8594C140.343 95.2236 140.154 95.5537 139.87 95.7912C139.587 96.0286 139.229 96.158 138.859 96.1563ZM129.891 93.0313H137.5L138.609 86.7813H128.781L129.891 93.0313Z" fill="#E5E2D5" stroke="#E5E2D5" stroke-width="3"/>
<path d="M130.578 135.781C130.254 135.784 129.937 135.685 129.672 135.5C129.396 135.305 129.191 135.027 129.086 134.706C128.982 134.384 128.985 134.038 129.094 133.719C129.219 133.344 132.219 124.25 125.187 113.844C118.937 106.953 126.859 94.2969 127.203 93.75C127.344 93.53 127.538 93.3489 127.768 93.2233C127.997 93.0977 128.254 93.0317 128.516 93.0312H139.187C139.591 93.0338 139.98 93.1839 140.281 93.4531C142.452 95.7183 144.152 98.391 145.284 101.317C146.415 104.243 146.956 107.364 146.875 110.5C146.531 119.047 141.391 127.438 131.578 135.5C131.287 135.705 130.934 135.804 130.578 135.781ZM129.406 96.1562C127.328 99.7656 123.891 107.859 127.562 111.781L127.719 111.969C131.428 117.279 133.224 123.692 132.812 130.156C139.75 123.656 143.391 117.047 143.672 110.422C143.789 105.18 141.925 100.086 138.453 96.1562H129.406Z" fill="#E5E2D5" stroke="#E5E2D5" stroke-width="3"/>
</svg>
