<svg width="150" height="120" viewBox="0 0 150 120" fill="none" xmlns="http://www.w3.org/2000/svg">
<g clip-path="url(#clip0_62_527)">
<path d="M114.375 45.0001H78.75V58.1251C78.75 67.4297 71.1797 75.0001 61.875 75.0001C52.5703 75.0001 45 67.4297 45 58.1251V29.6251L29.789 38.7657C25.2656 41.461 22.5 46.3594 22.5 51.6094V62.6954L3.74997 73.5235C0.164037 75.586 -1.07815 80.1797 1.00779 83.7657L19.7578 116.25C21.8203 119.836 26.414 121.055 30 118.992L54.2343 105H86.25C94.5234 105 101.25 98.2735 101.25 90.0001H105C109.148 90.0001 112.5 86.6485 112.5 82.5001V67.5001H114.375C117.492 67.5001 120 64.9922 120 61.8751V50.6251C120 47.5079 117.492 45.0001 114.375 45.0001ZM148.992 36.2344L130.242 3.75006C128.18 0.164119 123.586 -1.05463 120 1.00787L95.7656 15.0001H71.8125C69 15.0001 66.2578 15.7969 63.8672 17.2735L56.0156 22.1719C53.8125 23.5313 52.5 25.9454 52.5 28.5235V58.1251C52.5 63.3047 56.6953 67.5001 61.875 67.5001C67.0547 67.5001 71.25 63.3047 71.25 58.1251V37.5001H114.375C121.617 37.5001 127.5 43.3829 127.5 50.6251V57.3047L146.25 46.4766C149.836 44.3907 151.055 39.8204 148.992 36.2344Z" fill="#E5E2D5"/>
</g>
<defs>
<clipPath id="clip0_62_527">
<rect width="150" height="120" fill="white"/>
</clipPath>
</defs>
</svg>
