<svg width="142" height="146" viewBox="0 0 142 146" fill="none" xmlns="http://www.w3.org/2000/svg">
<path d="M71.1396 1.50488C72.0897 1.55198 72.9912 1.95015 73.667 2.62598C74.3878 3.34681 74.793 4.32431 74.793 5.34375V17.0625C74.793 18.0819 74.3878 19.0594 73.667 19.7803C72.9462 20.5011 71.9686 20.9062 70.9492 20.9062C69.9298 20.9062 68.9523 20.5011 68.2314 19.7803C67.5106 19.0594 67.1055 18.0819 67.1055 17.0625V5.34375C67.1055 4.32432 67.5106 3.34682 68.2314 2.62598C68.9523 1.90513 69.9298 1.5 70.9492 1.5L71.1396 1.50488Z" fill="#E5E2D5" stroke="#E5E2D5" stroke-width="3"/>
<path d="M24.5532 20.7142C25.0621 20.7175 25.5654 20.8217 26.0337 21.0209C26.4958 21.2175 26.9147 21.503 27.2671 21.8607L35.5405 30.1283L35.6743 30.265C35.9778 30.5903 36.2227 30.9664 36.3979 31.3763C36.5983 31.8448 36.7036 32.3483 36.7075 32.8578C36.7114 33.3674 36.6137 33.8735 36.4204 34.3451C36.2271 34.8166 35.9419 35.2455 35.5815 35.6058C35.2212 35.9661 34.7923 36.2505 34.3208 36.4437C33.8492 36.6369 33.3441 36.7347 32.8345 36.7308C32.3248 36.7269 31.8206 36.6217 31.3521 36.4213C30.8909 36.224 30.4729 35.9382 30.1216 35.5804L21.8325 27.2972L21.8335 27.2963C21.4753 26.9437 21.1885 26.5254 20.9917 26.0629C20.7925 25.5946 20.6883 25.0912 20.6851 24.5824C20.6818 24.0735 20.7799 23.5688 20.9731 23.098C21.1664 22.6274 21.4513 22.2 21.811 21.8402C22.1708 21.4805 22.5982 21.1956 23.0688 21.0023C23.5396 20.8091 24.0444 20.711 24.5532 20.7142Z" fill="#E5E2D5" stroke="#E5E2D5" stroke-width="3"/>
<path d="M17.251 67.1459C17.6913 67.1675 18.1239 67.2644 18.5312 67.433C18.9976 67.626 19.4213 67.9092 19.7783 68.266C20.1353 68.6228 20.419 69.0468 20.6123 69.5131C20.8055 69.9793 20.9051 70.4791 20.9053 70.9838C20.9054 71.4884 20.8062 71.9882 20.6133 72.4545C20.4203 72.9207 20.1369 73.3446 19.7803 73.7015C19.4235 74.0585 18.9995 74.3422 18.5332 74.5355C18.1251 74.7047 17.6913 74.8019 17.251 74.8236L17.0625 74.8285L5.34473 74.8334C4.32548 74.8336 3.34794 74.4288 2.62695 73.7084C1.90598 72.9878 1.50031 72.01 1.5 70.9906C1.49975 69.9712 1.90434 68.9929 2.625 68.2719C3.34565 67.5509 4.3234 67.1461 5.34277 67.1459L17.0615 67.141L17.251 67.1459Z" fill="#E5E2D5" stroke="#E5E2D5" stroke-width="3"/>
<path d="M109.102 105.206C109.611 105.21 110.115 105.315 110.584 105.516C111.045 105.713 111.463 106 111.814 106.358L120.091 114.627L120.224 114.764C120.526 115.089 120.77 115.466 120.944 115.875C121.143 116.343 121.248 116.846 121.251 117.355C121.254 117.864 121.156 118.368 120.963 118.839C120.77 119.31 120.485 119.737 120.125 120.097C119.765 120.457 119.338 120.742 118.867 120.935C118.396 121.128 117.892 121.226 117.383 121.223C116.874 121.22 116.371 121.115 115.902 120.916C115.44 120.72 115.021 120.434 114.669 120.076L106.38 111.793L106.381 111.792C106.023 111.441 105.736 111.023 105.538 110.561C105.338 110.092 105.232 109.589 105.229 109.079C105.225 108.57 105.322 108.064 105.516 107.592C105.709 107.121 105.994 106.693 106.354 106.332C106.715 105.972 107.144 105.687 107.615 105.493C108.087 105.3 108.592 105.202 109.102 105.206Z" fill="#E5E2D5" stroke="#E5E2D5" stroke-width="3"/>
<path d="M32.8345 105.206C33.344 105.202 33.8493 105.3 34.3208 105.493C34.7924 105.687 35.2211 105.972 35.5815 106.332C35.9418 106.693 36.2271 107.121 36.4204 107.592C36.6137 108.064 36.7114 108.57 36.7075 109.079C36.7036 109.589 36.5982 110.092 36.3979 110.561C36.2005 111.023 35.9135 111.441 35.5552 111.792L35.5562 111.793L27.2671 120.076C26.9147 120.434 26.4958 120.72 26.0337 120.916C25.5655 121.115 25.0621 121.22 24.5532 121.223C24.0444 121.226 23.5396 121.128 23.0688 120.935C22.5983 120.742 22.1708 120.457 21.811 120.097C21.4513 119.737 21.1664 119.31 20.9731 118.839C20.7799 118.368 20.6818 117.864 20.6851 117.355C20.6883 116.846 20.7927 116.343 20.9917 115.875C21.1909 115.407 21.4809 114.982 21.8452 114.627L30.1216 106.358C30.473 106 30.8907 105.713 31.3521 105.516C31.8206 105.315 32.3248 105.21 32.8345 105.206Z" fill="#E5E2D5" stroke="#E5E2D5" stroke-width="3"/>
<path d="M136.783 67.1093C137.733 67.1561 138.636 67.5532 139.312 68.2294C140.033 68.95 140.438 69.9278 140.438 70.9471C140.439 71.9665 140.034 72.9439 139.313 73.6649C138.593 74.3859 137.615 74.7916 136.596 74.7919L124.876 74.7968C123.857 74.797 122.879 74.3922 122.158 73.6718C121.437 72.9511 121.032 71.9733 121.031 70.954C121.031 69.9346 121.436 68.9563 122.156 68.2352C122.877 67.5143 123.855 67.1095 124.874 67.1093L136.593 67.1044L136.783 67.1093Z" fill="#E5E2D5" stroke="#E5E2D5" stroke-width="3"/>
<path d="M117.356 20.7048C118.376 20.7045 119.354 21.1091 120.076 21.8298C120.797 22.5505 121.202 23.5282 121.203 24.5476C121.203 25.5672 120.797 26.5451 120.077 27.2664L111.792 35.5554C111.435 35.9132 111.011 36.198 110.544 36.3914C110.078 36.5843 109.578 36.6827 109.074 36.6824H109.073L109.072 36.6833V36.6824C108.312 36.6822 107.57 36.4577 106.938 36.0359C106.306 35.6137 105.813 35.0135 105.522 34.3113C105.231 33.609 105.154 32.8353 105.302 32.0896C105.45 31.3442 105.817 30.6594 106.354 30.1218L114.638 21.8318C115.359 21.1107 116.337 20.7053 117.356 20.7048Z" fill="#E5E2D5" stroke="#E5E2D5" stroke-width="3"/>
<path d="M107.028 87.645C110.33 81.3813 112 74.3863 111.885 67.3064C111.769 60.2264 109.87 53.2898 106.365 47.1375C103.074 41.222 98.3447 36.2313 92.6149 32.6264C86.8851 29.0216 80.3393 26.9189 73.582 26.5125H73.5776C71.8379 26.4164 70.0942 26.4164 68.3545 26.5125C61.5973 26.9189 55.0514 29.0216 49.3217 32.6264C43.5919 36.2313 38.863 41.222 35.5718 47.1375C32.0663 53.2898 30.1679 60.2264 30.052 67.3064C29.9362 74.3863 31.6066 81.3813 34.909 87.645L49.8745 116.079V127.219C49.8796 131.568 51.6097 135.738 54.6854 138.814C57.761 141.89 61.9311 143.62 66.2808 143.625H75.6558C80.0055 143.62 84.1755 141.89 87.2512 138.814C90.3269 135.738 92.057 131.568 92.062 127.219V116.079L107.028 87.645ZM54.562 124.875V117.844H87.3745V124.875H54.562ZM39.6527 49.4423C42.5257 44.1838 46.6949 39.7469 51.7646 36.5526C56.8344 33.3584 62.6364 31.5129 68.6198 31.1913C70.1827 31.1044 71.7492 31.1044 73.312 31.1913C79.2963 31.5122 85.0992 33.3574 90.1698 36.5517C95.2404 39.7459 99.4104 44.1833 102.284 49.4423C105.402 54.9125 107.091 61.0802 107.195 67.3756C107.299 73.671 105.815 79.8912 102.88 85.4616L88.3038 113.156H73.312V93.5843C74.5525 93.767 75.8038 93.8658 77.0576 93.8798C79.0805 93.9768 81.1024 93.6681 83.0042 92.9717C84.9059 92.2754 86.6491 91.2055 88.1311 89.8252C95.467 82.643 92.7898 68.7548 92.6721 68.1661C92.6128 67.8637 92.4943 67.5761 92.3233 67.3198C92.1523 67.0635 91.9323 66.8435 91.6759 66.6727C91.4194 66.5018 91.1318 66.3834 90.8294 66.3243C90.527 66.2651 90.2159 66.2664 89.914 66.3281C79.8377 68.3438 73.8912 77.899 70.9683 84.2904C68.0454 77.899 62.0988 68.3426 52.0226 66.3281C51.7207 66.2667 51.4097 66.2655 51.1074 66.3247C50.8051 66.384 50.5175 66.5024 50.2611 66.6732C50.0047 66.8441 49.7847 67.0639 49.6137 67.3201C49.4426 67.5763 49.3239 67.8638 49.2645 68.1661C49.1473 68.7544 46.47 82.643 53.8055 89.8252C55.2874 91.2056 57.0306 92.2755 58.9324 92.9719C60.8341 93.6682 62.8561 93.9769 64.879 93.8798C66.1327 93.8657 67.3841 93.767 68.6245 93.5843V113.156H53.6327L39.0565 85.4616C36.1215 79.8912 34.6375 73.671 34.7418 67.3756C34.846 61.0802 36.535 54.9125 39.6527 49.4423ZM74.0824 88.984C75.855 84.3949 80.4293 74.7316 88.4262 71.628C88.8143 75.9103 88.5602 82.8431 84.8522 86.4755C82.4913 88.7812 78.8763 89.6271 74.0824 88.984ZM67.8523 88.984C63.0731 89.6295 59.4511 88.785 57.0914 86.4823C53.1431 82.6256 53.1752 75.4549 53.5242 71.6325C61.512 74.7422 66.0806 84.3984 67.8523 88.984ZM75.6558 138.938H66.2808C63.5807 138.934 60.9644 137.999 58.8729 136.292C56.7814 134.584 55.3426 132.207 54.799 129.562H87.1376C86.594 132.207 85.1552 134.584 83.0637 136.292C80.9722 137.999 78.3559 138.934 75.6558 138.938Z" fill="#E5E2D5" stroke="#E5E2D5" stroke-width="3"/>
</svg>
