<svg width="143" height="121" viewBox="0 0 143 121" fill="none" xmlns="http://www.w3.org/2000/svg">
<path fill-rule="evenodd" clip-rule="evenodd" d="M76.3856 15.4125C73.9331 11.5292 68.2693 11.5292 65.8168 15.4125L13.4959 98.254C10.8675 102.416 13.858 107.841 18.7803 107.841H123.422C128.344 107.841 131.335 102.416 128.706 98.254L76.3856 15.4125ZM55.2483 8.73761C62.6062 -2.91258 79.5962 -2.91252 86.9543 8.73767L139.275 91.579C147.161 104.064 138.189 120.341 123.422 120.341H18.7803C4.01357 120.341 -4.95796 104.064 2.92732 91.579L55.2483 8.73761ZM77.3512 89.0915C77.3512 92.5434 74.5531 95.3415 71.1012 95.3415C67.6493 95.3415 64.8512 92.5434 64.8512 89.0915C64.8512 85.6396 67.6493 82.8415 71.1012 82.8415C74.5531 82.8415 77.3512 85.6396 77.3512 89.0915ZM62.9393 46.369L67.4624 73.509C67.7587 75.2877 69.2981 76.5915 71.1012 76.5915C72.9043 76.5915 74.4437 75.2877 74.74 73.509L79.2631 46.369C79.8981 42.5594 76.9606 39.0915 73.0981 39.0915H69.1043C65.2418 39.0915 62.3043 42.5594 62.9393 46.369Z" fill="#E5E2D5"/>
</svg>
