<svg width="460" height="441" viewBox="0 0 460 441" fill="none" xmlns="http://www.w3.org/2000/svg">
<g clip-path="url(#clip0_342_177)">
<path d="M117.037 356.536C117.401 355.948 118.044 355.591 118.736 355.591H289.29C289.995 355.591 290.648 355.962 291.009 356.568L316.62 399.644C317.413 400.978 316.452 402.667 314.901 402.667H92.0114C90.4435 402.667 89.4854 400.945 90.312 399.612L117.037 356.536Z" fill="#E5E2D5"/>
<rect x="36.0894" y="106.76" width="356.561" height="228.655" rx="2" fill="#E5E2D5"/>
<path d="M233.642 308.825L239.55 353.936H163.8L171.855 308.825H233.642Z" fill="#B2AD99" stroke="#4A483F" stroke-width="6"/>
<path d="M287.505 346.485L311.927 387.562H92.592L118.076 346.485H287.505Z" fill="#7A5FFF" stroke="#4A483F" stroke-width="6"/>
<mask id="path-5-inside-1_342_177" fill="white">
<rect x="23.9199" y="96" width="356.561" height="228.655" rx="2"/>
</mask>
<rect x="23.9199" y="96" width="356.561" height="228.655" rx="2" fill="#00FFD1" stroke="#4A483F" stroke-width="12" mask="url(#path-5-inside-1_342_177)"/>
<rect x="59.2107" y="104.07" width="313.968" height="161.404" fill="#FDFCF5"/>
<mask id="path-7-inside-2_342_177" fill="white">
<path d="M31.2217 280.269H373.179V316.585H31.2217V280.269Z"/>
</mask>
<path d="M31.2217 280.269H373.179V316.585H31.2217V280.269Z" fill="#7A5FFF"/>
<path d="M31.2217 280.269V286.269H373.179V280.269V274.269H31.2217V280.269Z" fill="#4A483F" mask="url(#path-7-inside-2_342_177)"/>
<rect x="369" y="255" width="101" height="149" rx="2" fill="#E5E2D5"/>
<mask id="path-10-inside-3_342_177" fill="white">
<rect x="358" y="247" width="101" height="149" rx="2"/>
</mask>
<rect x="358" y="247" width="101" height="149" rx="2" fill="#00FFD1" stroke="#4A483F" stroke-width="12" mask="url(#path-10-inside-3_342_177)"/>
<rect x="377" y="253" width="76" height="93" fill="#FDFCF5"/>
<path d="M439.437 309.299L405.947 292.899L401.748 290.845C399.997 289.989 398.152 291.817 398.776 293.792L412.223 336.282C412.227 336.293 412.23 336.301 412.234 336.312C412.591 337.379 413.94 337.507 414.522 336.568L420.292 327.24C420.767 326.471 421.784 326.388 422.359 327.074L433.182 339.972C433.671 340.556 434.506 340.597 435.044 340.066L440.811 334.352C441.348 333.821 441.386 332.912 440.897 332.328L430.102 319.464C429.527 318.778 429.693 317.692 430.439 317.244L439.493 311.82C440.405 311.274 440.408 309.804 439.465 309.317C439.454 309.306 439.444 309.303 439.437 309.299Z" fill="#E5E2D5"/>
<path d="M433.986 308.085L400.496 291.685L393.519 288.271C392.69 287.863 392.038 288.511 392.333 289.446L406.772 335.064C407.074 336.014 408.124 336.545 408.655 336.014L415.774 324.503L428.614 339.806L436.326 332.162L423.517 316.897L434.683 310.21C435.217 309.683 434.825 308.496 433.986 308.085Z" fill="#FF007A"/>
<path d="M434.926 308.085L401.436 291.685L394.459 288.271C393.63 287.863 392.978 288.511 393.273 289.446L407.712 335.064C408.014 336.014 409.065 336.545 409.595 336.014L416.714 324.507L429.554 339.81L437.266 332.166L424.457 316.901L435.623 310.214C436.157 309.683 435.768 308.496 434.926 308.085Z" stroke="#4A483F" stroke-width="6" stroke-miterlimit="10" stroke-linecap="round" stroke-linejoin="round"/>
<path d="M386.363 281.889L379.912 275.022" stroke="#4A483F" stroke-width="6" stroke-miterlimit="10" stroke-linecap="round" stroke-linejoin="round"/>
<path d="M385.009 291.037L376.84 290.57" stroke="#4A483F" stroke-width="6" stroke-miterlimit="10" stroke-linecap="round" stroke-linejoin="round"/>
<path d="M394.185 279.662L396.05 271" stroke="#4A483F" stroke-width="6" stroke-miterlimit="10" stroke-linecap="round" stroke-linejoin="round"/>
<path d="M388.03 299.25L384.653 308.119" stroke="#4A483F" stroke-width="6" stroke-miterlimit="10" stroke-linecap="round" stroke-linejoin="round"/>
<path d="M408.291 277.909L400.836 283.054" stroke="#4A483F" stroke-width="6" stroke-miterlimit="10" stroke-linecap="round" stroke-linejoin="round"/>
<mask id="path-20-inside-4_342_177" fill="white">
<path d="M364 353H453V390H364V353Z"/>
</mask>
<path d="M364 353H453V390H364V353Z" fill="#7A5FFF"/>
<path d="M364 353V359H453V353V347H364V353Z" fill="#4A483F" mask="url(#path-20-inside-4_342_177)"/>
<circle cx="409" cy="372" r="4" fill="#4A483F"/>
<path d="M277.311 127.753H143.063V230.771H277.311V127.753Z" fill="#E5E2D5"/>
<path d="M292.648 127.09C292.687 126.66 292.629 126.215 292.463 125.801L272.516 75.6787C272.092 74.6143 271.061 73.916 269.914 73.916H144.353C143.205 73.916 142.175 74.6143 141.75 75.6787L121.804 125.801C121.779 125.869 121.76 125.937 121.735 126.006C121.335 126.489 121.096 127.11 121.096 127.788C121.096 145.064 131.125 152.934 140.437 152.934C147.844 152.934 153.791 148.559 157.048 141.436C160.304 148.564 166.257 152.934 173.659 152.934C181.047 152.934 186.989 148.579 190.251 141.48C193.859 149.278 200.539 152.934 206.887 152.934C214.294 152.934 220.242 148.559 223.498 141.436C226.755 148.564 232.707 152.934 240.109 152.934C247.531 152.934 253.493 148.54 256.745 141.382C259.997 148.54 265.959 152.934 273.386 152.934C282.702 152.934 292.727 145.069 292.727 127.788C292.742 127.544 292.707 127.314 292.648 127.09Z" fill="#E5E2D5"/>
<path d="M268.908 127.753H134.66V230.771H268.908V127.753Z" fill="#FDFCF5"/>
<path d="M268.908 127.753H134.66V230.771H268.908V127.753Z" stroke="#34374F" stroke-width="6" stroke-miterlimit="10" stroke-linecap="round" stroke-linejoin="round"/>
<path d="M151.848 127.788C151.848 141.797 144.44 150.132 135.305 150.132C126.169 150.132 118.762 141.797 118.762 127.788" fill="#7A5FFF"/>
<path d="M218.303 127.788C218.303 141.797 210.895 150.132 201.76 150.132C192.624 150.132 185.217 141.797 185.217 127.788" fill="#7A5FFF"/>
<path d="M284.806 127.788C284.806 141.797 277.4 150.132 268.263 150.132C259.128 150.132 251.72 141.797 251.72 127.788" fill="#7A5FFF"/>
<path d="M151.848 127.788C151.848 141.797 144.44 150.132 135.305 150.132C126.169 150.132 118.762 141.797 118.762 127.788" stroke="#4A483F" stroke-width="6" stroke-miterlimit="10" stroke-linecap="round" stroke-linejoin="round"/>
<path d="M151.989 127.788C151.989 141.797 159.396 150.132 168.533 150.132C177.668 150.132 185.075 141.797 185.075 127.788" stroke="#4A483F" stroke-width="6" stroke-miterlimit="10" stroke-linecap="round" stroke-linejoin="round"/>
<path d="M218.303 127.788C218.303 141.797 210.895 150.132 201.76 150.132C192.624 150.132 185.217 141.797 185.217 127.788" stroke="#4A483F" stroke-width="6" stroke-miterlimit="10" stroke-linecap="round" stroke-linejoin="round"/>
<path d="M251.53 127.788C251.53 141.797 244.123 150.132 234.987 150.132C225.852 150.132 218.444 141.797 218.444 127.788" stroke="#4A483F" stroke-width="6" stroke-miterlimit="10" stroke-linecap="round" stroke-linejoin="round"/>
<path d="M284.806 127.788C284.806 141.797 277.4 150.132 268.263 150.132C259.128 150.132 251.72 141.797 251.72 127.788" stroke="#4A483F" stroke-width="6" stroke-miterlimit="10" stroke-linecap="round" stroke-linejoin="round"/>
<path d="M264.783 76.7139H231.965H214.406H139.221L119.274 126.836H216.252H284.729L264.783 76.7139Z" fill="#FDFCF5"/>
<path d="M264.919 75.6936L139.221 76.7141L119.274 126.836L131.076 126.694L147.292 85.7176L268.752 85.4196L264.919 75.6936Z" fill="#00FFD1"/>
<path d="M264.783 76.7139H231.965H214.406H139.221L119.274 126.836H216.252H284.729L264.783 76.7139Z" stroke="#4A483F" stroke-width="6" stroke-miterlimit="10" stroke-linecap="round" stroke-linejoin="round"/>
<path d="M159.094 92.8657L152.087 126.836" stroke="#4A483F" stroke-width="6" stroke-miterlimit="10" stroke-linecap="round" stroke-linejoin="round"/>
<path d="M189.138 77.6123L184.748 126.836" stroke="#4A483F" stroke-width="6" stroke-miterlimit="10" stroke-linecap="round" stroke-linejoin="round"/>
<path d="M240.9 77.6123L251.066 126.836" stroke="#4A483F" stroke-width="6" stroke-miterlimit="10" stroke-linecap="round" stroke-linejoin="round"/>
<path d="M214.021 77.6123L217.834 115.879" stroke="#4A483F" stroke-width="6" stroke-miterlimit="10" stroke-linecap="round" stroke-linejoin="round"/>
<path d="M187.871 166.603V230.496H149.232V166.603H187.871Z" fill="#00FFD1" stroke="#4A483F"/>
<path d="M188.225 166.25H148.879V230.85H188.225V166.25Z" stroke="#4A483F" stroke-width="6" stroke-miterlimit="10" stroke-linecap="round" stroke-linejoin="round"/>
<path d="M179.343 196.754C180.876 196.754 182.12 197.998 182.12 199.531C182.12 201.064 180.876 202.309 179.343 202.309C177.809 202.308 176.566 201.064 176.566 199.531C176.566 197.998 177.809 196.754 179.343 196.754Z" fill="#4A483F" stroke="#4A483F"/>
<path d="M290.148 208.565L242.99 187.32L237.077 184.659C234.611 183.55 232.013 185.918 232.892 188.477L251.828 243.521C251.833 243.535 251.838 243.545 251.842 243.56C252.345 244.942 254.245 245.108 255.065 243.892L263.19 231.807C263.859 230.811 265.29 230.703 266.1 231.592L281.34 248.301C282.028 249.058 283.205 249.112 283.962 248.423L292.082 241.021C292.838 240.333 292.892 239.155 292.204 238.399L277.004 221.734C276.193 220.845 276.427 219.439 277.477 218.858L290.226 211.831C291.511 211.124 291.516 209.219 290.187 208.589C290.172 208.575 290.158 208.57 290.148 208.565Z" fill="#E5E2D5"/>
<path d="M282.472 206.992L235.314 185.747L225.49 181.324C224.323 180.796 223.405 181.636 223.821 182.847L244.152 241.944C244.577 243.174 246.056 243.862 246.804 243.174L256.828 228.262L274.909 248.086L285.768 238.184L267.732 218.408L283.454 209.746C284.206 209.062 283.655 207.525 282.472 206.992Z" fill="#FF007A"/>
<path d="M283.796 206.992L236.638 185.747L226.813 181.324C225.646 180.796 224.729 181.636 225.143 182.847L245.475 241.944C245.9 243.174 247.38 243.862 248.127 243.174L258.151 228.266L276.232 248.091L287.092 238.189L269.054 218.413L284.777 209.751C285.529 209.062 284.982 207.525 283.796 206.992Z" stroke="#4A483F" stroke-width="6" stroke-miterlimit="10" stroke-linecap="round" stroke-linejoin="round"/>
<path d="M215.412 173.057L206.33 164.16" stroke="#4A483F" stroke-width="6" stroke-miterlimit="10" stroke-linecap="round" stroke-linejoin="round"/>
<path d="M213.508 184.907L202.004 184.302" stroke="#4A483F" stroke-width="6" stroke-miterlimit="10" stroke-linecap="round" stroke-linejoin="round"/>
<path d="M226.428 170.171L229.054 158.95" stroke="#4A483F" stroke-width="6" stroke-miterlimit="10" stroke-linecap="round" stroke-linejoin="round"/>
<path d="M217.761 195.547L213.005 207.036" stroke="#4A483F" stroke-width="6" stroke-miterlimit="10" stroke-linecap="round" stroke-linejoin="round"/>
<path d="M246.291 167.9L235.793 174.566" stroke="#4A483F" stroke-width="6" stroke-miterlimit="10" stroke-linecap="round" stroke-linejoin="round"/>
<path d="M241.809 115.429H251.379C276.706 115.429 297.233 92.6411 297.233 64.5311C297.233 36.4207 276.706 13.6327 251.379 13.6327H239.235C239.235 13.6327 264.03 12.8709 274.797 35.5321C285.559 58.1883 288.39 79.1503 266.867 103.506C266.867 103.501 251.872 116.03 241.809 115.429Z" fill="#FF8C00"/>
<path d="M237.668 115.429C262.993 115.429 283.523 92.6414 283.523 64.5313C283.523 36.4208 262.993 13.6328 237.668 13.6328C212.343 13.6328 191.813 36.4208 191.813 64.5313C191.813 92.6414 212.343 115.429 237.668 115.429Z" fill="#FFDE00"/>
<path d="M237.668 115.429C262.993 115.429 283.523 92.6414 283.523 64.5313C283.523 36.4208 262.993 13.6328 237.668 13.6328C212.343 13.6328 191.813 36.4208 191.813 64.5313C191.813 92.6414 212.343 115.429 237.668 115.429Z" stroke="#4A483F" stroke-width="6" stroke-miterlimit="10" stroke-linecap="round" stroke-linejoin="round"/>
<path d="M237.668 99.7316C255.183 99.7316 269.382 83.9717 269.382 64.5312C269.382 45.0907 255.183 29.3311 237.668 29.3311C220.153 29.3311 205.954 45.0907 205.954 64.5312C205.954 83.9717 220.153 99.7316 237.668 99.7316Z" fill="#FDFCF5"/>
<path d="M213.557 64.5313C213.557 46.5479 225.768 31.6846 241.467 29.5899C240.222 29.4238 238.952 29.3262 237.668 29.3262C220.182 29.3262 205.954 45.1172 205.954 64.5264C205.954 83.9358 220.178 99.7267 237.668 99.7267C238.957 99.7267 240.222 99.6286 241.467 99.4626C225.768 97.3779 213.557 82.5099 213.557 64.5313Z" fill="#FF8C00"/>
<path d="M237.668 99.7316C255.183 99.7316 269.382 83.9717 269.382 64.5312C269.382 45.0907 255.183 29.3311 237.668 29.3311C220.153 29.3311 205.954 45.0907 205.954 64.5312C205.954 83.9717 220.153 99.7316 237.668 99.7316Z" stroke="#4A483F" stroke-width="6" stroke-miterlimit="10" stroke-linecap="round" stroke-linejoin="round"/>
<path d="M241.809 115.429H251.379C276.706 115.429 297.233 92.6413 297.233 64.5313C297.233 36.4209 276.706 13.6328 251.379 13.6328H239.235" stroke="#4A483F" stroke-width="6" stroke-miterlimit="10" stroke-linecap="round" stroke-linejoin="round"/>
<path d="M272.663 29.8047H282.951" stroke="#4A483F" stroke-width="6" stroke-miterlimit="10" stroke-linecap="round" stroke-linejoin="round"/>
<path d="M282.092 52.3193H294.665" stroke="#4A483F" stroke-width="6" stroke-miterlimit="10" stroke-linecap="round" stroke-linejoin="round"/>
<path d="M282.951 74.8389H296.091" stroke="#4A483F" stroke-width="6" stroke-miterlimit="10" stroke-linecap="round" stroke-linejoin="round"/>
<path d="M273.523 97.353H285.52" stroke="#4A483F" stroke-width="6" stroke-miterlimit="10" stroke-linecap="round" stroke-linejoin="round"/>
<path d="M227.273 71.2793V75.9421C227.273 80.1462 230.954 83.5544 235.495 83.5544H239.206C243.747 83.5544 247.429 80.1462 247.429 75.9421V69.5606C247.429 65.3564 243.747 61.9482 239.206 61.9482H235.495C230.954 61.9482 227.273 58.54 227.273 54.3359V51.6357C227.273 47.4316 230.954 44.0234 235.495 44.0234H239.206C243.747 44.0234 247.429 47.4316 247.429 51.6357" stroke="#B2AD99" stroke-width="8" stroke-miterlimit="10" stroke-linecap="round" stroke-linejoin="round"/>
<path d="M237.35 83.7988V90.4295" stroke="#B2AD99" stroke-width="8" stroke-miterlimit="10" stroke-linecap="round" stroke-linejoin="round"/>
<path d="M237.35 38.6328V43.7842" stroke="#B2AD99" stroke-width="8" stroke-miterlimit="10" stroke-linecap="round" stroke-linejoin="round"/>
</g>
<defs>
<clipPath id="clip0_342_177">
<rect width="460" height="460" fill="white"/>
</clipPath>
</defs>
</svg>
