<svg width="460" height="436" viewBox="0 0 460 436" fill="none" xmlns="http://www.w3.org/2000/svg">
<g clip-path="url(#clip0_349_234)">
<path d="M117.037 356.536C117.401 355.948 118.044 355.591 118.736 355.591H289.29C289.995 355.591 290.648 355.962 291.009 356.568L316.62 399.644C317.413 400.978 316.452 402.667 314.901 402.667H92.0114C90.4435 402.667 89.4854 400.945 90.312 399.612L117.037 356.536Z" fill="#E5E2D5"/>
<rect x="36.0894" y="106.76" width="356.561" height="228.655" rx="2" fill="#E5E2D5"/>
<path d="M233.643 308.825L239.55 353.936H163.8L171.855 308.825H233.643Z" fill="#B2AD99" stroke="#4A483F" stroke-width="6"/>
<path d="M287.505 346.485L311.927 387.562H92.5923L118.077 346.485H287.505Z" fill="#7A5FFF" stroke="#4A483F" stroke-width="6"/>
<mask id="path-5-inside-1_349_234" fill="white">
<rect x="23.9199" y="96" width="356.561" height="228.655" rx="2"/>
</mask>
<rect x="23.9199" y="96" width="356.561" height="228.655" rx="2" fill="#00FFD1" stroke="#4A483F" stroke-width="12" mask="url(#path-5-inside-1_349_234)"/>
<rect x="59.2104" y="104.07" width="313.968" height="161.404" fill="#FDFCF5"/>
<mask id="path-7-inside-2_349_234" fill="white">
<path d="M31.2217 280.269H373.179V316.585H31.2217V280.269Z"/>
</mask>
<path d="M31.2217 280.269H373.179V316.585H31.2217V280.269Z" fill="#7A5FFF"/>
<path d="M31.2217 280.269V286.269H373.179V280.269V274.269H31.2217V280.269Z" fill="#4A483F" mask="url(#path-7-inside-2_349_234)"/>
<rect x="369" y="255" width="101" height="149" rx="2" fill="#E5E2D5"/>
<mask id="path-10-inside-3_349_234" fill="white">
<rect x="358" y="247" width="101" height="149" rx="2"/>
</mask>
<rect x="358" y="247" width="101" height="149" rx="2" fill="#00FFD1" stroke="#4A483F" stroke-width="12" mask="url(#path-10-inside-3_349_234)"/>
<rect x="377" y="253" width="76" height="93" fill="#FDFCF5"/>
<path d="M434.811 286.582L431.386 283.825C429.697 282.468 428.716 282.484 427.27 284.27L402.371 314.997L390.784 305.37C389.186 304.027 388.186 304.098 386.871 305.741L384.227 309.184C382.886 310.872 383.057 311.831 384.643 313.155L401.157 326.815C402.857 328.244 403.814 328.097 405.128 326.498L435.241 290.697C436.656 288.997 436.57 287.981 434.811 286.582Z" fill="#B2AD99"/>
<path d="M433.382 282.297L429.956 279.539C428.268 278.182 427.286 278.198 425.841 279.984L400.942 310.711L389.355 301.084C387.756 299.741 386.756 299.812 385.442 301.455L382.798 304.898C381.456 306.587 381.628 307.545 383.214 308.869L399.728 322.529C401.428 323.958 402.385 323.811 403.699 322.212L433.812 286.411C435.226 284.711 435.141 283.695 433.382 282.297Z" fill="#FF8C00"/>
<mask id="path-14-inside-4_349_234" fill="white">
<path d="M364 353H453V390H364V353Z"/>
</mask>
<path d="M364 353H453V390H364V353Z" fill="#7A5FFF"/>
<path d="M364 353V359H453V353V347H364V353Z" fill="#4A483F" mask="url(#path-14-inside-4_349_234)"/>
<circle cx="409" cy="372" r="4" fill="#4A483F"/>
<g filter="url(#filter0_d_349_234)">
<path d="M64 38C64 32.4772 68.4772 28 74 28H338C343.523 28 348 32.4772 348 38V263H64V38Z" fill="#FDFCF5"/>
<path d="M74 31H338C341.866 31 345 34.134 345 38V260H67V38C67 34.134 70.134 31 74 31Z" stroke="#4A483F" stroke-width="6"/>
</g>
<mask id="path-19-inside-5_349_234" fill="white">
<path d="M69 39C69 36.2386 71.2386 34 74 34H337C339.761 34 342 36.2386 342 39V73H69V39Z"/>
</mask>
<path d="M69 39C69 36.2386 71.2386 34 74 34H337C339.761 34 342 36.2386 342 39V73H69V39Z" fill="#FFDE00"/>
<path d="M69 34H342H69M342 79H69V67H342V79ZM342 67M69 73V34V73M69 73M342 34V73V34" fill="#4A483F" mask="url(#path-19-inside-5_349_234)"/>
<circle cx="263.5" cy="49.5" r="7" fill="#00FFD1" stroke="#4A483F" stroke-width="3"/>
<path d="M290.5 42.5C294.286 42.5 297.5 45.7759 297.5 50C297.5 54.2241 294.286 57.5 290.5 57.5C286.714 57.5 283.5 54.2241 283.5 50C283.5 45.7759 286.714 42.5 290.5 42.5Z" fill="#7A5FFF" stroke="#4A483F" stroke-width="3"/>
<path d="M318.5 42.5C322.286 42.5 325.5 45.7759 325.5 50C325.5 54.2241 322.286 57.5 318.5 57.5C314.714 57.5 311.5 54.2241 311.5 50C311.5 45.7759 314.714 42.5 318.5 42.5Z" fill="#FF007A" stroke="#4A483F" stroke-width="3"/>
<rect x="83.5" y="43.5" width="145" height="13" rx="6.5" fill="#FF8C00" stroke="#4A483F" stroke-width="3"/>
<path d="M234.5 216.671C234.955 216.948 235.505 217.289 236.1 217.679C237.641 218.688 239.654 220.115 241.065 221.566C242.715 223.263 244.209 225.677 245.239 227.522C245.652 228.262 246.006 228.944 246.287 229.5H269.5V196.044C269.477 195.993 269.452 195.938 269.425 195.88C269.23 195.46 268.941 194.848 268.569 194.089C267.826 192.57 266.755 190.47 265.449 188.15C262.802 183.449 259.319 178.082 255.744 174.728C251.963 171.18 245.906 167.84 240.598 165.339C238.276 164.245 236.148 163.335 234.5 162.661V216.671Z" fill="#7A5FFF" stroke="#4A483F" stroke-width="5"/>
<path d="M252 180C247.506 175.589 238 172 238 172V206C238 206 240.671 207.57 242 209C243.55 210.668 245 214 245 214H260V193C260 193 256.254 184.176 252 180Z" fill="#FDFCF5"/>
<path d="M169.5 216.671C169.045 216.948 168.495 217.289 167.9 217.679C166.359 218.688 164.346 220.115 162.935 221.566C161.285 223.263 159.791 225.677 158.761 227.522C158.348 228.262 157.994 228.944 157.713 229.5H134.5V196.044C134.523 195.993 134.548 195.938 134.575 195.88C134.77 195.46 135.059 194.848 135.431 194.089C136.174 192.57 137.245 190.47 138.551 188.15C141.198 183.449 144.681 178.082 148.256 174.728C152.037 171.18 158.094 167.84 163.402 165.339C165.724 164.245 167.852 163.335 169.5 162.661V216.671Z" fill="#7A5FFF" stroke="#4A483F" stroke-width="5"/>
<path d="M152 180C156.494 175.589 166 172 166 172V206C166 206 163.329 207.57 162 209C160.45 210.668 159 214 159 214H144V193C144 193 147.746 184.176 152 180Z" fill="#FDFCF5"/>
<path d="M203 214L220.321 240.25H185.679L203 214Z" fill="#F4F2E9"/>
<mask id="path-30-inside-6_349_234" fill="white">
<path d="M202.857 79C202.894 79.037 220.007 96.2859 226.588 110.031C231.122 119.502 233.987 134.266 235.138 141.063H235.714L235.715 144.714H235.714V203.127H170V141.063H170.577C171.728 134.266 174.593 119.502 179.127 110.031C185.715 96.2712 202.857 79 202.857 79Z"/>
</mask>
<path d="M202.857 79C202.894 79.037 220.007 96.2859 226.588 110.031C231.122 119.502 233.987 134.266 235.138 141.063H235.714L235.715 144.714H235.714V203.127H170V141.063H170.577C171.728 134.266 174.593 119.502 179.127 110.031C185.715 96.2712 202.857 79 202.857 79Z" fill="#FF007A"/>
<path d="M202.857 79L205.697 76.1825L202.858 73.3215L200.018 76.1822L202.857 79ZM226.588 110.031L230.196 108.304L230.196 108.304L226.588 110.031ZM235.138 141.063L231.194 141.731L231.758 145.063H235.138V141.063ZM235.714 141.063L239.714 141.062L239.713 137.063H235.714V141.063ZM235.715 144.714V148.714H239.716L239.715 144.713L235.715 144.714ZM235.714 144.714V140.714H231.714V144.714H235.714ZM235.714 203.127V207.127H239.714V203.127H235.714ZM170 203.127H166V207.127H170V203.127ZM170 141.063V137.063H166V141.063H170ZM170.577 141.063V145.063H173.957L174.521 141.731L170.577 141.063ZM179.127 110.031L175.519 108.304L175.519 108.304L179.127 110.031ZM202.857 79L200.018 81.8175C199.997 81.7961 204.204 86.0349 209.215 91.9584C214.282 97.949 219.923 105.373 222.98 111.759L226.588 110.031L230.196 108.304C226.672 100.944 220.465 92.8711 215.322 86.7916C210.123 80.645 205.755 76.2408 205.697 76.1825L202.857 79ZM226.588 110.031L222.98 111.759C227.24 120.657 230.037 134.893 231.194 141.731L235.138 141.063L239.082 140.396C237.938 133.639 235.004 118.347 230.196 108.304L226.588 110.031ZM235.138 141.063V145.063H235.714V141.063V137.063H235.138V141.063ZM235.714 141.063L231.714 141.065L231.715 144.715L235.715 144.714L239.715 144.713L239.714 141.062L235.714 141.063ZM235.715 144.714V140.714H235.714V144.714V148.714H235.715V144.714ZM235.714 144.714H231.714V203.127H235.714H239.714V144.714H235.714ZM235.714 203.127V199.127H170V203.127V207.127H235.714V203.127ZM170 203.127H174V141.063H170H166V203.127H170ZM170 141.063V145.063H170.577V141.063V137.063H170V141.063ZM170.577 141.063L174.521 141.731C175.678 134.893 178.475 120.657 182.735 111.759L179.127 110.031L175.519 108.304C170.711 118.347 167.777 133.639 166.633 140.396L170.577 141.063ZM179.127 110.031L182.735 111.759C185.795 105.366 191.445 97.9329 196.516 91.9394C199.02 88.9804 201.324 86.4403 203.002 84.6413C203.84 83.7426 204.519 83.0308 204.986 82.5464C205.22 82.3043 205.401 82.1191 205.521 81.9959C205.582 81.9344 205.627 81.8883 205.656 81.8584C205.671 81.8435 205.682 81.8326 205.689 81.8258C205.692 81.8224 205.694 81.82 205.696 81.8187C205.696 81.818 205.697 81.8176 205.697 81.8175C205.697 81.8174 205.697 81.8175 205.697 81.8174C205.697 81.8176 205.696 81.8178 202.857 79C200.018 76.1822 200.018 76.1825 200.018 76.1829C200.017 76.1832 200.017 76.1837 200.017 76.1841C200.016 76.185 200.014 76.1862 200.013 76.1876C200.01 76.1905 200.006 76.1944 200.001 76.1994C199.992 76.2093 199.978 76.2234 199.96 76.2415C199.924 76.2778 199.872 76.3304 199.805 76.3987C199.672 76.5353 199.477 76.7346 199.229 76.9916C198.734 77.5054 198.022 78.2505 197.15 79.1859C195.407 81.0553 193.014 83.693 190.409 86.7718C185.263 92.8539 179.047 100.936 175.519 108.304L179.127 110.031Z" fill="#4A483F" mask="url(#path-30-inside-6_349_234)"/>
<mask id="path-32-inside-7_349_234" fill="white">
<path d="M202.807 79C202.866 79.06 218.492 94.8181 225.611 108.206H180C187.122 94.812 202.761 79.046 202.807 79Z"/>
</mask>
<path d="M202.807 79C202.866 79.06 218.492 94.8181 225.611 108.206H180C187.122 94.812 202.761 79.046 202.807 79Z" fill="#7A5FFF"/>
<path d="M202.807 79L205.646 76.1828L202.807 73.3208L199.967 76.1826L202.807 79ZM225.611 108.206V112.206H232.269L229.143 106.328L225.611 108.206ZM180 108.206L176.468 106.328L173.343 112.206H180V108.206ZM202.807 79L199.967 81.8172C199.958 81.8079 203.805 85.6857 208.521 91.2039C213.278 96.7695 218.731 103.788 222.08 110.084L225.611 108.206L229.143 106.328C225.372 99.2366 219.453 91.6817 214.602 86.0062C209.711 80.2833 205.715 76.2521 205.646 76.1828L202.807 79ZM225.611 108.206V104.206H180V108.206V112.206H225.611V108.206ZM180 108.206L183.532 110.084C186.881 103.785 192.339 96.7633 197.097 91.1967C201.816 85.6776 205.662 81.8012 205.646 81.8174L202.807 79L199.967 76.1826C199.906 76.2448 195.91 80.2745 191.017 85.9983C186.164 91.6748 180.241 99.2333 176.468 106.328L180 108.206Z" fill="#4A483F" mask="url(#path-32-inside-7_349_234)"/>
<path d="M202 88C206.272 92.4464 216.277 103.361 220.739 112.474C224.701 120.564 227.205 133.176 228.21 138.982H228.714V192H202V88Z" fill="#FDFCF5"/>
<rect x="160.557" y="201.476" width="83.6189" height="17.9047" rx="8" fill="#FFDE00" stroke="#4A483F" stroke-width="4"/>
<path d="M202.364 124.809C211.341 124.809 218.618 132.086 218.618 141.063C218.618 150.04 211.341 157.317 202.364 157.317C193.387 157.317 186.11 150.04 186.11 141.063C186.11 132.086 193.387 124.809 202.364 124.809Z" fill="#FDFCF5" stroke="#4A483F" stroke-width="4"/>
<circle cx="203.5" cy="140.5" r="12.5" fill="#FF8C00"/>
<path d="M204.189 232.333C213.047 232.333 221.203 235.339 227.694 240.385C231.875 237.614 236.994 235.984 242.522 235.984C256.636 235.984 268.078 246.608 268.078 259.714C268.078 272.82 256.636 283.445 242.522 283.445C241.796 283.445 241.077 283.414 240.367 283.359C235.128 298.291 220.911 309 204.189 309C191.098 309 179.54 302.436 172.625 292.421C169.96 293.696 167.062 294.397 164.032 294.397C150.926 294.396 140.302 281.321 140.302 265.191C140.302 249.061 150.926 235.984 164.032 235.984C169.521 235.984 174.575 238.279 178.595 242.13C185.382 236.039 194.352 232.333 204.189 232.333Z" fill="#F4F2E9"/>
<path d="M164.032 235.984C168.206 235.984 172.128 237.312 175.536 239.641C175.352 239.638 175.168 239.635 174.983 239.635C159.861 239.635 147.602 251.076 147.602 265.19C147.602 279.28 159.819 290.706 174.905 290.745C171.639 292.3 166.67 294.397 164.032 294.397C150.926 294.397 140.302 281.32 140.302 265.19C140.302 249.06 150.926 235.984 164.032 235.984Z" fill="#4A483F"/>
<path d="M170.065 253.187C169.701 255.308 169.509 257.489 169.509 259.714C169.509 280.885 186.672 298.048 207.842 298.048C222.717 298.048 235.613 289.575 241.967 277.192C238.869 295.254 223.136 309 204.19 309C183.019 309 165.856 291.838 165.856 270.667C165.856 264.37 167.375 258.428 170.065 253.187Z" fill="#4A483F"/>
<path d="M242.522 235.984C256.636 235.984 268.078 246.609 268.078 259.715C268.078 272.82 256.636 283.444 242.522 283.444C228.409 283.444 216.967 272.82 216.967 259.715C216.967 258.842 217.018 257.981 217.117 257.133C217.559 257.136 218.018 257.137 218.495 257.137C238.574 291.82 267.782 275.392 258.653 253.487C256.828 248.011 245.384 238.884 231.271 238.884C230.929 238.884 230.589 238.889 230.251 238.894C233.893 237.039 238.075 235.984 242.522 235.984Z" fill="#4A483F"/>
<rect x="180" y="203" width="59" height="10" rx="5" fill="#FDFCF5"/>
<line x1="183" y1="106" x2="221" y2="106" stroke="#4A483F" stroke-width="4"/>
</g>
<defs>
<filter id="filter0_d_349_234" x="60" y="28" width="292" height="243" filterUnits="userSpaceOnUse" color-interpolation-filters="sRGB">
<feFlood flood-opacity="0" result="BackgroundImageFix"/>
<feColorMatrix in="SourceAlpha" type="matrix" values="0 0 0 0 0 0 0 0 0 0 0 0 0 0 0 0 0 0 127 0" result="hardAlpha"/>
<feOffset dy="4"/>
<feGaussianBlur stdDeviation="2"/>
<feComposite in2="hardAlpha" operator="out"/>
<feColorMatrix type="matrix" values="0 0 0 0 0 0 0 0 0 0 0 0 0 0 0 0 0 0 0.25 0"/>
<feBlend mode="normal" in2="BackgroundImageFix" result="effect1_dropShadow_349_234"/>
<feBlend mode="normal" in="SourceGraphic" in2="effect1_dropShadow_349_234" result="shape"/>
</filter>
<clipPath id="clip0_349_234">
<rect width="460" height="460" fill="white"/>
</clipPath>
</defs>
</svg>
