<svg width="460" height="441" viewBox="0 0 460 441" fill="none" xmlns="http://www.w3.org/2000/svg">
<g clip-path="url(#clip0_343_239)">
<path d="M117.037 356.536C117.401 355.948 118.044 355.591 118.736 355.591H289.29C289.995 355.591 290.648 355.962 291.009 356.568L316.62 399.644C317.413 400.978 316.452 402.667 314.901 402.667H92.0114C90.4435 402.667 89.4854 400.945 90.312 399.612L117.037 356.536Z" fill="#E5E2D5"/>
<rect x="36.0894" y="106.76" width="356.561" height="228.655" rx="2" fill="#E5E2D5"/>
<path d="M233.643 308.825L239.55 353.936H163.8L171.855 308.825H233.643Z" fill="#B2AD99" stroke="#4A483F" stroke-width="6"/>
<path d="M287.505 346.485L311.927 387.562H92.5923L118.077 346.485H287.505Z" fill="#7A5FFF" stroke="#4A483F" stroke-width="6"/>
<mask id="path-5-inside-1_343_239" fill="white">
<rect x="23.9199" y="96" width="356.561" height="228.655" rx="2"/>
</mask>
<rect x="23.9199" y="96" width="356.561" height="228.655" rx="2" fill="#00FFD1" stroke="#4A483F" stroke-width="12" mask="url(#path-5-inside-1_343_239)"/>
<rect x="59.2104" y="104.07" width="313.968" height="161.404" fill="#FDFCF5"/>
<path d="M285.066 253L281.272 241.617L280.925 240.576L279.86 240.31C275.685 239.266 272.761 238.27 269.859 236.336L268.935 235.72L267.923 236.18L257.404 240.962L243.609 229.006L249.289 217.645L249.808 216.606L249.164 215.641C247.235 212.746 246.288 208.915 245.147 205.492L244.831 204.544L243.883 204.228L232.5 200.434V182.067L243.883 178.272L244.924 177.925L245.19 176.86C246.234 172.685 247.23 169.761 249.164 166.859L249.808 165.894L249.289 164.855L243.559 153.395L256.395 140.559L267.855 146.289L268.894 146.808L269.859 146.164C272.754 144.235 276.585 143.288 280.008 142.147L280.956 141.831L281.272 140.883L285.066 129.5H303.283L306.113 141.763L306.389 142.956L307.577 143.253L309.087 143.644C312.483 144.56 315.039 145.534 317.578 147.227L318.544 147.87L319.582 147.352L331.043 141.621L343.919 154.497L339.18 164.923L338.72 165.935L339.336 166.859C341.265 169.754 342.212 173.585 343.353 177.008L343.669 177.956L344.617 178.272L356 182.067V200.284L343.737 203.113L342.544 203.389L342.247 204.577C341.203 208.753 340.208 211.677 338.273 214.578L337.63 215.544L338.148 216.582L343.879 228.043L331.004 240.919L320.577 236.18L319.565 235.72L318.641 236.336C315.746 238.265 311.915 239.212 308.492 240.353L307.544 240.669L307.228 241.617L303.434 253H285.066ZM294.25 225.125C313.417 225.125 328.125 210.417 328.125 191.25C328.125 172.083 313.417 157.375 294.25 157.375C275.083 157.375 260.375 172.083 260.375 191.25C260.375 210.417 275.083 225.125 294.25 225.125Z" fill="#FF007A" stroke="#4A483F" stroke-width="4"/>
<path d="M294.25 205.188C286.557 205.188 280.312 198.943 280.312 191.25C280.312 183.557 286.557 177.312 294.25 177.312C301.943 177.312 308.188 183.557 308.188 191.25C308.188 198.943 301.943 205.188 294.25 205.188Z" fill="#FF007A" stroke="#4A483F" stroke-width="4"/>
<mask id="path-9-inside-2_343_239" fill="white">
<path d="M31.2217 280.269H373.179V316.585H31.2217V280.269Z"/>
</mask>
<path d="M31.2217 280.269H373.179V316.585H31.2217V280.269Z" fill="#7A5FFF"/>
<path d="M31.2217 280.269V286.269H373.179V280.269V274.269H31.2217V280.269Z" fill="#4A483F" mask="url(#path-9-inside-2_343_239)"/>
<rect x="369" y="255" width="101" height="149" rx="2" fill="#E5E2D5"/>
<mask id="path-12-inside-3_343_239" fill="white">
<rect x="358" y="247" width="101" height="149" rx="2"/>
</mask>
<rect x="358" y="247" width="101" height="149" rx="2" fill="#00FFD1" stroke="#4A483F" stroke-width="12" mask="url(#path-12-inside-3_343_239)"/>
<rect x="377" y="253" width="76" height="93" fill="#FDFCF5"/>
<path d="M394.8 324.039C394.187 323.399 393.4 322.586 392.44 321.599C391.507 320.586 390.467 319.479 389.32 318.279C388.173 317.053 386.987 315.813 385.76 314.559C384.533 313.306 383.307 312.106 382.08 310.959C380.88 309.813 379.76 308.826 378.72 307.999C379.52 307.146 380.453 306.133 381.52 304.959C382.613 303.759 383.747 302.479 384.92 301.119C386.093 299.759 387.24 298.413 388.36 297.079C389.507 295.746 390.533 294.493 391.44 293.319C392.373 292.119 393.107 291.106 393.64 290.279L399.4 294.439C398.867 295.213 398.213 296.093 397.44 297.079C396.667 298.066 395.84 299.106 394.96 300.199C394.08 301.266 393.2 302.306 392.32 303.319C391.44 304.333 390.627 305.253 389.88 306.079C389.16 306.906 388.56 307.559 388.08 308.039C390.587 310.466 392.6 312.413 394.12 313.879C395.64 315.319 396.787 316.413 397.56 317.159C398.36 317.879 398.893 318.373 399.16 318.639C399.427 318.879 399.547 318.986 399.52 318.959C399.493 318.933 399.44 318.893 399.36 318.839C399.307 318.786 399.28 318.786 399.28 318.839C399.28 318.866 399.413 319.026 399.68 319.319L394.8 324.039ZM406.373 327.519L402.453 326.399C402.96 324.426 403.52 322.253 404.133 319.879C404.746 317.506 405.386 315.053 406.053 312.519C406.746 309.986 407.426 307.493 408.093 305.039C408.786 302.559 409.44 300.226 410.053 298.039C410.666 295.826 411.226 293.866 411.733 292.159C412.24 290.426 412.653 289.053 412.973 288.039L416.973 289.239C416.546 290.466 416.053 292.026 415.493 293.919C414.933 295.813 414.32 297.906 413.653 300.199C413.013 302.493 412.346 304.879 411.653 307.359C410.986 309.839 410.32 312.306 409.653 314.759C409.013 317.213 408.413 319.533 407.853 321.719C407.293 323.906 406.8 325.839 406.373 327.519ZM424.239 323.959L418.879 319.399C419.599 318.439 420.412 317.399 421.319 316.279C422.252 315.159 423.199 314.039 424.159 312.919C425.146 311.799 426.079 310.759 426.959 309.799C427.839 308.839 428.586 308.039 429.199 307.399C428.612 306.786 427.906 306.013 427.079 305.079C426.279 304.119 425.426 303.119 424.519 302.079C423.639 301.013 422.786 299.973 421.959 298.959C421.132 297.946 420.426 297.053 419.839 296.279C419.252 295.479 418.866 294.879 418.679 294.479L424.479 290.479C425.466 291.759 426.559 293.146 427.759 294.639C428.986 296.133 430.239 297.653 431.519 299.199C432.799 300.719 434.066 302.213 435.319 303.679C436.572 305.119 437.732 306.439 438.799 307.639C437.146 309.106 435.479 310.786 433.799 312.679C432.119 314.546 430.479 316.466 428.879 318.439C427.279 320.413 425.732 322.253 424.239 323.959Z" fill="#FF8C00"/>
<mask id="path-15-inside-4_343_239" fill="white">
<path d="M364 353H453V390H364V353Z"/>
</mask>
<path d="M364 353H453V390H364V353Z" fill="#7A5FFF"/>
<path d="M364 353V359H453V353V347H364V353Z" fill="#4A483F" mask="url(#path-15-inside-4_343_239)"/>
<circle cx="409" cy="372" r="4" fill="#4A483F"/>
<path d="M67 157H188" stroke="#FF8C00" stroke-width="6" stroke-linecap="round"/>
<path d="M67 174H188" stroke="#FF8C00" stroke-width="6" stroke-linecap="round"/>
<path d="M67 193H188" stroke="#FF8C00" stroke-width="6" stroke-linecap="round"/>
<path d="M154.875 85.6562H183L138 143.312L93 85.6562H120V37H154.875V85.6562Z" fill="#E5E2D5"/>
<mask id="path-22-inside-5_343_239" fill="white">
<path d="M144.875 85.6562H173L128 143.312L83 85.6562H110V37H144.875V85.6562Z"/>
</mask>
<path d="M144.875 85.6562H173L128 143.312L83 85.6562H110V37H144.875V85.6562Z" fill="#FFDE00"/>
<path d="M144.875 85.6562H138.875V91.6562H144.875V85.6562ZM173 85.6562L177.73 89.3479L185.294 79.6562H173V85.6562ZM128 143.312L123.27 147.004L128 153.064L132.73 147.004L128 143.312ZM83 85.6562V79.6562H70.7059L78.2701 89.3479L83 85.6562ZM110 85.6562V91.6562H116V85.6562H110ZM110 37V31H104V37H110ZM144.875 37H150.875V31H144.875V37ZM144.875 85.6562V91.6562H173V85.6562V79.6562H144.875V85.6562ZM173 85.6562L168.27 81.9646L123.27 139.621L128 143.312L132.73 147.004L177.73 89.3479L173 85.6562ZM128 143.312L132.73 139.621L87.7299 81.9646L83 85.6562L78.2701 89.3479L123.27 147.004L128 143.312ZM83 85.6562V91.6562H110V85.6562V79.6562H83V85.6562ZM110 85.6562H116V37H110H104V85.6562H110ZM110 37V43H144.875V37V31H110V37ZM144.875 37H138.875V85.6562H144.875H150.875V37H144.875Z" fill="#4A483F" mask="url(#path-22-inside-5_343_239)"/>
<rect x="68.5" y="223.5" width="118" height="35" rx="8.5" fill="#FFDE00" stroke="#4A483F" stroke-width="3"/>
<path d="M199.5 43.5H350.5" stroke="#FF8C00" stroke-width="6" stroke-linecap="round"/>
<path d="M200 60H351" stroke="#FF8C00" stroke-width="6" stroke-linecap="round"/>
<path d="M200 79H351" stroke="#FF8C00" stroke-width="6" stroke-linecap="round"/>
</g>
<defs>
<clipPath id="clip0_343_239">
<rect width="460" height="460" fill="white"/>
</clipPath>
</defs>
</svg>
