<svg width="347" height="245" viewBox="0 0 347 245" fill="none" xmlns="http://www.w3.org/2000/svg">
<path d="M45.4933 228L18.2533 144H42.7333L65.6533 216.72H53.2933L77.4133 144H99.2533L122.053 216.72H110.173L133.813 144H156.493L129.253 228H103.813L84.3733 166.2H91.2133L70.9333 228H45.4933ZM195.247 176.52H234.247V194.28H195.247V176.52ZM196.927 209.64H240.847V228H173.407V144H239.287V162.36H196.927V209.64ZM262.432 228V144H305.392C316.432 144 324.672 146.04 330.112 150.12C335.552 154.12 338.272 159.4 338.272 165.96C338.272 170.28 337.112 174.08 334.792 177.36C332.552 180.56 329.352 183.12 325.192 185.04C321.112 186.88 316.232 187.8 310.552 187.8L312.952 182.04C318.872 182.04 324.032 182.96 328.432 184.8C332.832 186.56 336.232 189.16 338.632 192.6C341.112 195.96 342.352 200.08 342.352 204.96C342.352 212.24 339.392 217.92 333.472 222C327.632 226 319.072 228 307.792 228H262.432ZM285.952 210.84H305.872C309.952 210.84 313.032 210.16 315.112 208.8C317.272 207.36 318.352 205.2 318.352 202.32C318.352 199.44 317.272 197.32 315.112 195.96C313.032 194.52 309.952 193.8 305.872 193.8H284.272V177.36H302.272C306.272 177.36 309.272 176.68 311.272 175.32C313.272 173.96 314.272 171.92 314.272 169.2C314.272 166.48 313.272 164.48 311.272 163.2C309.272 161.84 306.272 161.16 302.272 161.16H285.952V210.84Z" fill="#E5E2D5"/>
<mask id="path-2-outside-1_68_2" maskUnits="userSpaceOnUse" x="-0.666748" y="129" width="340" height="96" fill="black">
<rect fill="white" x="-0.666748" y="129" width="340" height="96"/>
<path d="M35.4933 219L8.25325 135H32.7333L55.6533 207.72H43.2933L67.4133 135H89.2533L112.053 207.72H100.173L123.813 135H146.493L119.253 219H93.8133L74.3733 157.2H81.2133L60.9333 219H35.4933ZM185.247 167.52H224.247V185.28H185.247V167.52ZM186.927 200.64H230.847V219H163.407V135H229.287V153.36H186.927V200.64ZM252.432 219V135H295.392C306.432 135 314.672 137.04 320.112 141.12C325.552 145.12 328.272 150.4 328.272 156.96C328.272 161.28 327.112 165.08 324.792 168.36C322.552 171.56 319.352 174.12 315.192 176.04C311.112 177.88 306.232 178.8 300.552 178.8L302.952 173.04C308.872 173.04 314.032 173.96 318.432 175.8C322.832 177.56 326.232 180.16 328.632 183.6C331.112 186.96 332.352 191.08 332.352 195.96C332.352 203.24 329.392 208.92 323.472 213C317.632 217 309.072 219 297.792 219H252.432ZM275.952 201.84H295.872C299.952 201.84 303.032 201.16 305.112 199.8C307.272 198.36 308.352 196.2 308.352 193.32C308.352 190.44 307.272 188.32 305.112 186.96C303.032 185.52 299.952 184.8 295.872 184.8H274.272V168.36H292.272C296.272 168.36 299.272 167.68 301.272 166.32C303.272 164.96 304.272 162.92 304.272 160.2C304.272 157.48 303.272 155.48 301.272 154.2C299.272 152.84 296.272 152.16 292.272 152.16H275.952V201.84Z"/>
</mask>
<path d="M35.4933 219L8.25325 135H32.7333L55.6533 207.72H43.2933L67.4133 135H89.2533L112.053 207.72H100.173L123.813 135H146.493L119.253 219H93.8133L74.3733 157.2H81.2133L60.9333 219H35.4933ZM185.247 167.52H224.247V185.28H185.247V167.52ZM186.927 200.64H230.847V219H163.407V135H229.287V153.36H186.927V200.64ZM252.432 219V135H295.392C306.432 135 314.672 137.04 320.112 141.12C325.552 145.12 328.272 150.4 328.272 156.96C328.272 161.28 327.112 165.08 324.792 168.36C322.552 171.56 319.352 174.12 315.192 176.04C311.112 177.88 306.232 178.8 300.552 178.8L302.952 173.04C308.872 173.04 314.032 173.96 318.432 175.8C322.832 177.56 326.232 180.16 328.632 183.6C331.112 186.96 332.352 191.08 332.352 195.96C332.352 203.24 329.392 208.92 323.472 213C317.632 217 309.072 219 297.792 219H252.432ZM275.952 201.84H295.872C299.952 201.84 303.032 201.16 305.112 199.8C307.272 198.36 308.352 196.2 308.352 193.32C308.352 190.44 307.272 188.32 305.112 186.96C303.032 185.52 299.952 184.8 295.872 184.8H274.272V168.36H292.272C296.272 168.36 299.272 167.68 301.272 166.32C303.272 164.96 304.272 162.92 304.272 160.2C304.272 157.48 303.272 155.48 301.272 154.2C299.272 152.84 296.272 152.16 292.272 152.16H275.952V201.84Z" fill="#7A5FFF"/>
<path d="M35.4933 219L29.7859 220.851L31.1314 225H35.4933V219ZM8.25325 135V129H-6.10352e-05L2.54585 136.851L8.25325 135ZM32.7333 135L38.4557 133.196L37.1331 129H32.7333V135ZM55.6533 207.72V213.72H63.8353L61.3757 205.916L55.6533 207.72ZM43.2933 207.72L37.5983 205.831L34.9817 213.72H43.2933V207.72ZM67.4133 135V129H63.0819L61.7183 133.111L67.4133 135ZM89.2533 135L94.9785 133.205L93.6601 129H89.2533V135ZM112.053 207.72V213.72H120.222L117.778 205.925L112.053 207.72ZM100.173 207.72L94.4672 205.865L91.9137 213.72H100.173V207.72ZM123.813 135V129H119.455L118.107 133.145L123.813 135ZM146.493 135L152.201 136.851L154.747 129H146.493V135ZM119.253 219V225H123.615L124.961 220.851L119.253 219ZM93.8133 219L88.0897 220.8L89.4108 225H93.8133V219ZM74.3733 157.2V151.2H66.196L68.6497 159L74.3733 157.2ZM81.2133 157.2L86.9141 159.071L89.497 151.2H81.2133V157.2ZM60.9333 219V225H65.2791L66.6341 220.871L60.9333 219ZM35.4933 219L41.2007 217.149L13.9607 133.149L8.25325 135L2.54585 136.851L29.7859 220.851L35.4933 219ZM8.25325 135V141H32.7333V135V129H8.25325V135ZM32.7333 135L27.0108 136.804L49.9308 209.524L55.6533 207.72L61.3757 205.916L38.4557 133.196L32.7333 135ZM55.6533 207.72V201.72H43.2933V207.72V213.72H55.6533V207.72ZM43.2933 207.72L48.9882 209.609L73.1082 136.889L67.4133 135L61.7183 133.111L37.5983 205.831L43.2933 207.72ZM67.4133 135V141H89.2533V135V129H67.4133V135ZM89.2533 135L83.5281 136.795L106.328 209.515L112.053 207.72L117.778 205.925L94.9785 133.205L89.2533 135ZM112.053 207.72V201.72H100.173V207.72V213.72H112.053V207.72ZM100.173 207.72L105.879 209.575L129.519 136.855L123.813 135L118.107 133.145L94.4672 205.865L100.173 207.72ZM123.813 135V141H146.493V135V129H123.813V135ZM146.493 135L140.786 133.149L113.546 217.149L119.253 219L124.961 220.851L152.201 136.851L146.493 135ZM119.253 219V213H93.8133V219V225H119.253V219ZM93.8133 219L99.5368 217.2L80.0968 155.4L74.3733 157.2L68.6497 159L88.0897 220.8L93.8133 219ZM74.3733 157.2V163.2H81.2133V157.2V151.2H74.3733V157.2ZM81.2133 157.2L75.5124 155.329L55.2324 217.129L60.9333 219L66.6341 220.871L86.9141 159.071L81.2133 157.2ZM60.9333 219V213H35.4933V219V225H60.9333V219ZM185.247 167.52V161.52H179.247V167.52H185.247ZM224.247 167.52H230.247V161.52H224.247V167.52ZM224.247 185.28V191.28H230.247V185.28H224.247ZM185.247 185.28H179.247V191.28H185.247V185.28ZM186.927 200.64H180.927V206.64H186.927V200.64ZM230.847 200.64H236.847V194.64H230.847V200.64ZM230.847 219V225H236.847V219H230.847ZM163.407 219H157.407V225H163.407V219ZM163.407 135V129H157.407V135H163.407ZM229.287 135H235.287V129H229.287V135ZM229.287 153.36V159.36H235.287V153.36H229.287ZM186.927 153.36V147.36H180.927V153.36H186.927ZM185.247 167.52V173.52H224.247V167.52V161.52H185.247V167.52ZM224.247 167.52H218.247V185.28H224.247H230.247V167.52H224.247ZM224.247 185.28V179.28H185.247V185.28V191.28H224.247V185.28ZM185.247 185.28H191.247V167.52H185.247H179.247V185.28H185.247ZM186.927 200.64V206.64H230.847V200.64V194.64H186.927V200.64ZM230.847 200.64H224.847V219H230.847H236.847V200.64H230.847ZM230.847 219V213H163.407V219V225H230.847V219ZM163.407 219H169.407V135H163.407H157.407V219H163.407ZM163.407 135V141H229.287V135V129H163.407V135ZM229.287 135H223.287V153.36H229.287H235.287V135H229.287ZM229.287 153.36V147.36H186.927V153.36V159.36H229.287V153.36ZM186.927 153.36H180.927V200.64H186.927H192.927V153.36H186.927ZM252.432 219H246.432V225H252.432V219ZM252.432 135V129H246.432V135H252.432ZM320.112 141.12L316.512 145.92L316.534 145.937L316.557 145.954L320.112 141.12ZM324.792 168.36L319.893 164.895L319.885 164.907L319.876 164.919L324.792 168.36ZM315.192 176.04L317.658 181.51L317.682 181.499L317.706 181.488L315.192 176.04ZM300.552 178.8L295.013 176.492L291.552 184.8H300.552V178.8ZM302.952 173.04V167.04H298.952L297.413 170.732L302.952 173.04ZM318.432 175.8L316.117 181.335L316.16 181.354L316.203 181.371L318.432 175.8ZM328.632 183.6L323.711 187.033L323.757 187.099L323.804 187.163L328.632 183.6ZM323.472 213L326.862 217.95L326.869 217.945L326.877 217.94L323.472 213ZM275.952 201.84H269.952V207.84H275.952V201.84ZM305.112 199.8L308.395 204.822L308.418 204.807L308.44 204.792L305.112 199.8ZM305.112 186.96L301.696 191.893L301.804 191.968L301.915 192.037L305.112 186.96ZM274.272 184.8H268.272V190.8H274.272V184.8ZM274.272 168.36V162.36H268.272V168.36H274.272ZM301.272 166.32L304.646 171.282V171.282L301.272 166.32ZM301.272 154.2L297.898 159.162L297.967 159.209L298.037 159.254L301.272 154.2ZM275.952 152.16V146.16H269.952V152.16H275.952ZM252.432 219H258.432V135H252.432H246.432V219H252.432ZM252.432 135V141H295.392V135V129H252.432V135ZM295.392 135V141C305.878 141 312.58 142.971 316.512 145.92L320.112 141.12L323.712 136.32C316.764 131.109 306.985 129 295.392 129V135ZM320.112 141.12L316.557 145.954C320.513 148.862 322.272 152.374 322.272 156.96H328.272H334.272C334.272 148.426 330.591 141.378 323.666 136.286L320.112 141.12ZM328.272 156.96H322.272C322.272 160.138 321.442 162.706 319.893 164.895L324.792 168.36L329.69 171.825C332.782 167.454 334.272 162.422 334.272 156.96H328.272ZM324.792 168.36L319.876 164.919C318.343 167.109 316.042 169.039 312.677 170.592L315.192 176.04L317.706 181.488C322.662 179.201 326.76 176.011 329.707 171.801L324.792 168.36ZM315.192 176.04L312.725 170.57C309.599 171.98 305.602 172.8 300.552 172.8V178.8V184.8C306.861 184.8 312.624 183.78 317.658 181.51L315.192 176.04ZM300.552 178.8L306.09 181.108L308.49 175.348L302.952 173.04L297.413 170.732L295.013 176.492L300.552 178.8ZM302.952 173.04V179.04C308.263 179.04 312.604 179.866 316.117 181.335L318.432 175.8L320.747 170.265C315.459 168.054 309.481 167.04 302.952 167.04V173.04ZM318.432 175.8L316.203 181.371C319.662 182.754 322.065 184.674 323.711 187.033L328.632 183.6L333.552 180.167C330.398 175.646 326.001 172.366 320.66 170.229L318.432 175.8ZM328.632 183.6L323.804 187.163C325.4 189.325 326.352 192.139 326.352 195.96H332.352H338.352C338.352 190.021 336.824 184.595 333.459 180.037L328.632 183.6ZM332.352 195.96H326.352C326.352 201.296 324.338 205.116 320.067 208.06L323.472 213L326.877 217.94C334.446 212.724 338.352 205.184 338.352 195.96H332.352ZM323.472 213L320.081 208.05C315.672 211.07 308.521 213 297.792 213V219V225C309.622 225 319.591 222.93 326.862 217.95L323.472 213ZM297.792 219V213H252.432V219V225H297.792V219ZM275.952 201.84V207.84H295.872V201.84V195.84H275.952V201.84ZM295.872 201.84V207.84C300.442 207.84 304.896 207.11 308.395 204.822L305.112 199.8L301.828 194.778C301.167 195.21 299.461 195.84 295.872 195.84V201.84ZM305.112 199.8L308.44 204.792C312.473 202.103 314.352 197.948 314.352 193.32H308.352H302.352C302.352 194.006 302.226 194.316 302.175 194.417C302.137 194.493 302.062 194.622 301.784 194.808L305.112 199.8ZM308.352 193.32H314.352C314.352 188.691 312.463 184.498 308.309 181.883L305.112 186.96L301.915 192.037C302.048 192.121 302.112 192.183 302.138 192.211C302.162 192.237 302.179 192.26 302.195 192.294C302.224 192.35 302.352 192.63 302.352 193.32H308.352ZM305.112 186.96L308.527 182.027C304.999 179.584 300.488 178.8 295.872 178.8V184.8V190.8C299.415 190.8 301.064 191.456 301.696 191.893L305.112 186.96ZM295.872 184.8V178.8H274.272V184.8V190.8H295.872V184.8ZM274.272 184.8H280.272V168.36H274.272H268.272V184.8H274.272ZM274.272 168.36V174.36H292.272V168.36V162.36H274.272V168.36ZM292.272 168.36V174.36C296.764 174.36 301.191 173.63 304.646 171.282L301.272 166.32L297.898 161.358C297.352 161.73 295.779 162.36 292.272 162.36V168.36ZM301.272 166.32L304.646 171.282C308.514 168.651 310.272 164.618 310.272 160.2H304.272H298.272C298.272 160.823 298.159 161.078 298.134 161.129C298.119 161.16 298.105 161.18 298.085 161.203C298.064 161.227 298.01 161.282 297.898 161.358L301.272 166.32ZM304.272 160.2H310.272C310.272 155.784 308.504 151.705 304.506 149.146L301.272 154.2L298.037 159.254C298.084 159.283 298.114 159.306 298.131 159.321C298.148 159.335 298.156 159.343 298.157 159.344C298.158 159.346 298.156 159.344 298.154 159.341C298.152 159.337 298.152 159.337 298.155 159.343C298.158 159.349 298.272 159.573 298.272 160.2H304.272ZM301.272 154.2L304.646 149.238C301.191 146.89 296.764 146.16 292.272 146.16V152.16V158.16C295.779 158.16 297.352 158.79 297.898 159.162L301.272 154.2ZM292.272 152.16V146.16H275.952V152.16V158.16H292.272V152.16ZM275.952 152.16H269.952V201.84H275.952H281.952V152.16H275.952Z" fill="#4A483F" mask="url(#path-2-outside-1_68_2)"/>
<circle cx="170.333" cy="63" r="60" fill="#00FFD1" stroke="#4A483F" stroke-width="6"/>
<ellipse cx="156.833" cy="62" rx="35.5" ry="53" fill="#FDFCF5"/>
<path d="M170.751 120.442C154.771 120.442 140.46 114.002 129.965 103.507C119.47 93.2509 113.03 78.7014 113.03 62.7208C113.03 46.7403 119.47 32.4293 129.965 21.9346C140.46 11.4399 154.771 5 170.751 5C186.732 5 201.281 11.4399 211.537 21.9346C222.032 32.4293 228.472 46.7403 228.472 62.7208C228.472 78.7014 222.032 93.2509 211.537 103.507C201.281 114.002 186.732 120.442 170.751 120.442ZM136.166 97.5442C144.992 106.369 157.156 111.855 170.751 111.855C184.347 111.855 196.511 106.369 205.575 97.5442C214.4 88.4806 219.886 76.3162 219.886 62.7208C219.886 49.1254 214.4 36.9611 205.575 28.136C196.511 19.311 184.347 13.8251 170.751 13.8251C157.156 13.8251 144.992 19.311 136.166 28.136C127.341 36.9611 121.855 49.1254 121.855 62.7208C121.855 76.3162 127.341 88.4806 136.166 97.5442Z" fill="#7A5FFF"/>
<path d="M170.751 120.442C160.018 120.442 150.477 113.763 143.56 102.792C137.359 92.5353 133.304 78.2244 133.304 62.7208C133.304 47.2173 137.359 33.1449 143.56 22.6502C150.477 11.6784 160.018 5 170.751 5C181.484 5 191.264 11.6784 197.942 22.6502C204.382 33.1449 208.198 47.2173 208.198 62.7208C208.198 78.2244 204.382 92.5353 197.942 102.792C191.264 113.763 181.484 120.442 170.751 120.442ZM151.193 98.2597C156.202 106.608 163.357 111.855 170.751 111.855C178.384 111.855 185.301 106.608 190.548 98.2597C196.034 89.1961 199.612 76.7933 199.612 62.7208C199.612 48.8869 196.034 36.2456 190.548 27.4205C185.301 18.8339 178.384 13.8251 170.751 13.8251C163.357 13.8251 156.202 18.8339 151.193 27.4205C145.469 36.2456 142.129 48.8869 142.129 62.7208C142.129 76.7933 145.469 89.1961 151.193 98.2597Z" fill="#7A5FFF"/>
<path d="M175.283 9.29333V116.148H166.458V9.29333H175.283Z" fill="#7A5FFF"/>
<path d="M224.179 67.2527H117.324V58.4276H224.179V67.2527Z" fill="#7A5FFF"/>
<path d="M214.877 33.3834C209.391 36.7226 202.712 39.3463 195.08 41.2544C187.686 42.924 179.338 43.8781 170.751 43.8781C162.403 43.8781 154.055 42.924 146.661 41.2544C139.029 39.3463 132.112 36.7226 126.626 33.3834L131.158 25.9894C135.928 28.8516 141.891 30.9982 148.569 32.6678C155.486 34.3374 162.88 35.2915 170.751 35.2915C178.622 35.2915 186.255 34.3374 192.933 32.6678C199.85 30.9982 205.813 28.8516 210.345 25.9894L214.877 33.3834Z" fill="#7A5FFF"/>
<path d="M224.616 30.7043C225.252 27.5289 228.314 25.6828 231.336 26.137L231.628 26.1877L231.671 26.1975C234.858 26.9328 237.897 28.1708 240.023 29.7385C242.904 31.3414 244.801 33.7528 245.633 36.4788C247.261 40.9901 246.16 45.8799 243.198 50.7141C240.23 55.5559 235.3 60.518 228.899 65.3489L228.895 65.3518C217.3 74.0477 200.465 82.9362 180.807 90.1282C161.15 97.3198 142.642 101.414 128.156 102.38L128.14 102.381L128.124 102.382C120.038 102.744 113.035 102.089 107.634 100.279C102.229 98.4666 98.238 95.4223 96.594 90.9016L96.5872 90.8821L96.5803 90.8635C95.7927 88.5008 95.5195 85.8349 96.301 82.9104C96.8351 80.2687 98.1378 77.6982 100.124 75.2004C101.835 72.576 105.631 72.0349 108.159 73.8909C110.796 75.5899 111.351 79.3821 109.508 81.9182C108.604 83.2743 108.019 84.4985 107.831 85.6262L107.812 85.7424L107.775 85.8538C107.639 86.2613 107.639 86.6444 107.775 87.052L107.78 87.0657L107.783 87.0793C107.937 87.5691 108.348 88.1153 109.259 88.6545C110.176 89.1975 111.496 89.6674 113.24 90.0217C116.723 90.7297 121.584 90.9151 127.49 90.5608H127.499C140.668 89.8553 158.166 86.0821 176.906 79.2034C195.423 72.319 211.262 64.0331 221.843 56.0383L221.848 56.0354C226.568 52.4955 230.151 49.1856 232.363 46.3782C233.47 44.9729 234.187 43.7516 234.552 42.7395C234.918 41.7266 234.887 41.0558 234.712 40.6194L234.696 40.5784L234.682 40.5364C234.601 40.2936 234.463 40.0576 233.597 39.4016C232.554 38.7862 231.059 38.1454 229.101 37.7102V37.7083C225.843 37.0383 223.996 33.8091 224.616 30.7043Z" fill="#FF007A" stroke="#4A483F" stroke-width="3"/>
</svg>
