<svg width="378" height="342" viewBox="0 0 378 342" fill="none" xmlns="http://www.w3.org/2000/svg">
<path d="M92.4042 247.869C92.7771 247.325 93.3942 247 94.0536 247H233.921C234.594 247 235.223 247.339 235.593 247.902L255.964 278.902C256.838 280.232 255.884 282 254.293 282H72.7965C71.1872 282 70.2369 280.196 71.147 278.869L92.4042 247.869Z" fill="#E5E2D5"/>
<rect x="26" y="62" width="293" height="170" rx="2" fill="#E5E2D5"/>
<path d="M187.903 213L192.535 245H131.65L137.966 213H187.903Z" fill="#B2AD99" stroke="#4A483F" stroke-width="6"/>
<path d="M232.382 241L251.439 270H73.6943L93.5801 241H232.382Z" fill="#7A5FFF" stroke="#4A483F" stroke-width="6"/>
<mask id="path-5-inside-1_60_10" fill="white">
<rect x="16" y="54" width="293" height="170" rx="2"/>
</mask>
<rect x="16" y="54" width="293" height="170" rx="2" fill="#00FFD1" stroke="#4A483F" stroke-width="12" mask="url(#path-5-inside-1_60_10)"/>
<rect x="45" y="60" width="258" height="120" fill="#FDFCF5"/>
<g clip-path="url(#clip0_60_10)">
<path d="M171.316 174L169.022 167.117L168.675 166.076L167.61 165.81C164.935 165.141 163.136 164.52 161.359 163.336L160.435 162.72L159.423 163.18L153.029 166.087L144.859 159.006L148.289 152.145L148.808 151.106L148.164 150.141C146.985 148.371 146.413 146.04 145.647 143.742L145.331 142.794L144.383 142.478L137.5 140.184V129.317L144.383 127.022L145.424 126.675L145.69 125.61C146.359 122.935 146.98 121.136 148.164 119.359L148.808 118.394L148.289 117.355L144.809 110.395L152.395 102.809L159.355 106.289L160.394 106.808L161.359 106.164C163.129 104.985 165.46 104.413 167.758 103.647L168.706 103.331L169.022 102.383L171.316 95.5H182.033L183.738 102.888L184.014 104.081L185.202 104.378L186.166 104.628C188.327 105.211 189.899 105.815 191.453 106.852L192.419 107.495L193.457 106.977L200.418 103.496L208.044 111.122L205.18 117.423L204.72 118.435L205.336 119.359C206.515 121.129 207.087 123.46 207.853 125.758L208.169 126.706L209.117 127.022L216 129.317V140.034L208.612 141.738L207.419 142.014L207.122 143.202C206.453 145.878 205.833 147.677 204.648 149.453L204.005 150.419L204.523 151.457L208.004 158.418L200.379 166.044L194.077 163.18L193.065 162.72L192.141 163.336C190.371 164.515 188.04 165.087 185.742 165.853L184.794 166.169L184.478 167.117L182.184 174H171.316ZM176.75 157.375C189.542 157.375 199.375 147.542 199.375 134.75C199.375 121.958 189.542 112.125 176.75 112.125C163.958 112.125 154.125 121.958 154.125 134.75C154.125 147.542 163.958 157.375 176.75 157.375Z" fill="#FF007A" stroke="#4A483F" stroke-width="4"/>
<path d="M176.75 143.062C172.162 143.062 168.438 139.338 168.438 134.75C168.438 130.162 172.162 126.438 176.75 126.438C181.338 126.438 185.062 130.162 185.062 134.75C185.062 139.338 181.338 143.062 176.75 143.062Z" fill="#FF007A" stroke="#4A483F" stroke-width="4"/>
<path d="M125.188 166.688C127.477 166.688 129.463 165.92 130.879 164.504C132.295 163.088 133.062 161.102 133.062 158.812C133.062 156.523 132.295 154.537 130.879 153.121C129.463 151.705 127.477 150.938 125.188 150.938C122.898 150.938 120.912 151.705 119.496 153.121C118.08 154.537 117.312 156.523 117.312 158.812C117.312 161.102 118.08 163.088 119.496 164.504C120.912 165.92 122.898 166.688 125.188 166.688ZM127.625 146.75H128.625C129.117 146.75 129.479 146.865 129.896 147.074C130.121 147.187 130.35 147.32 130.639 147.486C130.92 147.648 131.243 147.833 131.615 148.02L132.26 148.342L134.812 145.789L138.211 149.188L135.461 151.938L136.168 152.645C136.681 153.157 137.25 154.283 137.25 155.375V156.375H141.375V161.25H137.25V162.25C137.25 162.742 137.135 163.104 136.926 163.521C136.813 163.746 136.68 163.975 136.514 164.264C136.352 164.545 136.167 164.868 135.98 165.24L135.658 165.885L138.211 168.438L134.812 171.836L132.062 169.086L131.355 169.793C130.843 170.306 129.717 170.875 128.625 170.875H127.625V175H122.75V170.875H121.75C121.258 170.875 120.896 170.76 120.479 170.551C120.254 170.438 120.025 170.305 119.736 170.139C119.455 169.977 119.132 169.792 118.76 169.605L118.115 169.283L115.562 171.836L112.164 168.438L114.914 165.688L114.207 164.98C113.694 164.468 113.125 163.342 113.125 162.25V161.25H109V156.375H113.125V155.375C113.125 154.883 113.24 154.521 113.449 154.104C113.562 153.879 113.695 153.65 113.861 153.361C114.023 153.08 114.208 152.757 114.395 152.385L114.717 151.74L112.164 149.188L115.562 145.789L118.312 148.539L119.02 147.832C119.532 147.319 120.658 146.75 121.75 146.75H122.75V142.625H127.625V146.75Z" fill="#FF8C00" stroke="#4A483F" stroke-width="2"/>
<path d="M129.706 112.625L128.673 109.525L128.436 108.814L127.725 108.577C125.648 107.885 123.768 107.251 121.895 106.002L120.981 105.394L120.125 106.079L117.736 107.99L114.638 104.892L116.217 101.733L116.605 100.955L116.123 100.23C114.874 98.3571 114.24 96.4772 113.548 94.4004L113.311 93.6895L112.6 93.4521L109.5 92.4189V87.7061L112.6 86.6729L113.311 86.4355L113.548 85.7246C114.24 83.6478 114.874 81.7679 116.123 79.8945L116.731 78.9814L116.046 78.125L114.136 75.7363L117.233 72.6377L120.392 74.2168L121.17 74.6055L121.895 74.123C123.768 72.8741 125.648 72.2401 127.725 71.5479L128.436 71.3105L128.673 70.5996L129.706 67.5H134.271L134.717 69.7314L134.888 70.585L135.713 70.8604L136.483 71.1191C138.26 71.7213 139.904 72.3428 141.543 73.4355L142.268 73.918L143.046 73.5293L146.204 71.9502L149.487 75.2334L147.908 78.3916L147.52 79.1699L148.002 79.8945C149.251 81.7679 149.885 83.6478 150.577 85.7246L150.814 86.4355L151.525 86.6729L154.625 87.7061V92.2705L152.394 92.7168L151.54 92.8877L151.265 93.7129C150.572 95.7897 149.938 97.6696 148.689 99.543L148.207 100.268L148.596 101.046L150.175 104.204L146.892 107.487L143.733 105.908L142.955 105.52L142.23 106.002C140.357 107.251 138.477 107.885 136.4 108.577L135.689 108.814L135.452 109.525L134.419 112.625H129.706ZM132.062 101.875C138.391 101.875 143.875 96.3909 143.875 90.0625C143.875 83.7341 138.391 78.25 132.062 78.25C125.734 78.25 120.25 83.7341 120.25 90.0625C120.25 96.3909 125.734 101.875 132.062 101.875Z" fill="#FFDE00" stroke="#4A483F" stroke-width="3"/>
</g>
<mask id="path-11-inside-2_60_10" fill="white">
<path d="M22 191H303V218H22V191Z"/>
</mask>
<path d="M22 191H303V218H22V191Z" fill="#7A5FFF"/>
<path d="M22 191V197H303V191V185H22V191Z" fill="#4A483F" mask="url(#path-11-inside-2_60_10)"/>
<rect x="272" y="143" width="101" height="149" rx="2" fill="#E5E2D5"/>
<mask id="path-14-inside-3_60_10" fill="white">
<rect x="261" y="135" width="101" height="149" rx="2"/>
</mask>
<rect x="261" y="135" width="101" height="149" rx="2" fill="#00FFD1" stroke="#4A483F" stroke-width="12" mask="url(#path-14-inside-3_60_10)"/>
<rect x="280" y="141" width="76" height="93" fill="#FDFCF5"/>
<path d="M297.76 215.32C297.147 214.68 296.36 213.867 295.4 212.88C294.467 211.867 293.427 210.76 292.28 209.56C291.133 208.333 289.947 207.093 288.72 205.84C287.493 204.587 286.267 203.387 285.04 202.24C283.84 201.093 282.72 200.107 281.68 199.28C282.48 198.427 283.413 197.413 284.48 196.24C285.573 195.04 286.707 193.76 287.88 192.4C289.053 191.04 290.2 189.693 291.32 188.36C292.467 187.027 293.493 185.773 294.4 184.6C295.333 183.4 296.067 182.387 296.6 181.56L302.36 185.72C301.827 186.493 301.173 187.373 300.4 188.36C299.627 189.347 298.8 190.387 297.92 191.48C297.04 192.547 296.16 193.587 295.28 194.6C294.4 195.613 293.587 196.533 292.84 197.36C292.12 198.187 291.52 198.84 291.04 199.32C293.547 201.747 295.56 203.693 297.08 205.16C298.6 206.6 299.747 207.693 300.52 208.44C301.32 209.16 301.853 209.653 302.12 209.92C302.387 210.16 302.507 210.267 302.48 210.24C302.453 210.213 302.4 210.173 302.32 210.12C302.267 210.067 302.24 210.067 302.24 210.12C302.24 210.147 302.373 210.307 302.64 210.6L297.76 215.32ZM309.333 218.8L305.413 217.68C305.92 215.707 306.48 213.533 307.093 211.16C307.706 208.787 308.346 206.333 309.013 203.8C309.706 201.267 310.386 198.773 311.053 196.32C311.746 193.84 312.4 191.507 313.013 189.32C313.626 187.107 314.186 185.147 314.693 183.44C315.2 181.707 315.613 180.333 315.933 179.32L319.933 180.52C319.506 181.747 319.013 183.307 318.453 185.2C317.893 187.093 317.28 189.187 316.613 191.48C315.973 193.773 315.306 196.16 314.613 198.64C313.946 201.12 313.28 203.587 312.613 206.04C311.973 208.493 311.373 210.813 310.813 213C310.253 215.187 309.76 217.12 309.333 218.8ZM327.199 215.24L321.839 210.68C322.559 209.72 323.372 208.68 324.279 207.56C325.212 206.44 326.159 205.32 327.119 204.2C328.106 203.08 329.039 202.04 329.919 201.08C330.799 200.12 331.546 199.32 332.159 198.68C331.572 198.067 330.866 197.293 330.039 196.36C329.239 195.4 328.386 194.4 327.479 193.36C326.599 192.293 325.746 191.253 324.919 190.24C324.092 189.227 323.386 188.333 322.799 187.56C322.212 186.76 321.826 186.16 321.639 185.76L327.439 181.76C328.426 183.04 329.519 184.427 330.719 185.92C331.946 187.413 333.199 188.933 334.479 190.48C335.759 192 337.026 193.493 338.279 194.96C339.532 196.4 340.692 197.72 341.759 198.92C340.106 200.387 338.439 202.067 336.759 203.96C335.079 205.827 333.439 207.747 331.839 209.72C330.239 211.693 328.692 213.533 327.199 215.24Z" fill="#FF8C00"/>
<mask id="path-17-inside-4_60_10" fill="white">
<path d="M267 241H356V278H267V241Z"/>
</mask>
<path d="M267 241H356V278H267V241Z" fill="#7A5FFF"/>
<path d="M267 241V247H356V241V235H267V241Z" fill="#4A483F" mask="url(#path-17-inside-4_60_10)"/>
<circle cx="312" cy="260" r="4" fill="#4A483F"/>
<defs>
<clipPath id="clip0_60_10">
<rect width="110" height="110" fill="white" transform="matrix(-1 0 0 -1 218 176)"/>
</clipPath>
</defs>
</svg>
