<svg width="354" height="354" viewBox="0 0 354 354" fill="none" xmlns="http://www.w3.org/2000/svg">
<path d="M275.145 173.819H85.0498V319.692H275.145V173.819Z" fill="#E5E2D5"/>
<path d="M296.862 172.879C296.917 172.271 296.835 171.641 296.599 171.054L268.355 100.081C267.754 98.5737 266.295 97.585 264.67 97.585H86.8752C85.2504 97.585 83.7915 98.5737 83.19 100.081L54.946 171.054C54.9115 171.151 54.8838 171.247 54.8492 171.344C54.2823 172.029 53.9435 172.907 53.9435 173.868C53.9435 198.33 68.145 209.475 81.3301 209.475C91.8187 209.475 100.24 203.28 104.852 193.193C109.463 203.287 117.892 209.475 128.373 209.475C138.834 209.475 147.249 203.308 151.867 193.255C156.977 204.297 166.435 209.475 175.424 209.475C185.912 209.475 194.334 203.28 198.945 193.193C203.557 203.287 211.985 209.475 222.467 209.475C232.976 209.475 241.418 203.253 246.023 193.117C250.628 203.253 259.07 209.475 269.586 209.475C282.778 209.475 296.973 198.337 296.973 173.868C296.994 173.522 296.945 173.197 296.862 172.879Z" fill="#E5E2D5"/>
<path d="M263.246 173.819H73.1508V319.692H263.246V173.819Z" fill="#FDFCF5"/>
<path d="M263.246 173.819H73.1508V319.692H263.246V173.819Z" stroke="#34374F" stroke-width="6" stroke-miterlimit="10" stroke-linecap="round" stroke-linejoin="round"/>
<path d="M97.4882 173.868C97.4882 193.704 86.9996 205.507 74.0634 205.507C61.1272 205.507 50.6385 193.704 50.6385 173.868" fill="#7A5FFF"/>
<path d="M191.589 173.868C191.589 193.704 181.1 205.507 168.164 205.507C155.228 205.507 144.739 193.704 144.739 173.868" fill="#7A5FFF"/>
<path d="M285.758 173.868C285.758 193.704 275.27 205.507 262.333 205.507C249.397 205.507 238.908 193.704 238.908 173.868" fill="#7A5FFF"/>
<path d="M97.4882 173.868C97.4882 193.704 86.9997 205.507 74.0634 205.507C61.1272 205.507 50.6385 193.704 50.6385 173.868" stroke="#4A483F" stroke-width="6" stroke-miterlimit="10" stroke-linecap="round" stroke-linejoin="round"/>
<path d="M97.6887 173.868C97.6887 193.704 108.177 205.507 121.114 205.507C134.05 205.507 144.538 193.704 144.538 173.868" stroke="#4A483F" stroke-width="6" stroke-miterlimit="10" stroke-linecap="round" stroke-linejoin="round"/>
<path d="M191.589 173.868C191.589 193.704 181.1 205.507 168.164 205.507C155.228 205.507 144.739 193.704 144.739 173.868" stroke="#4A483F" stroke-width="6" stroke-miterlimit="10" stroke-linecap="round" stroke-linejoin="round"/>
<path d="M238.639 173.868C238.639 193.704 228.15 205.507 215.214 205.507C202.278 205.507 191.789 193.704 191.789 173.868" stroke="#4A483F" stroke-width="6" stroke-miterlimit="10" stroke-linecap="round" stroke-linejoin="round"/>
<path d="M285.758 173.868C285.758 193.704 275.27 205.507 262.333 205.507C249.397 205.507 238.908 193.704 238.908 173.868" stroke="#4A483F" stroke-width="6" stroke-miterlimit="10" stroke-linecap="round" stroke-linejoin="round"/>
<path d="M257.404 101.547H210.934H186.071H79.6084L51.3645 172.52H188.685H285.648L257.404 101.547Z" fill="#FDFCF5"/>
<path d="M257.597 100.102L79.6084 101.547L51.3645 172.52L68.0758 172.319L91.0374 114.296L263.025 113.874L257.597 100.102Z" fill="#00FFD1"/>
<path d="M257.404 101.547H210.934H186.071H79.6084L51.3645 172.52H188.685H285.648L257.404 101.547Z" stroke="#4A483F" stroke-width="6" stroke-miterlimit="10" stroke-linecap="round" stroke-linejoin="round"/>
<path d="M107.749 124.418L97.827 172.52" stroke="#4A483F" stroke-width="6" stroke-miterlimit="10" stroke-linecap="round" stroke-linejoin="round"/>
<path d="M150.291 102.819L144.075 172.52" stroke="#4A483F" stroke-width="6" stroke-miterlimit="10" stroke-linecap="round" stroke-linejoin="round"/>
<path d="M223.587 102.819L237.982 172.52" stroke="#4A483F" stroke-width="6" stroke-miterlimit="10" stroke-linecap="round" stroke-linejoin="round"/>
<path d="M185.525 102.819L190.925 157.004" stroke="#4A483F" stroke-width="6" stroke-miterlimit="10" stroke-linecap="round" stroke-linejoin="round"/>
<path d="M148.498 228.83V319.303H93.7845V228.83H148.498Z" fill="#00FFD1" stroke="#4A483F"/>
<path d="M148.998 228.33H93.2845V319.803H148.998V228.33Z" stroke="#4A483F" stroke-width="6" stroke-miterlimit="10" stroke-linecap="round" stroke-linejoin="round"/>
<path d="M136.421 271.524C138.593 271.524 140.354 273.285 140.354 275.456C140.354 277.627 138.593 279.389 136.421 279.389C134.25 279.388 132.49 277.627 132.49 275.456C132.49 273.285 134.25 271.524 136.421 271.524Z" fill="#4A483F" stroke="#4A483F"/>
<path d="M293.322 288.248L226.546 258.165L218.173 254.397C214.681 252.827 211.003 256.18 212.247 259.803L239.06 337.746C239.067 337.766 239.074 337.78 239.081 337.801C239.793 339.758 242.483 339.993 243.644 338.271L255.149 321.159C256.096 319.748 258.122 319.596 259.27 320.854L280.849 344.514C281.824 345.586 283.49 345.662 284.562 344.687L296.06 334.206C297.131 333.231 297.207 331.564 296.233 330.493L274.709 306.895C273.561 305.637 273.893 303.645 275.38 302.823L293.432 292.873C295.251 291.871 295.258 289.174 293.377 288.282C293.356 288.262 293.336 288.255 293.322 288.248Z" fill="#E5E2D5"/>
<path d="M282.453 286.021L215.677 255.938L201.766 249.674C200.114 248.927 198.814 250.116 199.402 251.831L228.192 335.512C228.793 337.254 230.888 338.229 231.946 337.254L246.141 316.139L271.743 344.21L287.12 330.188L261.58 302.186L283.843 289.92C284.908 288.952 284.127 286.775 282.453 286.021Z" fill="#FF007A"/>
<path d="M284.327 286.021L217.551 255.938L203.64 249.674C201.987 248.927 200.688 250.116 201.275 251.831L230.065 335.512C230.667 337.254 232.762 338.229 233.82 337.254L248.014 316.145L273.617 344.217L288.994 330.195L263.453 302.193L285.717 289.927C286.781 288.952 286.007 286.775 284.327 286.021Z" stroke="#4A483F" stroke-width="6" stroke-miterlimit="10" stroke-linecap="round" stroke-linejoin="round"/>
<path d="M187.496 237.968L174.635 225.371" stroke="#4A483F" stroke-width="6" stroke-miterlimit="10" stroke-linecap="round" stroke-linejoin="round"/>
<path d="M184.799 254.749L168.51 253.891" stroke="#4A483F" stroke-width="6" stroke-miterlimit="10" stroke-linecap="round" stroke-linejoin="round"/>
<path d="M203.094 233.882L206.813 217.993" stroke="#4A483F" stroke-width="6" stroke-miterlimit="10" stroke-linecap="round" stroke-linejoin="round"/>
<path d="M190.821 269.814L184.087 286.083" stroke="#4A483F" stroke-width="6" stroke-miterlimit="10" stroke-linecap="round" stroke-linejoin="round"/>
<path d="M231.22 230.667L216.355 240.105" stroke="#4A483F" stroke-width="6" stroke-miterlimit="10" stroke-linecap="round" stroke-linejoin="round"/>
<path d="M224.873 156.368H238.425C274.288 156.368 303.354 124.1 303.354 84.2962C303.354 44.4919 274.288 12.224 238.425 12.224H221.229C221.229 12.224 256.339 11.1454 271.584 43.2336C286.823 75.3148 290.833 104.997 260.356 139.484C260.356 139.477 239.123 157.219 224.873 156.368Z" fill="#FF8C00"/>
<path d="M219.01 156.368C254.87 156.368 283.94 124.1 283.94 84.2961C283.94 44.4917 254.87 12.2239 219.01 12.2239C183.15 12.2239 154.08 44.4917 154.08 84.2961C154.08 124.1 183.15 156.368 219.01 156.368Z" fill="#FFDE00"/>
<path d="M219.01 156.368C254.87 156.368 283.94 124.1 283.94 84.2961C283.94 44.4917 254.87 12.2239 219.01 12.2239C183.15 12.2239 154.08 44.4917 154.08 84.2961C154.08 124.1 183.15 156.368 219.01 156.368Z" stroke="#4A483F" stroke-width="6" stroke-miterlimit="10" stroke-linecap="round" stroke-linejoin="round"/>
<path d="M219.01 134.14C243.811 134.14 263.917 111.824 263.917 84.2962C263.917 56.7684 243.811 34.4528 219.01 34.4528C194.208 34.4528 174.103 56.7684 174.103 84.2962C174.103 111.824 194.208 134.14 219.01 134.14Z" fill="#FDFCF5"/>
<path d="M184.868 84.2962C184.868 58.8317 202.16 37.7853 224.389 34.8192C222.626 34.5841 220.828 34.4458 219.01 34.4458C194.25 34.4458 174.103 56.8059 174.103 84.2893C174.103 111.773 194.244 134.133 219.01 134.133C220.835 134.133 222.626 133.994 224.389 133.759C202.16 130.807 184.868 109.754 184.868 84.2962Z" fill="#FF8C00"/>
<path d="M219.01 134.14C243.811 134.14 263.917 111.824 263.917 84.2962C263.917 56.7684 243.811 34.4528 219.01 34.4528C194.208 34.4528 174.103 56.7684 174.103 84.2962C174.103 111.824 194.208 134.14 219.01 134.14Z" stroke="#4A483F" stroke-width="6" stroke-miterlimit="10" stroke-linecap="round" stroke-linejoin="round"/>
<path d="M224.873 156.368H238.425C274.288 156.368 303.354 124.1 303.354 84.2962C303.354 44.4919 274.288 12.224 238.425 12.224H221.229" stroke="#4A483F" stroke-width="6" stroke-miterlimit="10" stroke-linecap="round" stroke-linejoin="round"/>
<path d="M268.563 35.1234H283.131" stroke="#4A483F" stroke-width="6" stroke-miterlimit="10" stroke-linecap="round" stroke-linejoin="round"/>
<path d="M281.914 67.0042H299.718" stroke="#4A483F" stroke-width="6" stroke-miterlimit="10" stroke-linecap="round" stroke-linejoin="round"/>
<path d="M283.131 98.8917H301.737" stroke="#4A483F" stroke-width="6" stroke-miterlimit="10" stroke-linecap="round" stroke-linejoin="round"/>
<path d="M269.78 130.772H286.768" stroke="#4A483F" stroke-width="6" stroke-miterlimit="10" stroke-linecap="round" stroke-linejoin="round"/>
<path d="M204.29 93.8515V100.454C204.29 106.407 209.503 111.233 215.933 111.233H221.188C227.618 111.233 232.831 106.407 232.831 100.454V91.4178C232.831 85.4647 227.618 80.6387 221.188 80.6387H215.933C209.503 80.6387 204.29 75.8127 204.29 69.8597V66.0362C204.29 60.0832 209.503 55.2572 215.933 55.2572H221.188C227.618 55.2572 232.831 60.0832 232.831 66.0362" stroke="#B2AD99" stroke-width="8" stroke-miterlimit="10" stroke-linecap="round" stroke-linejoin="round"/>
<path d="M218.56 111.579V120.968" stroke="#B2AD99" stroke-width="8" stroke-miterlimit="10" stroke-linecap="round" stroke-linejoin="round"/>
<path d="M218.56 47.624V54.9184" stroke="#B2AD99" stroke-width="8" stroke-miterlimit="10" stroke-linecap="round" stroke-linejoin="round"/>
</svg>
