<svg width="300" height="300" viewBox="0 0 300 300" fill="none" xmlns="http://www.w3.org/2000/svg">
<rect x="137" y="220" width="43" height="74" rx="5" fill="#E5E2D5"/>
<rect x="50" y="24" width="222" height="231" rx="2" fill="#E5E2D5"/>
<mask id="path-3-inside-1_69_3" fill="white">
<rect x="39" y="12" width="222" height="231" rx="2"/>
</mask>
<rect x="39" y="12" width="222" height="231" rx="2" fill="#00FFD1" stroke="#4A483F" stroke-width="12" mask="url(#path-3-inside-1_69_3)"/>
<rect x="70" y="18" width="185" height="211" fill="#FDFCF5"/>
<mask id="path-5-inside-2_69_3" fill="white">
<path d="M44 18H255V53H44V18Z"/>
</mask>
<path d="M44 18H255V53H44V18Z" fill="#7A5FFF"/>
<path d="M255 53V47H44V53V59H255V53Z" fill="#4A483F" mask="url(#path-5-inside-2_69_3)"/>
<mask id="path-7-inside-3_69_3" fill="white">
<path d="M135 195H165V217H135V195Z"/>
</mask>
<path d="M135 195H165V217H135V195Z" fill="#B2AD99"/>
<path d="M165 195H159V217H165H171V195H165ZM135 217H141V195H135H129V217H135Z" fill="#4A483F" mask="url(#path-7-inside-3_69_3)"/>
<mask id="path-9-inside-4_69_3" fill="white">
<rect x="129" y="214" width="43" height="74" rx="5"/>
</mask>
<rect x="129" y="214" width="43" height="74" rx="5" fill="#FF8C00" stroke="#4A483F" stroke-width="12" mask="url(#path-9-inside-4_69_3)"/>
<circle cx="151" cy="136" r="67" fill="#FFDE00" stroke="#4A483F" stroke-width="6"/>
<circle cx="151.5" cy="136.5" r="50.5" fill="#FDFCF5" stroke="#4A483F" stroke-width="6"/>
<path d="M228.164 121.915L225.162 116.71C223.457 113.755 219.633 112.814 216.751 114.641L145.444 159.849L131.145 136.972C129.381 134.148 125.654 133.302 122.842 135.086L102.532 147.975C101.29 143.767 100.89 139.059 100.989 135.189C101.04 133.2 101.22 131.509 101.453 130.29C101.568 129.692 101.685 129.268 101.779 129.004C102.225 128.646 103.102 127.983 104.329 127.087C105.805 126.009 107.626 124.707 109.403 123.445C111.18 122.185 112.905 120.971 114.187 120.072C114.827 119.623 115.357 119.252 115.726 118.994C115.91 118.865 116.055 118.763 116.153 118.695C116.202 118.661 116.24 118.635 116.266 118.617C116.268 118.615 116.27 118.614 116.272 118.613L134.597 106.669L148.867 129.094C150.639 131.879 154.327 132.709 157.121 130.953L208.824 98.468C211.411 96.8422 212.364 93.5312 211.035 90.7792L207.556 83.5739L243.577 87.532L228.164 121.915Z" fill="#FF007A" stroke="#4A483F" stroke-width="6"/>
<path d="M83.8926 140.607C83.7811 147.515 83.9862 153.391 87.1582 161.193C87.1806 161.249 87.1797 161.301 87.1689 161.336C87.1651 161.349 87.1598 161.355 87.1582 161.357L65.5859 174.79L56.4844 158.483L83.8926 140.607Z" fill="#FF007A" stroke="#4A483F" stroke-width="6"/>
<circle cx="201" cy="33" r="6" fill="#FFDE00"/>
<circle cx="219" cy="33" r="6" fill="#00FFD1"/>
<circle cx="237" cy="33" r="6" fill="#FF007A"/>
</svg>
