<svg width="628" height="95" viewBox="0 0 628 95" fill="none" xmlns="http://www.w3.org/2000/svg">
<path d="M84.7441 0C86.2509 1.46494 87.6701 3.03124 89 4.7002L70.0996 21.7998C66.6997 17.8 62.9495 14.7503 58.8496 12.6504C54.8496 10.5504 50.3495 9.5 45.3496 9.5C41.0498 9.50004 37.0999 10.1997 33.5 11.5996C29.9 12.9996 26.8002 15.05 24.2002 17.75C21.7002 20.35 19.7002 23.5002 18.2002 27.2002C16.8002 30.9002 16.0996 35 16.0996 39.5C16.0996 44 16.8002 48.0998 18.2002 51.7998C19.7002 55.4998 21.7002 58.7004 24.2002 61.4004C26.8001 64.0002 29.9001 66.0004 33.5 67.4004C37.0999 68.8003 41.0498 69.5 45.3496 69.5C50.3495 69.5 54.8496 68.4496 58.8496 66.3496C62.9495 64.2497 66.6997 61.2 70.0996 57.2002L89 74.2998C83.9 80.5998 77.4998 85.5 69.7998 89C62.1998 92.4 53.5495 94.0996 43.8496 94.0996C35.5498 94.0996 27.8499 92.8001 20.75 90.2002C13.75 87.5002 7.65019 83.6998 2.4502 78.7998C1.60281 77.9856 0.786654 77.1472 0 76.2861V2.7168C0.786477 1.85319 1.60302 1.01415 2.4502 0.200195C2.52145 0.133047 2.59344 0.0667163 2.66504 0H84.7441ZM288.305 16.0996C283.305 13.3996 278.354 11.3996 273.454 10.0996C268.554 8.69966 263.804 8 259.204 8C255.104 8.00001 251.805 8.44974 249.305 9.34961C246.805 10.1496 245.004 11.2504 243.904 12.6504C242.804 14.0503 242.254 15.6503 242.254 17.4502C242.254 19.7501 243.304 21.6 245.404 23C247.604 24.3 250.454 25.3998 253.954 26.2998C257.554 27.0998 261.454 27.9496 265.654 28.8496C269.954 29.7496 274.204 30.8998 278.404 32.2998C282.704 33.5998 286.604 35.4002 290.104 37.7002C293.604 39.9001 296.404 42.85 298.504 46.5498C300.704 50.1498 301.805 54.7002 301.805 60.2002C301.805 66.3001 300.055 71.9504 296.555 77.1504C293.155 82.2503 288.004 86.3502 281.104 89.4502C274.305 92.5502 265.705 94.0996 255.305 94.0996C246.705 94.0996 238.404 93.0502 230.404 90.9502C222.504 88.7502 216.055 85.9498 211.055 82.5498L220.805 60.6504C225.505 63.6502 230.904 66.1505 237.004 68.1504C243.204 70.0504 249.354 71 255.454 71C259.554 71 262.854 70.6502 265.354 69.9502C267.854 69.1503 269.654 68.15 270.754 66.9502C271.954 65.6502 272.555 64.1501 272.555 62.4502C272.555 60.0502 271.454 58.15 269.254 56.75C267.054 55.3501 264.204 54.1998 260.704 53.2998C257.204 52.3998 253.304 51.4996 249.004 50.5996C244.804 49.6996 240.554 48.5503 236.254 47.1504C232.054 45.7504 228.204 43.95 224.704 41.75C221.204 39.4501 218.354 36.5002 216.154 32.9004C213.954 29.2004 212.855 24.5501 212.854 18.9502C212.854 12.6502 214.554 6.94961 217.954 1.84961C218.388 1.21762 218.848 0.601275 219.334 0H294.985L288.305 16.0996ZM410.174 0.5C415.374 5.39994 419.423 11.1501 422.323 17.75C425.323 24.35 426.823 31.6 426.823 39.5C426.823 47.4 425.323 54.7004 422.323 61.4004C419.423 68.0002 415.374 73.7505 410.174 78.6504C404.974 83.5503 398.824 87.3498 391.724 90.0498C384.724 92.7498 376.974 94.0996 368.474 94.0996C360.074 94.0996 352.324 92.7498 345.224 90.0498C338.124 87.3498 331.923 83.5504 326.623 78.6504C321.423 73.6504 317.374 67.85 314.474 61.25C311.574 54.65 310.123 47.4 310.123 39.5C310.123 31.6 311.574 24.35 314.474 17.75C317.374 11.1501 321.423 5.39994 326.623 0.5C326.801 0.331948 326.981 0.165454 327.161 0H409.646C409.823 0.165318 409.999 0.332088 410.174 0.5ZM560.726 0C563.193 2.91687 565.346 6.23308 567.182 9.9502C571.182 18.0501 573.182 27.9002 573.182 39.5C573.182 51.0999 571.182 60.9499 567.182 69.0498C563.182 77.1498 557.682 83.3504 550.682 87.6504C543.782 91.9504 535.881 94.0996 526.981 94.0996C517.982 94.0996 509.981 91.9503 502.981 87.6504C496.081 83.3504 490.631 77.1498 486.631 69.0498C482.631 60.9499 480.631 51.0999 480.631 39.5C480.631 27.9002 482.631 18.0501 486.631 9.9502C488.466 6.23322 490.608 2.91679 493.055 0H560.726ZM209.984 92H179.084L170.896 71.5996H126.372L118.185 92H87.8848L128.496 0H169.241L209.984 92ZM627.291 92H597.592V9.9502H578.092V0H627.291V92ZM526.981 9.2002C523.782 9.2002 520.932 10.2003 518.432 12.2002C516.032 14.2002 514.081 17.3999 512.581 21.7998C511.181 26.1998 510.481 32.1 510.481 39.5C510.481 46.8 511.181 52.7002 512.581 57.2002C514.081 61.6001 516.032 64.7998 518.432 66.7998C520.932 68.7997 523.782 69.7998 526.981 69.7998C530.181 69.7998 532.981 68.7997 535.381 66.7998C537.881 64.7998 539.831 61.6001 541.231 57.2002C542.631 52.7002 543.331 46.8 543.331 39.5C543.331 32.1 542.631 26.1998 541.231 21.7998C539.831 17.3999 537.881 14.2002 535.381 12.2002C532.981 10.2003 530.181 9.20024 526.981 9.2002ZM368.474 9.5C364.474 9.5 360.724 10.1997 357.224 11.5996C353.824 12.9996 350.824 15.05 348.224 17.75C345.724 20.35 343.724 23.5002 342.224 27.2002C340.824 30.8002 340.123 34.9 340.123 39.5C340.123 44 340.824 48.0998 342.224 51.7998C343.724 55.4998 345.724 58.7004 348.224 61.4004C350.824 64.0002 353.824 66.0004 357.224 67.4004C360.724 68.8003 364.474 69.5 368.474 69.5C372.473 69.5 376.173 68.8003 379.573 67.4004C383.073 66.0004 386.073 64.0002 388.573 61.4004C391.173 58.7004 393.173 55.4998 394.573 51.7998C396.073 48.0998 396.823 44 396.823 39.5C396.823 34.9 396.073 30.8002 394.573 27.2002C393.173 23.5002 391.173 20.35 388.573 17.75C386.073 15.0501 383.073 12.9996 379.573 11.5996C376.173 10.1997 372.473 9.50002 368.474 9.5ZM135.16 49.7002H162.108L148.634 16.126L135.16 49.7002Z" fill="#FDFCF5"/>
</svg>
