<svg width="681" height="95" viewBox="0 0 681 95" fill="none" xmlns="http://www.w3.org/2000/svg">
<path d="M84.1104 0C85.6171 1.4649 87.0363 3.0313 88.3662 4.7002L69.4658 21.7998C66.0659 17.8 62.3157 14.7503 58.2158 12.6504C54.2159 10.5505 49.7157 9.5 44.7158 9.5C40.4161 9.50007 36.466 10.1997 32.8662 11.5996C29.2664 12.9996 26.1663 15.0501 23.5664 17.75C21.0665 20.35 19.0664 23.5003 17.5664 27.2002C16.1665 30.9001 15.4658 35.0001 15.4658 39.5C15.4658 43.9999 16.1665 48.0999 17.5664 51.7998C19.0664 55.4997 21.0665 58.7004 23.5664 61.4004C26.1663 64.0002 29.2665 66.0004 32.8662 67.4004C36.466 68.8003 40.4161 69.4999 44.7158 69.5C49.7157 69.5 54.2159 68.4495 58.2158 66.3496C62.3157 64.2497 66.0659 61.2 69.4658 57.2002L88.3662 74.2998C83.2662 80.5997 76.866 85.5 69.166 89C61.5661 92.3999 52.9156 94.0996 43.2158 94.0996C34.9161 94.0995 27.216 92.8001 20.1162 90.2002C13.1163 87.5002 7.01634 83.6997 1.81641 78.7998C1.19444 78.2022 0.589243 77.5916 0 76.9688V2.0332C0.589204 1.40891 1.19449 0.797727 1.81641 0.200195C1.88761 0.133096 1.9597 0.0666669 2.03125 0H84.1104ZM286.499 16.0996C281.499 13.3997 276.548 11.3996 271.648 10.0996C266.749 8.69972 261.998 8 257.398 8C253.299 8.00004 249.999 8.44976 247.499 9.34961C244.999 10.1496 243.199 11.2504 242.099 12.6504C240.999 14.0503 240.448 15.6504 240.448 17.4502C240.448 19.75 241.499 21.6001 243.599 23C245.799 24.2999 248.649 25.3998 252.148 26.2998C255.748 27.0998 259.649 27.9496 263.849 28.8496C268.149 29.7496 272.399 30.8999 276.599 32.2998C280.899 33.5998 284.799 35.4003 288.299 37.7002C291.799 39.9001 294.598 42.8501 296.698 46.5498C298.898 50.1498 299.999 54.7002 299.999 60.2002C299.999 66.3001 298.249 71.9504 294.749 77.1504C291.349 82.2503 286.199 86.3502 279.299 89.4502C272.499 92.5501 263.899 94.0996 253.499 94.0996C244.899 94.0996 236.599 93.0502 228.599 90.9502C220.699 88.7502 214.249 85.9497 209.249 82.5498L218.999 60.6504C223.699 63.6502 229.099 66.1505 235.198 68.1504C241.398 70.0503 247.549 70.9999 253.648 71C257.748 71 261.049 70.6501 263.549 69.9502C266.048 69.1503 267.848 68.15 268.948 66.9502C270.148 65.6502 270.749 64.1501 270.749 62.4502C270.749 60.0502 269.648 58.15 267.448 56.75C265.248 55.3501 262.398 54.1997 258.898 53.2998C255.399 52.3998 251.498 51.4996 247.198 50.5996C242.998 49.6996 238.748 48.5503 234.448 47.1504C230.248 45.7504 226.398 43.9499 222.898 41.75C219.399 39.4501 216.549 36.5001 214.349 32.9004C212.149 29.2005 211.049 24.55 211.049 18.9502C211.049 12.6503 212.748 6.94957 216.148 1.84961C216.582 1.21767 217.042 0.601229 217.528 0H293.18L286.499 16.0996ZM408.368 0.5C413.568 5.39991 417.618 11.1502 420.518 17.75C423.518 24.35 425.018 31.6 425.018 39.5C425.018 47.4 423.518 54.7004 420.518 61.4004C417.618 68.0002 413.568 73.7505 408.368 78.6504C403.168 83.5503 397.018 87.3498 389.918 90.0498C382.918 92.7497 375.168 94.0996 366.668 94.0996C358.268 94.0996 350.518 92.7497 343.418 90.0498C336.318 87.3498 330.117 83.5503 324.817 78.6504C319.617 73.6504 315.568 67.8499 312.668 61.25C309.768 54.65 308.317 47.4 308.317 39.5C308.317 31.6 309.768 24.35 312.668 17.75C315.568 11.1502 319.618 5.39991 324.817 0.5C324.995 0.331998 325.175 0.165405 325.355 0H407.841C408.018 0.16527 408.194 0.332137 408.368 0.5ZM558.92 0C561.387 2.91684 563.54 6.23313 565.376 9.9502C569.376 18.0501 571.376 27.9002 571.376 39.5C571.376 51.0999 569.376 60.9499 565.376 69.0498C561.376 77.1497 555.876 83.3504 548.876 87.6504C541.976 91.9503 534.076 94.0996 525.176 94.0996C516.176 94.0996 508.176 91.9502 501.176 87.6504C494.276 83.3504 488.825 77.1497 484.825 69.0498C480.825 60.9499 478.825 51.0998 478.825 39.5C478.825 27.9002 480.825 18.0501 484.825 9.9502C486.661 6.23328 488.803 2.91675 491.249 0H558.92ZM208.179 92H177.278L169.091 71.5996H124.566L116.379 92H86.0791L126.69 0H167.436L208.179 92ZM615.493 48.3496H636.861V30.5H664.911V48.3496H680.511V71.9004H664.911V92H635.961V71.9004H580.461V52.5498L618.221 0H649.238L615.493 48.3496ZM525.176 9.2002C521.976 9.20026 519.126 10.2003 516.626 12.2002C514.226 14.2002 512.275 17.4 510.775 21.7998C509.375 26.1998 508.676 32.1 508.676 39.5C508.676 46.8 509.375 52.7002 510.775 57.2002C512.275 61.6 514.226 64.7998 516.626 66.7998C519.126 68.7997 521.976 69.7997 525.176 69.7998C528.376 69.7998 531.175 68.7996 533.575 66.7998C536.075 64.7998 538.026 61.6001 539.426 57.2002C540.826 52.7002 541.525 46.8 541.525 39.5C541.525 32.1 540.826 26.1998 539.426 21.7998C538.026 17.3999 536.075 14.2002 533.575 12.2002C531.175 10.2004 528.376 9.20024 525.176 9.2002ZM366.668 9.5C362.668 9.50003 358.918 10.1997 355.418 11.5996C352.018 12.9996 349.018 15.0501 346.418 17.75C343.918 20.35 341.918 23.5003 340.418 27.2002C339.018 30.8001 338.317 34.9001 338.317 39.5C338.317 43.9999 339.018 48.0999 340.418 51.7998C341.918 55.4997 343.918 58.7004 346.418 61.4004C349.018 64.0002 352.018 66.0004 355.418 67.4004C358.918 68.8003 362.668 69.5 366.668 69.5C370.668 69.5 374.368 68.8002 377.768 67.4004C381.267 66.0005 384.268 64.0002 386.768 61.4004C389.368 58.7004 391.368 55.4998 392.768 51.7998C394.268 48.0998 395.018 44 395.018 39.5C395.018 34.9 394.268 30.8002 392.768 27.2002C391.368 23.5002 389.368 20.35 386.768 17.75C384.268 15.0501 381.267 12.9996 377.768 11.5996C374.368 10.1998 370.668 9.50002 366.668 9.5ZM133.354 49.7002H160.303L146.828 16.126L133.354 49.7002Z" fill="#FDFCF5"/>
</svg>
